<?xml version="1.0" encoding="UTF-8"?>
<!DOCTYPE svg PUBLIC "-//W3C//DTD SVG 1.1//EN" "http://www.w3.org/Graphics/SVG/1.1/DTD/svg11.dtd">
<!-- Creator: CorelDRAW -->
<svg xmlns="http://www.w3.org/2000/svg" xml:space="preserve" width="512px" height="512px" style="shape-rendering:geometricPrecision; text-rendering:geometricPrecision; image-rendering:optimizeQuality; fill-rule:evenodd; clip-rule:evenodd"
viewBox="0 0 847.666 847.666"
 xmlns:xlink="http://www.w3.org/1999/xlink">
 <defs>
  <style type="text/css">
   <![CDATA[
    .fil2 {fill:white}
    .fil0 {fill:#43AC3E}
    .fil1 {fill:white;fill-rule:nonzero}
   ]]>
  </style>
 </defs>
 <g id="Vrstva_x0020_1">
  <metadata id="CorelCorpID_0Corel-Layer"/>
  <path class="fil0" d="M423.833 0c234.077,0 423.833,189.756 423.833,423.833 0,234.077 -189.756,423.833 -423.833,423.833 -234.077,0 -423.833,-189.756 -423.833,-423.833 0,-234.077 189.756,-423.833 423.833,-423.833z"/>
  <path class="fil1" d="M611.542 191.505c0,0.536713 -0.16889,1.07505 -0.548081,1.52813 -0.364575,0.436029 -0.978426,0.824151 -1.81638,1.09616 -0.829023,0.269575 -1.96416,0.491243 -3.37374,0.663381 -1.38116,0.168078 -3.17156,0.259019 -5.27619,0.259019 -2.19151,0 -4.01114,-0.0885049 -5.44995,-0.259019 -1.43881,-0.169702 -2.54472,-0.389746 -3.37293,-0.663381 -0.81116,-0.267951 -1.39416,-0.660133 -1.75873,-1.09616 -0.379191,-0.45308 -0.548081,-0.98005 -0.548081,-1.52813l0 -44.2013 -78.352 0 0 44.2013c0,0.546457 -0.176198,1.06531 -0.51885,1.52813 -0.319105,0.429533 -0.919152,0.821715 -1.75873,1.09616 -0.831459,0.271198 -1.96172,0.489619 -3.37374,0.663381 -1.38279,0.170514 -3.19998,0.259019 -5.36307,0.259019 -2.13305,0 -3.92182,-0.086881 -5.36307,-0.259019 -1.44044,-0.172138 -2.5707,-0.392182 -3.40216,-0.663381 -0.839579,-0.274446 -1.44856,-0.658509 -1.81638,-1.09616 -0.380815,-0.454704 -0.548081,-0.98005 -0.548081,-1.52813l0 -103.281c0,-0.547269 0.166454,-1.07261 0.548081,-1.52813 0.367011,-0.436841 0.98005,-0.8071 1.81638,-1.09535 0.836331,-0.28825 1.96172,-0.491243 3.40216,-0.663381 1.44125,-0.172138 3.23002,-0.259019 5.36307,-0.259019 2.16309,0 3.98028,0.0885049 5.36307,0.259019 1.41202,0.173762 2.54309,0.39137 3.37374,0.663381 0.840391,0.274446 1.43963,0.665817 1.75873,1.09535 0.342652,0.462824 0.51885,0.982486 0.51885,1.52813l0 40.2226 78.352 0 0 -40.2226c0,-0.547269 0.16889,-1.07505 0.548081,-1.52813 0.364575,-0.435217 0.948383,-0.826587 1.75873,-1.09535 0.828211,-0.273634 1.93412,-0.493679 3.37293,-0.663381 1.43881,-0.170514 3.25844,-0.259019 5.44995,-0.259019 2.10463,0 3.89503,0.0909408 5.27619,0.259019 1.40958,0.172138 2.53741,0.375131 3.37374,0.663381 0.836331,0.28825 1.45181,0.660133 1.81638,1.09535 0.379191,0.45308 0.548081,0.986545 0.548081,1.52813l0 103.281z"/>
  <path class="fil1" d="M441.134 117.432c0,-3.60353 -0.8071,-6.6606 -2.45053,-9.11113 -1.64343,-2.47976 -4.32537,-4.23849 -8.04501,-5.24777 -1.12458,-0.28825 -2.3945,-0.491243 -3.83494,-0.663381 -1.43963,-0.171326 -3.43383,-0.259019 -5.96799,-0.259019l-42.4556 0 0 30.967 43.8107 0c3.17156,0 5.90628,-0.393806 8.2748,-1.153 2.38638,-0.765689 4.35379,-1.81719 5.93957,-3.20079 1.58578,-1.35518 2.76801,-3.02784 3.54669,-4.93029 0.778681,-1.90326 1.18223,-4.03712 1.18223,-6.40158zm28.7178 74.2459c0,0.605731 -0.1153,1.12458 -0.3459,1.55736 -0.2306,0.432781 -0.74945,0.778681 -1.58578,1.06693 -0.86475,0.259831 -2.07621,0.4612 -3.71964,0.5765 -1.64343,0.1153 -3.86336,0.17295 -6.6606,0.17295 -2.36365,0 -4.23849,-0.05765 -5.65132,-0.17295 -1.41283,-0.1153 -2.5366,-0.316669 -3.34451,-0.63415 -0.8071,-0.317481 -1.3836,-0.6918 -1.7295,-1.18223 -0.317481,-0.490431 -0.605731,-1.06693 -0.836331,-1.73031l-9.86139 -24.4793c-1.18223,-2.76801 -2.33523,-5.24777 -3.45981,-7.38163 -1.12458,-2.16228 -2.39288,-3.94943 -3.77729,-5.39149 -1.3836,-1.44206 -2.99699,-2.51792 -4.81499,-3.25844 -1.78309,-0.726714 -3.89584,-1.09535 -6.25705,-1.09535l-39.4277 0 0 41.7792c0,0.544833 -0.18107,1.06287 -0.547269,1.49971 -0.380003,0.454704 -0.978426,0.850946 -1.81719,1.12458 -0.829835,0.270387 -1.96172,0.490431 -3.37293,0.663381 -1.38279,0.169702 -3.20079,0.259019 -5.36307,0.259019 -2.13386,0 -3.92345,-0.0876929 -5.36307,-0.259019 -1.44044,-0.171326 -2.57233,-0.392994 -3.40216,-0.663381 -0.838767,-0.273634 -1.44125,-0.667441 -1.75954,-1.09616 -0.34184,-0.462012 -0.51885,-0.98005 -0.51885,-1.52813l0 -99.3017c0,-2.47976 0.634962,-4.26772 1.90326,-5.36307 1.2683,-1.09535 2.82566,-1.64343 4.67127,-1.64343l60.7931 0c2.85408,0 5.2494,0.0592739 7.09257,0.17295 1.84399,0.113676 3.54669,0.259019 5.07482,0.40355 4.38302,0.63415 8.33326,1.70108 11.8507,3.22921 3.51746,1.49971 6.51607,3.48904 8.96741,5.93957 2.45053,2.45134 4.32456,5.33465 5.62209,8.67916 1.29753,3.34451 1.93168,7.17945 1.93168,11.5332 0,3.63276 -0.4612,6.97808 -1.3836,9.97669 -0.951631,3.02703 -2.30681,5.70897 -4.12319,8.07343 -1.78796,2.36365 -4.00789,4.41144 -6.6606,6.14094 -2.65271,1.75873 -5.68055,3.14314 -9.05348,4.23849 1.64343,0.778681 3.17156,1.73031 4.61281,2.85489 1.44206,1.12458 2.79724,2.50818 4.06554,4.12319 1.26911,1.6142 2.47976,3.43058 3.60434,5.50679 1.12458,2.04698 2.21993,4.38302 3.28686,6.97808l9.25566 21.596c0.836331,2.13386 1.41283,3.69041 1.67266,4.69969 0.28825,0.98005 0.431969,1.75873 0.431969,2.33523z"/>
  <path class="fil1" d="M337.997 94.3081l0 0.0771373 0 0.0763253 0 0.0763253 -0.000811972 0.0755133 0 0.0755133 -0.000811972 0.0747014 -0.000811972 0.0747014 0 0.0738894 -0.000811972 0.0738894 -0.000811972 0.0738894 -0.000811972 0.0730774 -0.00162394 0.0722655 -0.000811972 0.0730774 -0.000811972 0.0714535 -0.00162394 0.0722655 -0.00162394 0.0706415 -0.000811972 0.0714535 -0.000811972 0 -0.000811972 0.0706415 -0.00162394 0.0698295 -0.000811972 0 -0.000811972 0.0698295 -0.000811972 0 -0.00162394 0.0698295 -0.00162394 0.0690176 -0.00243591 0.0690176 -0.00162394 0.0682056 -0.000811972 0 -0.00162394 0.0682056 -0.00243591 0.0682056 -0.00243591 0.0673936 -0.00243591 0.0673936 -0.00243591 0.0665817 -0.000811972 0 -0.00243591 0.0665817 -0.00243591 0.0657697 -0.000811972 0 -0.00243591 0.0657697 -0.00324789 0.0649577 -0.00324789 0.0657697 -0.00324789 0.0641457 -0.00324789 0.0649577 -0.00324789 0.0633338 -0.000811972 0 -0.00324789 0.0641457 -0.00324789 0.0633338 -0.000811972 0 -0.00324789 0.0633338 -0.000811972 0 -0.00324789 0.0625218 -0.00405986 0.0625218 -0.00405986 0.0617098 -0.000811972 0 -0.00324789 0.0617098 -0.000811972 0 -0.00405986 0.0617098 -0.00405986 0.0608979 -0.000811972 0 -0.00405986 0.0608979 -0.000811972 0 -0.00405986 0.0608979 -0.000811972 0 -0.00405986 0.0600859 -0.000811972 0 -0.00405986 0.0592739 -0.000811972 0 -0.00405986 0.0600859 -0.000811972 0 -0.00487183 0.0592739 -0.000811972 0 -0.00405986 0.0584619 -0.000811972 0 -0.00487183 0.0584619 -0.000811972 0 -0.00487183 0.0584619 -0.000811972 0 -0.00487183 0.05765 -0.000811972 0 -0.00487183 0.05765 -0.000811972 0 -0.0056838 0.05765 -0.0056838 0.056838 -0.000811972 0 -0.0056838 0.056838 -0.000811972 0 -0.0056838 0.056838 -0.000811972 0 -0.0056838 0.056026 -0.000811972 0 -0.0056838 0.056026 -0.000811972 0 -0.0056838 0.0552141 -0.000811972 0 -0.0056838 0.0535901 -0.000811972 0 -0.00649577 0.0535901 -0.000811972 0 -0.0056838 0.0535901 -0.000811972 0 -0.00649577 0.0527781 -0.000811972 0 -0.00649577 0.0527781 -0.000811972 0c-0.140471,1.02958 -0.336968,1.86104 -0.598423,2.50168l-0.000811972 0 -0.0129915 0.0332908 0 0.000811972 -0.0138035 0.0324789 0 0.000811972 -0.0129915 0.0324789 -0.000811972 0c-0.273634,0.670688 -0.614662,1.15462 -0.968682,1.45668 -0.374319,0.318293 -0.825775,0.492055 -1.32676,0.515602l-0.0129915 0.000811972 -0.00974366 0 -0.0414105 0.00162394 -0.00487183 0 -0.0202993 0.000811972 -0.00243591 0 -0.0227352 0 -0.000811972 0 -45.1968 0 0 88.1436 0 0.0259831 -0.000811972 0.0251711 0 0.0259831 -0.00162394 0.0251711 -0.000811972 0.0259831 -0.00162394 0.0251711 -0.00162394 0.0251711 -0.00162394 0.0251711 -0.00243591 0.0259831 -0.00243591 0.0251711 -0.00243591 0.0251711 -0.00324789 0.0251711 -0.00324789 0.0251711 -0.00324789 0.0243591 -0.00405986 0.0251711 -0.00324789 0.0251711 -0.000811972 0 -0.00405986 0.0251711 -0.00405986 0.0243591 -0.00487183 0.0251711 -0.00487183 0.0243591 -0.000811972 0 -0.00487183 0.0251711 -0.0056838 0.0243591 -0.0056838 0.0243591 -0.00649577 0.0243591 -0.00649577 0.0243591 -0.00649577 0.0243591 -0.00649577 0.0243591 -0.00730774 0.0243591 -0.00730774 0.0243591 -0.000811972 0 -0.00730774 0.0243591 -0.00811972 0.0243591 -0.00811972 0.0235472 -0.00893169 0.0243591 -0.00893169 0.0235472 -0.00893169 0.0235472 -0.00893169 0.0243591 -0.000811972 0 -0.00893169 0.0235472 -0.000811972 0 -0.00974366 0.0235472 -0.00974366 0.0235472 -0.0105556 0.0235472 -0.0105556 0.0235472 -0.000811972 0 -0.0105556 0.0235472 -0.0113676 0.0227352 -0.0113676 0.0235472 -0.000811972 0 -0.0113676 0.0227352 -0.0121796 0.0235472 -0.0121796 0.0227352 -0.000811972 0 -0.0121796 0.0227352 -0.000811972 0 -0.0121796 0.0227352 -0.000811972 0 -0.0129915 0.0227352 -0.0129915 0.0227352 -0.000811972 0 -0.0138035 0.0227352 -0.0138035 0.0227352 -0.000811972 0 -0.0138035 0.0227352 -0.000811972 0 -0.0138035 0.0219232 -0.000811972 0 -0.0146155 0.0227352 -0.0154275 0.0219232 -0.0154275 0.0219232 -0.000811972 0 -0.0146155 0.0227352 -0.000811972 0 -0.0154275 0.0219232 -0.000811972 0 -0.0162394 0.0219232 -0.000811972 0 -0.0162394 0.0219232 -0.0170514 0.0211113 -0.000811972 0 -0.0162394 0.0219232 -0.000811972 0 -0.0170514 0.0202993 -0.000811972 0 -0.0170514 0.0202993 -0.000811972 0 -0.0178634 0.0194873 -0.000811972 0 -0.0178634 0.0202993 -0.000811972 0 -0.0178634 0.0202993 -0.000811972 0 -0.0186753 0.0194873 -0.000811972 0 -0.0194873 0.0194873 -0.000811972 0 -0.0194873 0.0194873 -0.000811972 0 -0.0194873 0.0202993 -0.000811972 0 -0.0194873 0.0194873 -0.000811972 0 -0.0202993 0.0186753 -0.000811972 0 -0.0211113 0.0194873 -0.000811972 0 -0.0211113 0.0194873 -0.000811972 0 -0.0211113 0.0186753 -0.000811972 0 -0.0219232 0.0194873 -0.000811972 0 -0.0219232 0.0186753 -0.000811972 0 -0.0219232 0.0186753 -0.000811972 0 -0.0227352 0.0186753 -0.000811972 0 -0.0235472 0.0186753 -0.0235472 0.0186753 -0.000811972 0 -0.0243591 0.0178634 -0.0243591 0.0186753 -0.000811972 0 -0.0243591 0.0178634 -0.000811972 0 -0.0251711 0.0186753 -0.0251711 0.0178634 -0.000811972 0 -0.0259831 0.0178634 -0.0259831 0.0178634 -0.000811972 0 -0.0259831 0.0178634 -0.000811972 0 -0.0267951 0.0170514 -0.000811972 0 -0.0267951 0.0178634 -0.027607 0.0170514 -0.000811972 0 -0.027607 0.0178634 -0.000811972 0 -0.027607 0.0170514 -0.000811972 0 -0.028419 0.0170514 -0.029231 0.0170514 -0.029231 0.0170514 -0.000811972 0 -0.029231 0.0162394 -0.0300429 0.0170514 -0.000811972 0 -0.0300429 0.0162394 -0.0308549 0.0162394 -0.0316669 0.0162394 -0.0308549 0.0162394 -0.000811972 0 -0.0316669 0.0162394 -0.0324789 0.0162394 -0.0324789 0.0154275 -0.0324789 0.0162394 -0.000811972 0 -0.0324789 0.0154275 -0.000811972 0 -0.0332908 0.0154275 -0.0341028 0.0154275 -0.0341028 0.0154275 -0.0341028 0.0154275 -0.000811972 0 -0.0349148 0.0146155 -0.0349148 0.0154275 -0.0357267 0.0146155 -0.0357267 0.0146155 -0.0365387 0.0146155 -0.0365387 0.0146155 -0.0373507 0.0138035 -0.0373507 0.0146155 -0.0373507 0.0138035 -0.0381627 0.0138035 -0.0381627 0.0138035 -0.0389746 0.0138035 -0.0389746 0.0138035 -0.0397866 0.0121796 -0.0397866 0.0121796 -0.0397866 0.0121796 -0.0414105 0.0113676 -0.0405986 0.0121796 -0.000811972 0 -0.0414105 0.0121796 -0.0422225 0.0113676 -0.0422225 0.0121796 -0.0430345 0.0113676 -0.000811972 0 -0.0430345 0.0121796 -0.0438465 0.0113676 -0.0446584 0.0121796 -0.0446584 0.0113676 -0.000811972 0 -0.0446584 0.0113676 -0.000811972 0 -0.0454704 0.0113676 -0.0462824 0.0113676 -0.0462824 0.0113676 -0.000811972 0 -0.0462824 0.0113676 -0.000811972 0 -0.0470943 0.0113676 -0.000811972 0 -0.0470943 0.0113676 -0.000811972 0 -0.0479063 0.0113676 -0.000811972 0 -0.0487183 0.0105556 -0.0495303 0.0113676 -0.0495303 0.0113676 -0.0503422 0.0105556 -0.000811972 0 -0.0503422 0.0105556 -0.0511542 0.0113676 -0.0511542 0.0105556 -0.000811972 0 -0.0519662 0.0105556 -0.0527781 0.0105556 -0.0527781 0.0105556 -0.0535901 0.0105556 -0.0535901 0.0105556 -0.000811972 0 -0.0535901 0.0105556 -0.000811972 0 -0.0544021 0.0105556 -0.0552141 0.00974366 -0.0552141 0.0105556 -0.000811972 0 -0.056026 0.00974366 -0.056026 0.0105556 -0.000811972 0 -0.056026 0.00974366 -0.000811972 0 -0.056838 0.00974366 -0.000811972 0 -0.05765 0.00974366 -0.05765 0.00974366 -0.000811972 0 -0.0584619 0.00974366 -0.0592739 0.00974366 -0.0592739 0.00974366 -0.000811972 0 -0.0592739 0.00974366 -0.000811972 0 -0.0600859 0.00893169 -0.0608979 0.00974366 -0.0608979 0.00893169 -0.000811972 0 -0.0608979 0.00974366 -0.000811972 0 -0.0617098 0.00893169 -0.000811972 0 -0.0617098 0.00893169 -0.000811972 0 -0.0625218 0.00893169 -0.000811972 0 -0.0625218 0.00893169 -0.000811972 0 -0.0633338 0.00893169 -0.000811972 0 -0.0633338 0.00893169 -0.000811972 0 -0.0641457 0.00811972 -0.000811972 0 -0.0641457 0.00893169 -0.000811972 0 -0.0649577 0.00811972 -0.000811972 0 -0.0657697 0.00893169 -0.000811972 0 -0.0657697 0.00811972 -0.000811972 0 -0.0657697 0.00811972 -0.000811972 0 -0.0665817 0.00811972 -0.000811972 0 -0.0673936 0.00811972 -0.000811972 0 -0.0673936 0.00811972 -0.000811972 0 -0.0682056 0.00730774 -0.0690176 0.00811972 -0.000811972 0 -0.0690176 0.00730774 -0.000811972 0 -0.0698295 0.00730774 -0.0706415 0.00730774 -0.000811972 0 -0.0706415 0.00730774 -0.000811972 0 -0.0706415 0.00730774 -0.000811972 0 -0.0722655 0.00649577 -0.0722655 0.00649577 -0.000811972 0 -0.0730774 0.00730774 -0.0738894 0.00649577 -0.0747014 0.0056838 -0.0747014 0.00649577 -0.0755133 0.00649577 -0.0755133 0.0056838 -0.000811972 0 -0.0755133 0.0056838 -0.000811972 0 -0.0763253 0.0056838 -0.000811972 0 -0.0771373 0.0056838 -0.0779493 0.0056838 -0.0779493 0.0056838 -0.000811972 0 -0.0787612 0.00487183 -0.0787612 0.0056838 -0.000811972 0 -0.0795732 0.00487183 -0.0803852 0.00487183 -0.000811972 0 -0.0803852 0.00487183 -0.0811972 0.00405986 -0.000811972 0 -0.0811972 0.00487183 -0.000811972 0 -0.0820091 0.00405986 -0.0828211 0.00405986 -0.000811972 0 -0.0828211 0.00405986 -0.000811972 0 -0.0836331 0.00405986 -0.084445 0.00405986 -0.084445 0.00405986 -0.000811972 0 -0.085257 0.00324789 -0.086069 0.00324789 -0.086069 0.00324789 -0.000811972 0 -0.086881 0.00324789 -0.0876929 0.00324789 -0.0876929 0.00324789 -0.000811972 0 -0.0876929 0.00243591 -0.000811972 0 -0.0885049 0.00324789 -0.000811972 0 -0.0885049 0.00243591 -0.000811972 0 -0.0893169 0.00243591 -0.000811972 0 -0.0901288 0.00243591 -0.000811972 0 -0.0901288 0.00243591 -0.000811972 0 -0.0909408 0.00162394 -0.000811972 0 -0.0917528 0.00243591 -0.0925648 0.00162394 -0.000811972 0 -0.0917528 0.00162394 -0.000811972 0 -0.0933767 0.00162394 -0.000811972 0 -0.0933767 0.00162394 -0.000811972 0 -0.0933767 0.000811972 -0.000811972 0 -0.0950007 0.00162394 -0.000811972 0 -0.0950007 0.000811972 -0.0958126 0.000811972 -0.000811972 0 -0.0958126 0.000811972 -0.000811972 0 -0.0966246 0.000811972 -0.000811972 0 -0.0966246 0.000811972 -0.000811972 0 -0.0974366 0 -0.000811972 0 -0.0982486 0.000811972 -0.000811972 0 -0.0982486 0 -0.000811972 0 -0.0990605 0 -0.000811972 0 -0.0990605 0 -0.000811972 0 -0.0982486 0 -0.000811972 0 -0.0982486 -0.000811972 -0.000811972 0 -0.0974366 0 -0.000811972 0 -0.0966246 -0.000811972 -0.000811972 0 -0.0966246 -0.000811972 -0.000811972 0 -0.0958126 -0.000811972 -0.000811972 0 -0.0958126 -0.000811972 -0.0950007 -0.000811972 -0.000811972 0 -0.0950007 -0.00162394 -0.000811972 0 -0.0933767 -0.000811972 -0.000811972 0 -0.0933767 -0.00162394 -0.000811972 0 -0.0933767 -0.00162394 -0.000811972 0 -0.0917528 -0.00162394 -0.000811972 0 -0.0925648 -0.00162394 -0.0917528 -0.00243591 -0.000811972 0 -0.0909408 -0.00162394 -0.000811972 0 -0.0901288 -0.00243591 -0.000811972 0 -0.0901288 -0.00243591 -0.000811972 0 -0.0893169 -0.00243591 -0.000811972 0 -0.0885049 -0.00243591 -0.000811972 0 -0.0885049 -0.00324789 -0.000811972 0 -0.0876929 -0.00243591 -0.000811972 0 -0.0876929 -0.00324789 -0.0876929 -0.00324789 -0.086881 -0.00324789 -0.000811972 0 -0.086069 -0.00324789 -0.086069 -0.00324789 -0.085257 -0.00324789 -0.000811972 0 -0.084445 -0.00405986 -0.084445 -0.00405986 -0.0836331 -0.00405986 -0.000811972 0 -0.0828211 -0.00405986 -0.000811972 0 -0.0828211 -0.00405986 -0.0820091 -0.00405986 -0.000811972 0 -0.0811972 -0.00487183 -0.000811972 0 -0.0811972 -0.00405986 -0.0803852 -0.00487183 -0.000811972 0 -0.0803852 -0.00487183 -0.0795732 -0.00487183 -0.000811972 0 -0.0787612 -0.0056838 -0.0787612 -0.00487183 -0.000811972 0 -0.0779493 -0.0056838 -0.0779493 -0.0056838 -0.0771373 -0.0056838 -0.000811972 0 -0.0763253 -0.0056838 -0.000811972 0 -0.0755133 -0.0056838 -0.000811972 0 -0.0755133 -0.0056838 -0.0755133 -0.00649577 -0.0747014 -0.00649577 -0.0747014 -0.0056838 -0.0738894 -0.00649577 -0.0730774 -0.00730774 -0.000811972 0 -0.0722655 -0.00649577 -0.0722655 -0.00649577 -0.000811972 0 -0.0706415 -0.00730774 -0.000811972 0 -0.0706415 -0.00730774 -0.000811972 0 -0.0706415 -0.00730774 -0.0698295 -0.00730774 -0.000811972 0 -0.0690176 -0.00730774 -0.000811972 0 -0.0690176 -0.00811972 -0.0682056 -0.00730774 -0.000811972 0 -0.0673936 -0.00811972 -0.000811972 0 -0.0673936 -0.00811972 -0.000811972 0 -0.0665817 -0.00811972 -0.000811972 0 -0.0657697 -0.00811972 -0.000811972 0 -0.0657697 -0.00811972 -0.000811972 0 -0.0657697 -0.00893169 -0.000811972 0 -0.0649577 -0.00811972 -0.000811972 0 -0.0641457 -0.00893169 -0.000811972 0 -0.0641457 -0.00811972 -0.000811972 0 -0.0633338 -0.00893169 -0.000811972 0 -0.0633338 -0.00893169 -0.000811972 0 -0.0625218 -0.00893169 -0.000811972 0 -0.0625218 -0.00893169 -0.000811972 0 -0.0617098 -0.00893169 -0.000811972 0 -0.0617098 -0.00893169 -0.000811972 0 -0.0608979 -0.00974366 -0.000811972 0 -0.0608979 -0.00893169 -0.0608979 -0.00974366 -0.0600859 -0.00893169 -0.000811972 0 -0.0592739 -0.00974366 -0.000811972 0 -0.0592739 -0.00974366 -0.0592739 -0.00974366 -0.0584619 -0.00974366 -0.000811972 0 -0.05765 -0.00974366 -0.05765 -0.00974366 -0.000811972 0 -0.056838 -0.00974366 -0.000811972 0 -0.056026 -0.00974366 -0.000811972 0 -0.056026 -0.0105556 -0.056026 -0.00974366 -0.000811972 0 -0.0552141 -0.0105556 -0.0552141 -0.00974366 -0.0544021 -0.0105556 -0.000811972 0 -0.0535901 -0.0105556 -0.000811972 0 -0.0535901 -0.0105556 -0.0535901 -0.0105556 -0.0527781 -0.0105556 -0.0527781 -0.0105556 -0.0519662 -0.0105556 -0.000811972 0 -0.0511542 -0.0105556 -0.0511542 -0.0113676 -0.0503422 -0.0105556 -0.000811972 0 -0.0503422 -0.0105556 -0.0495303 -0.0113676 -0.0495303 -0.0113676 -0.0487183 -0.0105556 -0.000811972 0 -0.0479063 -0.0113676 -0.000811972 0 -0.0470943 -0.0113676 -0.000811972 0 -0.0470943 -0.0113676 -0.000811972 0 -0.0462824 -0.0113676 -0.000811972 0 -0.0462824 -0.0113676 -0.0462824 -0.0113676 -0.0454704 -0.0113676 -0.000811972 0 -0.0446584 -0.0113676 -0.000811972 0 -0.0446584 -0.0113676 -0.0446584 -0.0121796 -0.0438465 -0.0113676 -0.0430345 -0.0121796 -0.000811972 0 -0.0430345 -0.0113676 -0.0422225 -0.0121796 -0.0422225 -0.0113676 -0.0414105 -0.0121796 -0.000811972 0 -0.0405986 -0.0121796 -0.0414105 -0.0113676 -0.0397866 -0.0121796 -0.0397866 -0.0121796 -0.0397866 -0.0121796 -0.0389746 -0.0138035 -0.0389746 -0.0138035 -0.0381627 -0.0138035 -0.0381627 -0.0138035 -0.0373507 -0.0138035 -0.0373507 -0.0146155 -0.0373507 -0.0138035 -0.0365387 -0.0146155 -0.0365387 -0.0146155 -0.0357267 -0.0146155 -0.0357267 -0.0146155 -0.0349148 -0.0154275 -0.0349148 -0.0146155 -0.000811972 0 -0.0341028 -0.0154275 -0.0341028 -0.0154275 -0.0341028 -0.0154275 -0.0332908 -0.0154275 -0.000811972 0 -0.0324789 -0.0154275 -0.000811972 0 -0.0324789 -0.0162394 -0.0324789 -0.0154275 -0.0324789 -0.0162394 -0.0316669 -0.0162394 -0.000811972 0 -0.0308549 -0.0162394 -0.0316669 -0.0162394 -0.0308549 -0.0162394 -0.0300429 -0.0162394 -0.000811972 0 -0.0300429 -0.0170514 -0.029231 -0.0162394 -0.000811972 0 -0.029231 -0.0170514 -0.029231 -0.0170514 -0.028419 -0.0170514 -0.000811972 0 -0.028419 -0.0170514 -0.027607 -0.0178634 -0.000811972 0 -0.027607 -0.0170514 -0.0267951 -0.0178634 -0.000811972 0 -0.0267951 -0.0170514 -0.000811972 0 -0.0259831 -0.0178634 -0.000811972 0 -0.0259831 -0.0178634 -0.0259831 -0.0178634 -0.000811972 0 -0.0251711 -0.0178634 -0.0251711 -0.0186753 -0.000811972 0 -0.0243591 -0.0178634 -0.000811972 0 -0.0243591 -0.0186753 -0.0243591 -0.0178634 -0.000811972 0 -0.0235472 -0.0186753 -0.0235472 -0.0186753 -0.000811972 0 -0.0227352 -0.0186753 -0.000811972 0 -0.0219232 -0.0186753 -0.000811972 0 -0.0219232 -0.0186753 -0.000811972 0 -0.0219232 -0.0194873 -0.000811972 0 -0.0211113 -0.0186753 -0.000811972 0 -0.0211113 -0.0194873 -0.000811972 0 -0.0211113 -0.0194873 -0.000811972 0 -0.0202993 -0.0186753 -0.000811972 0 -0.0194873 -0.0194873 -0.000811972 0 -0.0194873 -0.0202993 -0.000811972 0 -0.0194873 -0.0194873 -0.000811972 0 -0.0194873 -0.0194873 -0.000811972 0 -0.0186753 -0.0194873 -0.000811972 0 -0.0178634 -0.0202993 -0.000811972 0 -0.0178634 -0.0202993 -0.000811972 0 -0.0178634 -0.0194873 -0.000811972 0 -0.0170514 -0.0202993 -0.000811972 0 -0.0170514 -0.0202993 -0.000811972 0 -0.0162394 -0.0219232 -0.000811972 0 -0.0170514 -0.0211113 -0.0162394 -0.0219232 -0.000811972 0 -0.0162394 -0.0219232 -0.000811972 0 -0.0154275 -0.0219232 -0.000811972 0 -0.0146155 -0.0227352 -0.000811972 0 -0.0154275 -0.0219232 -0.0154275 -0.0219232 -0.0146155 -0.0227352 -0.000811972 0 -0.0138035 -0.0219232 -0.000811972 0 -0.0138035 -0.0227352 -0.000811972 0 -0.0138035 -0.0227352 -0.0138035 -0.0227352 -0.000811972 0 -0.0129915 -0.0227352 -0.0129915 -0.0227352 -0.000811972 0 -0.0121796 -0.0227352 -0.000811972 0 -0.0121796 -0.0227352 -0.000811972 0 -0.0121796 -0.0227352 -0.0121796 -0.0235472 -0.0113676 -0.0227352 -0.000811972 0 -0.0113676 -0.0235472 -0.0113676 -0.0227352 -0.0105556 -0.0235472 -0.000811972 0 -0.0105556 -0.0235472 -0.0105556 -0.0235472 -0.00974366 -0.0235472 -0.00974366 -0.0235472 -0.000811972 0 -0.00893169 -0.0235472 -0.000811972 0 -0.00893169 -0.0243591 -0.00893169 -0.0235472 -0.00893169 -0.0235472 -0.00893169 -0.0243591 -0.00811972 -0.0235472 -0.00811972 -0.0243591 -0.00730774 -0.0243591 -0.000811972 0 -0.00730774 -0.0243591 -0.00730774 -0.0243591 -0.00649577 -0.0243591 -0.00649577 -0.0243591 -0.00649577 -0.0243591 -0.00649577 -0.0243591 -0.0056838 -0.0243591 -0.0056838 -0.0243591 -0.00487183 -0.0251711 -0.000811972 0 -0.00487183 -0.0243591 -0.00487183 -0.0251711 -0.00405986 -0.0243591 -0.00487183 -0.0251711 -0.00324789 -0.0251711 -0.00405986 -0.0251711 -0.00324789 -0.0243591 -0.00324789 -0.0251711 -0.00324789 -0.0251711 -0.00243591 -0.0251711 -0.00243591 -0.0251711 -0.00243591 -0.0259831 -0.00162394 -0.0251711 -0.00162394 -0.0251711 -0.00162394 -0.0251711 -0.000811972 -0.0259831 -0.00162394 -0.0251711 0 -0.0259831 -0.000811972 -0.0251711 0 -0.0259831 0 -88.1436 -45.1968 0 -0.000811972 0 -0.0227352 0 -0.00243591 0 -0.0202993 -0.000811972 -0.00487183 0 -0.0414105 -0.00162394 -0.00974366 0 -0.0129915 -0.000811972c-0.500986,-0.0235472 -0.952443,-0.197309 -1.32676,-0.515602 -0.35402,-0.301241 -0.695048,-0.7868 -0.968682,-1.45668l-0.000811972 0 -0.0129915 -0.0324789 0 -0.000811972 -0.0138035 -0.0324789 0 -0.000811972 -0.0129915 -0.0332908 -0.000811972 0c-0.263079,-0.641457 -0.458764,-1.47292 -0.598423,-2.50168l-0.000811972 0 -0.00649577 -0.0527781 -0.000811972 0 -0.00649577 -0.0527781 -0.000811972 0 -0.0056838 -0.0535901 -0.000811972 0 -0.00649577 -0.0535901 -0.000811972 0 -0.0056838 -0.0535901 -0.000811972 0 -0.0056838 -0.0552141 -0.000811972 0 -0.0056838 -0.056026 -0.000811972 0 -0.0056838 -0.056026 -0.000811972 0 -0.0056838 -0.056838 -0.000811972 0 -0.0056838 -0.056838 -0.000811972 0 -0.0056838 -0.056838 -0.0056838 -0.05765 -0.000811972 0 -0.00487183 -0.05765 -0.000811972 0 -0.00487183 -0.05765 -0.000811972 0 -0.00487183 -0.0584619 -0.000811972 0 -0.00487183 -0.0584619 -0.000811972 0 -0.00405986 -0.0584619 -0.000811972 0 -0.00487183 -0.0592739 -0.000811972 0 -0.00405986 -0.0600859 -0.000811972 0 -0.00405986 -0.0592739 -0.000811972 0 -0.00405986 -0.0600859 -0.000811972 0 -0.00405986 -0.0608979 -0.000811972 0 -0.00405986 -0.0608979 -0.000811972 0 -0.00405986 -0.0608979 -0.00405986 -0.0617098 -0.000811972 0 -0.00324789 -0.0617098 -0.000811972 0 -0.00405986 -0.0617098 -0.00405986 -0.0625218 -0.00324789 -0.0625218 -0.000811972 0 -0.00324789 -0.0633338 -0.000811972 0 -0.00324789 -0.0633338 -0.00324789 -0.0641457 -0.000811972 0 -0.00324789 -0.0633338 -0.00324789 -0.0649577 -0.00324789 -0.0641457 -0.00324789 -0.0657697 -0.00324789 -0.0649577 -0.00243591 -0.0657697 -0.000811972 0 -0.00243591 -0.0657697 -0.00243591 -0.0665817 -0.000811972 0 -0.00243591 -0.0665817 -0.00243591 -0.0673936 -0.00243591 -0.0673936 -0.00243591 -0.0682056 -0.00162394 -0.0682056 -0.000811972 0 -0.00162394 -0.0682056 -0.00243591 -0.0690176 -0.00162394 -0.0690176 -0.00162394 -0.0698295 -0.000811972 0 -0.000811972 -0.0698295 -0.000811972 0 -0.00162394 -0.0698295 -0.000811972 -0.0706415 -0.000811972 0 -0.000811972 -0.0714535 -0.00162394 -0.0706415 -0.00162394 -0.0722655 -0.000811972 -0.0714535 -0.000811972 -0.0730774 -0.00162394 -0.0722655 -0.000811972 -0.0730774 -0.000811972 -0.0738894 -0.000811972 -0.0738894 0 -0.0738894 -0.000811972 -0.0747014 -0.000811972 -0.0747014 0 -0.0755133 -0.000811972 -0.0755133 0 -0.0763253 0 -0.0763253 0 -0.0771373c0,-1.67266 0.0600859,-3.11635 0.202181,-4.29614 0.141283,-1.17655 0.366199,-2.13143 0.631714,-2.81998l0.00162394 -0.0056838 0.000811972 0 0.0129915 -0.0332908 0 -0.000811972 0.0138035 -0.0324789 0 -0.000811972c0.27607,-0.686928 0.616286,-1.16274 0.982486,-1.46074 0.355644,-0.289874 0.795732,-0.431157 1.28129,-0.456328l0.00811972 -0.000811972 0.0373507 -0.00162394 0.0129915 -0.000811972 0.00974366 0 0.0154275 -0.000811972 0.00730774 0 0.0438465 -0.000811972 0.00243591 0 0.0227352 0 0.000811972 0 112.711 0 0.000811972 0 0.0227352 0 0.00243591 0 0.0438465 0.000811972 0.00730774 0 0.0154275 0.000811972 0.00974366 0 0.0129915 0.000811972 0.0373507 0.00162394 0.00811972 0.000811972c0.484747,0.0251711 0.924024,0.165642 1.28129,0.456328 0.367823,0.298806 0.707227,0.773809 0.982486,1.46074l0 0.000811972 0.0138035 0.0324789 0 0.000811972 0.0129915 0.0332908 0.000811972 0 0.000811972 0.0056838c0.265515,0.688552 0.490431,1.64262 0.632526,2.81998 0.142907,1.18061 0.202181,2.62348 0.202181,4.29614z"/>
  <path class="fil2" d="M174.197 595.762c-2.40993,-3.4931 -4.74597,-7.0406 -7.01137,-10.6368 -29.4185,-46.7111 -46.4456,-102.013 -46.4456,-161.292 0,-83.6956 33.9258,-159.469 88.7745,-214.318 7.05684,-7.5627 19.9461,2.80211 11.4813,11.4813 -51.9085,51.9093 -84.0163,123.624 -84.0163,202.837 0,55.1889 15.5907,106.734 42.6001,150.48 3.0928,5.00824 6.33175,9.91742 9.71767,14.7154l0.735646 -23.8338 0.310985 -10.0766 10.1099 0.277694 0.7868 0.0219232 9.32306 0.255771 -1.58253 51.2468 -0.313421 10.144 -10.0741 -0.311797 -54.4248 -1.68159 0.277694 -10.1099 0.277694 -10.1099 10.9251 0.33778 18.5479 0.573252z"/>
  <path class="fil1" d="M576.175 273.044l0 -22.5005c0,-9.72498 -7.9151,-17.6409 -17.6425,-17.6409l-269.399 0c-9.72661,0 -17.6401,7.91591 -17.6401,17.6409l0 22.5005 -30.47 30.4676 0 36.0304c0,1.04501 0.0600859,2.0551 0.153463,3.03109l-0.153463 0 0 255.95 36.572 0 0 -18.2661 292.476 0 0 18.2661 36.572 0 0 -255.95 -0.151027 0c0.0901288,-0.97599 0.151027,-1.98608 0.151027,-3.03109l0 -36.0304 -30.4684 -30.4676zm-9.13062 99.9975l3.02703 0 0 121.874 -33.856 0c2.1095,-3.5946 3.38755,-7.70155 3.38755,-12.1625 0,-12.5636 -9.57964,-22.8221 -21.8071,-24.135 2.20207,-3.63195 3.54507,-7.881 3.54507,-12.437 0,-13.4511 -10.9551,-24.3656 -24.3681,-24.3656 -13.4536,0 -24.4054,10.9145 -24.4054,24.3656 0,4.55597 1.33894,8.80502 3.54101,12.437 -12.225,1.31296 -21.8071,11.5714 -21.8071,24.135 0,4.46097 1.28048,8.56792 3.38998,12.1625l-94.7944 0 0 -18.2661 24.3665 0c3.36806,0 6.10197,-2.73391 6.10197,-6.10197 0,-3.35994 -2.73391,-6.09953 -6.10197,-6.09953l-27.9399 0 42.6699 -42.6326 -11.1865 -11.1914c-25.474,-25.4715 -66.917,-25.4715 -92.3869,0l-11.1605 11.1914 42.6415 42.6326 -27.9399 0c-3.35913,0 -6.10359,2.73959 -6.10359,6.09953 0,3.36806 2.74446,6.10197 6.10359,6.10197l24.364 0 0 18.2661 -48.7297 0 0 -121.874 3.02947 0c11.3416,0 21.367,-5.65295 27.4381,-14.281 6.06949,8.62801 16.064,14.281 27.3975,14.281l6.10034 0c11.3416,0 21.367,-5.65295 27.4381,-14.281 6.06949,8.62801 16.064,14.281 27.3975,14.281 11.3424,0 21.367,-5.65295 27.4365,-14.281 6.06949,8.62801 16.0949,14.281 27.4365,14.281 11.3335,0 21.3289,-5.65295 27.3975,-14.281 6.07436,8.62801 16.0965,14.281 27.439,14.281l6.09953 0c11.3335,0 21.3281,-5.65295 27.3975,-14.281 6.07436,8.62801 16.0965,14.281 27.4414,14.281zm-283.35 134.075l12.1625 0 0 60.936 -12.1625 0 0 -60.936zm24.3681 0l12.1625 0 0 60.936 -12.1625 0 0 -60.936zm30.4684 -30.4676l3.57105 0 2.52848 2.52848 2.50006 -2.52848 3.56293 0 0 18.2661 -12.1625 0 0 -18.2661zm6.09953 -60.936c-3.364,0 -6.09953,2.7331 -6.09953,6.10197l0 34.0387 -34.0419 -34.0387 2.55852 -2.56096c20.7134,-20.7085 54.4175,-20.7085 75.161,0l2.52848 2.56096 -34.0435 34.0387 0 -34.0387c0,-3.36887 -2.70305,-6.10197 -6.06299,-6.10197zm-12.2015 91.4036l12.2015 0 0 60.936 -12.2015 0 0 -60.936zm24.364 0l12.2056 0 0 60.936 -12.2056 0 0 -60.936zm24.3705 0l12.2015 0 0 60.936 -12.2015 0 0 -60.936zm24.4046 0l12.1625 0 0 60.936 -12.1625 0 0 -60.936zm24.3689 0l12.1625 0 0 60.936 -12.1625 0 0 -60.936zm24.364 0l12.2031 0 0 60.936 -12.2031 0 0 -60.936zm60.9376 -12.2015c-6.72556,0 -12.2031,-5.43859 -12.2031,-12.1625 0,-6.728 5.47756,-12.2056 12.2031,-12.2056 6.72394,0 12.2015,5.47756 12.2015,12.2056 0,6.72394 -5.47756,12.1625 -12.2015,12.1625zm-18.2661 -36.533c-6.72556,0 -12.2039,-5.47756 -12.2039,-12.2015 0,-6.72312 5.47837,-12.2031 12.2039,-12.2031 6.68902,0 12.1625,5.48 12.1625,12.2031 0,6.72394 -5.4735,12.2015 -12.1625,12.2015zm-6.09953 24.3705c0,6.72394 -5.47837,12.1625 -12.2064,12.1625 -6.72312,0 -12.1625,-5.43859 -12.1625,-12.1625 0,-6.728 5.4394,-12.2056 12.1625,-12.2056 6.728,0 12.2064,5.47756 12.2064,12.2056zm-12.2064 24.364l12.2064 0 0 60.936 -12.2064 0 0 -60.936zm24.3689 0l12.2031 0 0 60.936 -12.2031 0 0 -60.936zm24.4046 0l12.1625 0 0 60.936 -12.1625 0 0 -60.936zm24.3689 0l12.1625 0 0 60.936 -12.1625 0 0 -60.936zm-219.38 -262.01l36.5696 0 0 29.8416 -5.98098 29.8684 -0.0901288 19.4906 -48.7654 0 0 -16.604 18.2669 -30.47 0 -32.1265zm140.138 61.5296l0 17.6709 -42.6301 0 0 -79.2005 36.5671 0 0 30.4676 6.06299 31.062zm60.936 32.906c0,11.7525 -9.54554,21.337 -21.298,21.337l-6.09953 0c-11.7541,0 -21.337,-9.58451 -21.337,-21.337l0 -3.0319 48.7345 0 0 3.0319zm-60.936 0c0,11.7525 -9.54554,21.337 -21.298,21.337 -11.7825,0 -21.3321,-9.58451 -21.3321,-21.337l0 -3.0319 42.6301 0 0 3.0319zm-54.8365 0c0,11.7525 -9.55203,21.337 -21.3346,21.337 -11.7525,0 -21.298,-9.58451 -21.298,-21.337l0 -3.0319 42.6326 0 0 3.0319zm0 -15.235l-42.6326 0 0 -17.6709 5.9485 -29.8765 0.116924 -31.6531 36.5671 0 0 79.2005zm-103.569 12.2031l48.7345 0 0 3.0319c0,11.7525 -9.57964,21.337 -21.3362,21.337l-6.10034 0c-11.7517,0 -21.298,-9.58451 -21.298,-21.337l0 -3.0319zm219.341 -12.2031l-48.7345 0 0 -18.2645 -6.10197 -31.0944 0 -29.8416 36.572 0 0 32.1265 18.2645 30.47 0 16.604zm-280.277 -15.7661l30.4684 -30.4684 0 -27.5291c0,-3.00105 2.43754,-5.43696 5.43859,-5.43696l31.092 0 0 28.769 -18.2645 30.4676 0 19.9639 -48.7345 0 0 -15.7661zm48.7345 27.9692l0 3.0319c0,11.7525 -9.58208,21.337 -21.3362,21.337l-6.00697 0 -2.43997 -0.267951c-4.04443,-0.44902 -7.74052,-1.99745 -10.7399,-4.38059 -0.0901288,-0.0519662 -0.183506,-0.145343 -0.267139,-0.202993 -2.20694,-1.7839 -4.08097,-4.01601 -5.41585,-6.60701 -0.479063,-0.889921 -0.867998,-1.81151 -1.22608,-2.76395l-0.144531 -0.44902c-0.714535,-2.1095 -1.15787,-4.31238 -1.15787,-6.66547l0 -3.0319 48.7345 0zm-48.7345 28.8615c3.50447,2.90848 7.64146,5.11136 12.1633,6.39184l0 123.152 -12.1633 0 0 -129.544zm0 141.745l18.2669 0 0 60.936 -18.2669 0 0 -60.936zm12.1633 79.2029l-12.1633 0 0 -6.06299 12.1633 0 0 6.06299zm329.05 0l-12.1625 0 0 -6.06299 12.1625 0 0 6.06299zm0 -18.2669l-18.2645 0 0 -60.936 18.2645 0 0 60.936zm-12.1625 -73.1375l0 -123.152c4.52349,-1.28048 8.65805,-3.48336 12.1625,-6.39184l0 129.544 -12.1625 0zm12.1625 -155.373c0,2.35309 -0.442524,4.55597 -1.15706,6.66547l-0.144531 0.44902c-0.356455,0.952443 -0.747014,1.87403 -1.22689,2.76395 -1.36249,2.591 -3.20648,4.82311 -5.41504,6.60701 -0.084445,0.05765 -0.174574,0.120172 -0.267951,0.202993 -3.03109,2.38314 -6.71663,3.90152 -10.7375,4.38059l-2.43997 0.267951 -6.00615 0c-11.7565,0 -21.337,-9.58451 -21.337,-21.337l0 -3.0319 48.7321 0 0 3.0319zm-48.7321 -15.235l0 -19.9639 -18.2669 -30.4676 0 -28.769 31.092 0c3.00348,0 5.4394,2.43591 5.4394,5.43696l0 27.5291 30.4676 30.4684 0 15.7661 -48.7321 0z"/>
  <path class="fil1" d="M259.229 741.133c0,4.52431 -0.397866,8.18873 -1.17005,10.9917 -0.772185,2.80293 -1.94224,5.14222 -3.50934,7.06253 -1.58903,1.92031 -3.554,3.35507 -5.93714,4.32618 -2.36203,0.971118 -5.14303,1.45668 -8.34301,1.45668 -1.76604,0 -3.26656,-0.110428 -4.52512,-0.353208 -1.25774,-0.242779 -2.16309,-0.485559 -2.71442,-0.750262 -0.552141,-0.264703 -0.949195,-0.595987 -1.17005,-0.971118 -0.198933,-0.397054 -0.353208,-0.838767 -0.441712,-1.34625 -0.0876929,-0.485559 -0.154275,-1.05962 -0.198121,-1.67753 -0.0446584,-0.61791 -0.0665817,-1.43475 -0.0665817,-2.42779 0,-1.2139 0.0219232,-2.22967 0.0885049,-3.02378 0.0665817,-0.79492 0.198933,-1.43475 0.353208,-1.92031 0.176198,-0.485559 0.375131,-0.816843 0.595987,-1.0377 0.198933,-0.220856 0.485559,-0.330472 0.838767,-0.330472 0.198121,0 0.639834,0.0657697 1.3024,0.176198 0.68368,0.110428 1.3901,0.154275 2.16228,0.154275 1.1262,0 2.09732,-0.176198 2.91417,-0.507482 0.794108,-0.353208 1.4786,-0.882613 1.98608,-1.63287 0.507482,-0.751074 0.905348,-1.72219 1.14813,-2.89143 0.264703,-1.17005 0.397054,-3.04652 0.397054,-5.60666l0 -59.2179c0,-0.418977 0.132351,-0.794108 0.397054,-1.12539 0.242779,-0.331284 0.684492,-0.61791 1.28048,-0.838767 0.61791,-0.242779 1.43475,-0.419789 2.47164,-0.552141 1.0377,-0.132351 2.36203,-0.198121 3.97298,-0.198121 1.58903,0 2.91335,0.0657697 3.95105,0.198121 1.03689,0.132351 1.87565,0.309361 2.49356,0.552141 0.640646,0.220856 1.08155,0.507482 1.32433,0.838767 0.265515,0.331284 0.397866,0.706415 0.397866,1.12539l0 59.5273zm1.19116 -79.259c0,3.28848 -0.661757,5.54008 -1.98608,6.79783 -1.3024,1.25856 -3.79597,1.87647 -7.48232,1.87647 -3.61977,0 -6.09141,-0.595987 -7.39381,-1.80988 -1.3024,-1.2139 -1.94224,-3.39891 -1.94224,-6.53312 0,-3.2893 0.661757,-5.562 2.00801,-6.84248 1.34706,-1.25774 3.8187,-1.89839 7.46039,-1.89839 3.66443,0 6.15799,0.61791 7.41655,1.85454 1.27967,1.2139 1.9195,3.39891 1.9195,6.55505zm31.4306 77.3387c0,0.418977 -0.132351,0.794108 -0.397866,1.12539 -0.242779,0.331284 -0.68368,0.595987 -1.32351,0.816843 -0.618722,0.198933 -1.45749,0.375131 -2.47245,0.485559 -1.0377,0.110428 -2.36121,0.154275 -3.95105,0.154275 -1.58903,0 -2.91335,-0.0438465 -3.95024,-0.154275 -1.01578,-0.110428 -1.85454,-0.286626 -2.47245,-0.485559 -0.639834,-0.220856 -1.08155,-0.485559 -1.32433,-0.816843 -0.264703,-0.331284 -0.397054,-0.706415 -0.397054,-1.12539l0 -57.7393c0,-0.418977 0.132351,-0.79492 0.397054,-1.12539 0.242779,-0.331284 0.684492,-0.595987 1.32433,-0.816843 0.61791,-0.198933 1.45668,-0.375131 2.47245,-0.485559 1.03689,-0.110428 2.36121,-0.154275 3.95024,-0.154275 1.58984,0 2.91335,0.0438465 3.95105,0.154275 1.01496,0.110428 1.85373,0.286626 2.47245,0.485559 0.639834,0.220856 1.08073,0.485559 1.32351,0.816843 0.265515,0.330472 0.397866,0.706415 0.397866,1.12539l0 57.7393zm-6.26842 -86.0787c0.308549,-0.463636 0.661757,-0.883425 1.10347,-1.21471 0.418977,-0.352396 0.971118,-0.61791 1.61095,-0.816031 0.640646,-0.198933 1.45668,-0.331284 2.45053,-0.419789 0.993041,-0.0876929 2.18502,-0.132351 3.61977,-0.132351 1.96416,0 3.53126,0.0885049 4.65666,0.264703 1.14813,0.17701 1.96416,0.419789 2.47245,0.728338 0.485559,0.331284 0.705603,0.706415 0.661757,1.14813 -0.0438465,0.418977 -0.242779,0.882613 -0.639834,1.34625l-12.5149 15.0304c-0.353208,0.441712 -0.68368,0.79492 -1.03689,1.08155 -0.331284,0.265515 -0.772997,0.508294 -1.32433,0.684492 -0.530217,0.154275 -1.2139,0.286626 -2.03074,0.375131 -0.816843,0.0885049 -1.85373,0.132351 -3.09036,0.132351 -1.50052,0 -2.6925,-0.0657697 -3.57511,-0.198121 -0.883425,-0.133163 -1.50134,-0.331284 -1.85454,-0.618722 -0.330472,-0.264703 -0.485559,-0.639834 -0.418977,-1.05881 0.0657697,-0.441712 0.286626,-0.927271 0.684492,-1.50134l9.22562 -14.8315zm77.2063 86.0787c0,0.463636 -0.110428,0.86069 -0.331284,1.19197 -0.198933,0.331284 -0.574064,0.595987 -1.08155,0.816843 -0.529405,0.198121 -1.23582,0.352396 -2.11925,0.440901 -0.882613,0.0885049 -1.96416,0.132351 -3.24383,0.132351 -1.39091,0 -2.5163,-0.0438465 -3.37699,-0.132351 -0.861502,-0.0885049 -1.54518,-0.242779 -2.09732,-0.440901 -0.529405,-0.220856 -0.926459,-0.508294 -1.14732,-0.816843 -0.242779,-0.331284 -0.375131,-0.728338 -0.375131,-1.2139l0 -6.42269c-2.95801,3.19998 -6.09222,5.67243 -9.33686,7.43766 -3.26656,1.76604 -6.8636,2.64865 -10.8366,2.64865 -4.39277,0 -8.12296,-0.86069 -11.1467,-2.56015 -3.04571,-1.69946 -5.51735,-3.9949 -7.43766,-6.88633 -1.92031,-2.86951 -3.31122,-6.2465 -4.17191,-10.109 -0.86069,-3.86255 -1.30159,-7.92322 -1.30159,-12.1836 0,-5.12029 0.551329,-9.7331 1.6548,-13.8384 1.10347,-4.0834 2.69331,-7.57082 4.81174,-10.4623 2.11925,-2.89143 4.74516,-5.09837 7.90129,-6.66547 3.13421,-1.54518 6.75398,-2.31737 10.8593,-2.31737 3.22271,0 6.15799,0.661757 8.78472,1.96416 2.64865,1.32433 5.25346,3.24464 7.83553,5.78286l0 -31.187c0,-0.441712 0.110428,-0.816843 0.353208,-1.17005 0.242779,-0.330472 0.661757,-0.639834 1.3024,-0.86069 0.61791,-0.242779 1.45668,-0.418977 2.47164,-0.551329 1.0377,-0.133163 2.36203,-0.198933 3.95105,-0.198933 1.58903,0 2.91335,0.0657697 3.95024,0.198933 1.01578,0.132351 1.85454,0.308549 2.45053,0.551329 0.595987,0.220856 1.03689,0.530217 1.27967,0.86069 0.265515,0.353208 0.397866,0.728338 0.397866,1.17005l0 84.821zm-16.1566 -38.5589c-2.31737,-2.93528 -4.56896,-5.16495 -6.6874,-6.73206 -2.14117,-1.54518 -4.37084,-2.31737 -6.71013,-2.31737 -2.09651,0 -3.92913,0.529405 -5.45158,1.58903 -1.54518,1.05962 -2.75908,2.44972 -3.68635,4.21576 -0.926459,1.78796 -1.63287,3.75212 -2.07459,5.91521 -0.463636,2.18502 -0.68368,4.41388 -0.68368,6.6874 0,2.42779 0.198121,4.7679 0.573252,7.04142 0.397866,2.29544 1.0377,4.32537 1.92031,6.11333 0.882613,1.78796 2.05266,3.22271 3.53126,4.30426 1.45668,1.08155 3.31122,1.61095 5.562,1.61095 1.10428,0 2.20775,-0.154275 3.26656,-0.485559 1.05962,-0.331284 2.11925,-0.838767 3.22271,-1.58903 1.10347,-0.728338 2.22967,-1.67753 3.39891,-2.86951 1.17005,-1.19197 2.45053,-2.62673 3.8187,-4.34811l0 -19.1357zm48.8222 38.5589c0,0.418977 -0.132351,0.794108 -0.397866,1.12539 -0.242779,0.331284 -0.68368,0.595987 -1.32351,0.816843 -0.618722,0.198933 -1.45749,0.375131 -2.47245,0.485559 -1.0377,0.110428 -2.36121,0.154275 -3.95105,0.154275 -1.58903,0 -2.91335,-0.0438465 -3.95024,-0.154275 -1.01578,-0.110428 -1.85454,-0.286626 -2.47245,-0.485559 -0.639834,-0.220856 -1.08155,-0.485559 -1.32433,-0.816843 -0.264703,-0.331284 -0.397054,-0.706415 -0.397054,-1.12539l0 -85.0857c0,-0.441712 0.132351,-0.816843 0.397054,-1.17005 0.242779,-0.331284 0.684492,-0.639834 1.32433,-0.86069 0.61791,-0.242779 1.45668,-0.419789 2.47245,-0.552141 1.03689,-0.132351 2.36121,-0.198121 3.95024,-0.198121 1.58984,0 2.91335,0.0657697 3.95105,0.198121 1.01496,0.132351 1.85373,0.309361 2.47245,0.552141 0.639834,0.220856 1.08073,0.529405 1.32351,0.86069 0.265515,0.353208 0.397866,0.728338 0.397866,1.17005l0 85.0857zm65.3759 0.198933c0,0.595175 -0.220856,1.05881 -0.640646,1.41202 -0.440901,0.353208 -1.12539,0.595987 -2.05266,0.750262 -0.926459,0.155087 -2.29544,0.220856 -4.12725,0.220856 -1.94224,0 -3.35507,-0.0657697 -4.23768,-0.220856 -0.882613,-0.154275 -1.52326,-0.397054 -1.87565,-0.750262 -0.375943,-0.353208 -0.552141,-0.816843 -0.552141,-1.41202l0 -4.59089c-2.38395,2.53822 -5.07645,4.50238 -8.12215,5.91521 -3.02378,1.41202 -6.40077,2.11843 -10.109,2.11843 -3.04571,0 -5.87137,-0.397054 -8.43151,-1.19197 -2.56015,-0.794108 -4.76708,-1.98608 -6.64355,-3.55319 -1.87565,-1.58903 -3.33233,-3.53126 -4.37003,-5.84944 -1.03689,-2.33929 -1.54518,-5.05371 -1.54518,-8.14407 0,-3.37699 0.662569,-6.29034 1.96497,-8.7628 1.32433,-2.49356 3.28848,-4.52431 5.89248,-6.15799 2.6048,-1.61095 5.82752,-2.80293 9.71199,-3.57511 3.86255,-0.772185 8.36493,-1.17005 13.4852,-1.17005l5.62859 0 0 -3.48742c0,-1.80988 -0.17701,-3.39891 -0.552141,-4.76708 -0.353208,-1.34625 -0.971118,-2.49438 -1.80988,-3.39891 -0.838767,-0.905348 -1.94224,-1.56711 -3.35425,-2.00882 -1.39091,-0.418977 -3.13421,-0.639834 -5.18687,-0.639834 -2.71523,0 -5.14303,0.308549 -7.26146,0.904536 -2.14117,0.595987 -4.01764,1.28048 -5.65051,2.00882 -1.63369,0.728338 -3.00186,1.41283 -4.10533,2.00882 -1.10347,0.595987 -1.98689,0.904536 -2.67057,0.904536 -0.485559,0 -0.905348,-0.154275 -1.25856,-0.441712 -0.375131,-0.308549 -0.68368,-0.750262 -0.904536,-1.30159 -0.242779,-0.552141 -0.419789,-1.25856 -0.552141,-2.0754 -0.132351,-0.816031 -0.198121,-1.72138 -0.198121,-2.6925 0,-1.34625 0.110428,-2.40587 0.330472,-3.17806 0.198933,-0.772997 0.618722,-1.45668 1.2139,-2.09651 0.618722,-0.618722 1.65561,-1.3024 3.17887,-2.05266 1.50052,-0.751074 3.26656,-1.45749 5.2973,-2.09732 2.02993,-0.661757 4.23768,-1.19197 6.62082,-1.58903 2.40587,-0.418977 4.87832,-0.61791 7.41655,-0.61791 4.52431,0 8.38685,0.441712 11.6096,1.32433 3.19998,0.882613 5.84863,2.2516 7.90129,4.0834 2.07459,1.83181 3.59785,4.19302 4.54704,7.08445 0.949195,2.86951 1.41283,6.31308 1.41283,10.2633l0 38.8244zm-16.0243 -24.7643l-6.20184 0c-2.62673,0 -4.8564,0.198121 -6.71013,0.573252 -1.85373,0.397866 -3.35507,0.971118 -4.52431,1.76604 -1.17005,0.772185 -2.00882,1.69946 -2.53822,2.80293 -0.552141,1.10347 -0.816843,2.36203 -0.816843,3.77404 0,2.42779 0.772185,4.32618 2.29544,5.69517 1.52245,1.3901 3.64169,2.07459 6.35611,2.07459 2.27352,0 4.37084,-0.574064 6.29116,-1.74411 1.9195,-1.16924 3.86255,-2.8687 5.84863,-5.12029l0 -9.82161zm51.3385 17.3924c0,3.9949 -0.684492,6.70932 -2.09732,8.07749 -1.3901,1.39091 -3.90639,2.0754 -7.52616,2.0754 -3.61977,0 -6.13607,-0.684492 -7.50424,-2.03074 -1.3901,-1.36898 -2.07459,-3.95105 -2.07459,-7.74702 0,-4.03956 0.706415,-6.7759 2.09651,-8.14489 1.41283,-1.3901 3.95105,-2.07459 7.61467,-2.07459 3.57592,0 6.04756,0.684492 7.43847,2.03074 1.36817,1.36817 2.05266,3.97298 2.05266,7.8136zm59.8805 -2.03074c0,1.12539 -0.0227352,2.05266 -0.0885049,2.82485 -0.0665817,0.750262 -0.154275,1.39091 -0.264703,1.92031 -0.110428,0.507482 -0.242779,0.927271 -0.397866,1.25774 -0.154275,0.331284 -0.485559,0.728338 -0.993041,1.23663 -0.529405,0.485559 -1.41283,1.10347 -2.64865,1.80988 -1.25774,0.705603 -2.67057,1.34625 -4.28153,1.92031 -1.58903,0.551329 -3.31122,1.01496 -5.18687,1.34625 -1.87647,0.353208 -3.8187,0.529405 -5.80478,0.529405 -4.43661,0 -8.36493,-0.684492 -11.7866,-2.07459 -3.44276,-1.36817 -6.31227,-3.42084 -8.65156,-6.11415 -2.31818,-2.6925 -4.0834,-6.00291 -5.25346,-9.88819 -1.19197,-3.88447 -1.78796,-8.32027 -1.78796,-13.3309 0,-5.78286 0.728338,-10.7927 2.16309,-14.9866 1.45668,-4.21576 3.46549,-7.70317 6.04756,-10.4614 2.58288,-2.75908 5.65051,-4.81174 9.18177,-6.15799 3.53208,-1.34706 7.41655,-2.00882 11.6542,-2.00882 1.72138,0 3.39891,0.154275 5.07645,0.463636 1.6548,0.286626 3.19998,0.706415 4.65666,1.2139 1.43475,0.529405 2.73716,1.10347 3.86255,1.7433 1.14813,0.662569 1.96497,1.2139 2.42779,1.69946 0.485559,0.463636 0.816843,0.86069 1.01578,1.19197 0.176198,0.331284 0.331284,0.750262 0.440901,1.25856 0.110428,0.529405 0.198933,1.16924 0.265515,1.9195 0.0657697,0.772997 0.0876929,1.67753 0.0876929,2.75908 0,2.5163 -0.198121,4.28234 -0.639834,5.2973 -0.441712,1.01578 -0.993041,1.52326 -1.67753,1.52326 -0.728338,0 -1.52245,-0.309361 -2.33929,-0.905348 -0.816843,-0.595987 -1.78796,-1.27967 -2.91335,-2.00801 -1.10347,-0.728338 -2.45053,-1.41283 -3.9949,-2.00882 -1.54518,-0.595987 -3.39972,-0.904536 -5.562,-0.904536 -4.23768,0 -7.46039,1.63287 -9.71199,4.87751 -2.22886,3.26656 -3.35507,8.03365 -3.35507,14.324 0,3.09036 0.287438,5.82752 0.838767,8.21066 0.574064,2.36203 1.39091,4.34811 2.49438,5.93795 1.10347,1.58903 2.47164,2.80293 4.12725,3.59703 1.67753,0.79492 3.59785,1.19197 5.80478,1.19197 2.22967,0 4.17191,-0.331284 5.78286,-1.01496 1.61095,-0.662569 3.02378,-1.41283 4.23768,-2.22967 1.19197,-0.816031 2.20694,-1.56711 3.04571,-2.22886 0.816843,-0.684492 1.50134,-1.01578 2.05266,-1.01578 0.397866,0 0.706415,0.110428 0.971118,0.331284 0.265515,0.220856 0.463636,0.61791 0.618722,1.19197 0.154275,0.595987 0.264703,1.34625 0.352396,2.2516 0.0885049,0.904536 0.133163,2.07459 0.133163,3.50934zm52.2431 4.70132c0,1.25774 -0.0657697,2.31737 -0.198121,3.2219 -0.133163,0.883425 -0.309361,1.58903 -0.508294,2.09732 -0.220044,0.529405 -0.507482,0.882613 -0.838767,1.08155 -0.352396,0.198121 -0.750262,0.286626 -1.16924,0.286626l-37.7648 0c-1.14732,0 -2.05266,-0.397054 -2.67057,-1.17005 -0.639834,-0.772185 -0.949195,-2.05266 -0.949195,-3.81789l0 -3.00186c0,-0.772997 0.0219232,-1.4786 0.0885049,-2.09651 0.0665817,-0.618722 0.198933,-1.23663 0.397054,-1.80988 0.198933,-0.595987 0.463636,-1.19197 0.772997,-1.78796 0.330472,-0.61791 0.750262,-1.28048 1.27967,-2.00882l21.6967 -33.3063 -20.5705 0c-0.816843,0 -1.47941,-0.529405 -1.98689,-1.56629 -0.507482,-1.0377 -0.750262,-2.69331 -0.750262,-4.98875 0,-1.25774 0.0438465,-2.29544 0.154275,-3.15613 0.110428,-0.838767 0.287438,-1.50052 0.485559,-2.00882 0.220856,-0.485559 0.507482,-0.837955 0.86069,-1.05881 0.331284,-0.220856 0.751074,-0.331284 1.2139,-0.331284l35.3589 0c0.61791,0 1.12539,0.0665817 1.56711,0.198933 0.418977,0.132351 0.79492,0.353208 1.05962,0.705603 0.286626,0.353208 0.507482,0.816843 0.661757,1.43475 0.155087,0.595987 0.220856,1.34625 0.220856,2.27352l0 3.17806c0,0.861502 -0.0438465,1.63369 -0.132351,2.29544 -0.0885049,0.662569 -0.220856,1.3024 -0.397054,1.92031 -0.155087,0.595987 -0.419789,1.2139 -0.728338,1.80988 -0.331284,0.595987 -0.706415,1.25856 -1.14813,1.94224l-21.5635 33.2397 22.844 0c0.375131,0 0.750262,0.0885049 1.10347,0.265515 0.331284,0.176198 0.61791,0.485559 0.86069,0.971118 0.242779,0.463636 0.418977,1.12539 0.552141,1.98608 0.132351,0.838767 0.198121,1.89839 0.198121,3.20079z"/>
  <path class="fil2" d="M673.469 595.762c2.40993,-3.4931 4.74597,-7.0406 7.01137,-10.6368 29.4185,-46.7111 46.4456,-102.013 46.4456,-161.292 0,-83.6956 -33.9258,-159.469 -88.7745,-214.318 -7.05684,-7.5627 -19.9461,2.80211 -11.4813,11.4813 51.9085,51.9093 84.0163,123.624 84.0163,202.837 0,55.1889 -15.5907,106.734 -42.6001,150.48 -3.0928,5.00824 -6.33175,9.91742 -9.71767,14.7154l-0.735646 -23.8338 -0.310985 -10.0766 -10.1099 0.277694 -0.7868 0.0219232 -9.32306 0.255771 1.58253 51.2468 0.313421 10.144 10.0741 -0.311797 54.4248 -1.68159 -0.277694 -10.1099 -0.277694 -10.1099 -10.9251 0.33778 -18.5479 0.573252z"/>
 </g>
</svg>
