<?xml version="1.0" encoding="UTF-8"?>
<!DOCTYPE svg PUBLIC "-//W3C//DTD SVG 1.1//EN" "http://www.w3.org/Graphics/SVG/1.1/DTD/svg11.dtd">
<!-- Creator: CorelDRAW -->
<svg xmlns="http://www.w3.org/2000/svg" xml:space="preserve" width="1280px" height="512px" style="shape-rendering:geometricPrecision; text-rendering:geometricPrecision; image-rendering:optimizeQuality; fill-rule:evenodd; clip-rule:evenodd"
viewBox="0 0 552.398 174.744"
 xmlns:xlink="http://www.w3.org/1999/xlink">
 <defs>
  <style type="text/css">
   <![CDATA[
    .str0 {stroke:#43AC3E;stroke-width:10.1733}
    .fil1 {fill:none}
    .fil0 {fill:#43AC3E;fill-rule:nonzero}
   ]]>
  </style>
 </defs>
 <g id="Vrstva_x0020_1">
  <metadata id="CorelCorpID_0Corel-Layer"/>
  <path class="fil0" d="M91.364 65.5603c0,0.824448 -0.0435419,1.51868 -0.115569,2.09734 -0.0724342,0.57866 -0.173761,1.05599 -0.318629,1.40311 -0.144462,0.347115 -0.318222,0.622202 -0.520468,0.781313 -0.216896,0.173354 -0.448441,0.260438 -0.708879,0.260438l-13.7279 0 0 44.2069c0,0.275087 -0.0866769,0.535525 -0.275087,0.752421 -0.188003,0.231545 -0.491576,0.419549 -0.911125,0.549768 -0.419549,0.144462 -0.998209,0.260438 -1.72133,0.347115 -0.708879,0.0866769 -1.60576,0.130219 -2.69065,0.130219 -1.07064,0 -1.96753,-0.0435419 -2.69065,-0.130219 -0.708879,-0.0866769 -1.28754,-0.202653 -1.70709,-0.347115 -0.433792,-0.130219 -0.737771,-0.318222 -0.911125,-0.549768 -0.188003,-0.216896 -0.275087,-0.477333 -0.275087,-0.752421l0 -44.2069 -13.7422 0c-0.275087,0 -0.520875,-0.0870839 -0.708879,-0.260438 -0.202653,-0.159111 -0.376007,-0.434198 -0.520875,-0.781313 -0.130219,-0.347115 -0.245788,-0.824448 -0.318222,-1.40311 -0.0577846,-0.57866 -0.101327,-1.27289 -0.101327,-2.09734 0,-0.839098 0.0435419,-1.56222 0.101327,-2.15553 0.0724342,-0.592903 0.188003,-1.07064 0.318222,-1.41776 0.144868,-0.361357 0.318222,-0.607552 0.520875,-0.766663 0.188003,-0.159111 0.433792,-0.231138 0.708879,-0.231138l38.6522 0c0.260438,0 0.491983,0.0720273 0.708879,0.231138 0.202246,0.159111 0.376007,0.405306 0.520468,0.766663 0.144868,0.347115 0.246195,0.824855 0.318629,1.41776 0.0720273,0.59331 0.115569,1.31643 0.115569,2.15553z"/>
  <path id="1" class="fil0" d="M138.537 114.382c0,0.318222 -0.0577846,0.57866 -0.173761,0.795556 -0.115569,0.202653 -0.376007,0.376414 -0.809798,0.520875 -0.419549,0.144868 -1.04175,0.245788 -1.8662,0.30398 -0.810205,0.0577846 -1.92398,0.0866769 -3.34174,0.0866769 -1.18621,0 -2.14088,-0.0288923 -2.83511,-0.0866769 -0.708879,-0.0581915 -1.27289,-0.173761 -1.6782,-0.318222 -0.404899,-0.159518 -0.694229,-0.361764 -0.86799,-0.59331 -0.173354,-0.245788 -0.318222,-0.535118 -0.433792,-0.86799l-4.90396 -12.2524c-0.592903,-1.38887 -1.17156,-2.61821 -1.73598,-3.68886 -0.578253,-1.07024 -1.20046,-1.96712 -1.89468,-2.69065 -0.694636,-0.723122 -1.49019,-1.25824 -2.38707,-1.63465 -0.911125,-0.361357 -1.95288,-0.549361 -3.13909,-0.549361l-3.47155 0 0 20.9026c0,0.275087 -0.101327,0.535525 -0.275087,0.752421 -0.188003,0.231545 -0.491576,0.419549 -0.911125,0.549768 -0.434198,0.144462 -0.998209,0.260438 -1.70709,0.347115 -0.694229,0.0866769 -1.60576,0.130219 -2.70489,0.130219 -1.07064,0 -1.96753,-0.0435419 -2.69065,-0.130219 -0.723528,-0.0866769 -1.30178,-0.202653 -1.72133,-0.347115 -0.419549,-0.130219 -0.723528,-0.318222 -0.88264,-0.549768 -0.173354,-0.216896 -0.260438,-0.477333 -0.260438,-0.752421l0 -49.805c0,-1.244 0.318222,-2.14088 0.954667,-2.69065 0.636852,-0.549768 1.41776,-0.824448 2.35818,-0.824448l14.1906 0c1.44665,0 2.63286,0.0288923 3.55864,0.0866769 0.940424,0.0577846 1.77952,0.130219 2.54619,0.202246 2.19866,0.318629 4.18043,0.853747 5.95955,1.62041 1.76487,0.766663 3.25506,1.75022 4.48441,2.97998 1.22975,1.22935 2.17018,2.69065 2.82087,4.36844 0.651094,1.6782 0.969317,3.61642 0.969317,5.78619 0,1.83731 -0.231545,3.5155 -0.694229,5.01994 -0.463091,1.51868 -1.15732,2.864 -2.0542,4.05021 -0.911532,1.18621 -2.02531,2.21331 -3.35598,3.09555 -1.31643,0.86799 -2.83552,1.57687 -4.52795,2.11199 0.824448,0.405306 1.59111,0.88264 2.31464,1.44665 0.708879,0.564417 1.38846,1.244 2.02531,2.0542 0.636445,0.810205 1.244,1.72133 1.80801,2.74843 0.56401,1.04175 1.11378,2.19866 1.6489,3.50085l4.61463 10.8057c0.434198,1.07064 0.708879,1.8662 0.853747,2.35778 0.144462,0.491983 0.216896,0.88264 0.216896,1.15732zm-14.379 -37.2056c0,-1.80841 -0.404899,-3.32709 -1.22935,-4.57109 -0.810205,-1.2444 -2.15553,-2.12664 -4.02173,-2.63286 -0.56401,-0.144868 -1.20046,-0.260438 -1.92398,-0.332872 -0.723122,-0.0866769 -1.72133,-0.130219 -2.99422,-0.130219l-4.99064 0 0 15.5506 5.67062 0c1.59111,0 2.96533,-0.188003 4.15154,-0.57866 1.18621,-0.376007 2.18442,-0.911125 2.96533,-1.60535 0.795556,-0.694636 1.38887,-1.51908 1.77952,-2.47375 0.404899,-0.969317 0.592903,-2.03955 0.592903,-3.22577z"/>
  <path id="12" class="fil0" d="M189.514 114.309c0,0.275087 -0.0866769,0.535525 -0.275087,0.752421 -0.188003,0.231545 -0.491576,0.419549 -0.911125,0.549768 -0.419549,0.144462 -0.983559,0.260438 -1.69244,0.347115 -0.708879,0.0866769 -1.59111,0.130219 -2.6764,0.130219 -1.09913,0 -2.01066,-0.0435419 -2.73378,-0.130219 -0.708879,-0.0866769 -1.28754,-0.202653 -1.69244,-0.347115 -0.405306,-0.130219 -0.708879,-0.318222 -0.88264,-0.549768 -0.188003,-0.216896 -0.27468,-0.477333 -0.27468,-0.752421l0 -22.1759 -20.5123 0 0 22.1759c0,0.275087 -0.0866769,0.535525 -0.260438,0.752421 -0.173761,0.231545 -0.463091,0.419549 -0.896882,0.549768 -0.419549,0.144462 -0.983559,0.260438 -1.69244,0.347115 -0.708879,0.0866769 -1.60576,0.130219 -2.7053,0.130219 -1.07024,0 -1.96712,-0.0435419 -2.69065,-0.130219 -0.723122,-0.0866769 -1.30178,-0.202653 -1.72133,-0.347115 -0.419549,-0.130219 -0.723122,-0.318222 -0.911125,-0.549768 -0.188003,-0.216896 -0.275087,-0.477333 -0.275087,-0.752421l0 -51.8015c0,-0.27468 0.0870839,-0.535118 0.275087,-0.752014 0.188003,-0.231545 0.491576,-0.419549 0.911125,-0.549768 0.419549,-0.144868 0.998209,-0.260438 1.72133,-0.347115 0.723528,-0.0870839 1.62041,-0.130219 2.69065,-0.130219 1.09954,0 1.99642,0.043135 2.7053,0.130219 0.708879,0.0866769 1.27289,0.202246 1.69244,0.347115 0.433792,0.130219 0.723122,0.318222 0.896882,0.549768 0.173761,0.216896 0.260438,0.477333 0.260438,0.752014l0 20.1363 20.5123 0 0 -20.1363c0,-0.27468 0.0866769,-0.535118 0.27468,-0.752014 0.173761,-0.231545 0.477333,-0.419549 0.88264,-0.549768 0.404899,-0.144868 0.983559,-0.260438 1.69244,-0.347115 0.723122,-0.0870839 1.63465,-0.130219 2.73378,-0.130219 1.08529,0 1.96753,0.043135 2.6764,0.130219 0.708879,0.0866769 1.27289,0.202246 1.69244,0.347115 0.419549,0.130219 0.723122,0.318222 0.911125,0.549768 0.18841,0.216896 0.275087,0.477333 0.275087,0.752014l0 51.8015z"/>
  <path id="123" class="fil0" d="M237.944 100.567c0,2.48799 -0.231138,4.7302 -0.694229,6.72662 -0.463091,1.98177 -1.25865,3.68845 -2.37242,5.07731 -1.11378,1.40311 -2.58932,2.47375 -4.39733,3.19687 -1.80841,0.737771 -4.03597,1.11378 -6.68348,1.11378 -0.85334,0 -1.69244,-0.0720273 -2.53154,-0.202246 -0.824448,-0.115976 -1.59111,-0.28933 -2.28534,-0.477333 -0.694229,-0.202653 -1.28754,-0.419549 -1.79376,-0.636852 -0.520875,-0.231138 -0.85334,-0.433792 -1.0271,-0.621795 -0.159111,-0.173761 -0.30398,-0.376007 -0.419549,-0.56401 -0.115569,-0.202653 -0.216896,-0.463091 -0.303573,-0.781313 -0.0724342,-0.332872 -0.130219,-0.737771 -0.159111,-1.2151 -0.0292992,-0.477333 -0.0435419,-1.08489 -0.0435419,-1.82266 0,-0.954667 0.0142427,-1.76487 0.0577846,-2.43021 0.0435419,-0.665337 0.115976,-1.18621 0.216896,-1.57687 0.101327,-0.376007 0.231545,-0.651094 0.419549,-0.795556 0.188003,-0.159111 0.419549,-0.245788 0.694636,-0.245788 0.260031,0 0.56401,0.10092 0.896882,0.27468 0.332465,0.188003 0.723122,0.376007 1.14267,0.57866 0.419549,0.202653 0.925775,0.390657 1.48979,0.57866 0.564417,0.173354 1.22975,0.27468 1.98177,0.27468 0.766663,0 1.43241,-0.115569 2.01066,-0.318222 0.59331,-0.216896 1.07064,-0.57866 1.44665,-1.11378 0.376414,-0.520875 0.665744,-1.2151 0.86799,-2.09734 0.202653,-0.86799 0.30398,-1.99642 0.30398,-3.38528l0 -37.6687c0,-0.28933 0.0866769,-0.535118 0.27468,-0.752014 0.173761,-0.202653 0.477333,-0.390657 0.88264,-0.520875 0.419142,-0.144462 0.983559,-0.245788 1.72133,-0.318222 0.737771,-0.0724342 1.63465,-0.115569 2.70489,-0.115569 1.08489,0 1.96753,0.043135 2.6764,0.115569 0.708472,0.0724342 1.27289,0.173761 1.72133,0.318222 0.433792,0.130219 0.737771,0.318222 0.925775,0.520875 0.188003,0.216896 0.27468,0.462684 0.27468,0.752014l0 38.1317z"/>
  <path id="1234" class="fil0" d="M261.003 114.309c0,0.275087 -0.10092,0.535525 -0.288923,0.752421 -0.173761,0.231545 -0.47774,0.419549 -0.911532,0.549768 -0.419549,0.144462 -0.983559,0.260438 -1.69244,0.347115 -0.708879,0.0866769 -1.60576,0.130219 -2.7053,0.130219 -1.07024,0 -1.96712,-0.0435419 -2.69065,-0.130219 -0.723122,-0.0866769 -1.30178,-0.202653 -1.72133,-0.347115 -0.419549,-0.130219 -0.723122,-0.318222 -0.911125,-0.549768 -0.188003,-0.216896 -0.275087,-0.477333 -0.275087,-0.752421l0 -51.8015c0,-0.27468 0.0870839,-0.535118 0.275087,-0.752014 0.188003,-0.231545 0.491576,-0.419549 0.940017,-0.549768 0.434198,-0.144868 0.998209,-0.260438 1.70709,-0.347115 0.708879,-0.0870839 1.60576,-0.130219 2.676,-0.130219 1.09954,0 1.99642,0.043135 2.7053,0.130219 0.708879,0.0866769 1.27289,0.202246 1.69244,0.347115 0.433792,0.130219 0.737771,0.318222 0.911532,0.549768 0.188003,0.216896 0.288923,0.477333 0.288923,0.752014l0 51.8015zm-2.97957 -68.1045c0.376007,-0.433792 0.723122,-0.766663 1.08489,-1.02669 0.347115,-0.246195 0.780906,-0.448441 1.27289,-0.59331 0.491983,-0.144462 1.08489,-0.231545 1.79376,-0.27468 0.708879,-0.0435419 1.59111,-0.0581915 2.63286,-0.0581915 1.30178,0 2.31423,0.0870839 3.02311,0.246195 0.723528,0.173354 1.2151,0.390657 1.49019,0.665337 0.260031,0.260438 0.332465,0.56401 0.188003,0.911532 -0.144868,0.332465 -0.405306,0.694229 -0.810205,1.05599l-9.40261 8.47684c-0.28933,0.245788 -0.57866,0.477333 -0.86799,0.650687 -0.30398,0.188003 -0.651094,0.347115 -1.08489,0.477333 -0.419549,0.115976 -0.925775,0.217303 -1.51908,0.275087 -0.592903,0.043135 -1.33067,0.0724342 -2.21331,0.0724342 -0.954667,0 -1.72133,-0.0292992 -2.29999,-0.115976 -0.57866,-0.0866769 -0.997802,-0.216896 -1.22935,-0.404899 -0.246195,-0.188003 -0.332872,-0.419549 -0.275087,-0.708879 0.0581915,-0.27468 0.246195,-0.607552 0.59331,-1.01245l7.6235 -8.63636z"/>
  <path id="12345" class="fil0" d="M318.519 87.606c0,5.01953 -0.665744,9.33018 -1.98218,12.9035 -1.31602,3.57288 -3.19687,6.49507 -5.65597,8.75152 -2.4591,2.25686 -5.43908,3.9204 -8.95417,4.97639 -3.52974,1.05599 -7.71018,1.59111 -12.5706,1.59111l-13.0915 0c-0.940424,0 -1.72133,-0.27468 -2.35818,-0.824448 -0.636445,-0.549768 -0.954667,-1.44665 -0.954667,-2.69065l0 -47.809c0,-1.244 0.318222,-2.14088 0.954667,-2.69065 0.636852,-0.549768 1.41776,-0.824448 2.35818,-0.824448l14.0604 0c4.88972,0 9.04126,0.578253 12.4408,1.72133 3.39953,1.14267 6.27818,2.83511 8.60706,5.07731 2.32888,2.24221 4.108,5.01953 5.3231,8.33238 1.21551,3.2982 1.82306,7.13152 1.82306,11.4857zm-11.5293 0.376007c0,-2.60397 -0.30398,-5.00529 -0.911532,-7.24709 -0.607552,-2.22796 -1.59111,-4.16619 -2.93644,-5.80084 -1.33067,-1.63465 -3.05241,-2.92219 -5.1644,-3.83332 -2.09734,-0.925775 -4.86042,-1.38887 -8.28884,-1.38887l-5.62708 0 0 37.3069 5.80084 0c3.05241,0 5.62708,-0.404899 7.71018,-1.18621 2.09734,-0.795556 3.83332,-1.99601 5.23643,-3.58753 1.40352,-1.59111 2.44486,-3.58712 3.13909,-5.95955 0.694636,-2.37242 1.04175,-5.13551 1.04175,-8.30349z"/>
  <path id="123456" class="fil0" d="M357.793 111.171c0,0.838691 -0.0288923,1.56222 -0.101327,2.14088 -0.0724342,0.57866 -0.173761,1.05599 -0.318222,1.432 -0.144868,0.390657 -0.318222,0.665337 -0.535118,0.824448 -0.202653,0.173761 -0.463091,0.260438 -0.737771,0.260438l-25.1269 0c-0.940424,0 -1.72133,-0.27468 -2.35818,-0.824448 -0.636445,-0.549768 -0.954667,-1.44665 -0.954667,-2.69065l0 -49.8055c0,-0.27468 0.0870839,-0.535118 0.275087,-0.752014 0.188003,-0.231545 0.491576,-0.419549 0.911125,-0.549768 0.419549,-0.144868 0.998209,-0.260438 1.72133,-0.347115 0.723528,-0.0870839 1.62041,-0.130219 2.69065,-0.130219 1.09954,0 1.99642,0.043135 2.7053,0.130219 0.708879,0.0866769 1.27289,0.202246 1.69244,0.347115 0.433792,0.130219 0.737771,0.318222 0.911532,0.549768 0.188003,0.216896 0.288923,0.477333 0.288923,0.752014l0 44.1202 17.2434 0c0.27468,0 0.535118,0.0870839 0.737771,0.231545 0.216896,0.159111 0.39025,0.419549 0.535118,0.766663 0.144462,0.361764 0.245788,0.824855 0.318222,1.40311 0.0724342,0.57866 0.101327,1.28754 0.101327,2.14129z"/>
  <path id="1234567" class="fil0" d="M409.29 111.677c0.332872,1.01245 0.549768,1.82266 0.636852,2.41556 0.0720273,0.59331 -0.0292992,1.04175 -0.347522,1.33108 -0.303573,0.303573 -0.85334,0.477333 -1.6489,0.549361 -0.795556,0.0724342 -1.88044,0.115976 -3.26931,0.115976 -1.432,0 -2.56043,-0.0288923 -3.37063,-0.0724342 -0.795556,-0.0435419 -1.41735,-0.130219 -1.8369,-0.245788 -0.419549,-0.130219 -0.723528,-0.30398 -0.896882,-0.535118 -0.159111,-0.231545 -0.30398,-0.520875 -0.419549,-0.896882l-3.68886 -11.0084 -20.599 0 -3.47196 10.719c-0.115569,0.39025 -0.260438,0.723122 -0.448441,0.997802 -0.173354,0.260438 -0.477333,0.477333 -0.882233,0.636852 -0.404899,0.144462 -0.998209,0.260031 -1.73598,0.318222 -0.752014,0.0577846 -1.73598,0.0866769 -2.95108,0.0866769 -1.30178,0 -2.31423,-0.0435419 -3.052,-0.130219 -0.737771,-0.0866769 -1.244,-0.28933 -1.51908,-0.622202 -0.28933,-0.318222 -0.390657,-0.780906 -0.303573,-1.37422 0.0866769,-0.592903 0.303573,-1.38846 0.636445,-2.37242l16.9101 -48.6477c0.173761,-0.47774 0.361764,-0.86799 0.59331,-1.17197 0.231545,-0.28933 0.592903,-0.520875 1.08489,-0.679987 0.491983,-0.144462 1.17156,-0.245788 2.0542,-0.28933 0.86799,-0.043135 2.03955,-0.0720273 3.47155,-0.0720273 1.66355,0 2.99463,0.0288923 3.99284,0.0720273 0.983559,0.0435419 1.75022,0.144868 2.29999,0.28933 0.549361,0.159111 0.954667,0.390657 1.18621,0.708879 0.245788,0.30398 0.448441,0.723528 0.621795,1.27289l16.9537 48.605zm-25.1847 -40.2148l-0.043135 0 -7.75372 23.3043 15.5506 0 -7.75372 -23.3043z"/>
  <path id="12345678" class="fil0" d="M429.499 109.724c0,2.63246 -0.448441,4.39733 -1.37422,5.29421 -0.911125,0.911532 -2.56043,1.35997 -4.93285,1.35997 -2.37202,0 -4.02132,-0.448441 -4.9182,-1.33108 -0.911125,-0.896882 -1.35957,-2.57467 -1.35957,-5.06266 0,-2.66175 0.462684,-4.44128 1.37422,-5.33816 0.925775,-0.911125 2.58932,-1.35957 4.99064,-1.35957 2.34313,0 3.96354,0.448441 4.87466,1.33067 0.896882,0.896882 1.34532,2.58932 1.34532,5.10661z"/>
  <path id="123456789" class="fil0" d="M468.759 108.364c0,0.737771 -0.0288923,1.35997 -0.0724342,1.85155 -0.043135,0.491983 -0.10092,0.911532 -0.159111,1.2444 -0.0720273,0.347115 -0.159111,0.621795 -0.260031,0.824448 -0.101327,0.216896 -0.318629,0.491576 -0.651094,0.809798 -0.347115,0.318222 -0.925775,0.723528 -1.75022,1.18621 -0.810205,0.463091 -1.75063,0.88264 -2.79197,1.244 -1.04175,0.376414 -2.18442,0.665744 -3.41418,0.896882 -1.22935,0.231545 -2.48799,0.332872 -3.78978,0.332872 -2.90754,0 -5.48262,-0.448441 -7.73907,-1.34532 -2.24221,-0.911125 -4.12265,-2.24221 -5.65638,-4.00708 -1.51868,-1.76487 -2.676,-3.91999 -3.44266,-6.46618 -0.781313,-2.54578 -1.17156,-5.45332 -1.17156,-8.72263 0,-3.79018 0.477333,-7.05949 1.41735,-9.82216 0.954667,-2.74843 2.2711,-5.03418 3.96354,-6.84219 1.69285,-1.80841 3.70351,-3.15374 6.01774,-4.02173 2.31464,-0.882233 4.86083,-1.31643 7.6235,-1.31643 1.14308,0 2.24221,0.101327 3.32709,0.30398 1.09954,0.188003 2.11199,0.462684 3.05241,0.795556 0.954667,0.347115 1.79376,0.723122 2.54578,1.14267 0.752421,0.434198 1.2733,0.795556 1.59152,1.09954 0.303573,0.318222 0.535118,0.57866 0.650687,0.795556 0.130219,0.202653 0.231545,0.477333 0.30398,0.824448 0.0724342,0.332872 0.130219,0.752421 0.173354,1.244 0.0435419,0.491983 0.0581915,1.09954 0.0581915,1.80841 0,1.63465 -0.144868,2.79197 -0.419549,3.45731 -0.28933,0.651094 -0.651094,0.983559 -1.09954,0.983559 -0.491983,0 -0.998209,-0.188003 -1.53333,-0.592903 -0.535118,-0.390657 -1.17156,-0.824448 -1.90933,-1.30219 -0.737771,-0.491576 -1.60576,-0.925775 -2.61862,-1.31602 -1.02669,-0.405306 -2.24221,-0.59331 -3.64531,-0.59331 -2.77732,0 -4.88931,1.05599 -6.36485,3.19687 -1.46089,2.12664 -2.19866,5.26572 -2.19866,9.38837 0,2.02531 0.173354,3.81907 0.549768,5.38129 0.361357,1.54757 0.911125,2.84976 1.63465,3.8911 0.708879,1.05599 1.62,1.83731 2.70489,2.35778 1.08489,0.520875 2.35778,0.781313 3.79018,0.781313 1.47554,0 2.73378,-0.216896 3.80443,-0.651094 1.05599,-0.433792 1.98177,-0.925775 2.76308,-1.46089 0.795556,-0.535118 1.46089,-1.0271 1.99601,-1.46089 0.535118,-0.448441 0.998209,-0.665744 1.35997,-0.665744 0.260438,0 0.462684,0.0724342 0.636445,0.217303 0.173354,0.144462 0.303573,0.404899 0.404899,0.780906 0.101327,0.376414 0.173761,0.86799 0.231545,1.4613 0.0577846,0.592903 0.0866769,1.35957 0.0866769,2.28534z"/>
  <path id="12345678910" class="fil0" d="M502.913 111.46c0,0.824448 -0.0435419,1.51868 -0.130219,2.09734 -0.0724342,0.57866 -0.188003,1.04134 -0.332872,1.37422 -0.144462,0.347115 -0.318222,0.57866 -0.549361,0.708879 -0.231545,0.130219 -0.477333,0.188003 -0.766663,0.188003l-24.7074 0c-0.766663,0 -1.34532,-0.260438 -1.75063,-0.766663 -0.419549,-0.506226 -0.621795,-1.34532 -0.621795,-2.50264l0 -1.93823c0,-0.520875 0.0288923,-0.969317 0.0720273,-1.38887 0.0292992,-0.404899 0.115976,-0.795556 0.246195,-1.18621 0.130219,-0.376007 0.303573,-0.766663 0.506226,-1.15732 0.216896,-0.404899 0.491983,-0.838691 0.824448,-1.31643l14.1621 -21.8719 -13.3955 0c-0.535118,0 -0.969317,-0.332872 -1.28754,-1.01245 -0.332465,-0.679987 -0.491576,-1.76487 -0.491576,-3.26931 0,-0.810205 0.043135,-1.50443 0.101327,-2.0542 0.0720273,-0.549768 0.188003,-0.983559 0.318222,-1.31643 0.144462,-0.318222 0.332465,-0.549768 0.549768,-0.694229 0.231138,-0.144868 0.506226,-0.217303 0.809798,-0.217303l23.1016 0c0.390657,0 0.737771,0.0435419 1.01286,0.130219 0.28933,0.0870839 0.520468,0.246195 0.694229,0.477333 0.188003,0.217303 0.332872,0.535525 0.433792,0.926182 0.101327,0.39025 0.144868,0.882233 0.144868,1.47514l0 2.08309c0,0.564417 -0.0288923,1.07064 -0.0866769,1.50443 -0.0581915,0.434198 -0.144868,0.853747 -0.246195,1.244 -0.115569,0.405306 -0.27468,0.795963 -0.491576,1.20086 -0.217303,0.390657 -0.463091,0.810205 -0.737771,1.25865l-14.075 21.8287 14.9141 0c0.260031,0 0.491576,0.0577846 0.723122,0.173354 0.231545,0.115976 0.419549,0.318222 0.57866,0.636445 0.144462,0.30398 0.27468,0.737771 0.347115,1.28754 0.0866769,0.549768 0.130219,1.25865 0.130219,2.09774z"/>
  <path class="fil0" d="M9.39407 16.3937l100.629 0 0 10.1733 -99.8494 0 0 120.105 394.86 0 0 10.1733 -395.639 0c-2.57508,0 -4.9182,-1.05559 -6.61878,-2.75535l-0.0199398 -0.0199398c-1.69936,-1.70017 -2.75535,-4.0437 -2.75535,-6.61878l0 -121.663c0,-2.57508 1.05559,-4.9182 2.75535,-6.61878l0.0199398 -0.0199398c1.70058,-1.69976 4.0437,-2.75535 6.61878,-2.75535zm435.476 130.278l97.3545 0 0 -120.105 -392.365 0 0 -10.1733 393.144 0c2.57508,0 4.91861,1.05599 6.61878,2.75535l0.0199398 0.0199398c1.69976,1.70058 2.75535,4.0437 2.75535,6.61878l0 121.663c0,2.57508 -1.05599,4.91861 -2.75535,6.61878l-0.0199398 0.0199398c-1.70017,1.69936 -4.0437,2.75535 -6.61878,2.75535l-98.1337 0 0 -10.1733z"/>
  <polyline class="fil1 str0" points="95.9888,3.59648 114.158,21.7657 94.862,41.0617 "/>
  <polyline class="fil1 str0" points="460.248,133.683 442.078,151.852 461.374,171.148 "/>
 </g>
</svg>
