<?xml version="1.0" encoding="UTF-8"?>
<!DOCTYPE svg PUBLIC "-//W3C//DTD SVG 1.1//EN" "http://www.w3.org/Graphics/SVG/1.1/DTD/svg11.dtd">
<!-- Creator: CorelDRAW -->
<svg xmlns="http://www.w3.org/2000/svg" xml:space="preserve" width="146px" height="512px" style="shape-rendering:geometricPrecision; text-rendering:geometricPrecision; image-rendering:optimizeQuality; fill-rule:evenodd; clip-rule:evenodd"
viewBox="0 0 278.705 918.647"
 xmlns:xlink="http://www.w3.org/1999/xlink">
 <defs>
  <style type="text/css">
   <![CDATA[
    .str0 {stroke:#00A35C;stroke-width:0.858377}
    .fil0 {fill:#43AC3E}
    .fil1 {fill:white;fill-rule:nonzero}
   ]]>
  </style>
 </defs>
 <g id="Vrstva_x0020_1">
  <metadata id="CorelCorpID_0Corel-Layer"/>
  <path class="fil0 str0" d="M278.276 22.8974l0 872.852c0,12.3574 -10.1132,22.4682 -22.4682,22.4682l-232.911 0c-12.355,0 -22.4677,-10.1132 -22.4677,-22.4682l0 -872.852c0,-12.355 10.1103,-22.4682 22.4677,-22.4682l232.911 0c12.3574,0 22.4682,10.1107 22.4682,22.4682z"/>
  <path class="fil1" d="M230.65 76.5342l0 -13.4844c0,-5.82811 -4.74346,-10.5721 -10.573,-10.5721l-161.449 0c-5.82908,0 -10.5716,4.74394 -10.5716,10.5721l0 13.4844 -18.2605 18.259 0 21.5928c0,0.626265 0.036009,1.23161 0.091969,1.81651l-0.091969 0 0 153.389 21.9173 0 0 -10.9467 175.279 0 0 10.9467 21.9173 0 0 -153.389 -0.0905091 0c0.0540135,-0.584903 0.0905091,-1.19024 0.0905091,-1.81651l0 -21.5928 -18.2595 -18.259zm-5.47191 59.9278l1.81408 0 0 73.038 -20.2896 0c1.26421,-2.15421 2.03013,-4.61548 2.03013,-7.28891 0,-7.52929 -5.741,-13.6771 -13.0688,-14.4639 1.31968,-2.1766 2.12453,-4.72302 2.12453,-7.45338 0,-8.06115 -6.56532,-14.6021 -14.6036,-14.6021 -8.06261,0 -14.626,6.54099 -14.626,14.6021 0,2.73036 0.802417,5.27678 2.1221,7.45338 -7.32637,0.786846 -13.0688,6.93465 -13.0688,14.4639 0,2.67343 0.767381,5.13469 2.03159,7.28891l-56.8096 0 0 -10.9467 14.6026 0c2.01845,0 3.65686,-1.63841 3.65686,-3.65686 0,-2.01359 -1.63841,-3.6554 -3.65686,-3.6554l-16.7442 0 25.5718 -25.5494 -6.704 -6.70692c-15.2664,-15.2649 -40.1028,-15.2649 -55.3668,0l-6.68843 6.70692 25.5547 25.5494 -16.7442 0c-2.0131,0 -3.65783,1.64182 -3.65783,3.6554 0,2.01845 1.64474,3.65686 3.65783,3.65686l14.6012 0 0 10.9467 -29.2033 0 0 -73.038 1.81554 0c6.79694,0 12.8051,-3.38777 16.4435,-8.55847 3.6374,5.1707 9.62706,8.55847 16.4191,8.55847l3.65589 0c6.79694,0 12.8051,-3.38777 16.4435,-8.55847 3.6374,5.1707 9.62706,8.55847 16.4191,8.55847 6.79743,0 12.8051,-3.38777 16.4425,-8.55847 3.6374,5.1707 9.64555,8.55847 16.4425,8.55847 6.79208,0 12.7822,-3.38777 16.4191,-8.55847 3.64032,5.1707 9.64652,8.55847 16.444,8.55847l3.6554 0c6.79208,0 12.7817,-3.38777 16.4191,-8.55847 3.64032,5.1707 9.64652,8.55847 16.4454,8.55847zm-169.809 80.3502l7.28891 0 0 36.5185 -7.28891 0 0 -36.5185zm14.6036 0l7.28891 0 0 36.5185 -7.28891 0 0 -36.5185zm18.2595 -18.259l2.1401 0 1.5153 1.5153 1.49827 -1.5153 2.13524 0 0 10.9467 -7.28891 0 0 -10.9467zm3.6554 -36.5185c-2.01602,0 -3.6554,1.63792 -3.6554,3.65686l0 20.3991 -20.4011 -20.3991 1.5333 -1.53476c12.4134,-12.4105 32.612,-12.4105 45.0434,0l1.5153 1.53476 -20.402 20.3991 0 -20.3991c0,-2.01894 -1.61992,-3.65686 -3.6335,-3.65686zm-7.31226 54.7775l7.31226 0 0 36.5185 -7.31226 0 0 -36.5185zm14.6012 0l7.3147 0 0 36.5185 -7.3147 0 0 -36.5185zm14.6051 0l7.31226 0 0 36.5185 -7.31226 0 0 -36.5185zm14.6255 0l7.28939 0 0 36.5185 -7.28939 0 0 -36.5185zm14.6041 0l7.28891 0 0 36.5185 -7.28891 0 0 -36.5185zm14.6012 0l7.31324 0 0 36.5185 -7.31324 0 0 -36.5185zm36.5195 -7.31226c-4.03058,0 -7.31324,-3.2593 -7.31324,-7.28891 0,-4.03204 3.28266,-7.3147 7.31324,-7.3147 4.0296,0 7.31226,3.28266 7.31226,7.3147 0,4.0296 -3.28266,7.28891 -7.31226,7.28891zm-10.9467 -21.894c-4.03058,0 -7.31372,-3.28266 -7.31372,-7.31226 0,-4.02912 3.28315,-7.31324 7.31372,-7.31324 4.00868,0 7.28891,3.28412 7.28891,7.31324 0,4.0296 -3.28023,7.31226 -7.28891,7.31226zm-3.6554 14.6051c0,4.0296 -3.28315,7.28891 -7.31518,7.28891 -4.02912,0 -7.28891,-3.2593 -7.28891,-7.28891 0,-4.03204 3.25979,-7.3147 7.28891,-7.3147 4.03204,0 7.31518,3.28266 7.31518,7.3147zm-7.31518 14.6012l7.31518 0 0 36.5185 -7.31518 0 0 -36.5185zm14.6041 0l7.31324 0 0 36.5185 -7.31324 0 0 -36.5185zm14.6255 0l7.28891 0 0 36.5185 -7.28891 0 0 -36.5185zm14.6041 0l7.28891 0 0 36.5185 -7.28891 0 0 -36.5185zm-131.473 -157.021l21.9159 0 0 17.8838 -3.58436 17.8999 -0.0540135 11.6805 -29.2247 0 0 -9.95065 10.9472 -18.2605 0 -19.2531zm83.9837 36.8742l0 10.5901 -25.5479 0 0 -47.4643 21.9144 0 0 18.259 3.6335 18.6152zm36.5185 19.7203c0,7.04317 -5.72057,12.7871 -12.7637,12.7871l-3.6554 0c-7.04414,0 -12.7871,-5.74392 -12.7871,-12.7871l0 -1.817 29.2062 0 0 1.817zm-36.5185 0c0,7.04317 -5.72057,12.7871 -12.7637,12.7871 -7.06117,0 -12.7842,-5.74392 -12.7842,-12.7871l0 -1.817 25.5479 0 0 1.817zm-32.8626 0c0,7.04317 -5.72495,12.7871 -12.7861,12.7871 -7.04317,0 -12.7637,-5.74392 -12.7637,-12.7871l0 -1.817 25.5499 0 0 1.817zm0 -9.13023l-25.5499 0 0 -10.5901 3.56489 -17.9048 0.0700716 -18.9695 21.9149 0 0 47.4643zm-62.0683 7.31324l29.2062 0 0 1.817c0,7.04317 -5.741,12.7871 -12.7866,12.7871l-3.65589 0c-7.04268,0 -12.7637,-5.74392 -12.7637,-12.7871l0 -1.817zm131.449 -7.31324l-29.2062 0 0 -10.9458 -3.65686 -18.6347 0 -17.8838 21.9173 0 0 19.2531 10.9458 18.2605 0 9.95065zm-167.968 -9.44847l18.2595 -18.2595 0 -16.498c0,-1.7985 1.4608,-3.25833 3.2593,-3.25833l18.6332 0 0 17.241 -10.9458 18.259 0 11.9642 -29.2062 0 0 -9.44847zm29.2062 16.7617l0 1.817c0,7.04317 -5.74246,12.7871 -12.7866,12.7871l-3.59993 0 -1.46226 -0.160581c-2.4238,-0.269094 -4.63884,-1.19706 -6.43637,-2.62525 -0.0540135,-0.0311429 -0.109973,-0.0871029 -0.160094,-0.121652 -1.3226,-1.06908 -2.44569,-2.40676 -3.24568,-3.95953 -0.287099,-0.533323 -0.520184,-1.08611 -0.734778,-1.65641l-0.0866163 -0.269094c-0.428215,-1.26421 -0.693903,-2.58438 -0.693903,-3.99457l0 -1.817 29.2062 0zm-29.2062 17.2965c2.1002,1.74303 4.57947,3.0632 7.28939,3.83058l0 73.8039 -7.28939 0 0 -77.6345zm0 84.9467l10.9472 0 0 36.5185 -10.9472 0 0 -36.5185zm7.28939 47.4657l-7.28939 0 0 -3.6335 7.28939 0 0 3.6335zm197.197 0l-7.28891 0 0 -3.6335 7.28891 0 0 3.6335zm0 -10.9472l-10.9458 0 0 -36.5185 10.9458 0 0 36.5185zm-7.28891 -43.8308l0 -73.8039c2.71089,-0.767381 5.1887,-2.08755 7.28891,-3.83058l0 77.6345 -7.28891 0zm7.28891 -93.114c0,1.41019 -0.265202,2.73036 -0.693417,3.99457l-0.0866163 0.269094c-0.213621,0.570305 -0.44768,1.12309 -0.735265,1.65641 -0.816529,1.55277 -1.92162,2.89045 -3.24519,3.95953 -0.0506073,0.0345492 -0.104621,0.072018 -0.160581,0.121652 -1.81651,1.4282 -4.02522,2.33815 -6.43491,2.62525l-1.46226 0.160581 -3.59944 0c-7.0456,0 -12.7871,-5.74392 -12.7871,-12.7871l0 -1.817 29.2048 0 0 1.817zm-29.2048 -9.13023l0 -11.9642 -10.9472 -18.259 0 -17.241 18.6332 0c1.79996,0 3.25979,1.45982 3.25979,3.25833l0 16.498 18.259 18.2595 0 9.44847 -29.2048 0z"/>
  <path class="fil1" d="M105.787 302.664c0,0.984895 -0.0515805,1.81408 -0.138197,2.50555 -0.0861297,0.690984 -0.207295,1.26129 -0.380041,1.67588 -0.172746,0.41459 -0.380041,0.743051 -0.621885,0.933315 -0.259362,0.207295 -0.535756,0.310943 -0.846698,0.310943l-16.3987 0 0 52.8062c0,0.328461 -0.103648,0.639403 -0.327974,0.898765 -0.224813,0.276393 -0.587823,0.501207 -1.08903,0.656435 -0.50072,0.172746 -1.19219,0.311429 -2.05592,0.415077 -0.846698,0.103648 -1.91821,0.155228 -3.21405,0.155228 -1.27881,0 -2.35032,-0.0515805 -3.21405,-0.155228 -0.846698,-0.103648 -1.53768,-0.242331 -2.03889,-0.415077 -0.518724,-0.155228 -0.881248,-0.380041 -1.08854,-0.656435 -0.224813,-0.259362 -0.328461,-0.570305 -0.328461,-0.898765l0 -52.8062 -16.4157 0c-0.328461,0 -0.621885,-0.103648 -0.846698,-0.310943 -0.241844,-0.190264 -0.449139,-0.518724 -0.621885,-0.933315 -0.155715,-0.41459 -0.293911,-0.984895 -0.380528,-1.67588 -0.0690984,-0.69147 -0.120679,-1.52065 -0.120679,-2.50555 0,-1.00241 0.0515805,-1.86663 0.120679,-2.57464 0.0866163,-0.708502 0.224813,-1.27881 0.380528,-1.6934 0.172746,-0.432108 0.380041,-0.72602 0.621885,-0.916283 0.224813,-0.189777 0.518238,-0.276393 0.846698,-0.276393l46.1713 0c0.310943,0 0.587336,0.0866163 0.846698,0.276393 0.241844,0.190264 0.449139,0.484175 0.621885,0.916283 0.172746,0.41459 0.293911,0.984895 0.380041,1.6934 0.0866163,0.708015 0.138197,1.57223 0.138197,2.57464z"/>
  <path id="1" class="fil1" d="M162.135 360.983c0,0.380041 -0.0690984,0.690984 -0.207295,0.950346 -0.138197,0.241844 -0.449139,0.449139 -0.967377,0.621885 -0.501207,0.173233 -1.24426,0.293911 -2.22915,0.36301 -0.967864,0.0690984 -2.29825,0.103648 -3.99165,0.103648 -1.417,0 -2.55761,-0.0345492 -3.38679,-0.103648 -0.846698,-0.0690984 -1.52065,-0.207295 -2.00434,-0.380041 -0.484175,-0.190264 -0.829667,-0.432108 -1.03696,-0.708502 -0.207295,-0.293911 -0.380041,-0.639403 -0.518238,-1.03696l-5.85779 -14.6357c-0.708502,-1.65885 -1.39997,-3.12743 -2.07344,-4.40624 -0.69147,-1.27881 -1.43452,-2.34983 -2.2637,-3.21405 -0.829667,-0.86373 -1.78001,-1.50313 -2.85152,-1.95276 -1.08854,-0.431622 -2.33231,-0.656435 -3.74932,-0.656435l-4.14736 0 0 24.9688c0,0.328461 -0.120679,0.639403 -0.327974,0.898765 -0.224813,0.276393 -0.587823,0.501207 -1.08903,0.656435 -0.518238,0.172746 -1.19219,0.311429 -2.03889,0.415077 -0.82918,0.103648 -1.91772,0.155228 -3.23108,0.155228 -1.27881,0 -2.35032,-0.0515805 -3.21405,-0.155228 -0.864216,-0.103648 -1.5552,-0.242331 -2.05641,-0.415077 -0.501207,-0.155228 -0.86373,-0.380041 -1.05399,-0.656435 -0.207295,-0.259362 -0.310943,-0.570305 -0.310943,-0.898765l0 -59.4937c0,-1.4861 0.380041,-2.55713 1.14012,-3.21405 0.760569,-0.656435 1.6934,-0.984895 2.81698,-0.984895l16.951 0c1.72795,0 3.14495,0.0345492 4.25101,0.103648 1.12309,0.0690984 2.1255,0.155715 3.0413,0.242331 2.62622,0.380041 4.99357,1.01944 7.11908,1.93524 2.10799,0.915797 3.888,2.09047 5.35658,3.55954 1.46858,1.46858 2.59216,3.21405 3.36976,5.21839 0.7776,2.00434 1.15764,4.32011 1.15764,6.91178 0,2.1946 -0.276393,4.19894 -0.829667,5.99599 -0.552787,1.81456 -1.38245,3.42134 -2.45348,4.83835 -1.08854,1.417 -2.41942,2.64374 -4.00917,3.69774 -1.57223,1.03696 -3.38679,1.88366 -5.40816,2.52306 0.984895,0.483689 1.90069,1.05399 2.76442,1.72795 0.846698,0.673952 1.65885,1.4861 2.41942,2.45348 0.760082,0.967864 1.4861,2.05641 2.16005,3.28315 0.673466,1.24426 1.33039,2.62671 1.96979,4.18191l5.5123 12.9078c0.518238,1.27881 0.846698,2.22915 1.01944,2.81649 0.172746,0.587336 0.258876,1.05399 0.258876,1.38245zm-17.1758 -44.4434c0,-2.15957 -0.483689,-3.97413 -1.46858,-5.46023 -0.967864,-1.4861 -2.57464,-2.5401 -4.8038,-3.14495 -0.673952,-0.172746 -1.43452,-0.310943 -2.29825,-0.397072 -0.864216,-0.104134 -2.05641,-0.155715 -3.57706,-0.155715l-5.96144 0 0 18.5758 6.77359 0c1.90069,0 3.54251,-0.224813 4.95951,-0.69147 1.417,-0.449139 2.60919,-1.08854 3.54202,-1.91821 0.950346,-0.82918 1.65885,-1.81408 2.1255,-2.95469 0.483689,-1.15764 0.708502,-2.43645 0.708502,-3.85345z"/>
  <path id="12" class="fil1" d="M223.029 360.896c0,0.328461 -0.103648,0.639403 -0.328461,0.898765 -0.224326,0.276393 -0.587336,0.501207 -1.08854,0.656435 -0.501207,0.172746 -1.17516,0.311429 -2.02186,0.415077 -0.846698,0.103648 -1.90069,0.155228 -3.19653,0.155228 -1.31336,0 -2.4019,-0.0515805 -3.26611,-0.155228 -0.846698,-0.103648 -1.53768,-0.242331 -2.02137,-0.415077 -0.484175,-0.155228 -0.846698,-0.380041 -1.05399,-0.656435 -0.224813,-0.259362 -0.328461,-0.570305 -0.328461,-0.898765l0 -26.4895 -24.5027 0 0 26.4895c0,0.328461 -0.103648,0.639403 -0.310943,0.898765 -0.207295,0.276393 -0.552787,0.501207 -1.07151,0.656435 -0.50072,0.172746 -1.17467,0.311429 -2.02137,0.415077 -0.846698,0.103648 -1.91821,0.155228 -3.23157,0.155228 -1.27832,0 -2.34983,-0.0515805 -3.21405,-0.155228 -0.86373,-0.103648 -1.5552,-0.242331 -2.05592,-0.415077 -0.501207,-0.155228 -0.864216,-0.380041 -1.08903,-0.656435 -0.224326,-0.259362 -0.327974,-0.570305 -0.327974,-0.898765l0 -61.8781c0,-0.328461 0.103648,-0.639403 0.327974,-0.898765 0.224813,-0.276393 0.587823,-0.50072 1.08903,-0.656435 0.50072,-0.172746 1.19219,-0.310943 2.05592,-0.41459 0.864216,-0.103648 1.93573,-0.155715 3.21405,-0.155715 1.31336,0 2.38487,0.0520671 3.23157,0.155715 0.846698,0.103648 1.52065,0.241844 2.02137,0.41459 0.518724,0.155715 0.864216,0.380041 1.07151,0.656435 0.207295,0.259362 0.310943,0.570305 0.310943,0.898765l0 24.053 24.5027 0 0 -24.053c0,-0.328461 0.103648,-0.639403 0.328461,-0.898765 0.207295,-0.276393 0.569818,-0.50072 1.05399,-0.656435 0.483689,-0.172746 1.17467,-0.310943 2.02137,-0.41459 0.864216,-0.103648 1.95276,-0.155715 3.26611,-0.155715 1.29584,0 2.34983,0.0520671 3.19653,0.155715 0.846698,0.103648 1.52065,0.241844 2.02186,0.41459 0.501207,0.155715 0.864216,0.380041 1.08854,0.656435 0.224813,0.259362 0.328461,0.570305 0.328461,0.898765l0 61.8781z"/>
  <path class="fil1" d="M46.6078 444.9c0,2.71138 -0.224813,4.90744 -0.700716,6.58722 -0.463251,1.67977 -1.16397,3.09532 -2.10312,4.24566 -0.952292,1.15083 -2.12988,2.01067 -3.54494,2.59265 -1.42868,0.581983 -3.09532,0.872975 -4.9999,0.872975 -1.05837,0 -1.97125,-0.0661787 -2.71187,-0.211675 -0.753756,-0.145496 -1.29632,-0.290992 -1.62673,-0.436488 -0.344032,-0.158634 -0.568845,-0.35717 -0.701203,-0.581983 -0.132357,-0.237951 -0.224813,-0.502666 -0.277853,-0.793658 -0.0525537,-0.30413 -0.0924556,-0.634537 -0.105594,-1.01847 -0.0267635,-0.370309 -0.0399019,-0.859837 -0.0399019,-1.45496 0,-0.714341 0.0131384,-1.3226 0.0530403,-1.79899 0.0399019,-0.475903 0.105594,-0.859837 0.211675,-1.1372 0.105594,-0.290992 0.224813,-0.489528 0.344032,-0.621885 0.132357,-0.132357 0.30413,-0.198536 0.515805,-0.198536 0.118732,0 0.383447,0.0399019 0.793658,0.106081 0.396586,0.0661787 0.833073,0.0924556 1.29632,0.0924556 0.674439,0 1.24328,-0.105594 1.74595,-0.30413 0.489528,-0.211675 0.886114,-0.542568 1.19024,-0.992194 0.317755,-0.449626 0.542568,-1.03161 0.701203,-1.74595 0.158634,-0.714341 0.237951,-1.83841 0.237951,-3.38631l0 -35.4621c0,-0.264715 0.0793171,-0.489528 0.224813,-0.674926 0.158634,-0.198536 0.423349,-0.370309 0.78052,-0.502666 0.35717,-0.145496 0.846698,-0.25109 1.4681,-0.330407 0.621885,-0.0793171 1.41554,-0.119219 2.36784,-0.119219 0.952292,0 1.74595,0.0399019 2.36784,0.119219 0.621399,0.0793171 1.11093,0.184911 1.48124,0.330407 0.383447,0.132357 0.648162,0.30413 0.806797,0.502666 0.145496,0.185398 0.224813,0.410211 0.224813,0.674926l0 35.6475zm0.741104 -47.4331c0,1.97076 -0.397072,3.32013 -1.19073,4.07388 -0.78052,0.753756 -2.27489,1.12455 -4.47096,1.12455 -2.16881,0 -3.6374,-0.35717 -4.41792,-1.08465 -0.780033,-0.727479 -1.16397,-2.0238 -1.16397,-3.91525 0,-1.95811 0.397072,-3.32013 1.20387,-4.08751 0.806797,-0.767381 2.28852,-1.15083 4.45782,-1.15083 2.19558,0 3.67681,0.370309 4.43105,1.11141 0.766895,0.740618 1.15083,2.05008 1.15083,3.92839z"/>
  <path id="1" class="fil1" d="M66.1315 443.736c0,0.264228 -0.0661787,0.489041 -0.224813,0.687577 -0.158634,0.185398 -0.423349,0.35717 -0.793658,0.476389 -0.383447,0.132357 -0.872975,0.224813 -1.49437,0.290992 -0.621885,0.0661787 -1.40241,0.105594 -2.36784,0.105594 -0.952292,0 -1.74595,-0.0394153 -2.3547,-0.105594 -0.621399,-0.0661787 -1.12407,-0.158634 -1.49437,-0.290992 -0.383934,-0.119219 -0.648162,-0.290992 -0.793658,-0.476389 -0.159121,-0.198536 -0.238438,-0.423349 -0.238438,-0.687577l0 -34.5633c0,-0.25109 0.0793171,-0.489041 0.238438,-0.674439 0.145496,-0.198536 0.409724,-0.35717 0.793658,-0.489528 0.370309,-0.131871 0.872975,-0.224813 1.49437,-0.290992 0.608747,-0.0661787 1.40241,-0.0924556 2.3547,-0.0924556 0.965431,0 1.74595,0.0262768 2.36784,0.0924556 0.621399,0.0661787 1.11093,0.159121 1.49437,0.290992 0.370309,0.132357 0.635024,0.290992 0.793658,0.489528 0.158634,0.185398 0.224813,0.423349 0.224813,0.674439l0 34.5633zm-3.71671 -51.5338c0.184911,-0.290992 0.396586,-0.528943 0.661301,-0.740618 0.25109,-0.198536 0.581983,-0.370309 0.965431,-0.476389 0.383934,-0.118732 0.872975,-0.211675 1.46858,-0.25109 0.595122,-0.0530403 1.3226,-0.0793171 2.1693,-0.0793171 1.19024,0 2.1294,0.0525537 2.81698,0.145496 0.688064,0.105594 1.17759,0.25109 1.46858,0.449626 0.30413,0.198536 0.436488,0.423349 0.409724,0.674439 -0.0262768,0.264715 -0.158634,0.52943 -0.383447,0.820422l-7.52637 8.99447c-0.198536,0.25109 -0.409724,0.462764 -0.621399,0.635024 -0.198536,0.171773 -0.463251,0.30413 -0.793658,0.409724 -0.317755,0.106081 -0.727479,0.172259 -1.21701,0.224813 -0.489528,0.0530403 -1.11093,0.0793171 -1.86517,0.0793171 -0.899252,0 -1.61359,-0.0394153 -2.14302,-0.118732 -0.528943,-0.0793171 -0.899252,-0.198536 -1.11093,-0.35717 -0.198536,-0.172259 -0.290992,-0.383447 -0.25109,-0.648162 0.0394153,-0.251576 0.171773,-0.555707 0.409724,-0.886114l5.54247 -8.87573z"/>
  <path id="12" class="fil1" d="M108.657 443.736c0,0.290992 -0.0661787,0.528943 -0.198536,0.727479 -0.131871,0.184911 -0.343545,0.344032 -0.661301,0.475903 -0.30413,0.132357 -0.727479,0.224813 -1.25642,0.277853 -0.528943,0.0530403 -1.17711,0.0793171 -1.95763,0.0793171 -0.819935,0 -1.49486,-0.0262768 -2.01067,-0.0793171 -0.515805,-0.0530403 -0.939154,-0.145496 -1.26956,-0.277853 -0.317755,-0.131871 -0.555707,-0.290992 -0.688064,-0.475903 -0.145496,-0.198536 -0.211675,-0.436488 -0.211675,-0.727479l0 -3.83593c-1.78537,1.91772 -3.65054,3.39945 -5.60816,4.45733 -1.94449,1.05837 -4.11379,1.58732 -6.48162,1.58732 -2.6452,0 -4.86754,-0.502666 -6.69281,-1.52114 -1.81213,-1.01847 -3.30699,-2.39411 -4.45782,-4.12692 -1.15083,-1.73281 -1.9839,-3.75662 -2.49971,-6.07141 -0.515805,-2.3148 -0.767381,-4.74832 -0.767381,-7.30107 0,-3.08218 0.330894,-5.8466 0.979056,-8.29375 0.661301,-2.46029 1.62673,-4.55027 2.89678,-6.28309 1.25642,-1.73281 2.84374,-3.05541 4.72205,-3.98143 1.89145,-0.939154 4.06075,-1.40192 6.5079,-1.40192 1.94449,0 3.70358,0.396586 5.27775,1.17711 1.57369,0.793658 3.13473,1.94449 4.68214,3.47876l0 -18.7164c0,-0.264715 0.0793171,-0.489528 0.211675,-0.701203 0.145496,-0.211675 0.410211,-0.383447 0.78052,-0.528943 0.370309,-0.132357 0.872975,-0.251576 1.49486,-0.330894 0.621399,-0.0661787 1.40192,-0.105594 2.35421,-0.105594 0.965917,0 1.74595,0.0394153 2.36784,0.105594 0.621399,0.0793171 1.11093,0.198536 1.4681,0.330894 0.370309,0.145496 0.621885,0.317269 0.78052,0.528943 0.158634,0.211675 0.237951,0.436488 0.237951,0.701203l0 50.8326zm-9.69567 -23.0949c-1.38878,-1.75909 -2.72452,-3.09532 -4.00771,-4.02133 -1.28319,-0.939154 -2.61893,-1.40192 -4.00771,-1.40192 -1.27005,0 -2.3547,0.317269 -3.28071,0.952292 -0.912391,0.635024 -1.65301,1.48172 -2.20871,2.53961 -0.555707,1.05837 -0.965431,2.23548 -1.24328,3.54494 -0.264715,1.30946 -0.397072,2.64569 -0.397072,4.00771 0,1.44182 0.119219,2.85736 0.344032,4.21987 0.237951,1.37564 0.60826,2.59265 1.15083,3.66367 0.528943,1.07151 1.23015,1.93135 2.10312,2.57951 0.886114,0.648162 1.99704,0.965431 3.33327,0.965431 0.674439,0 1.3226,-0.0924556 1.95763,-0.290992 0.635024,-0.184911 1.28319,-0.502666 1.94449,-0.939154 0.648162,-0.449626 1.33574,-1.01847 2.0238,-1.73281 0.700716,-0.700716 1.4681,-1.57369 2.28803,-2.61893l0 -11.4679z"/>
  <path id="123" class="fil1" d="M128.22 443.736c0,0.264228 -0.0661787,0.489041 -0.224813,0.687577 -0.158634,0.185398 -0.423349,0.35717 -0.793658,0.476389 -0.383447,0.132357 -0.872975,0.224813 -1.49437,0.290992 -0.621885,0.0661787 -1.40241,0.105594 -2.36784,0.105594 -0.952292,0 -1.74595,-0.0394153 -2.3547,-0.105594 -0.621399,-0.0661787 -1.12407,-0.158634 -1.49437,-0.290992 -0.383934,-0.119219 -0.648162,-0.290992 -0.793658,-0.476389 -0.159121,-0.198536 -0.238438,-0.423349 -0.238438,-0.687577l0 -50.9518c0,-0.264715 0.0793171,-0.489528 0.238438,-0.701203 0.145496,-0.211188 0.409724,-0.383447 0.793658,-0.515805 0.370309,-0.145496 0.872975,-0.25109 1.49437,-0.330407 0.608747,-0.0793171 1.40241,-0.119219 2.3547,-0.119219 0.965431,0 1.74595,0.0399019 2.36784,0.119219 0.621399,0.0793171 1.11093,0.184911 1.49437,0.330407 0.370309,0.132357 0.635024,0.304617 0.793658,0.515805 0.158634,0.211675 0.224813,0.436488 0.224813,0.701203l0 50.9518z"/>
  <path id="1234" class="fil1" d="M167.413 443.854c0,0.370309 -0.132357,0.648162 -0.396586,0.859837 -0.251576,0.198536 -0.661301,0.344032 -1.21701,0.436488 -0.555707,0.0929422 -1.37564,0.145496 -2.46029,0.145496 -1.16397,0 -2.01067,-0.0525537 -2.53961,-0.145496 -0.528943,-0.0924556 -0.899739,-0.237951 -1.12455,-0.436488 -0.211675,-0.211675 -0.330407,-0.489528 -0.330407,-0.859837l0 -2.75128c-1.41554,1.52114 -3.04227,2.71187 -4.8544,3.5717 -1.82527,0.846212 -3.84907,1.26956 -6.07141,1.26956 -1.83841,0 -3.51866,-0.237951 -5.05294,-0.714341 -1.53428,-0.475903 -2.8705,-1.19024 -3.99457,-2.1294 -1.12455,-0.939154 -1.99753,-2.11626 -2.61893,-3.50504 -0.621885,-1.40241 -0.926016,-3.02914 -0.926016,-4.88117 0,-2.0238 0.396586,-3.76975 1.17711,-5.25099 0.793658,-1.49486 1.97076,-2.71187 3.5318,-3.69044 1.56104,-0.965917 3.50504,-1.68026 5.83346,-2.14302 2.32793,-0.462764 5.02618,-0.701203 8.09473,-0.701203l3.37317 0 0 -2.0895c0,-1.08465 -0.106081,-2.03743 -0.330894,-2.84423 -0.211675,-0.819935 -0.581983,-1.49437 -1.08465,-2.03694 -0.502666,-0.542082 -1.17711,-0.939154 -2.01018,-1.20338 -0.846698,-0.264715 -1.87831,-0.383934 -3.12159,-0.383934 -1.62722,0 -3.08218,0.172259 -4.36536,0.542568 -1.26956,0.35717 -2.40725,0.753756 -3.38631,1.20338 -0.978569,0.436488 -1.7985,0.83356 -2.4598,1.19073 -0.661787,0.370309 -1.19073,0.542082 -1.61408,0.542082 -0.277853,0 -0.528943,-0.0793171 -0.753756,-0.264228 -0.211675,-0.185398 -0.397072,-0.436488 -0.542568,-0.78052 -0.132357,-0.330894 -0.25109,-0.740618 -0.330407,-1.23015 -0.0793171,-0.502666 -0.106081,-1.04523 -0.106081,-1.64036 0,-0.793658 0.0530403,-1.42868 0.185398,-1.89145 0.132357,-0.462764 0.383447,-0.886114 0.740618,-1.25642 0.35717,-0.383934 0.992194,-0.793658 1.89145,-1.24328 0.912877,-0.450113 1.97076,-0.873462 3.18777,-1.25691 1.20387,-0.396586 2.53961,-0.700716 3.96829,-0.952292 1.42868,-0.25109 2.90992,-0.370309 4.43105,-0.370309 2.71187,0 5.0398,0.264715 6.95753,0.793658 1.93135,0.528943 3.50553,1.34936 4.74881,2.44715 1.24328,1.09779 2.14254,2.51285 2.71138,4.24566 0.568845,1.71967 0.859837,3.78338 0.859837,6.15073l0 23.2535zm-9.57645 -14.8012l-3.71671 0c-1.57418,0 -2.92354,0.119219 -4.03447,0.344032 -1.11093,0.237951 -2.01067,0.581983 -2.71187,1.04475 -0.700716,0.476389 -1.20338,1.03161 -1.53428,1.6934 -0.317269,0.661301 -0.475903,1.41506 -0.475903,2.26176 0,1.45496 0.449626,2.59265 1.37564,3.41258 0.912391,0.833073 2.18244,1.24328 3.80917,1.24328 1.37564,0 2.63255,-0.344032 3.78338,-1.04475 1.15034,-0.701203 2.3148,-1.71967 3.50504,-3.06904l0 -5.88601z"/>
  <path id="12345" class="fil1" d="M188.603 439.476c0,2.40725 -0.410211,4.02084 -1.25691,4.84127 -0.833073,0.833073 -2.34107,1.24328 -4.51037,1.24328 -2.1693,0 -3.6773,-0.410211 -4.49723,-1.21701 -0.833073,-0.819935 -1.24328,-2.35421 -1.24328,-4.62959 0,-2.43353 0.423349,-4.06075 1.25642,-4.88068 0.846698,-0.83356 2.36784,-1.24328 4.56341,-1.24328 2.14302,0 3.62426,0.409724 4.45782,1.21652 0.819935,0.820422 1.23015,2.36784 1.23015,4.66949z"/>
  <path id="123456" class="fil1" d="M224.502 438.233c0,0.674439 -0.0267635,1.24328 -0.0661787,1.69291 -0.0399019,0.449626 -0.0924556,0.83356 -0.145496,1.13769 -0.0661787,0.317269 -0.145496,0.568845 -0.237951,0.753756 -0.0929422,0.198536 -0.291478,0.449626 -0.595609,0.740618 -0.317269,0.290992 -0.846212,0.661787 -1.60045,1.08465 -0.740618,0.423349 -1.60045,0.807283 -2.55275,1.13769 -0.952292,0.344032 -1.99753,0.608747 -3.12159,0.819935 -1.12455,0.211675 -2.27538,0.304617 -3.46562,0.304617 -2.65883,0 -5.01304,-0.410211 -7.07674,-1.23015 -2.05008,-0.83356 -3.76975,-2.05057 -5.17167,-3.66416 -1.38878,-1.61359 -2.44715,-3.58436 -3.14836,-5.91278 -0.714341,-2.32793 -1.07102,-4.98627 -1.07102,-7.976 0,-3.46562 0.436488,-6.45486 1.29584,-8.98133 0.872975,-2.51285 2.07684,-4.60283 3.62426,-6.25632 1.5479,-1.65349 3.38631,-2.88364 5.50257,-3.6773 2.11675,-0.806797 4.44468,-1.20387 6.97115,-1.20387 1.04475,0 2.05008,0.0929422 3.04227,0.277853 1.00533,0.172259 1.93086,0.423349 2.7907,0.727479 0.872975,0.317755 1.64036,0.661301 2.32793,1.04523 0.688064,0.396586 1.16445,0.727479 1.45545,1.00533 0.277367,0.290992 0.489041,0.528943 0.595122,0.727479 0.118732,0.184911 0.211675,0.436488 0.277853,0.753756 0.0661787,0.30413 0.118732,0.688064 0.158634,1.13769 0.0394153,0.449626 0.0530403,1.00533 0.0530403,1.65349 0,1.49437 -0.132357,2.55275 -0.383934,3.16101 -0.264228,0.595609 -0.595122,0.899739 -1.00533,0.899739 -0.449626,0 -0.912391,-0.172259 -1.40192,-0.542568 -0.489528,-0.35717 -1.07151,-0.753756 -1.74595,-1.19024 -0.674439,-0.449626 -1.4681,-0.846698 -2.39411,-1.20387 -0.939154,-0.370309 -2.05057,-0.542082 -3.33327,-0.542082 -2.53961,0 -4.47096,0.965431 -5.82032,2.92306 -1.33574,1.94449 -2.01018,4.81499 -2.01018,8.58474 0,1.85154 0.158634,3.4919 0.502666,4.92058 0.330407,1.41506 0.833073,2.60579 1.49437,3.55808 0.648162,0.965431 1.48172,1.67977 2.47343,2.15567 0.992194,0.476389 2.15616,0.714341 3.46562,0.714341 1.34936,0 2.50019,-0.19805 3.47876,-0.595122 0.965917,-0.396586 1.81213,-0.846698 2.52647,-1.33574 0.727479,-0.489528 1.33623,-0.939154 1.82527,-1.33623 0.489528,-0.409724 0.912877,-0.60826 1.24377,-0.60826 0.237951,0 0.422863,0.0661787 0.581983,0.198536 0.158634,0.131871 0.277367,0.370309 0.370309,0.713854 0.0924556,0.344032 0.158634,0.793658 0.211675,1.33623 0.0525537,0.542082 0.0793171,1.24328 0.0793171,2.08998z"/>
  <path id="1234567" class="fil1" d="M255.732 441.064c0,0.753756 -0.0394153,1.38878 -0.118732,1.91772 -0.0661787,0.52943 -0.172259,0.952292 -0.304617,1.25691 -0.131871,0.317269 -0.290992,0.528943 -0.50218,0.648162 -0.211675,0.118732 -0.436488,0.171773 -0.701203,0.171773l-22.5922 0c-0.701203,0 -1.23015,-0.237951 -1.60045,-0.701203 -0.383934,-0.462764 -0.568845,-1.23015 -0.568845,-2.28803l0 -1.77271c0,-0.475903 0.0262768,-0.886114 0.0661787,-1.26956 0.0262768,-0.370309 0.105594,-0.727479 0.224813,-1.08465 0.119219,-0.344032 0.277853,-0.701203 0.462764,-1.05837 0.198536,-0.370309 0.450113,-0.766895 0.754243,-1.20387l12.9496 -19.9996 -12.2489 0c-0.489041,0 -0.886114,-0.30413 -1.17711,-0.925529 -0.30413,-0.621885 -0.449626,-1.61408 -0.449626,-2.98972 0,-0.740618 0.0394153,-1.37564 0.0924556,-1.87831 0.0661787,-0.502666 0.172259,-0.899252 0.290992,-1.20338 0.132357,-0.290992 0.30413,-0.502666 0.502666,-0.635024 0.211675,-0.132357 0.463251,-0.198536 0.740618,-0.198536l21.1242 0c0.35717,0 0.674439,0.0399019 0.926016,0.119219 0.264715,0.0793171 0.475903,0.224813 0.635024,0.436488 0.171773,0.198536 0.30413,0.489528 0.396586,0.846698 0.0924556,0.356684 0.132357,0.806797 0.132357,1.34888l0 1.90458c0,0.516291 -0.0262768,0.979056 -0.0793171,1.37564 -0.0530403,0.397072 -0.132357,0.78052 -0.224813,1.13769 -0.106081,0.370309 -0.251576,0.727479 -0.449626,1.09779 -0.198536,0.35717 -0.423349,0.741104 -0.674926,1.15083l-12.8698 19.9602 13.6372 0c0.237951,0 0.449626,0.0530403 0.661301,0.158634 0.211675,0.106081 0.383447,0.290992 0.528943,0.581983 0.132357,0.277853 0.251576,0.674439 0.317755,1.17711 0.0793171,0.502666 0.118732,1.15083 0.118732,1.91821z"/>
 </g>
</svg>
