<?xml version="1.0" encoding="UTF-8"?>
<!DOCTYPE svg PUBLIC "-//W3C//DTD SVG 1.1//EN" "http://www.w3.org/Graphics/SVG/1.1/DTD/svg11.dtd">
<!-- Creator: CorelDRAW -->
<svg xmlns="http://www.w3.org/2000/svg" xml:space="preserve" width="512px" height="146px" style="shape-rendering:geometricPrecision; text-rendering:geometricPrecision; image-rendering:optimizeQuality; fill-rule:evenodd; clip-rule:evenodd"
viewBox="0 0 535.26 116.718"
 xmlns:xlink="http://www.w3.org/1999/xlink">
 <defs>
  <style type="text/css">
   <![CDATA[
    .str0 {stroke:#00A35C;stroke-width:0.501307}
    .fil2 {fill:white}
    .fil0 {fill:#43AC3E}
    .fil1 {fill:white;fill-rule:nonzero}
   ]]>
  </style>
 </defs>
 <g id="Vrstva_x0020_1">
  <metadata id="CorelCorpID_0Corel-Layer"/>
  <polygon class="fil0 str0" points="0.250654,0.250654 444.984,0.250654 534.8,58.3585 444.984,116.467 0.250654,116.467 "/>
  <path class="fil1" d="M65.4513 36.1833c0,0.809935 -0.0426282,1.49199 -0.113675,2.06036 -0.0710469,0.568375 -0.170513,1.03729 -0.312607,1.37803 -0.142094,0.341025 -0.312607,0.611004 -0.511538,0.767307 -0.213141,0.170513 -0.440491,0.255769 -0.69626,0.255769l-13.4836 0 0 43.4202c0,0.269978 -0.0852563,0.525747 -0.269978,0.738888 -0.184722,0.22735 -0.483119,0.412072 -0.894907,0.539957 -0.412072,0.142094 -0.980448,0.255769 -1.69092,0.341025 -0.69626,0.0852563 -1.57696,0.127884 -2.64266,0.127884 -1.05149,0 -1.93248,-0.0426282 -2.64266,-0.127884 -0.69626,-0.0852563 -1.26464,-0.198931 -1.67671,-0.341025 -0.426282,-0.127884 -0.724679,-0.312607 -0.895191,-0.539957 -0.184722,-0.213141 -0.269978,-0.46891 -0.269978,-0.738888l0 -43.4202 -13.4978 0c-0.269978,0 -0.511254,-0.0852563 -0.695976,-0.255769 -0.198931,-0.156303 -0.369444,-0.426282 -0.511538,-0.767307 -0.127884,-0.340741 -0.24156,-0.809651 -0.312607,-1.37803 -0.0568375,-0.568375 -0.0994657,-1.25043 -0.0994657,-2.06036 0,-0.82386 0.0426282,-1.53433 0.0994657,-2.11691 0.0710469,-0.582585 0.184722,-1.05149 0.312607,-1.39224 0.142094,-0.355235 0.312607,-0.596794 0.511538,-0.753097 0.184722,-0.156303 0.425997,-0.22735 0.695976,-0.22735l37.9644 0c0.255769,0 0.483119,0.0710469 0.69626,0.22735 0.198931,0.156303 0.369444,0.397863 0.511538,0.753097 0.142094,0.340741 0.24156,0.809651 0.312607,1.39224 0.0710469,0.582585 0.113675,1.29305 0.113675,2.11691z"/>
  <path id="1" class="fil1" d="M111.784 84.1361c0,0.312607 -0.0568375,0.568375 -0.170513,0.781516 -0.113675,0.198931 -0.369444,0.369444 -0.795726,0.511538 -0.412072,0.142094 -1.02308,0.24156 -1.83301,0.298397 -0.795441,0.0568375 -1.88956,0.0852563 -3.28208,0.0852563 -1.16489,0 -2.10271,-0.0284188 -2.78476,-0.0852563 -0.69626,-0.0568375 -1.25014,-0.170513 -1.648,-0.312607 -0.397863,-0.156303 -0.682051,-0.355235 -0.852563,-0.582585 -0.170513,-0.24156 -0.312607,-0.525747 -0.426282,-0.852563l-4.8167 -12.0342c-0.582301,-1.3641 -1.15068,-2.57161 -1.70484,-3.62311 -0.568375,-1.05149 -1.17938,-1.93219 -1.86143,-2.64266 -0.681766,-0.710469 -1.46328,-1.23622 -2.34426,-1.60566 -0.895191,-0.355235 -1.91798,-0.539957 -3.08315,-0.539957l-3.40997 0 0 20.5309c0,0.269978 -0.0994657,0.525747 -0.269978,0.738888 -0.184722,0.22735 -0.483119,0.412072 -0.895191,0.539957 -0.425997,0.142094 -0.980163,0.255769 -1.67642,0.341025 -0.682051,0.0852563 -1.57724,0.127884 -2.65687,0.127884 -1.05149,0 -1.93248,-0.0426282 -2.64295,-0.127884 -0.710185,-0.0852563 -1.27856,-0.198931 -1.69063,-0.341025 -0.412072,-0.127884 -0.710469,-0.312607 -0.866773,-0.539957 -0.170513,-0.213141 -0.255769,-0.46891 -0.255769,-0.738888l0 -48.9187c0,-1.22201 0.312607,-2.10299 0.93782,-2.64266 0.625213,-0.539957 1.39252,-0.809935 2.31585,-0.809935l13.9383 0c1.42094,0 2.58582,0.0284188 3.49522,0.0852563 0.92361,0.0568375 1.74775,0.127884 2.50057,0.198931 2.15983,0.312607 4.10623,0.83807 5.85398,1.59117 1.73326,0.753097 3.19683,1.71934 4.40434,2.92685 1.2078,1.2078 2.13141,2.64295 2.77083,4.29095 0.639138,1.64829 0.951745,3.55206 0.951745,5.68319 0,1.80459 -0.22735,3.4526 -0.681766,4.93037 -0.4547,1.49199 -1.13675,2.81317 -2.01773,3.97834 -0.895191,1.16517 -1.98903,2.17375 -3.29629,3.04052 -1.29277,0.852563 -2.78476,1.54882 -4.44725,2.07429 0.809935,0.397863 1.56303,0.866773 2.2735,1.42094 0.69626,0.554166 1.36382,1.22201 1.98903,2.01745 0.625213,0.795726 1.22201,1.69092 1.77617,2.69978 0.554166,1.02279 1.09384,2.15954 1.61959,3.43839l4.53251 10.6133c0.426282,1.05149 0.69626,1.83301 0.838354,2.31613 0.142094,0.483119 0.213141,0.866488 0.213141,1.13647zm-14.123 -36.5434c0,-1.77589 -0.397863,-3.26787 -1.2078,-4.48988 -0.795726,-1.22172 -2.11691,-2.0885 -3.94993,-2.58582 -0.554166,-0.142094 -1.17909,-0.255769 -1.88956,-0.326816 -0.710469,-0.0852563 -1.69092,-0.127884 -2.94106,-0.127884l-4.90195 0 0 15.274 5.56951 0c1.56303,0 2.91292,-0.184722 4.07781,-0.568375 1.16517,-0.369444 2.14562,-0.895191 2.91264,-1.57724 0.781516,-0.681766 1.3641,-1.4917 1.74775,-2.42952 0.397863,-0.952029 0.582585,-2.00324 0.582585,-3.16841z"/>
  <path id="12" class="fil1" d="M161.854 84.065c0,0.269978 -0.0852563,0.525747 -0.269978,0.738888 -0.184722,0.22735 -0.483119,0.412072 -0.895191,0.539957 -0.412072,0.142094 -0.965954,0.255769 -1.66221,0.341025 -0.69626,0.0852563 -1.56303,0.127884 -2.62845,0.127884 -1.07991,0 -1.9751,-0.0426282 -2.68557,-0.127884 -0.695976,-0.0852563 -1.26435,-0.198931 -1.66221,-0.341025 -0.397863,-0.127884 -0.69626,-0.312607 -0.866773,-0.539957 -0.184722,-0.213141 -0.269978,-0.46891 -0.269978,-0.738888l0 -21.781 -20.1472 0 0 21.781c0,0.269978 -0.0852563,0.525747 -0.255769,0.738888 -0.170513,0.22735 -0.4547,0.412072 -0.880982,0.539957 -0.411788,0.142094 -0.965954,0.255769 -1.66221,0.341025 -0.69626,0.0852563 -1.57724,0.127884 -2.65687,0.127884 -1.05149,0 -1.93248,-0.0426282 -2.64295,-0.127884 -0.710185,-0.0852563 -1.27856,-0.198931 -1.69063,-0.341025 -0.412072,-0.127884 -0.710469,-0.312607 -0.895191,-0.539957 -0.184722,-0.213141 -0.269978,-0.46891 -0.269978,-0.738888l0 -50.8795c0,-0.269978 0.0852563,-0.525463 0.269978,-0.738604 0.184722,-0.22735 0.483119,-0.412072 0.895191,-0.539957 0.412072,-0.142094 0.980448,-0.255769 1.69063,-0.341025 0.710469,-0.0852563 1.59145,-0.127884 2.64295,-0.127884 1.07963,0 1.96061,0.0426282 2.65687,0.127884 0.69626,0.0852563 1.25043,0.198931 1.66221,0.341025 0.426282,0.127884 0.710469,0.312607 0.880982,0.539957 0.170513,0.213141 0.255769,0.468626 0.255769,0.738604l0 19.778 20.1472 0 0 -19.778c0,-0.269978 0.0852563,-0.525463 0.269978,-0.738604 0.170513,-0.22735 0.46891,-0.412072 0.866773,-0.539957 0.397863,-0.142094 0.966238,-0.255769 1.66221,-0.341025 0.710469,-0.0852563 1.60566,-0.127884 2.68557,-0.127884 1.06542,0 1.93219,0.0426282 2.62845,0.127884 0.69626,0.0852563 1.25014,0.198931 1.66221,0.341025 0.412072,0.127884 0.710469,0.312607 0.895191,0.539957 0.184722,0.213141 0.269978,0.468626 0.269978,0.738604l0 50.8795z"/>
  <path id="123" class="fil1" d="M203.512 85.3865c0,2.91264 -0.24156,5.2714 -0.753097,7.07571 -0.497044,1.80431 -1.25014,3.32471 -2.25901,4.56093 -1.02308,1.23593 -2.28743,2.15954 -3.80783,2.78476 -1.53433,0.625213 -3.32471,0.93782 -5.37058,0.93782 -1.13675,0 -2.1172,-0.0710469 -2.91264,-0.22735 -0.809935,-0.156303 -1.39252,-0.312607 -1.74775,-0.46891 -0.369444,-0.170513 -0.611004,-0.383653 -0.753097,-0.625213 -0.142094,-0.255769 -0.24156,-0.539957 -0.298397,-0.852563 -0.0568375,-0.326816 -0.0994657,-0.682051 -0.113675,-1.09384 -0.0284188,-0.397863 -0.0426282,-0.92361 -0.0426282,-1.56303 0,-0.767307 0.0142094,-1.42094 0.0568375,-1.93219 0.0426282,-0.511538 0.113675,-0.92361 0.22735,-1.22201 0.113675,-0.312607 0.24156,-0.525747 0.369444,-0.667841 0.142094,-0.142094 0.326816,-0.213141 0.554166,-0.213141 0.127884,0 0.412072,0.0426282 0.852563,0.113675 0.426282,0.0710469 0.895191,0.0994657 1.39224,0.0994657 0.724679,0 1.33568,-0.113675 1.87564,-0.326816 0.525747,-0.22735 0.952029,-0.582585 1.27884,-1.0657 0.340741,-0.482835 0.582301,-1.10805 0.752813,-1.87535 0.170513,-0.767307 0.255769,-1.97482 0.255769,-3.63732l0 -38.0922c0,-0.284188 0.0852563,-0.525747 0.24156,-0.724679 0.170513,-0.212857 0.4547,-0.397579 0.838354,-0.539672 0.383653,-0.156303 0.909401,-0.269978 1.57696,-0.355235 0.667841,-0.0852563 1.5204,-0.127884 2.54348,-0.127884 1.02279,0 1.87535,0.0426282 2.5432,0.127884 0.667841,0.0852563 1.19359,0.198931 1.59117,0.355235 0.412072,0.142094 0.69626,0.326816 0.866773,0.539672 0.156303,0.198931 0.24156,0.440491 0.24156,0.724679l0 38.2912zm0.795726 -50.9506c0,2.11691 -0.426282,3.56627 -1.27884,4.37621 -0.83807,0.809651 -2.44373,1.20751 -4.8022,1.20751 -2.33034,0 -3.9073,-0.383653 -4.74565,-1.16489 -0.838354,-0.781516 -1.25043,-2.17404 -1.25043,-4.20569 0,-2.10271 0.426282,-3.56627 1.29305,-4.39042 0.866773,-0.824144 2.45794,-1.23593 4.78828,-1.23593 2.35847,0 3.94993,0.397579 4.75958,1.1933 0.824144,0.795726 1.23622,2.20245 1.23622,4.2199z"/>
  <path id="1234" class="fil1" d="M224.484 84.1361c0,0.284188 -0.0710469,0.525747 -0.24156,0.738888 -0.170228,0.198931 -0.454416,0.383653 -0.852279,0.511538 -0.412072,0.142094 -0.93782,0.24156 -1.60566,0.312607 -0.667841,0.0710469 -1.50591,0.113675 -2.5432,0.113675 -1.02308,0 -1.87564,-0.0426282 -2.52899,-0.113675 -0.667841,-0.0710469 -1.2078,-0.170513 -1.60566,-0.312607 -0.412072,-0.127884 -0.69626,-0.312607 -0.852563,-0.511538 -0.170513,-0.213141 -0.255769,-0.4547 -0.255769,-0.738888l0 -37.126c0,-0.269978 0.0852563,-0.525747 0.255769,-0.724395 0.156303,-0.213141 0.440491,-0.383653 0.852563,-0.525747 0.397863,-0.142094 0.93782,-0.24156 1.60566,-0.312607 0.653348,-0.0710469 1.50591,-0.0994657 2.52899,-0.0994657 1.03729,0 1.87535,0.0284188 2.5432,0.0994657 0.667841,0.0710469 1.19359,0.170513 1.60566,0.312607 0.397863,0.142094 0.682051,0.312607 0.852279,0.525747 0.170513,0.198647 0.24156,0.454416 0.24156,0.724395l0 37.126zm-3.99227 -55.3549c0.198931,-0.312607 0.425997,-0.568375 0.710185,-0.795726 0.269978,-0.213141 0.625213,-0.397863 1.03729,-0.511538 0.412072,-0.127884 0.93782,-0.22735 1.57724,-0.269978 0.639138,-0.0568375 1.42065,-0.0852563 2.33006,-0.0852563 1.27884,0 2.28743,0.0568375 3.02632,0.156303 0.738888,0.113675 1.26464,0.269978 1.57724,0.483119 0.326532,0.213141 0.468626,0.4547 0.440207,0.724679 -0.0284188,0.284188 -0.170513,0.568375 -0.411788,0.880698l-8.08457 9.66181c-0.213141,0.269978 -0.440491,0.497044 -0.667841,0.681766 -0.213141,0.184722 -0.497329,0.326816 -0.852563,0.440491 -0.341025,0.113675 -0.781232,0.184722 -1.30698,0.24156 -0.525747,0.0568375 -1.19359,0.0852563 -2.00352,0.0852563 -0.965954,0 -1.73326,-0.0426282 -2.30164,-0.127884 -0.568375,-0.0852563 -0.966238,-0.213141 -1.19359,-0.383653 -0.213141,-0.184722 -0.312607,-0.412072 -0.269978,-0.695976 0.0426282,-0.269978 0.184722,-0.596794 0.440491,-0.952029l5.95345 -9.53365z"/>
  <path id="12345" class="fil1" d="M270.163 84.1361c0,0.312607 -0.0710469,0.568375 -0.213141,0.781516 -0.142094,0.198931 -0.369444,0.369444 -0.710469,0.511538 -0.326532,0.142094 -0.781232,0.24156 -1.34961,0.298397 -0.568375,0.0568375 -1.26464,0.0852563 -2.10299,0.0852563 -0.880698,0 -1.60538,-0.0284188 -2.15954,-0.0852563 -0.554166,-0.0568375 -1.00887,-0.156303 -1.3641,-0.298397 -0.340741,-0.142094 -0.59651,-0.312607 -0.738604,-0.511538 -0.156303,-0.213141 -0.22735,-0.46891 -0.22735,-0.781516l0 -4.12015c-1.91827,2.06008 -3.92151,3.65153 -6.02421,4.78799 -2.08878,1.13675 -4.41883,1.70513 -6.96203,1.70513 -2.84188,0 -5.22877,-0.539957 -7.18938,-1.63408 -1.94669,-1.09384 -3.55206,-2.57161 -4.78828,-4.43304 -1.23622,-1.86115 -2.13112,-4.0349 -2.68529,-6.52154 -0.554166,-2.48636 -0.824144,-5.1006 -0.824144,-7.84273 0,-3.3105 0.355235,-6.27998 1.05149,-8.90872 0.710469,-2.64266 1.74747,-4.88746 3.11157,-6.74889 1.34961,-1.86115 3.05473,-3.28208 5.07218,-4.27646 2.03194,-1.00887 4.362,-1.50619 6.99045,-1.50619 2.08878,0 3.97834,0.426282 5.66926,1.26464 1.69063,0.852279 3.36734,2.0885 5.02955,3.73678l0 -20.1049c0,-0.283904 0.0852563,-0.525463 0.22735,-0.752813 0.156303,-0.22735 0.440491,-0.412072 0.838354,-0.568375 0.397863,-0.142094 0.93782,-0.269978 1.60538,-0.355235 0.667841,-0.0710469 1.50619,-0.113675 2.52927,-0.113675 1.037,0 1.87535,0.0426282 2.5432,0.113675 0.667841,0.0852563 1.19359,0.213141 1.57696,0.355235 0.397863,0.156303 0.667841,0.341025 0.838354,0.568375 0.170513,0.22735 0.255769,0.46891 0.255769,0.752813l0 54.6021zm-10.4146 -24.8073c-1.4917,-1.88985 -2.92685,-3.32471 -4.30516,-4.31937 -1.37803,-1.00887 -2.81317,-1.50619 -4.30488,-1.50619 -1.3641,0 -2.52927,0.341025 -3.52364,1.02308 -0.980448,0.682051 -1.77617,1.59145 -2.37297,2.72792 -0.59651,1.13675 -1.037,2.40139 -1.3354,3.80783 -0.284188,1.40673 -0.426282,2.84159 -0.426282,4.30516 0,1.54854 0.127884,3.06894 0.369444,4.53251 0.255769,1.47749 0.653632,2.78476 1.23593,3.93543 0.568375,1.15096 1.32147,2.07457 2.25929,2.77083 0.952029,0.695976 2.14533,1.037 3.58048,1.037 0.724679,0 1.42065,-0.0994657 2.10271,-0.312607 0.682051,-0.198931 1.37831,-0.539672 2.08878,-1.00858 0.695976,-0.483119 1.43486,-1.09412 2.17375,-1.86143 0.753097,-0.753097 1.57696,-1.69063 2.45794,-2.81317l0 -12.3184z"/>
  <path id="123456" class="fil1" d="M291.177 84.1361c0,0.284188 -0.0710469,0.525747 -0.24156,0.738888 -0.170228,0.198931 -0.454416,0.383653 -0.852279,0.511538 -0.412072,0.142094 -0.93782,0.24156 -1.60566,0.312607 -0.667841,0.0710469 -1.50591,0.113675 -2.5432,0.113675 -1.02308,0 -1.87564,-0.0426282 -2.52899,-0.113675 -0.667841,-0.0710469 -1.2078,-0.170513 -1.60566,-0.312607 -0.412072,-0.127884 -0.69626,-0.312607 -0.852563,-0.511538 -0.170513,-0.213141 -0.255769,-0.4547 -0.255769,-0.738888l0 -54.73c0,-0.283904 0.0852563,-0.525463 0.255769,-0.752813 0.156303,-0.22735 0.440491,-0.412072 0.852563,-0.554166 0.397863,-0.156303 0.93782,-0.269978 1.60566,-0.355235 0.653348,-0.0852563 1.50591,-0.127884 2.52899,-0.127884 1.03729,0 1.87535,0.0426282 2.5432,0.127884 0.667841,0.0852563 1.19359,0.198931 1.60566,0.355235 0.397863,0.142094 0.682051,0.326816 0.852279,0.554166 0.170513,0.22735 0.24156,0.46891 0.24156,0.752813l0 54.73z"/>
  <path id="1234567" class="fil1" d="M333.276 84.2639c0,0.397863 -0.142094,0.69626 -0.426282,0.92361 -0.269978,0.213141 -0.710185,0.369444 -1.30698,0.46891 -0.596794,0.0994657 -1.47778,0.156303 -2.64295,0.156303 -1.25014,0 -2.15954,-0.0568375 -2.72792,-0.156303 -0.568375,-0.0994657 -0.965954,-0.255769 -1.20751,-0.46891 -0.22735,-0.22735 -0.355235,-0.525747 -0.355235,-0.92361l0 -2.95527c-1.5204,1.63408 -3.26787,2.91264 -5.21456,3.83625 -1.96061,0.909401 -4.13465,1.3641 -6.52154,1.3641 -1.97482,0 -3.77941,-0.255769 -5.42742,-0.767307 -1.64829,-0.511538 -3.08315,-1.27884 -4.29095,-2.28743 -1.2078,-1.00887 -2.14533,-2.2735 -2.81317,-3.7652 -0.667841,-1.50619 -0.994657,-3.25367 -0.994657,-5.24298 0,-2.17375 0.426282,-4.04939 1.26464,-5.64056 0.852563,-1.60566 2.11691,-2.91264 3.79362,-3.96413 1.67642,-1.03729 3.7652,-1.80431 6.26577,-2.30164 2.50057,-0.497329 5.399,-0.753097 8.69529,-0.753097l3.62311 0 0 -2.2448c0,-1.16517 -0.113675,-2.18825 -0.355235,-3.05473 -0.22735,-0.880982 -0.625213,-1.60566 -1.16489,-2.18825 -0.539957,-0.582585 -1.26464,-1.00887 -2.15983,-1.29277 -0.909117,-0.284188 -2.01745,-0.412072 -3.35313,-0.412072 -1.74747,0 -3.3105,0.184722 -4.68853,0.582301 -1.3641,0.383653 -2.58611,0.809935 -3.63732,1.29305 -1.05149,0.46891 -1.93248,0.895191 -2.64295,1.27884 -0.710185,0.397863 -1.27856,0.582585 -1.73326,0.582585 -0.298397,0 -0.568375,-0.0852563 -0.809935,-0.284188 -0.22735,-0.198931 -0.426282,-0.46891 -0.582585,-0.838354 -0.142094,-0.355235 -0.269978,-0.795726 -0.35495,-1.32147 -0.0852563,-0.539957 -0.113675,-1.12226 -0.113675,-1.76168 0,-0.852563 0.0568375,-1.53461 0.198647,-2.03194 0.142094,-0.497044 0.412072,-0.951745 0.795726,-1.34961 0.383653,-0.412072 1.0657,-0.852563 2.03194,-1.33568 0.980163,-0.483119 2.11691,-0.93782 3.42418,-1.34961 1.29277,-0.426282 2.72792,-0.753097 4.26225,-1.02308 1.53461,-0.269978 3.12578,-0.397863 4.75986,-0.397863 2.91264,0 5.41321,0.284188 7.47357,0.852563 2.07429,0.568375 3.7652,1.44907 5.1006,2.62845 1.33568,1.17938 2.30192,2.6995 2.91264,4.56093 0.611004,1.84694 0.92361,4.06332 0.92361,6.6068l0 24.9778zm-10.2867 -15.8989l-3.99255 0c-1.69063,0 -3.13999,0.127884 -4.33329,0.369444 -1.19359,0.255769 -2.15983,0.625213 -2.91292,1.12254 -0.752813,0.511254 -1.29277,1.10805 -1.648,1.81852 -0.341025,0.710469 -0.511538,1.5204 -0.511538,2.42952 0,1.56303 0.483119,2.78504 1.47778,3.66574 0.980163,0.895191 2.34426,1.33568 4.09173,1.33568 1.47778,0 2.82767,-0.369444 4.0636,-1.12254 1.23622,-0.753097 2.48664,-1.84694 3.7652,-3.29629l0 -6.32261z"/>
  <path id="12345678" class="fil1" d="M356.038 79.5612c0,2.58582 -0.440491,4.31909 -1.34989,5.20007 -0.894907,0.895191 -2.51478,1.33568 -4.84483,1.33568 -2.33034,0 -3.94993,-0.440491 -4.83091,-1.30726 -0.895191,-0.880982 -1.33568,-2.52899 -1.33568,-4.97272 0,-2.61453 0.4547,-4.362 1.34989,-5.24298 0.909401,-0.895191 2.5432,-1.3354 4.90195,-1.3354 2.30164,0 3.89309,0.440207 4.78799,1.30698 0.880982,0.880982 1.32147,2.5432 1.32147,5.01563z"/>
  <path id="123456789" class="fil1" d="M394.599 78.2255c0,0.724679 -0.0284188,1.33568 -0.0710469,1.8188 -0.0426282,0.482835 -0.0994657,0.894907 -0.156303,1.22172 -0.0710469,0.341025 -0.156303,0.611004 -0.255769,0.809935 -0.0994657,0.213141 -0.312607,0.483119 -0.639138,0.795726 -0.341025,0.312607 -0.909401,0.710469 -1.71934,1.16489 -0.795726,0.4547 -1.71905,0.866773 -2.74213,1.22201 -1.02308,0.369444 -2.14562,0.653632 -3.35313,0.880982 -1.2078,0.22735 -2.44373,0.326816 -3.72258,0.326816 -2.8558,0 -5.38479,-0.440491 -7.60145,-1.32147 -2.20217,-0.895191 -4.04939,-2.20217 -5.5553,-3.93572 -1.49199,-1.73326 -2.62845,-3.85046 -3.38155,-6.35103 -0.767307,-2.50057 -1.15096,-5.35637 -1.15096,-8.56741 0,-3.72258 0.46891,-6.93361 1.39252,-9.6476 0.937535,-2.6995 2.23059,-4.9443 3.89309,-6.72047 1.66221,-1.77589 3.63732,-3.09736 5.91054,-3.94964 2.27322,-0.866773 4.77379,-1.29305 7.48778,-1.29305 1.12226,0 2.20217,0.0994657 3.26787,0.298397 1.07963,0.184722 2.07429,0.4547 2.9979,0.781516 0.93782,0.341025 1.76168,0.710185 2.50057,1.12226 0.738888,0.426282 1.25043,0.781516 1.56303,1.07991 0.298397,0.312607 0.525463,0.568375 0.639138,0.781516 0.127884,0.198931 0.22735,0.46891 0.298397,0.809935 0.0710469,0.326532 0.127884,0.738604 0.170513,1.22172 0.0426282,0.483119 0.0568375,1.07991 0.0568375,1.77617 0,1.60538 -0.142094,2.74213 -0.412072,3.39576 -0.284188,0.639138 -0.639138,0.965954 -1.07963,0.965954 -0.483119,0 -0.980448,-0.184722 -1.50619,-0.582301 -0.525747,-0.383653 -1.15096,-0.809935 -1.87535,-1.27884 -0.724679,-0.483119 -1.57724,-0.909401 -2.5719,-1.29305 -1.00858,-0.397863 -2.20217,-0.582585 -3.5802,-0.582585 -2.7282,0 -4.80249,1.03729 -6.25185,3.14027 -1.43486,2.0885 -2.15954,5.17165 -2.15954,9.22104 0,1.98903 0.170513,3.75099 0.539957,5.28532 0.355235,1.5204 0.895191,2.79896 1.60538,3.82204 0.69626,1.03729 1.59145,1.80459 2.65716,2.31613 1.06542,0.511254 2.31585,0.767023 3.72229,0.767023 1.44936,0 2.68557,-0.213141 3.73678,-0.639422 1.03729,-0.425997 1.94669,-0.909117 2.71399,-1.43486 0.781232,-0.525747 1.43486,-1.00887 1.96061,-1.43515 0.525747,-0.440491 0.980448,-0.653348 1.33568,-0.653348 0.255769,0 0.454416,0.0707627 0.624929,0.212857 0.170513,0.142094 0.298397,0.397863 0.397863,0.767307 0.0994657,0.369444 0.170513,0.852563 0.22735,1.43515 0.0568375,0.582585 0.0852563,1.3354 0.0852563,2.2448z"/>
  <path id="12345678910" class="fil1" d="M428.144 81.266c0,0.809935 -0.0426282,1.49199 -0.127884,2.06036 -0.0710469,0.568091 -0.184722,1.02279 -0.326816,1.34961 -0.142094,0.341025 -0.312607,0.568375 -0.539957,0.69626 -0.22735,0.127884 -0.46891,0.184722 -0.753097,0.184722l-24.2676 0c-0.752813,0 -1.32119,-0.255769 -1.71905,-0.753097 -0.412072,-0.497329 -0.611004,-1.32119 -0.611004,-2.45794l0 -1.90406c0,-0.511254 0.0284188,-0.951745 0.0710469,-1.36382 0.0284188,-0.397863 0.113675,-0.781516 0.24156,-1.16517 0.127884,-0.369444 0.298397,-0.753097 0.497329,-1.13647 0.213141,-0.397863 0.483119,-0.824144 0.809935,-1.29305l13.9099 -21.4829 -13.157 0c-0.525463,0 -0.951745,-0.326816 -1.26435,-0.994373 -0.326816,-0.667841 -0.483119,-1.73355 -0.483119,-3.21132 0,-0.795441 0.0426282,-1.47749 0.0994657,-2.01745 0.0710469,-0.539957 0.184722,-0.966238 0.312607,-1.29305 0.142094,-0.312322 0.326816,-0.539672 0.539957,-0.681766 0.22735,-0.142094 0.497329,-0.213141 0.795441,-0.213141l22.6907 0c0.383653,0 0.724679,0.0426282 0.994657,0.127884 0.283904,0.0852563 0.511254,0.24156 0.681766,0.46891 0.184722,0.212857 0.326816,0.525463 0.426282,0.909117 0.0994657,0.383653 0.142094,0.866773 0.142094,1.44936l0 2.04587c0,0.554166 -0.0284188,1.05149 -0.0852563,1.47778 -0.0568375,0.426282 -0.142094,0.838354 -0.24156,1.22172 -0.113675,0.397863 -0.269978,0.781516 -0.483119,1.17938 -0.213141,0.383653 -0.454416,0.795726 -0.724395,1.23622l-13.8246 21.44 14.6485 0c0.255769,0 0.483119,0.0568375 0.710469,0.170513 0.22735,0.113675 0.412072,0.312607 0.568375,0.625213 0.142094,0.298397 0.269978,0.724679 0.341025,1.26464 0.0852563,0.539957 0.127884,1.23593 0.127884,2.06008z"/>
  <polygon class="fil2 str0" points="459.545,23.9039 512.801,58.3588 459.545,92.8143 "/>
 </g>
</svg>
