<?xml version="1.0" encoding="UTF-8"?>
<!DOCTYPE svg PUBLIC "-//W3C//DTD SVG 1.1//EN" "http://www.w3.org/Graphics/SVG/1.1/DTD/svg11.dtd">
<!-- Creator: CorelDRAW -->
<svg xmlns="http://www.w3.org/2000/svg" xml:space="preserve" width="512px" height="512px" style="shape-rendering:geometricPrecision; text-rendering:geometricPrecision; image-rendering:optimizeQuality; fill-rule:evenodd; clip-rule:evenodd"
viewBox="0 0 28.5134 28.5134"
 xmlns:xlink="http://www.w3.org/1999/xlink">
 <defs>
  <style type="text/css">
   <![CDATA[
    .str0 {stroke:#43AC3E;stroke-width:0.0235972}
    .fil0 {fill:none}
    .fil2 {fill:#4D4948;fill-rule:nonzero}
    .fil1 {fill:#43AC3E;fill-rule:nonzero}
   ]]>
  </style>
 </defs>
 <g id="Vrstva_x0020_1">
  <metadata id="CorelCorpID_0Corel-Layer"/>
  <rect class="fil0" width="28.5134" height="28.5134"/>
  <g id="_136264200">
   <path id="_137411824" class="fil1" d="M16.8666 22.9618l-5.21626 0c-0.0679117,0 -0.129506,0.0273133 -0.173975,0.0717827 -0.0441597,0.0440977 -0.0715349,0.105413 -0.0715349,0.173697 0,0.0675092 0.0273443,0.128391 0.0713801,0.172148 0.0443764,0.0440668 0.105971,0.0712872 0.17413,0.0712872l5.21626 0c0.0680356,0 0.129599,-0.0272514 0.173883,-0.0713182 0.0439739,-0.0437261 0.0712562,-0.104577 0.0712562,-0.172117 0,-0.0685621 -0.0273443,-0.130002 -0.0714111,-0.174161 -0.0441287,-0.0441287 -0.105692,-0.0713182 -0.173728,-0.0713182zm-5.21626 -0.553389l1.17673 0c0.0677569,0 0.129073,-0.0274682 0.173232,-0.0716898 0.0442835,-0.0444074 0.0718137,-0.106064 0.0718137,-0.174099 0,-0.0678188 -0.0275921,-0.129413 -0.0719066,-0.173852 -0.0441597,-0.0441597 -0.105444,-0.0716278 -0.173139,-0.0716278l-1.17673 0c-0.0676021,0 -0.12898,0.027623 -0.173449,0.0720614l-0.000185805 -0.00024774c-0.0443145,0.0445003 -0.0718756,0.105971 -0.0718756,0.173666 0,0.0682834 0.0273443,0.130156 0.0717517,0.174533 0.0439739,0.0440048 0.105197,0.0712562 0.173759,0.0712562zm5.21626 -0.491269l-3.02754 0c-0.0685621,0 -0.129816,0.0272514 -0.173759,0.0711633l-0.000402578 0.000402578c-0.0442835,0.0442216 -0.071473,0.105816 -0.071473,0.173914 0,0.0681595 0.0272514,0.129878 0.0715659,0.174378l0.000185805 -0.000216773c0.0442216,0.0442216 0.105568,0.0716278 0.173883,0.0716278l3.02754 0c0.0677569,0 0.129104,-0.0274682 0.173263,-0.0716898 0.0443455,-0.0444693 0.0718756,-0.106064 0.0718756,-0.174099 0,-0.0678188 -0.0275921,-0.129413 -0.0719685,-0.173852 -0.0441287,-0.0441597 -0.105444,-0.0716278 -0.17317,-0.0716278z"/>
   <path id="_137411752" class="fil1" d="M9.22677 12.9817l-0.41131 0.122198c-0.0589621,0.0178992 -0.104794,0.000340643 -0.112753,-0.00808252l-0.0956277 -0.191534c-0.0363868,-0.0725259 -0.124025,-0.103617 -0.198068,-0.0656821 -0.0730214,0.0366965 -0.10241,0.125295 -0.0656821,0.198254l0.0956277 0.191782c0.0737646,0.146724 0.272235,0.214574 0.460797,0.158182l0.411125 -0.123096c0.00433545,-0.00086709 0.00833026,-0.0024774 0.012356,-0.00408771 0.0703582,-0.0279327 0.108789,-0.105073 0.0872045,-0.178744 -0.0233495,-0.0785026 -0.105847,-0.122507 -0.183668,-0.0991889z"/>
   <path id="_137411680" class="fil2" d="M10.517 15.3185c0.343306,-0.681688 1.01202,-1.18327 1.82408,-1.27744 0.0315869,-0.00232256 0.0630808,-0.00514061 0.0949464,-0.00675092 0.0198502,-0.00130064 0.0407223,-0.00266321 0.0607273,-0.00399481 0.811008,-0.026725 1.57721,0.36551 2.03162,1.05231l0.0916329 0.137713c0,0 0.0191689,0.0380281 0.0481545,0.100056 -1.4996,-3.09675e-005 -2.90169,-0.000774188 -4.15116,-0.00188902zm6.45979 0.00126967c0.35687,-0.210362 0.69841,-0.376317 1.02441,-0.504523 0.308003,0.0358913 0.551036,0.29128 0.702715,0.503253 -0.582963,0.000588383 -1.15955,0.00099096 -1.72712,0.00126967zm2.18906 -0.00176515c-0.0997773,-0.175555 -0.306052,-0.486376 -0.609038,-0.692372 0.373933,-0.106342 0.722658,-0.162146 1.04509,-0.182553 0.0163508,0.00436642 0.0340333,0.00681285 0.0517777,0.00749414 0.0275301,0.000340643 0.0540383,-0.00514061 0.0776046,-0.0155767 0.377556,-0.013316 0.715102,0.0218631 1.01121,0.0828381 0.200484,0.280906 0.325685,0.559985 0.403847,0.797475 -0.664965,0.00108386 -1.32637,0.00201289 -1.9805,0.00269417zm2.38917 -0.00346836c-0.0547196,-0.190574 -0.136598,-0.410103 -0.258981,-0.641182 0.512481,0.18692 0.808995,0.418867 0.85204,0.453148 0.0582189,0.0501674 0.102595,0.115013 0.136164,0.186672l-0.729223 0.00136257zm-1.03757 -9.02217c0.0290166,0.019974 0.27527,0.198842 0.149078,0.610246 -0.00987864,-0.00622447 -0.0205934,-0.0122012 -0.0312152,-0.0182399 -0.018085,-0.0100644 -0.0357984,-0.0194476 -0.0537286,-0.0297598 -0.0463893,-0.0255482 -0.092438,-0.0502293 -0.137743,-0.073362 -0.0139663,-0.00671995 -0.0281185,-0.0144309 -0.041899,-0.0204386 -0.738761,-0.352751 -1.42804,-0.307941 -2.00032,-0.112071 -0.202899,0.0693053 -0.391522,0.158182 -0.562401,0.25319 0.016227,-0.0150812 0.0339714,-0.0309365 0.0508796,-0.0463893 0.0234114,-0.0213056 0.0470087,-0.0429829 0.0711324,-0.064815 0.0267559,-0.0235043 0.0534499,-0.0471945 0.0802678,-0.0698627 0.0225443,-0.0193237 0.0465442,-0.0388642 0.0700175,-0.0575996 0.0417752,-0.0354888 0.0859968,-0.0698008 0.1309,-0.104701 0.0284901,-0.0210889 0.0558035,-0.0428281 0.0843555,-0.0636073 0.0279637,-0.0200669 0.0567944,-0.0394216 0.0846961,-0.0596744 0.0311533,-0.0212747 0.0637002,-0.04193 0.0960302,-0.0627092 0.0318346,-0.0205315 0.0633595,-0.0409081 0.0951322,-0.0606344 0.0456771,-0.0270656 0.0911683,-0.0522112 0.137496,-0.0769852 0.0253314,-0.0132851 0.0507248,-0.0260437 0.0757465,-0.038121 0.198688,-0.0982599 0.405117,-0.171405 0.615077,-0.202837 0.394123,-0.0569802 0.745698,0.0377494 1.0865,0.298372zm0.373066 1.59219c-0.0506938,0.17859 -0.184752,0.25991 -0.288989,0.296576l-0.0061006 0.00207482c-0.201815,0.0690266 -0.444693,0.0298217 -0.633905,-0.103153 -0.359904,-0.251735 -0.898987,-0.401029 -1.60356,-0.448471 -0.00120773,-0.000433545 -0.00219869,-0.000959993 -0.00340643,-0.00148644 -0.00774188,-0.000309675 -0.0163818,-0.000185805 -0.0246501,-0.00130064 -0.060975,-0.00337546 -0.124675,-0.00650318 -0.18819,-0.0087638 -0.055246,-0.0013316 -0.110926,-0.00346836 -0.167999,-0.00414965 -0.0584667,-0.00120773 -0.116345,-0.00161031 -0.175895,-0.00151741 -0.0829929,0.000185805 -0.167225,0.00204386 -0.253097,0.00467609 -0.0325159,0.000402578 -0.0625234,6.1935e-005 -0.0949154,0.00151741 0.0118606,-0.00997154 0.0264153,-0.0216153 0.0392049,-0.0319275 0.00458319,-0.00334449 0.0109935,-0.00473803 0.0156076,-0.00802058 0.482505,-0.390005 1.35975,-0.906791 2.3722,-0.618824 0.0521803,0.0148954 0.10532,0.0342191 0.158058,0.0537286 0.0256721,0.00978573 0.0509416,0.0163508 0.0769233,0.026725 0.162332,0.0660847 0.328256,0.153785 0.496967,0.267002l0.0327327 0.0222656c0.0013316,0.00049548 0.00226063,0.000185805 0.00328256,0.000836123 0.0877,0.0617492 0.328906,0.262728 0.245727,0.552213zm-3.37778 -3.30652c0.0784097,-0.105661 0.526231,-0.660011 1.10953,-0.505607 0.0405055,0.0150192 0.387001,0.153909 0.510871,0.4625 0.0856561,0.213521 0.0493003,0.473741 -0.107705,0.772299 -0.0916638,0.175152 -0.213769,0.359502 -0.362413,0.547289 -0.0222656,0.0107148 -0.0440668,0.0236901 -0.0659918,0.035241 -0.0468229,0.0237521 -0.0942961,0.0488048 -0.139323,0.0746627 -0.0323301,0.0186115 -0.0623995,0.0376255 -0.0932432,0.0570112 -0.0360771,0.021956 -0.0710085,0.0434784 -0.106497,0.0671685 -0.0322372,0.0208411 -0.0633286,0.0430139 -0.0950083,0.0652795 -0.0317417,0.0223585 -0.0629879,0.0446242 -0.0939554,0.0669208 -0.0319894,0.0246192 -0.0637002,0.0477829 -0.0947606,0.0719066 -0.0272514,0.021894 -0.0546267,0.043881 -0.0817233,0.0656821 -0.0315249,0.0261056 -0.0633286,0.0515299 -0.0946367,0.0785026 -0.0200979,0.0174657 -0.0401029,0.0348694 -0.0611608,0.0528615 -0.131674,0.116283 -0.251487,0.231606 -0.357582,0.3412l-0.00433545 0.00418061c0.0394216,-0.236994 0.0719375,-0.514308 0.0804846,-0.804505 0.00074322,-0.0185186 0.00210579,-0.0365107 0.00269417,-0.0540073 0.00086709,-0.051468 -0.000774188,-0.103927 -0.00117677,-0.155921 0.00012387,-0.0278398 -9.29025e-005,-0.0567634 -0.000681285,-0.0843555 -0.00173418,-0.0497338 -0.00492383,-0.0987554 -0.00845413,-0.147684 -0.0025703,-0.0309985 -0.00470706,-0.061935 -0.0075251,-0.0928716 -0.00408771,-0.0486809 -0.010467,-0.0957206 -0.0165057,-0.143844 -0.00517157,-0.0319894 -0.00901154,-0.0634834 -0.0139044,-0.094358 -0.008578,-0.0472564 -0.0174657,-0.0935219 -0.027654,-0.140221 -0.0036232,-0.0160102 -0.00526448,-0.0327327 -0.00913541,-0.0487738 0.0396694,-0.180572 0.08578,-0.341572 0.139787,-0.490556zm-2.37459 -0.29831c0.373933,-0.37833 0.876783,-0.190791 0.897562,-0.183668 0.00780381,0.00322062 0.0157934,0.00634834 0.0240308,0.00845413 0.34631,0.0848819 0.598757,0.273071 0.7701,0.574076 0.0730524,0.129227 0.126874,0.272204 0.165769,0.422645l0.00442835 0.0158863c0.0722782,0.286697 0.0907348,0.600522 0.0818781,0.901588 -0.0509106,-0.171839 -0.11876,-0.344359 -0.207885,-0.509539 -0.00287998,-0.00569802 -0.00566705,-0.0107457 -0.00820639,-0.0154218 -0.0198192,-0.0357055 -0.0398862,-0.0711943 -0.0615015,-0.10625 -0.0131922,-0.0214605 -0.0271585,-0.0428281 -0.0410629,-0.0640098 -0.0109315,-0.0174966 -0.0226063,-0.0346836 -0.0354888,-0.0524899 -0.0192308,-0.0282733 -0.0396074,-0.0568563 -0.0613776,-0.0840458 -0.00569802,-0.00777284 -0.0119535,-0.0153909 -0.0175586,-0.0229469 -0.171715,-0.217175 -0.39112,-0.413107 -0.672986,-0.568935 -0.00718446,-0.00442835 -0.0156386,-0.00941412 -0.022916,-0.0135328 -0.0399171,-0.0211198 -0.0808252,-0.0425494 -0.122446,-0.0621208 -0.0206553,-0.0103431 -0.0420848,-0.0195715 -0.0637002,-0.0284282 -0.0318965,-0.014276 -0.063886,-0.0293262 -0.0979502,-0.0416513 -0.0616873,-0.0252076 -0.124644,-0.0480616 -0.191782,-0.069615 0,0 -0.00130064,-0.00126967 -0.0022916,-0.00111483 -0.0178683,-0.0072464 -0.0579092,-0.0223895 -0.114022,-0.0409081 0,0 0,0 -0.00108386,0.000309675 -0.0566086,-0.0191379 -0.129073,-0.0388642 -0.21414,-0.0568563 -0.00213676,-0.000216773 -0.00445932,-0.00142451 -0.00737027,-0.00142451zm-0.554225 1.22634c-0.182894,-0.0359223 -0.329185,-0.175772 -0.373375,-0.35625 -0.0183637,-0.0756536 -0.0423945,-0.267219 0.135452,-0.406975 0.0509106,-0.0405365 0.10628,-0.0692743 0.165243,-0.0894342 0.0930574,-0.0318965 0.194755,-0.0416513 0.294098,-0.0388952l0.00086709 -0.000340643c0.00219869,0.000340643 0.00514061,0.0013316 0.00808252,0.0011458 0.0340952,0.000712253 0.067633,0.00284901 0.101573,0.00656511 0.0162579,0.00226063 0.0315869,0.00473803 0.047628,0.00696769 0.027654,0.00418061 0.0542241,0.008578 0.0799581,0.0130993 0.0101264,0.00151741 0.0194166,0.00387094 0.0287378,0.00572899 0.114642,0.0244334 0.207204,0.056237 0.252664,0.0735478 0.00901154,0.00365417 0.0147096,0.00560512 0.0155147,0.00538835 0.00575996,0.00281804 0.0112102,0.00461416 0.0166915,0.00671995 0.096216,0.0307817 0.187384,0.0659298 0.275425,0.106219 0.0251766,0.0116438 0.0460177,0.024805 0.070482,0.0368823 0.0606034,0.0303172 0.120464,0.0617182 0.176917,0.0974547 0.0244643,0.0148025 0.04673,0.0322062 0.0696459,0.0484951 0.0528925,0.0359533 0.104484,0.0739814 0.152298,0.115757 0.0190141,0.0157315 0.037192,0.031432 0.0553699,0.0483403 0.0546267,0.0499196 0.106466,0.102595 0.153568,0.158832 0.00786575,0.00885671 0.0153289,0.0169392 0.0231018,0.0255172 0.237799,0.288834 0.395053,0.655799 0.468538,1.09913 0.0503841,0.307569 0.0519325,0.602287 0.0370371,0.83476 -0.0668279,-0.0966806 -0.132758,-0.18788 -0.198223,-0.275425 -0.0118296,-0.0141831 -0.0224205,-0.0281185 -0.0339404,-0.0424874 -0.0601079,-0.0795555 -0.120773,-0.155333 -0.180633,-0.226496 -0.0100954,-0.0117677 -0.0201598,-0.0248979 -0.0309056,-0.0365726 -0.709094,-0.832376 -1.35254,-1.12895 -1.81182,-1.21767zm-7.96782 9.80738c-0.0207482,-0.089558 -0.0364178,-0.181346 -0.046668,-0.275022 -0.140685,-1.28469 0.789114,-2.44343 2.07386,-2.58396 1.10737,-0.121238 2.15187,0.567882 2.48496,1.61917 -0.480802,0.302336 -0.844701,0.739876 -1.05689,1.24446 -1.38877,-0.00136257 -2.56845,-0.00309675 -3.45526,-0.00464513zm6.85144 -5.29969c0.157563,-0.132974 0.277624,-0.308127 0.341943,-0.507155 0.0997773,-0.30534 0.0591479,-0.633378 -0.102874,-0.899575 0.117305,-0.129661 0.205346,-0.283074 0.259724,-0.449648 0.102905,-0.316426 0.0750962,-0.649853 -0.0770162,-0.941815 -0.147405,-0.282702 -0.394247,-0.492786 -0.69872,-0.592687 -0.076273,-0.449215 -0.399822,-0.821506 -0.846404,-0.958382 -0.319678,-0.0971141 -0.662612,-0.0630808 -0.953552,0.0936148 -0.116469,-0.104887 -0.255265,-0.182399 -0.409019,-0.229067 -0.403135,-0.123406 -0.824912,0.000774188 -1.11009,0.28007 -0.00842316,-0.0187663 -0.013347,-0.0383997 -0.022885,-0.0567325 -0.423759,-0.812556 -1.43894,-1.12254 -2.26376,-0.692495 -0.155767,0.0812587 -0.297102,0.184783 -0.419672,0.309365 -0.363806,-0.121857 -0.767468,-0.0926548 -1.1122,0.0870187 -0.384555,0.200422 -0.652362,0.560078 -0.73712,0.97272 -0.245758,0.00535738 -0.48619,0.0674782 -0.706864,0.182553 -0.780072,0.406634 -1.08987,1.36353 -0.689615,2.13128l0.00436642 0.00842316c-0.144525,0.191162 -0.238821,0.408369 -0.28614,0.634184l0.00303482 -0.000805155 -0.00421158 0.00671995c-0.0603866,0.294718 -0.0531402,0.470861 0.0283662,0.753161 0.00659608,0.0200669 0.00953799,0.0404745 0.0173418,0.0609131 0.0251146,0.0750033 0.0559273,0.149325 0.0931193,0.220736 0.204664,0.392575 0.56556,0.675277 0.991053,0.786884 0.000402578,0.218476 0.0531402,0.431532 0.154992,0.626813 0.0217082,0.0416823 0.0454603,0.0821568 0.0718137,0.120587 0.00839219,0.0134399 0.019045,0.0261056 0.0283972,0.0393287 0.0167534,0.0248359 0.0347455,0.0493003 0.0530164,0.0721233 0.0115509,0.0145857 0.0252385,0.0283043 0.0375636,0.0423636 0.0178992,0.019107 0.0350243,0.04001 0.0539764,0.0584357 0.0140902,0.0146786 0.0298217,0.0273133 0.0430758,0.04097 0.0193237,0.0170012 0.037161,0.0335688 0.0558035,0.0496719 0.0161341,0.0138115 0.0335997,0.0250837 0.0505699,0.0373158 0.019107,0.0143999 0.037192,0.029543 0.0570731,0.0426732 0.0179612,0.0125109 0.0360771,0.0224205 0.0532331,0.0328875 0.0206863,0.0123251 0.0407842,0.0255172 0.0617802,0.0363868 0.0179612,0.0100954 0.0370991,0.0192928 0.0558035,0.0277469 0.0210889,0.0109006 0.041961,0.0208411 0.0636382,0.0299765 0.0196644,0.00802058 0.0404436,0.0154838 0.0608512,0.022885 0.0207173,0.0072464 0.04193,0.0157005 0.0637311,0.0226682 0.0204076,0.00706059 0.0421468,0.011396 0.0634834,0.017187 0.0213676,0.00687479 0.0436023,0.0119844 0.0658989,0.017187 0.0204076,0.00498577 0.0425803,0.00749414 0.0641337,0.0119844 0.0222037,0.00269417 0.0436642,0.00696769 0.0675092,0.0100644 0.020965,0.00343739 0.0430758,0.00343739 0.0645982,0.00517157 0.0231947,0.00204386 0.0458629,0.00325159 0.0685311,0.00436642 0.0218011,9.29025e-005 0.0437571,0.000216773 0.0654653,-0.000805155 0.0230708,-0.000185805 0.0460797,-0.000526448 0.0696769,-0.00269417 0.0225753,-0.00136257 0.0440358,-0.00461416 0.0662705,-0.00718446 0.022854,-0.00322062 0.0464513,-0.004769 0.0688717,-0.0087638 0.0224514,-0.00424255 0.0436332,-0.0084851 0.0655272,-0.0132231 0.022916,-0.00585286 0.0462964,-0.0104051 0.0688408,-0.0167844 0.0218011,-0.00591479 0.0441287,-0.0127276 0.0648769,-0.0195095 0.0229469,-0.00798962 0.0454293,-0.0147715 0.0677569,-0.023814 0.0220179,-0.00749414 0.0428281,-0.0170012 0.0642885,-0.0255792 0.116871,-0.0510654 0.456709,-0.254863 0.545431,-0.417999 0.0225443,-0.0282114 0.0469467,-0.0563918 0.0674163,-0.0866471 0.158925,0.0541622 0.325623,0.0837981 0.492941,0.0896509 0.0308436,0.034281 0.0823426,0.104206 0.138332,0.183482 -1.14877,0.417287 -1.91026,1.57975 -1.77162,2.84697 0.00860897,0.0791839 0.0205934,0.15716 0.0358604,0.233898 -0.644774,-0.00117677 -1.08968,-0.00219869 -1.29079,-0.00263224l-0.120835 -0.00024774 0 0.000402578c-0.099158,0 -0.196551,0.0208102 -0.28583,0.0597363 -0.0899916,0.0391739 -0.172179,0.0964638 -0.240184,0.169021l0.000185805 0.000185805c-0.0621518,0.0667659 -0.110833,0.144185 -0.144154,0.227425 -0.033383,0.0834884 -0.0516228,0.17283 -0.0528615,0.263007l0.00037161 0 0 0.0107148 0 0.0107148 -0.000340643 0 0.000402578 0.0162579 9.29025e-005 0 0.0010529 0.0198502 6.1935e-005 0c0.101109,1.49465 0.626782,2.61706 1.47591,3.53184 0.854394,0.920447 2.03906,1.63524 3.44981,2.30853l0.000402578 0.000402578c0.168154,0.0815684 0.322527,0.18949 0.455532,0.317696 0.132324,0.127431 0.244024,0.275239 0.327791,0.437292 0.0866471,0.166884 0.122972,0.357272 0.11043,0.550695 -0.0124799,0.191317 -0.0728975,0.386072 -0.179828,0.564135l0 0.000402578c-0.0654963,0.108603 -0.0994367,0.227828 -0.101264,0.346588 -0.00176515,0.119101 0.0282424,0.238883 0.0902703,0.348261 0.0622447,0.109594 0.149542,0.19748 0.252943,0.257866 0.102441,0.0597673 0.221201,0.092469 0.347548,0.092469l7.92483 0c0.1261,0 0.245108,-0.0327327 0.347332,-0.0925619 0.102441,-0.0599841 0.189242,-0.147746 0.250713,-0.257402l0.000402578 -0.00037161c0.0623995,-0.109904 0.0927787,-0.230027 0.0908277,-0.349964 -0.00195095,-0.119163 -0.036201,-0.239193 -0.102936,-0.349902l0.000278708 -0.000185805c-0.106342,-0.175462 -0.16611,-0.368668 -0.17828,-0.558561 -0.012356,-0.192928 0.0240927,-0.383347 0.109997,-0.549735 0.08482,-0.163385 0.196768,-0.311936 0.329463,-0.439801 0.132882,-0.12802 0.286883,-0.235539 0.455563,-0.316921l0.000402578 -0.000402578c1.41007,-0.673296 2.5944,-1.38765 3.44854,-2.30788 0.848881,-0.914501 1.3744,-2.03692 1.47517,-3.53249 0.00668898,-0.100242 -0.00783478,-0.20036 -0.0410629,-0.293882 -0.0331972,-0.0935838 -0.0853465,-0.180417 -0.153723,-0.254088 -0.0178373,-0.0191999 -0.0366346,-0.0373158 -0.0563299,-0.054286 0.385576,-0.215255 0.801687,-0.928313 0.652176,-1.41921 -0.0745078,-0.244612 -0.234827,-0.448317 -0.44779,-0.577978 0.0370681,-0.213614 0.0111173,-0.433081 -0.0758085,-0.630653 -0.224638,-0.510221 -0.787504,-0.767158 -1.30958,-0.62576 -0.0113341,-0.0167534 -0.0244024,-0.0318036 -0.0365417,-0.0483093 0.0327327,-0.034343 0.0649389,-0.0692433 0.0955967,-0.105816 0.400565,-0.487986 0.497648,-1.07912 0.241361,-1.47548 -0.168277,-0.25957 -0.459991,-0.40747 -0.806332,-0.417318 0.00492383,-0.29608 -0.0861826,-0.55534 -0.266475,-0.747215 -0.191906,-0.204262 -0.456554,-0.312307 -0.765857,-0.31144 -0.409979,0.00074322 -0.852164,0.195374 -1.20761,0.525612 -0.221665,-0.137372 -0.484456,-0.196365 -0.770565,-0.173232 -0.480244,0.0397313 -0.962099,0.309025 -1.32222,0.739938 -0.0393907,0.0473493 -0.0781001,0.0965567 -0.113898,0.147839 -0.233402,-0.152856 -0.510345,-0.222223 -0.799643,-0.198068 -0.153072,0.0132231 -0.304101,0.0516848 -0.449246,0.112629l-0.0478448 0.0210269c-0.273412,0.125387 -0.523568,0.331724 -0.721481,0.601296 -0.0919116,0.123622 -0.169702,0.258857 -0.231761,0.400627 -0.373499,-0.604145 -0.974547,-1.0446 -1.67029,-1.21417 0.166822,-0.543511 0.335626,-1.05475 0.495728,-1.50028 0.18404,0.261799 0.462933,0.524992 0.807973,0.625853 0.0389881,0.0118606 0.0776355,0.00997154 0.113031,-0.00222966 0.0560512,-0.019107 0.101666,-0.0637311 0.119225,-0.124335 0.0290785,-0.0987244 -0.0277469,-0.202744 -0.126255,-0.231699 -0.326026,-0.0958444 -0.603185,-0.418526 -0.732846,-0.696242 -0.00346836,-0.0072464 -0.0100335,-0.0118606 -0.0138425,-0.018085 0.235508,-0.61006 0.442185,-1.03475 0.579433,-1.14403 0.0766136,-0.0611299 0.161062,-0.107271 0.254894,-0.139385 0.0881026,-0.0301933 0.186084,-0.0484022 0.292364,-0.0538215 0.137713,0.14948 0.274558,0.315683 0.408709,0.496254 0.00913541,0.0126347 0.0177753,0.0238759 0.0261056,0.0366036 0.0560512,0.0763659 0.111452,0.156634 0.167596,0.238605 0.0117986,0.0181779 0.0242785,0.0350862 0.0365726,0.0541931 0.0645363,0.0983218 0.128887,0.19878 0.192556,0.30342 0.00433545,0.00706059 0.0100025,0.0117367 0.0150502,0.0186424 0.00483093,0.00529544 0.00910445,0.0125109 0.0146786,0.0173418 0.00173418,0.00232256 0.00235353,0.00405674 0.00458319,0.00523351 0.00464513,0.00510964 0.0103741,0.00690575 0.0153599,0.0109315 0.00148644,0.00167225 0.00272514,0.00213676 0.00402578,0.00346836 0.0061006,0.00377804 0.0116128,0.008578 0.0180231,0.0124489 0.00173418,0.000309675 0.00201289,0.00099096 0.00405674,0.00120773 0.000340643,0.000805155 0.00111483,0.000588383 0.00235353,0.00111483 0.0061935,0.00387094 0.013316,0.00507867 0.020934,0.00761801 0.00111483,0.000526448 0.00312772,0.000836123 0.00458319,0.00201289 0.00538835,0.00204386 0.0112412,0.0050477 0.0172799,0.00563609 0.00201289,0.000278708 0.00489287,0.000278708 0.00740123,0.00136257 0.00470706,0.00037161 0.00975477,0.000650318 0.0144928,0.00086709 0.00501674,0.000185805 0.00916638,0.000805155 0.0136567,9.29025e-005 0.0061006,0.00102193 0.0120773,0.00161031 0.0177753,0.00182708 0.110678,-0.00901154 0.218414,-0.0160721 0.324447,-0.0216463 0.0247121,-0.00139354 0.0463274,-0.00222966 0.0700175,-0.00374707 0.0837361,-0.00340643 0.165397,-0.00702962 0.245913,-0.0086709 0.0200669,-0.000185805 0.0399481,-0.0012387 0.0602008,-0.00145547 0.0837361,-0.000464513 0.166172,-0.00167225 0.245758,-6.1935e-005 0.0136257,0.000278708 0.0278398,6.1935e-005 0.0416823,0.000278708 0.0918496,0.0013316 0.18181,0.00405674 0.2679,0.00851606 0,0 0,0 0.000929025,-0.000216773 0.0736407,0.141614 0.109563,0.283539 0.107024,0.430789 -0.0099096,0.656171 -0.844577,1.07045 -0.435868,1.37065 0.285613,0.125511 0.806177,-1.13007 0.809862,-1.36526 0.00164128,-0.135576 -0.0206244,-0.268922 -0.0643815,-0.399388 0.566148,0.0714111 0.901743,0.215007 1.09808,0.352255 0.285861,0.201134 0.656604,0.258517 0.969809,0.151338l0.0103431 -0.00346836c0.259632,-0.0920045 0.450794,-0.291404 0.523413,-0.546669 0.107581,-0.378949 -0.0805155,-0.684072 -0.268705,-0.861702 0.00969283,-0.0225443 0.0197263,-0.0442526 0.0263533,-0.0667659 0.202558,-0.58318 -0.100675,-0.96247 -0.275951,-1.07135 -0.40651,-0.312091 -0.862724,-0.433638 -1.35523,-0.362506 -0.0386165,0.00538835 -0.0766136,0.0156076 -0.11523,0.0238759 0.0336617,-0.0568873 0.0654963,-0.113 0.0946367,-0.168277 0.210362,-0.399883 0.252106,-0.765269 0.123684,-1.08454 -0.196582,-0.49003 -0.72049,-0.671314 -0.742353,-0.679551l-0.0106528 -0.00297288c-0.896509,-0.244705 -1.50948,0.633255 -1.53521,0.67088l-0.0208102 0.0399791c-0.00758704,0.0199431 -0.0137186,0.0421468 -0.0208411,0.062926 -0.219931,-0.382666 -0.553266,-0.6331 -0.990898,-0.742756 -0.106776,-0.0385236 -0.778152,-0.251425 -1.29447,0.279915 -0.0639479,0.0662085 -0.116624,0.141057 -0.163044,0.219591 -0.201506,0.0112412 -0.410443,0.0654653 -0.587392,0.204881 -0.241392,0.191503 -0.340983,0.486066 -0.267095,0.789455 0.0787813,0.323084 0.340054,0.571072 0.665275,0.634307 0.298713,0.058126 0.686735,0.22021 1.12988,0.61037 -0.168711,0.0454603 -0.32166,0.116995 -0.454169,0.22309 -0.346588,0.277252 -0.884029,1.67717 -1.38165,3.31978 -0.111514,-0.0109625 -0.2247,-0.0151121 -0.339063,-0.0120464zm5.83722 11.3802c-0.453302,0.215627 -0.826771,0.577018 -1.05633,1.01697 -0.264679,0.512543 -0.232411,1.1598 0.0899296,1.69439 0.0240927,0.039081 0.0139354,0.0731143 0,0.0953799 -0.0116748,0.0220798 -0.0356126,0.0490216 -0.0828691,0.0490216l-7.92301 0c-0.0474732,0 -0.071442,-0.0269417 -0.0830549,-0.0490216 -0.0135018,-0.0222656 -0.0239689,-0.0562989 0.0035303,-0.102255 0.318996,-0.527717 0.351172,-1.17497 0.0863993,-1.68751 -0.227704,-0.439955 -0.602937,-0.801346 -1.05624,-1.01871 -2.69628,-1.28726 -4.40463,-2.63032 -4.58765,-5.34382 -0.00343739,-0.0523661 0.0217082,-0.0881026 0.0356126,-0.103431 0.0187353,-0.0185495 0.0474732,-0.0406603 0.0930574,-0.0406603l18.9396 0c0.0455842,0 0.0764897,0.0221108 0.0935219,0.0406603 0.0151431,0.0153289 0.0404126,0.0510654 0.0373158,0.103431 -0.185186,2.7135 -1.89345,4.05656 -4.58985,5.34555zm-4.19065 -6.07356c-0.0283043,-0.0674782 -0.0592099,-0.133501 -0.0925309,-0.198006 0.0473184,-0.0773259 0.0951941,-0.152608 0.143751,-0.226001 0.334108,-0.251208 0.602906,-0.57516 0.789702,-0.940824 0.406077,-0.37288 0.889139,-0.673822 1.50784,-0.925495l0.131178 -0.0535428 -0.0105909 -0.141862c-0.0252385,-0.343399 0.168587,-0.667505 0.483651,-0.80627 0.223802,-0.0984767 0.478107,-0.0918806 0.696212,0.0189521l0.148489 0.0748794 0.0968354 -0.134213c0.12356,-0.167813 0.287719,-0.300013 0.476466,-0.383068 0.581508,-0.255977 1.25539,-0.00925929 1.53661,0.561255l0.103772 0.211973 0.188406 -0.143256c0.0646602,-0.0492383 0.132944,-0.0896509 0.201846,-0.119937 0.0549054,-0.0243095 0.110585,-0.0412797 0.166915,-0.0547196 0.014338,-0.00334449 0.0287688,-0.00551222 0.0430758,-0.00851606 0.0452435,-0.00854703 0.0900535,-0.0149573 0.135978,-0.0172489 0.0117986,-0.00120773 0.0242166,-0.00139354 0.0366965,-0.00151741 0.0549054,-0.00061935 0.108727,0.00167225 0.162239,0.00950703 0.00191999,0.00012387 0.00405674,0.000185805 0.00659608,0.0011458 0.11458,0.0174966 0.225382,0.0567634 0.328163,0.112536 0.0134709,0.00721543 0.0265392,0.0161341 0.0406294,0.0244643 0.0323301,0.019076 0.0628331,0.0410319 0.0939554,0.0645053 0.0179612,0.015205 0.0368513,0.0296359 0.0544409,0.04577 0.0840458,0.0751891 0.157036,0.163725 0.212623,0.268024l0.0854084 0.158894 0.165336 -0.0726807 0.0135947 -0.00702962c0.363094,-0.152515 0.784686,0.0140283 0.944014,0.376131 0.0708537,0.161124 0.0787813,0.344668 0.0218321,0.517281l-0.058095 0.175121 0.170879 0.0672305c0.180045,0.0714111 0.316147,0.217237 0.373282,0.406232 0.140531,0.457793 -0.373964,0.871828 -0.719685,1.13093 -0.00994057,-0.000402578 -0.0198502,-0.000650318 -0.0298527,-0.000650318l-0.0681595 0 0 -0.000402578 -0.996256 0.00235353c-0.0257959,-0.0841387 -0.0605105,-0.168649 -0.107086,-0.248452 0.159823,-0.0286449 0.325871,-0.00836123 0.396074,0.00774188 0.104918,0.0254863 0.209774,-0.0383378 0.235415,-0.14307 0.0247121,-0.104639 -0.0385545,-0.209712 -0.143782,-0.23492 -0.019107,-0.00514061 -0.432059,-0.103184 -0.789548,0.0553699 -0.272638,-0.189614 -1.04896,-0.648088 -2.22313,-0.690483 -0.0637621,-0.00303482 -0.130125,-0.00287998 -0.196953,-0.00173418 0.11811,-0.632635 0.745574,-0.813269 0.776108,-0.82132 0.103184,-0.0279017 0.165459,-0.134337 0.138734,-0.237614 -0.0263533,-0.10498 -0.134554,-0.166326 -0.238109,-0.139571 -0.346681,0.0910754 -0.980648,0.458474 -1.07405,1.21681 -0.4481,0.039112 -0.95829,0.143225 -1.52227,0.354052 -0.0190141,0.00408771 -0.0355197,0.011427 -0.0525828,0.0198811 -0.392792,0.151029 -0.812556,0.356622 -1.25326,0.625513 0.0249288,-0.281216 0.161186,-0.464884 0.171467,-0.476621 0.0656202,-0.0849748 0.0514061,-0.20677 -0.0331043,-0.273226 -0.0834884,-0.0673543 -0.205717,-0.0527377 -0.272638,0.0316488 -0.0145238,0.0167225 -0.314289,0.404126 -0.250032,0.963802l-1.14651 0.00024774zm1.12353 -2.88846c-0.0236901,-0.215317 -0.0718756,-0.421932 -0.141831,-0.617492l0.00771091 -0.0354888c0.0501364,-0.231203 0.151555,-0.454386 0.291931,-0.645053 0.2487,-0.336926 0.590241,-0.547722 0.938656,-0.57742 0.26053,-0.0221108 0.495914,0.0591789 0.679954,0.237149l0.180293 0.173077 0.123344 -0.217578c0.0582809,-0.101542 0.123715,-0.195839 0.194352,-0.280937 0.290351,-0.346 0.684846,-0.571505 1.05636,-0.600955 0.246192,-0.0210579 0.465442,0.0444074 0.630901,0.187663l0.140438 0.120154 0.128329 -0.13347 0.0130373 -0.0148025c0.300942,-0.319492 0.68655,-0.511088 1.03422,-0.511645 0.138177,-0.000402578 0.334511,0.0328565 0.481049,0.188685 0.141367,0.150688 0.191162,0.382263 0.142451,0.654096l-0.0481235 0.266413 0.268395 -0.040072c0.300664,-0.0441287 0.544409,0.0399481 0.667474,0.229903 0.162889,0.247152 0.0724949,0.665399 -0.215998,1.01577 -0.022854,0.0275921 -0.0474422,0.0550602 -0.0721233,0.0813516 -0.00461416,-0.00294191 -0.008578,-0.00548125 -0.0132541,-0.008578 -0.0378733,-0.0270966 -0.0766136,-0.051437 -0.117181,-0.075251 -0.0235972,-0.0134399 -0.0485571,-0.0253005 -0.0729904,-0.0384616 -0.0170631,-0.00789671 -0.0338165,-0.0152979 -0.0505699,-0.0224514 -0.096247,-0.043881 -0.195498,-0.0759943 -0.298124,-0.0961541 -0.0075251,-0.00108386 -0.0145238,-0.00291095 -0.0223585,-0.00390191 -0.0613157,-0.0116438 -0.12195,-0.0179921 -0.182832,-0.0212127 -0.0159173,-0.000340643 -0.030503,-0.00126967 -0.0453055,-0.00185805 -0.0293572,-0.000681285 -0.0572589,0.00012387 -0.0858419,0.00120773 -0.0302862,0.00179612 -0.0602318,0.00467609 -0.0903322,0.0075251 -0.024774,0.00269417 -0.0489596,0.0061935 -0.0745698,0.00994057 -0.0424565,0.00721543 -0.0849439,0.0166915 -0.12675,0.0279637 -0.0157005,0.004769 -0.0303791,0.00898058 -0.0458319,0.0136567 -0.0514061,0.0156386 -0.103091,0.0330423 -0.153444,0.0553699 -0.0323301,0.0142141 -0.0646602,0.0303172 -0.0965567,0.0475351 -0.419393,-0.621797 -1.2283,-0.868515 -1.93343,-0.558189 -0.204324,0.0900845 -0.38666,0.2234 -0.534964,0.389262 -0.287224,-0.0999941 -0.60173,-0.0895271 -0.883751,0.0345907 -0.421065,0.185464 -0.696831,0.59566 -0.716433,1.04915 -0.0963399,0.0411868 -0.189057,0.0831478 -0.277964,0.126347 -0.0291095,0.0139973 -0.0577234,0.0296669 -0.0860897,0.0431068 -0.0592099,0.0302553 -0.117893,0.0604176 -0.174719,0.0914471 -0.0326707,0.0177134 -0.0640098,0.0366036 -0.0960302,0.0537906 -0.0504151,0.0292643 -0.100459,0.0589002 -0.150007,0.0889387 -0.0320204,0.019076 -0.0622757,0.0399481 -0.0941722,0.060015 -0.0391429,0.0251146 -0.0782549,0.0511274 -0.116624,0.0775117 0.055308,-0.269386 0.0700485,-0.549178 0.0392978,-0.830641zm-11.8551 -3.49571c0.0782239,-0.0806704 0.0873593,-0.204757 0.0241547,-0.296018 -0.0255172,-0.0370371 -0.0488358,-0.0740433 -0.0702962,-0.114766 -0.280782,-0.538928 -0.0616563,-1.21049 0.489503,-1.49784 0.206275,-0.107612 0.437106,-0.149047 0.667721,-0.120773 0.0653414,0.00882574 0.132231,-0.0118915 0.182306,-0.0549983 0.0498577,-0.0427971 0.0798033,-0.104825 0.0816613,-0.170538 0.0108696,-0.339156 0.207266,-0.649946 0.512357,-0.809026 0.267343,-0.139323 0.586896,-0.144525 0.855787,-0.0130373 0.0989102,0.0479996 0.216927,0.0216773 0.286233,-0.0637931 0.107581,-0.133656 0.2391,-0.240741 0.390655,-0.319801 0.594081,-0.30983 1.32618,-0.0888767 1.63004,0.493777 0.0741672,0.142389 0.115261,0.298248 0.1261,0.460642 0,0 -0.00102193,0.000526448 -0.00037161,0.00161031l0.00436642 0.0453364c-0.000402578,0.00173418 0,0.00266321 0,0.00266321l0.000681285 0.00099096 -0.00108386 0.00061935c0.00108386,0.00959993 0.00529544,0.0180231 0.00662705,0.0277159 0.00281804,0.0202528 0.0049548,0.0414036 0.0132851,0.0602008 0.00226063,0.00418061 0.00653414,0.00699866 0.00919735,0.0120773 0.0110554,0.0213985 0.0231327,0.0423945 0.0397313,0.0593647 0.00690575,0.00548125 0.0135018,0.008578 0.0197263,0.0130373 0.0161031,0.0136876 0.0338785,0.0274682 0.0525519,0.03617 0.0272824,0.0128825 0.0575686,0.0189211 0.0889387,0.0194786 0.145207,0.00312772 0.27174,0.0794626 0.336369,0.203426 0.0653414,0.125295 0.0529544,0.277686 -0.0301933,0.398862 -0.0375017,0.054286 -0.0499196,0.121826 -0.0362939,0.185681 0.0153909,0.0643815 0.0560822,0.119658 0.113,0.151927 0.123189,0.0703891 0.222811,0.172148 0.287657,0.296359 0.138208,0.26533 0.101078,0.588507 -0.0959064,0.823488 -0.0807323,0.0977644 -0.0693982,0.241794 0.0250527,0.325561 0.0692124,0.061037 0.123901,0.130838 0.164778,0.209186 0.189738,0.363992 0.0406294,0.819648 -0.332777,1.01431 -0.0377184,0.0196644 -0.0774497,0.0351481 -0.119937,0.0481854 -0.008578,0.00337546 -0.0166915,0.0048619 -0.0251766,0.00795865 -0.0411249,0.0110864 -0.0840768,0.0205005 -0.126936,0.0247121 -0.167286,0.0187353 -0.338382,-0.0162889 -0.483434,-0.106188 -0.0690266,-0.0427971 -0.156448,-0.0462964 -0.228014,-0.0103122 -0.0782549,0.0408771 -0.12226,0.10786 -0.129258,0.188871 -0.0221108,0.232845 -0.111452,0.449029 -0.249443,0.628207 -0.020965,0.0265392 -0.0410629,0.0525519 -0.0631737,0.0770472 -0.0117367,0.012356 -0.0237521,0.0239689 -0.0348075,0.0344978 -0.0221418,0.0223895 -0.04289,0.0446861 -0.0671685,0.0650627 -0.015236,0.0132231 -0.0329494,0.0263224 -0.049579,0.0386165 -0.0206553,0.0175895 -0.0416823,0.0346836 -0.0640718,0.0490835 -0.0376565,0.0263224 -0.0769852,0.050477 -0.118389,0.0720924 -0.0318656,0.0164747 -0.0633286,0.0306578 -0.0965877,0.0437881 -0.0102502,0.00535738 -0.0202837,0.0106838 -0.0309985,0.0149883 -0.0357365,0.0132541 -0.0725569,0.0249288 -0.110399,0.0356746 -0.00684382,0.00219869 -0.014307,0.0048619 -0.0211818,0.00706059 -0.0406294,0.0108696 -0.0832716,0.0189211 -0.125326,0.0253005 -0.00334449,0.000526448 -0.00647221,0.00213676 -0.0103122,0.00266321 -0.0458009,0.00569802 -0.0925619,0.0108696 -0.139694,0.0118915 -0.200329,0.00746317 -0.402671,-0.0330423 -0.586122,-0.124799 -0.0565157,-0.028614 -0.122415,-0.033321 -0.182708,-0.012418 -0.0105909,0.00467609 -0.0212127,0.00885671 -0.0313391,0.0141212 -0.0458009,0.0238759 -0.0817233,0.0618421 -0.103772,0.108386 -0.0322372,0.0698008 -0.0749104,0.131953 -0.121052,0.189614 -0.000526448,0.00164128 -0.00315869,0.00164128 -0.0036232,0.00315869 -0.0422087,0.0531402 -0.0881645,0.099158 -0.136845,0.139942 -0.00191999,0.000898058 -0.00322062,0.00297288 -0.00535738,0.00405674 -0.0496409,0.0417132 -0.101233,0.0763968 -0.157253,0.105599 -0.461633,0.24071 -1.02955,0.0694911 -1.26493,-0.381953 -0.0901774,-0.17283 -0.120742,-0.367801 -0.0895271,-0.563918 0.0099096,-0.0631427 -0.0062864,-0.128391 -0.0456461,-0.17924 -0.0383068,-0.0510964 -0.0957515,-0.0844174 -0.160071,-0.0910135 -0.366098,-0.0418371 -0.683174,-0.258331 -0.850089,-0.578597 -0.0248669,-0.0479067 -0.0449958,-0.0965877 -0.061966,-0.146167 -0.00430448,-0.0132851 -0.00805155,-0.0255172 -0.0126347,-0.0388023 -0.0107457,-0.0383378 -0.0207173,-0.077202 -0.0285211,-0.116995 -0.00154838,-0.013378 -0.00492383,-0.0271275 -0.0073393,-0.0414655 -0.0060077,-0.0436023 -0.00925929,-0.0868329 -0.0099096,-0.13059 -0.000774188,-0.00907348 -0.00253934,-0.0168773 -0.00145547,-0.0251456 -0.000278708,-0.280473 0.10628,-0.56014 0.312493,-0.774869zm9.13647 -0.924566c-0.0477209,0.151462 -0.142327,0.282579 -0.271182,0.380436 -0.0526757,0.0404126 -0.0865232,0.102193 -0.0912612,0.169702 -0.00569802,0.0659608 0.0185805,0.132231 0.0654034,0.180169 0.158306,0.164623 0.212251,0.401834 0.140871,0.620155 -0.0634834,0.193268 -0.218166,0.347858 -0.412611,0.414283 -0.10337,0.0344049 -0.170817,0.13827 -0.159576,0.247152 0.00340643,0.0311533 0.00510964,0.0621518 0.00507867,0.0930574 -0.480616,0.136753 -0.901743,0.40137 -1.22975,0.751179 -0.0687169,-0.0345907 -0.132417,-0.0787194 -0.190357,-0.1322 -0.0218631,-0.0196953 -0.0456151,-0.0331352 -0.0708537,-0.0445313 -0.00678188,-0.00278708 -0.0149263,-0.00383997 -0.0212747,-0.00588383 -0.0196953,-0.00523351 -0.037161,-0.00898058 -0.0559273,-0.0106528 -0.00947606,-9.29025e-005 -0.0179921,0.000526448 -0.0277159,0.00142451 -0.0174037,0.00151741 -0.0345597,0.00383997 -0.0511893,0.00885671 -0.00966186,0.0036232 -0.0179921,0.00545028 -0.0269108,0.0100025 -0.00464513,0.00117677 -0.0103741,0.00266321 -0.0145547,0.0048619 -0.0182089,0.00950703 -0.0353649,0.0211818 -0.0512203,0.0356746l-0.000929025 0.000402578c-0.00699866,0.00662705 -0.016227,0.0112722 -0.024774,0.0170631 -0.0512203,0.0383687 -0.113124,0.0536357 -0.17444,0.0453674 -0.0109625,-0.00161031 -0.0229469,-0.00226063 -0.0351481,-0.00588383 -0.0218321,-0.00699866 -0.0412797,-0.017187 -0.0604795,-0.0290785 -0.00430448,-0.00300385 -0.00817542,-0.00783478 -0.0127276,-0.0116748 -0.0127896,-0.0101883 -0.0255792,-0.0218321 -0.0352101,-0.0358913 -0.0221727,-0.0273753 -0.0377184,-0.0596434 -0.0455842,-0.0968044 -0.00120773,-0.00975477 -0.0036232,-0.0199431 -0.00737027,-0.0294811 0.0575067,-0.0483712 0.109439,-0.0999631 0.156603,-0.15555 0.0137496,-0.0161031 0.0235972,-0.0342191 0.0357984,-0.0509725 0.0328875,-0.0431068 0.0645363,-0.0868329 0.0919425,-0.133315 0.0134089,-0.023814 0.0238759,-0.0488358 0.0358913,-0.0729594 0.0203147,-0.0430758 0.040072,-0.0844484 0.0557105,-0.128732 0.00984767,-0.0282424 0.0176515,-0.0558035 0.0252076,-0.0829929 0.0119535,-0.0437571 0.0216463,-0.0875451 0.0290166,-0.132882 0.00455222,-0.0283353 0.00870187,-0.0576925 0.0113031,-0.0875761 0.00405674,-0.0444693 0.00418061,-0.0911993 0.00315869,-0.137341 -0.00142451,-0.0278088 -0.000898058,-0.0564847 -0.00387094,-0.0844794 -0.00538835,-0.050508 -0.014307,-0.10018 -0.0260437,-0.149573 -0.00616253,-0.0240927 -0.00870187,-0.0484951 -0.0155767,-0.0719375 -0.0223276,-0.0725259 -0.0496409,-0.144866 -0.0862445,-0.2151 -0.0349004,-0.0671995 -0.0754988,-0.130218 -0.123406,-0.189335 0.207978,-0.357613 0.22374,-0.796794 0.0296049,-1.16915 -0.071473,-0.137155 -0.16868,-0.258765 -0.28679,-0.358635 0.057228,-0.165552 0.0637931,-0.343925 0.0169392,-0.510809 -0.0148025,-0.0555867 -0.0366655,-0.110182 -0.0641027,-0.162796 -0.0262295,-0.0501674 -0.0567634,-0.0960612 -0.0924999,-0.139818 -0.0106528,-0.0135638 -0.0242785,-0.0246192 -0.0365107,-0.0378733 -0.0261675,-0.0277469 -0.051499,-0.0545647 -0.0798033,-0.0785336 -0.0158863,-0.0136257 -0.0335688,-0.0251766 -0.0510345,-0.0366036 -0.0277779,-0.0206553 -0.0557105,-0.0394836 -0.0856252,-0.0549983 -0.0204695,-0.0116748 -0.0404126,-0.0203147 -0.0622447,-0.0297598 -0.017156,-0.00811349 -0.0340952,-0.0182708 -0.0532641,-0.0253005 0.144123,-0.266723 0.463398,-0.406015 0.762017,-0.314661 0.127896,0.0394526 0.238078,0.116624 0.317293,0.224112 0.0379352,0.0501983 0.0944199,0.0839839 0.157129,0.092469 0.061997,0.00786575 0.125914,-0.0084851 0.175648,-0.0474732 0.202497,-0.157129 0.46891,-0.207235 0.711664,-0.133036 0.310914,0.0951941 0.525302,0.376875 0.53227,0.700547 0.00126967,0.111731 0.0820639,0.206739 0.193175,0.22628 0.0308746,0.0048619 0.0617802,0.0116748 0.0919735,0.0205934 0.195591,0.0599221 0.354578,0.191503 0.447883,0.370495 0.0932432,0.180664 0.10978,0.386505 0.0464822,0.57999zm-5.04947 4.09152c-0.0375946,-0.0625853 -0.0680046,-0.112195 -0.0815684,-0.129351 0.0157625,-0.00421158 0.0310914,-0.0121083 0.0472255,-0.0180231 0.0366965,-0.0116748 0.0714111,-0.0244024 0.107705,-0.039112 0.0235353,-0.00966186 0.0463274,-0.0207482 0.0703272,-0.0318346 0.0192928,-0.0101264 0.0410939,-0.0174657 0.0606963,-0.027623 0.0118915,-0.00631737 0.0219869,-0.0142451 0.0331352,-0.0199121 0.0230398,-0.0134399 0.0458629,-0.026663 0.0688717,-0.0396074 0.030503,-0.0184566 0.0604486,-0.0380591 0.0885671,-0.0582189 0.020934,-0.0145238 0.0402578,-0.0297598 0.0609131,-0.0444074 0.0304101,-0.0235663 0.0603557,-0.0479067 0.0885361,-0.073424 0.00969283,-0.00879477 0.0204076,-0.0155767 0.0298836,-0.0244024 0.0900535,0.139075 0.221542,0.326893 0.341974,0.517498 -0.253283,-0.0472874 -0.516538,-0.0587763 -0.783013,-0.029574 -0.04481,0.00492383 -0.0892174,0.0109006 -0.133253,0.0179921zm1.95597 0.443455c0.0074322,-0.433886 0.0379662,-0.989474 0.111421,-1.3683 0.00368513,0.00188902 0.00789671,0.00346836 0.0126967,0.004769 0.0410939,0.0240308 0.0850677,0.0437881 0.131519,0.0584357 0.00151741,0.00049548 0.00204386,0.00148644 0.00306578,0.000959993 0.0427042,0.0125418 0.0847271,0.0216153 0.126812,0.0255482 0.00173418,0.000588383 0.00337546,0.00099096 0.00489287,0.00151741 0.0216773,0.00164128 0.0426113,-0.000278708 0.0644744,-0.000216773 0.0226682,0.0010529 0.0458009,0.00340643 0.0688408,0.000464513 0.0113031,-0.00086709 0.0226063,-0.00408771 0.033321,-0.00572899 0.0326088,-0.00405674 0.0655892,-0.00833026 0.0971451,-0.017187 0.0427042,-0.0117677 0.0837052,-0.0280566 0.123746,-0.0475351 0.0255792,0.0177444 0.0471945,0.0331972 0.0658679,0.0463584 -0.307972,0.472626 -0.471666,1.04333 -0.435806,1.64289 -0.124737,-0.127091 -0.261552,-0.241639 -0.407997,-0.341974zm-1.07476 -1.3334c0.0722162,-0.121733 0.130095,-0.251611 0.170043,-0.388518 0.131333,0.0387404 0.268024,0.0500435 0.40521,0.0431997 0.0106219,0.00507867 0.0191999,0.00944509 0.0317107,0.0132851 0.0519325,0.0156696 0.105506,0.0263224 0.158585,0.0339714 -0.10083,0.433979 -0.147746,0.907565 -0.160319,1.34718 -0.195002,-0.406665 -0.409917,-0.75889 -0.605229,-1.04912zm5.41324 3.50803c-0.526045,-0.685311 -1.36626,-1.10402 -2.27772,-1.06169 -0.0348384,0.00120773 -0.0687788,0.00399481 -0.103555,0.00603866 -0.0223276,0.0023845 -0.0442835,0.00195095 -0.0670137,0.00449029 -0.00532641,0.000464513 -0.0097238,0.00191999 -0.0140902,0.00241547 -0.00802058,0.000805155 -0.0155457,0.00074322 -0.0226682,0.00151741 -0.266692,0.0291404 -0.527191,0.0988793 -0.777068,0.206429 -0.15877,-0.277035 -0.256752,-0.579216 -0.291652,-0.898151 -0.140623,-1.28466 0.79026,-2.44318 2.07408,-2.58362 1.28484,-0.14084 2.4434,0.789021 2.58405,2.07374 0.0983838,0.898429 -0.341386,1.77877 -1.10436,2.24883z"/>
   <path id="_137370608" class="fil1 str0" d="M8.19375 13.3481l-0.0350862 -0.270037c-0.0110554,-0.0807942 -0.084851,-0.137713 -0.165707,-0.12644 -0.0815994,0.00978573 -0.13796,0.0842316 -0.127555,0.165428l0.0357984 0.269603c0.00241547,0.0176824 -0.0270656,0.0744459 -0.093398,0.10083l-0.323022 0.128329c-0.0755298,0.0300075 -0.112722,0.115942 -0.0826832,0.191565 0.0301933,0.0759014 0.115849,0.112288 0.191534,0.0822497l0.322991 -0.128205c0.1802,-0.0716278 0.29896,-0.249165 0.277128,-0.413323z"/>
   <path id="_137370536" class="fil1" d="M8.80168 13.6376c-0.191844,-0.0650318 -0.405055,0.00740123 -0.51787,0.176236l-0.282919 0.424069c-0.0451197,0.0685001 -0.026663,0.159545 0.0410629,0.20485 0.0421777,0.0283662 0.0932741,0.0320823 0.136845,0.0148025 0.0267869,-0.0106219 0.0502603,-0.0294191 0.0680356,-0.0550602l0.282609 -0.424812c0.0379042,-0.0569492 0.113403,-0.0823116 0.17763,-0.0605415l0.397994 0.134554c0.0769852,0.0258888 0.160752,-0.0151121 0.186362,-0.0927167 0.0260746,-0.0770472 -0.0148954,-0.160845 -0.0920045,-0.186889l-0.397747 -0.134492z"/>
   <path id="_137370464" class="fil2" d="M17.7008 8.63814c-0.408864,-0.0144309 -0.828691,-0.147684 -1.24895,-0.395269 -0.0892793,-0.0521493 -0.203457,-0.0229779 -0.256039,0.0655892 -0.0526448,0.0892793 -0.0229469,0.203549 0.0661466,0.256039 0.473834,0.280349 0.95479,0.431068 1.42677,0.44714 0.0234734,0.00061935 0.0455842,-0.00232256 0.0671995,-0.00969283 0.0707298,-0.0242476 0.123096,-0.0912303 0.126131,-0.170166 0.00306578,-0.103308 -0.0776665,-0.189583 -0.181253,-0.19364z"/>
   <path id="_137370392" class="fil1" d="M14.4515 11.6927l-0.358666 -0.23557c-0.0516848,-0.0335997 -0.0678188,-0.0798962 -0.0665492,-0.0913541l0.084851 -0.196582c0.0318656,-0.0746317 -0.000805155,-0.161712 -0.0776975,-0.193764 -0.0750652,-0.0322062 -0.161743,0.00253934 -0.193857,0.0776355l-0.084851 0.196768c-0.0645053,0.150967 0.0115818,0.346372 0.176267,0.454231l0.359161 0.234734c0.00349933,0.00281804 0.0072464,0.004769 0.0110864,0.00681285 0.0667659,0.0357365 0.150533,0.0154218 0.192897,-0.048588 0.0448719,-0.0685001 0.0253624,-0.159916 -0.0426423,-0.204324z"/>
   <path id="_137370320" class="fil1" d="M13.5054 11.1395l0.183699 -0.20101c0.0545647,-0.0604795 0.050477,-0.153599 -0.0102502,-0.208102 -0.060077,-0.0561131 -0.15332,-0.0511583 -0.208659,0.00916638l-0.182987 0.201196c-0.0119225,0.0131922 -0.074322,0.0274062 -0.137279,-0.00637931l-0.306393 -0.164097c-0.0716588,-0.0383687 -0.16131,-0.011427 -0.199709,0.0603247 -0.0386165,0.0719995 -0.0112102,0.161031 0.0605415,0.199462l0.306423 0.164097c0.170879,0.0916019 0.383099,0.0679117 0.494613,-0.0546577z"/>
   <path id="_137370248" class="fil1" d="M13.6761 11.7908c-0.0740743,-0.188499 -0.266909,-0.304844 -0.468693,-0.282114l-0.506567 0.057197c-0.0814136,0.00969283 -0.139106,0.0826213 -0.130033,0.163447 0.00545028,0.0506319 0.0356126,0.0920664 0.0770162,0.114208 0.0253005,0.0135947 0.0548435,0.0194166 0.0859039,0.0164747l0.506907 -0.0579402c0.0679737,-0.00777284 0.136009,0.0336307 0.160845,0.0967735l0.153754 0.390872c0.0298527,0.0755298 0.115199,0.113217 0.191131,0.0826523 0.0756846,-0.0297598 0.113248,-0.115106 0.0834574,-0.190791l-0.153723 -0.390779z"/>
   <path id="_137370176" class="fil1" d="M6.04517 9.21643c0.0249598,-0.00346836 0.0484022,-0.0101883 0.0692124,-0.0210579 0.0690575,-0.0360152 0.111824,-0.111576 0.103122,-0.193795 -0.0115509,-0.10628 -0.107364,-0.183544 -0.213552,-0.171963 -0.308498,0.0335997 -0.58798,-0.190481 -0.620744,-0.499692 -0.0335378,-0.308374 0.190048,-0.586556 0.499692,-0.62062 0.106157,-0.0117057 0.183359,-0.10755 0.171901,-0.213676 -0.0120773,-0.107055 -0.107457,-0.183513 -0.213707,-0.171994 -0.523227,0.0568873 -0.900195,0.527098 -0.844267,1.04856 0.0563918,0.522329 0.527036,0.900133 1.04834,0.844236z"/>
   <path id="_137370104" class="fil1" d="M12.1586 7.20673c-0.0646292,0.081011 -0.051499,0.198564 0.0281185,0.263038 0.113341,0.0909825 0.183761,0.219931 0.199338,0.364023 0.016165,0.143658 -0.0255482,0.284684 -0.116562,0.397932 -0.0901774,0.112846 -0.219033,0.183235 -0.36328,0.198626 -0.14403,0.0156076 -0.285923,-0.025703 -0.398769,-0.11588 -0.0802678,-0.0651866 -0.197263,-0.0525519 -0.262233,0.027685 -0.0649389,0.0809181 -0.0517777,0.198719 0.0281185,0.262852 0.190977,0.153382 0.430015,0.223338 0.672305,0.196829 0.115973,-0.0122941 0.225877,-0.0459558 0.325221,-0.0977644 0.110988,-0.0578473 0.208659,-0.138487 0.290258,-0.238729 0.152577,-0.190574 0.222563,-0.428807 0.196644,-0.67215 -0.0262295,-0.243683 -0.14626,-0.461787 -0.337422,-0.615077 -0.0797413,-0.0642576 -0.196458,-0.0517777 -0.261737,0.028614z"/>
   <path id="_137370032" class="fil1" d="M9.32782 8.1932c-0.0582809,0.0892174 -0.0329804,0.209712 0.0575376,0.268272 0.126069,0.0818471 0.212189,0.208071 0.243993,0.355073 0.0308436,0.147312 0.00318965,0.297505 -0.0789671,0.424936 -0.0817852,0.126131 -0.207978,0.212282 -0.355135,0.243993 -0.147251,0.0308746 -0.297505,0.00318965 -0.423543,-0.0785336 -0.0904871,-0.0588073 -0.210858,-0.0332591 -0.268798,0.0566086 -0.0587454,0.09058 -0.032361,0.210362 0.0566396,0.268829 0.298558,0.193051 0.664903,0.198564 0.959931,0.0446861 0.140592,-0.0732691 0.265082,-0.18308 0.356777,-0.324756 0.137929,-0.21318 0.186208,-0.467114 0.133253,-0.716588 -0.053326,-0.24774 -0.199864,-0.461199 -0.413323,-0.599965 -0.0900845,-0.0579712 -0.210703,-0.0326088 -0.268364,0.0574447z"/>
   <path id="_137369960" class="fil1" d="M7.37315 9.28589c0.148118,-0.00470706 0.28648,-0.0426732 0.410258,-0.107179 0.313577,-0.163508 0.524094,-0.495542 0.512574,-0.872386 -0.00356126,-0.107148 -0.0922832,-0.191379 -0.199895,-0.188685 -0.107395,0.00343739 -0.190946,0.0929954 -0.188313,0.200917 0.0100335,0.310047 -0.235353,0.569523 -0.545524,0.579371 -0.310914,0.00907348 -0.570979,-0.235694 -0.580114,-0.546546 -0.00349933,-0.107117 -0.0931812,-0.190915 -0.200762,-0.188159 -0.107333,0.00365417 -0.190822,0.0931812 -0.187539,0.200391 0.0157625,0.524187 0.454851,0.937882 0.979316,0.922274z"/>
   <path id="_137369888" class="fil1" d="M6.39197 11.0817c0.133036,-0.00938316 0.260282,-0.0460177 0.3748,-0.105692 0.104206,-0.054348 0.198285,-0.127958 0.278243,-0.218631 0.166419,-0.19172 0.249134,-0.436704 0.231234,-0.690452 -0.00678188,-0.107488 -0.100118,-0.188282 -0.207544,-0.180603 -0.106993,0.00774188 -0.18692,0.100799 -0.179426,0.206956 0.0098167,0.149976 -0.0388333,0.295027 -0.137743,0.408709 -0.0990031,0.113527 -0.235787,0.181532 -0.386536,0.191689 -0.309489,0.0215534 -0.578535,-0.213459 -0.599748,-0.523134 -0.00789671,-0.106962 -0.100397,-0.188221 -0.207482,-0.180572 -0.10817,0.00826832 -0.187756,0.101233 -0.180603,0.207513 0.0366036,0.523072 0.491392,0.919797 1.01481,0.884215z"/>
   <path id="_137369456" class="fil1" d="M8.12587 7.73677c0.0282424,-0.0115199 0.0564538,-0.0250217 0.0842316,-0.0395455 0.19494,-0.101604 0.347177,-0.266785 0.434815,-0.471821 0.203518,-0.483465 -0.022854,-1.04299 -0.505514,-1.24691 -0.0989102,-0.0415274 -0.213025,0.00405674 -0.254429,0.102595 -0.0424255,0.0993128 0.00399481,0.212964 0.102502,0.25446 0.286821,0.121083 0.420817,0.452157 0.299765,0.738606 -0.0592408,0.138796 -0.1658,0.245789 -0.307291,0.302429 -0.139509,0.0568873 -0.292922,0.0554628 -0.431594,-0.00278708 -0.0984147,-0.0414965 -0.212561,0.00414965 -0.254243,0.10275 -0.0416203,0.0986315 0.00418061,0.212716 0.102781,0.254367 0.234455,0.099096 0.493065,0.10114 0.728975,0.00585286z"/>
  </g>
 </g>
</svg>
