<?xml version="1.0" encoding="UTF-8"?>
<!DOCTYPE svg PUBLIC "-//W3C//DTD SVG 1.1//EN" "http://www.w3.org/Graphics/SVG/1.1/DTD/svg11.dtd">
<!-- Creator: CorelDRAW -->
<svg xmlns="http://www.w3.org/2000/svg" xml:space="preserve" width="512px" height="512px" style="shape-rendering:geometricPrecision; text-rendering:geometricPrecision; image-rendering:optimizeQuality; fill-rule:evenodd; clip-rule:evenodd"
viewBox="0 0 48.5009 48.5009"
 xmlns:xlink="http://www.w3.org/1999/xlink">
 <defs>
  <style type="text/css">
   <![CDATA[
    .str0 {stroke:white;stroke-width:0.0401055}
    .fil0 {fill:white}
    .fil1 {fill:#4D4948}
    .fil2 {fill:#43AC3E;fill-rule:nonzero}
   ]]>
  </style>
 </defs>
 <g id="Vrstva_x0020_1">
  <metadata id="CorelCorpID_0Corel-Layer"/>
  <rect class="fil0 str0" x="0.0200527" y="0.0200527" width="48.4608" height="48.4608"/>
  <path class="fil1" d="M23.6007 26.423c-0.356475,0.30237 -0.587687,0.670845 -0.708003,1.12337 -0.0710003,0.266896 -0.120106,0.548108 -0.15258,0.832899 -0.0345791,0.303212 -0.0504213,0.610477 -0.0538424,0.908952 -0.012579,0.820846 1.06195,0.793635 1.06001,0 0.00389476,-0.321791 0.0282107,-0.673845 0.100685,-1.01206 0.0932636,-0.434897 0.266264,-0.846899 0.578213,-1.14243 0.632898,-0.628792 1.56311,-1.03116 2.39912,-1.30364l0.00405265 -0.0013158c0.634108,-0.255106 1.18064,-0.446002 1.63211,-0.73974 0.797741,-0.519055 1.35116,-1.2209 1.63632,-2.20227 0.251528,-0.865741 0.234159,-1.91206 0.234159,-2.68807 0,-0.92532 -0.0703161,-2.02401 -0.401423,-2.89696 -0.216633,-0.571055 -0.541003,-1.10722 -1.05295,-1.45822 -1.86959,-1.28201 -6.67351,-1.23958 -8.75662,-0.320686 -0.762846,0.339054 -1.25585,0.889162 -1.52611,1.67796 -0.164527,0.480108 -0.248106,1.02169 -0.306844,1.52448 -0.0545266,0.466792 -0.0898952,0.938531 -0.116053,1.41064 -0.0457371,0.825267 0.932057,0.811109 0.932057,-0.0447897 0,-0.0850004 0,-0.170001 0,-0.254949 0.0644214,-1.02037 0.175317,-2.37548 0.94611,-3.16338 1.6088,-1.55432 7.82114,-1.46922 8.85731,0.708688l0.00326317 0.00689477c0.396528,0.859267 0.449423,2.13106 0.449423,3.06465 0,0.617477 -0.0251054,1.29074 -0.155474,1.89669 -0.398002,1.82606 -1.98906,2.43585 -3.60217,3.02386 -0.639214,0.253843 -1.46648,0.610792 -2.00075,1.04943zm-0.533687 6.46882c-0.563213,0 -1.01969,0.456476 -1.01969,1.01969 0,0.563213 0.456476,1.01969 1.01969,1.01969 0.563213,0 1.01969,-0.456476 1.01969,-1.01969 0,-0.563213 -0.456476,-1.01969 -1.01969,-1.01969z"/>
  <path class="fil2" d="M15.5293 27.962l1.46048 -1.22574c0.0714214,-0.0602634 0.158264,-0.0893162 0.244527,-0.0893162 0.109579,0 0.217369,0.0460528 0.292738,0.136211 0.135369,0.161317 0.114369,0.401897 -0.0469476,0.537476l-1.46048 1.2258c-0.161738,0.135527 -0.402581,0.113737 -0.537213,-0.046895 -0.0636845,-0.0758425 -0.0341054,-0.187422 -0.0891583,-0.260422 -0.0782635,-0.103737 -0.0137369,-0.205264 0.136053,-0.277107zm19.7851 -7.28046l-1.90754 0c-0.211106,0 -0.381633,0.170948 -0.381633,0.38137 0,0.210685 0.170527,0.381581 0.381633,0.381581l1.90754 0c0.210896,0 0.381633,-0.170896 0.381633,-0.381581 0,-0.210422 -0.170738,-0.38137 -0.381633,-0.38137zm-4.04939 -5.12234c0.0862636,0 0.173159,-0.0292633 0.244527,-0.0893162l1.46116 -1.22643c0.16158,-0.135527 0.182685,-0.375897 0.0473686,-0.537687 -0.135159,-0.160632 -0.375475,-0.182738 -0.537529,-0.046895l-1.46132 1.22664c-0.161317,0.135316 -0.182264,0.375686 -0.0469476,0.537476 0.035316,0.0420528 0.163369,0.0633687 0.124369,0.0973162 -0.0296317,0.0257896 0.0463686,0.0388423 0.168369,0.0388949zm-15.7357 -1.31506l1.46048 1.22574c0.0714214,0.0602634 0.158264,0.0893162 0.244527,0.0893162 0.109579,0 0.217369,-0.0460528 0.292738,-0.136211 0.135369,-0.161317 0.114369,-0.401897 -0.0469476,-0.537476l-1.46048 -1.2258c-0.161738,-0.135527 -0.402581,-0.113737 -0.537213,0.046895 -0.0636845,0.0758425 -0.0340528,0.187422 -0.0891583,0.260422 -0.0782635,0.103632 -0.0137369,0.205159 0.136053,0.277107zm15.7357 12.4028c0.0862636,0 0.173159,0.0292633 0.244527,0.0893162l1.46116 1.22643c0.16158,0.135527 0.182685,0.375897 0.0473686,0.537687 -0.135159,0.160632 -0.375475,0.182738 -0.537529,0.046895l-1.46132 -1.22664c-0.161317,-0.135316 -0.182264,-0.375686 -0.0469476,-0.537476 0.035316,-0.0420528 0.163317,-0.0633687 0.124369,-0.0973162 -0.0296317,-0.0258422 0.0463686,-0.0390002 0.168369,-0.0388949zm-16.1719 -5.12302l-1.90669 0c-0.211054,0 -0.381581,-0.170896 -0.381581,-0.381581 0,-0.210422 0.170527,-0.38137 0.381581,-0.38137l1.90669 0c0.211106,0 0.381581,0.170948 0.381581,0.38137 0,0.210685 -0.170474,0.381581 -0.381581,0.381581z"/>
 </g>
</svg>
