<?xml version="1.0" encoding="UTF-8"?>
<!DOCTYPE svg PUBLIC "-//W3C//DTD SVG 1.1//EN" "http://www.w3.org/Graphics/SVG/1.1/DTD/svg11.dtd">
<!-- Creator: CorelDRAW -->
<svg xmlns="http://www.w3.org/2000/svg" xml:space="preserve" width="512px" height="512px" style="shape-rendering:geometricPrecision; text-rendering:geometricPrecision; image-rendering:optimizeQuality; fill-rule:evenodd; clip-rule:evenodd"
viewBox="0 0 25.306 25.306"
 xmlns:xlink="http://www.w3.org/1999/xlink">
 <defs>
  <style type="text/css">
   <![CDATA[
    .fil0 {fill:none}
    .fil1 {fill:#4D4948;fill-rule:nonzero}
    .fil2 {fill:#43AC3E;fill-rule:nonzero}
   ]]>
  </style>
 </defs>
 <g id="Vrstva_x0020_1">
  <metadata id="CorelCorpID_0Corel-Layer"/>
  <rect class="fil0" width="25.306" height="25.306"/>
  <g id="_136264368">
   <path id="_137413360" class="fil1" d="M15.0312 11.7136c0.0324862,0.0101966 0.0649724,0.0161881 0.0974586,0.0161881 0.125492,0 0.243509,-0.0797588 0.286714,-0.205279 0.0945453,-0.277919 0.397035,-0.42702 0.674844,-0.332475 0.593821,0.200854 1.24071,-0.118346 1.44146,-0.711948 0.0548857,-0.158088 -0.0294629,-0.330881 -0.188953,-0.384145 -0.158116,-0.0529618 -0.329507,0.0309746 -0.382359,0.188953 -0.0945178,0.278057 -0.397447,0.426938 -0.676438,0.334014 -0.592557,-0.200881 -1.24113,0.116835 -1.44179,0.710436 -0.0533741,0.158088 0.0309746,0.330881 0.189063,0.384255z"/>
   <path id="_137413288" class="fil1" d="M15.7476 9.60572c0.0310845,0.0101691 0.0647525,0.0162981 0.0960294,0.0162981 0.126702,0 0.245048,-0.0797588 0.286302,-0.205389 0.045761,-0.134507 0.141708,-0.243839 0.268822,-0.3073 0.128626,-0.0620591 0.271955,-0.070744 0.407644,-0.024983 0.592639,0.200661 1.24102,-0.118319 1.44179,-0.71192 0.0533741,-0.158226 -0.0309746,-0.330881 -0.189091,-0.384283 -0.157979,-0.054446 -0.329177,0.0310845 -0.384145,0.189091 -0.0945453,0.277837 -0.395853,0.426938 -0.674872,0.332393 -0.288226,-0.097651 -0.595305,-0.076873 -0.868745,0.0574417 -0.271735,0.134535 -0.475585,0.366473 -0.572823,0.654479 -0.0547483,0.158006 0.0310845,0.330908 0.189091,0.384173z"/>
   <path id="_137413216" class="fil1" d="M16.4622 7.49766c0.0327061,0.0106089 0.0651648,0.0162981 0.097651,0.0162981 0.12563,0 0.243839,-0.0798688 0.286522,-0.205389 0.0693424,-0.205361 0.293997,-0.316095 0.497654,-0.246505 0.252551,0.0858328 0.524589,0.0680506 0.76392,-0.0487843 0.237875,-0.118017 0.416329,-0.321784 0.503591,-0.574417 0.0530443,-0.158088 -0.0308921,-0.330881 -0.189091,-0.384173 -0.15949,-0.0547483 -0.330881,0.0310021 -0.384063,0.189091 -0.0340803,0.0990527 -0.104824,0.180296 -0.19937,0.226057 -0.0929237,0.0472726 -0.19926,0.0530718 -0.299796,0.018964 -0.521456,-0.175458 -1.0901,0.10367 -1.26608,0.625016 -0.0528519,0.158116 0.0310845,0.330881 0.189063,0.383843z"/>
   <path id="_137412856" class="fil1" d="M18.6529 11.6913c-0.05189,-0.0355919 -0.110953,-0.0560675 -0.171281,-0.0651648 0.601105,-1.95252 0.930501,-3.86668 0.977746,-5.68973l0 -0.0857504c-0.0134947,-0.561225 -0.293475,-1.26985 -0.829937,-1.60686 -0.271928,-0.169659 -0.715054,-0.309966 -1.29247,-0.0131649 -0.902632,0.46657 -1.54961,1.83739 -2.06807,2.93929 -0.0309746,0.0635707 -0.0589534,0.12552 -0.0884438,0.187579 -0.115433,-0.527145 -0.464014,-0.979478 -0.959002,-1.21433 -0.116505,-0.561115 -0.562517,-1.00136 -1.12075,-1.11508 -0.00750316,-0.0309746 -0.0147864,-0.0619491 -0.0238012,-0.0930336 -0.115323,-0.394342 -0.462502,-0.691252 -0.865529,-0.738525 -0.226167,-0.0264672 -0.450409,0.0208055 -0.642605,0.132831 -0.162486,-0.0914396 -0.345448,-0.140334 -0.534538,-0.140334 -0.525963,0 -0.967577,0.367875 -1.08301,0.858273 -0.575929,0.156577 -0.996738,0.683749 -1.00125,1.29824 -0.65577,0.168725 -1.13446,0.762326 -1.13446,1.46674 0,0.187579 0.0355644,0.372492 0.103313,0.546768 -0.171391,0.21094 -0.265936,0.47421 -0.265936,0.750316 0,0.165509 0.0340803,0.324779 0.0991626,0.472589 -0.30304,-0.329369 -0.726734,-0.599593 -1.20523,-0.581921 -0.166993,0.00601902 -0.298615,0.144924 -0.292623,0.311697 0.00450739,0.163998 0.138712,0.294025 0.301418,0.294025 0.0101966,0 0.0208055,-0.00151162 0.0294904,-0.00151162 0.283608,0 0.546439,0.187689 0.738415,0.406132 -0.47979,0.137311 -1.05764,0.363477 -1.32765,0.871548 -0.162596,0.307107 -0.18178,0.683749 -0.0724481,1.11528 -0.0458709,0.0747292 -0.0731077,0.16059 -0.0768455,0.252661l0 0.0456511 0.515354 7.31596c0.0472726,0.917007 0.80358,1.63665 1.7224,1.63665l8.4903 0c0.918931,0 1.67513,-0.719643 1.7224,-1.63085l0.527035 -7.5714c0,-0.00140169 0,-0.0031057 0,-0.00599153 0.00912472,-0.138932 -0.0559576,-0.268849 -0.171171,-0.348581zm-3.22603 -3.46838c0.119638,-0.224215 0.25115,-0.500568 0.38835,-0.794345 0.454999,-0.966203 1.07842,-2.28813 1.79925,-2.66029 0.26283,-0.136019 0.490481,-0.139124 0.692764,-0.0121205 0.351549,0.220175 0.557048,0.775711 0.546439,1.16546 -0.0457885,1.78905 -0.372052,3.67064 -0.970381,5.59367 -0.0192938,0.0635707 -0.0634608,0.192196 -0.12552,0.366473l-0.515354 0.229162c-0.0121205,0.00568921 -0.0222896,0.0101966 -0.0324862,0.0173699 -0.149513,0.088966 -0.316287,0.133133 -0.483308,0.134617 -0.166773,-0.00148414 -0.333547,-0.0456511 -0.482868,-0.134617l-0.215448 -0.129697c-0.248236,-0.149321 -0.525963,-0.222951 -0.80358,-0.222951 -0.0031057,0 -0.00601902,0 -0.0106089,0 -0.280613,-0.00170401 -0.562627,0.0721457 -0.813776,0.222951l-0.215448 0.129697c-0.119941,0.0726679 -0.252744,0.106666 -0.387251,0.122936 0.00747567,-0.0269069 0.0161606,-0.0533741 0.0236638,-0.0782472 0.0828645,-0.282097 0.172902,-0.560043 0.265936,-0.834664 0.0355919,-0.104934 0.0722557,-0.209869 0.109222,-0.313401 0.076873,-0.218553 0.158116,-0.434111 0.242465,-0.649559 0.0380655,-0.0945453 0.0737398,-0.192196 0.113399,-0.286742 0.26327,-0.64387 0.553942,-1.26748 0.874544,-1.8657zm-3.85648 0.716675c0.0351522,-0.0442769 0.0706341,-0.0888835 0.103313,-0.131649 0,-0.00159408 0,-0.00159408 0,-0.00159408 0.0236913,-0.0324862 0.0441669,-0.0649724 0.0618667,-0.0974311 0.0753339,-0.140416 0.0930336,-0.298422 0.0578815,-0.451921l1.26265 -0.275995c0.00901478,0.0382579 0.0176998,0.0782472 0.0324862,0.113399 0.0563974,0.13764 0.156604,0.252634 0.298312,0.333794 0.0458709,0.0253953 0.0933635,0.0503783 0.143302,0.0768455 0.0416934,0.0222896 0.0814628,0.0445792 0.122936,0.0665665 0.0188816,0.0104989 0.0396595,0.0206955 0.0590633,0.0325961 0.0366638,0.0191839 0.0706341,0.0426553 0.106226,0.0649449 0.0294904,0.0176723 0.0589534,0.037076 0.0884438,0.0574417 0.0339703,0.0222896 0.0650548,0.0488942 0.097541,0.0741796 0.0279513,0.0234714 0.0548582,0.0487843 0.0813529,0.0736299 0.0295729,0.0296004 0.0574417,0.0575792 0.0843487,0.0885537 0.0456511,0.0563699 0.0914396,0.113922 0.128516,0.183401 -0.128516,0.283608 -0.249968,0.571394 -0.366473,0.862533 -0.0177822,0.045761 -0.0369936,0.0900379 -0.0562874,0.134205 -0.330881,0.0843487 -0.651153,0.242437 -1.04709,0.52305 -0.498012,0.354682 -0.870064,0.449227 -1.48156,0.360261l-0.183291 -0.840134c-0.124008,-0.568728 0.146215,-0.912802 0.406462,-1.24668zm1.50052 -1.83635c0.00750316,-0.00140169 0.0161881,-0.0025835 0.0236913,-0.0025835 0.0574417,0 0.110816,0.0411712 0.122607,0.0971288 0.0104989,0.0446891 -0.00568921,0.0783571 -0.0178921,0.0945453 -0.0101966,0.0162706 -0.0339703,0.045761 -0.0766531,0.0547758l-1.67221 0.366555c-0.0661542,0.014704 -0.134205,-0.0295729 -0.147397,-0.0960294 -0.0147864,-0.0666764 0.0279788,-0.134727 0.0945453,-0.149321l0.887406 -0.193351 0.785908 -0.171721zm-0.977554 4.67798c-0.0238012,0.00151162 -0.0460908,0.00288583 -0.0696722,0.00461733 -0.165509,0.0176723 -0.327665,0.0588434 -0.481604,0.128516l-0.0590633 -0.264342c0.0873719,0.0070909 0.174414,0.014704 0.255657,0.014704 0.528629,0 0.952901,-0.158116 1.44176,-0.505185 0.153609,-0.109332 0.289407,-0.192086 0.417841,-0.261319 -0.0263847,0.079429 -0.0547758,0.157979 -0.0811605,0.237517 -0.0194038,0.0562874 -0.0397695,0.112245 -0.0591732,0.170127 -0.0884163,0.268822 -0.174277,0.54031 -0.252524,0.813749l-0.200771 -0.119501c-0.248456,-0.149321 -0.527447,-0.224463 -0.804954,-0.224463 -0.00313319,0 -0.00772303,0.00140169 -0.0107188,0.00140169 -0.0321564,-0.00140169 -0.0646426,0.00299577 -0.0956171,0.00417758zm-3.61919 -3.12827l0.198188 -0.162706 -0.128626 -0.221549c-0.0797588,-0.140306 -0.122414,-0.296718 -0.122414,-0.456428 0,-0.490041 0.383733,-0.88889 0.874214,-0.909696l0.36639 -0.0147864 -0.0858603 -0.35875c-0.0131924,-0.0591732 -0.0203657,-0.118539 -0.0203657,-0.174496 0,-0.389752 0.303974,-0.718049 0.692736,-0.74754l0.279018 -0.0203657 0 -0.301391c0.00879491,-0.271845 0.23334,-0.490509 0.506779,-0.490509 0.158116,0 0.271818,0.070744 0.337972,0.131621l0.212974 0.191756 0.202255 -0.200744c0.0930336,-0.0915495 0.221577,-0.134315 0.353198,-0.119528 0.162156,0.0191839 0.308481,0.144814 0.355754,0.307107 0.0162981,0.0547758 0.0208879,0.1076 0.0147864,0.161002l-0.0355919 0.338384 0.340006 0c0.435595,0 0.798962,0.339566 0.828563,0.773677l0.0130824 0.198298 0.189063 0.0664565c0.472699,0.165289 0.783214,0.612895 0.772495,1.11357 -0.00406765,0.214046 -0.0736299,0.419297 -0.197528,0.601324 -0.202393,-0.172902 -0.421359,-0.288226 -0.604348,-0.384283 -0.0472451,-0.0248731 -0.0930336,-0.0502684 -0.140306,-0.0752514 -0.0132748,-0.00750316 -0.0280613,-0.020668 -0.0339703,-0.0517525 -0.00728328,-0.0442769 0.00901478,-0.0961668 0.0426553,-0.134205 0.131621,-0.153719 0.184913,-0.361965 0.141818,-0.558559l-0.0367737 -0.166773c-0.0368562,-0.168615 -0.137201,-0.311615 -0.282014,-0.406132 -0.144896,-0.0918793 -0.317689,-0.124338 -0.484682,-0.0873719l-0.0810506 0.0192938c-0.0013742,0 -0.0031057,0 -0.0031057,0l-0.887626 0.193598 -0.867123 0.189063c-0.168395,0.0367737 -0.311615,0.137201 -0.404648,0.282124 -0.0929237,0.144814 -0.124008,0.317606 -0.0873444,0.485974l0.0176723 0.0827546c0,0.00140169 0,0.00140169 0,0.00140169l0.0194038 0.0826447c0.0426553,0.200964 0.182962,0.37087 0.373564,0.452113 0.0472451,0.0205856 0.0858328,0.0590633 0.100647,0.0972112 0.00750316,0.0236913 0.00299577,0.0340803 -0.0148139,0.0634608 -0.029353,0.0401817 -0.0620591,0.0813529 -0.0960294,0.124118 -0.0324862,0.0415834 -0.0666764,0.0858603 -0.102048,0.131621 -0.0119006,0.0161881 -0.0234714,0.0324862 -0.0351522,0.0472726 -0.0253953,0.035372 -0.0503783,0.0694523 -0.0741796,0.106116 -0.0147864,0.0194038 -0.0278689,0.0402092 -0.0412536,0.0608773 -0.0222896,0.0351796 -0.0442769,0.070744 -0.0665665,0.109332 -0.0116807,0.0219873 -0.024983,0.0426828 -0.0366638,0.0646426 -0.0222896,0.043205 -0.0430951,0.0873719 -0.0634608,0.133133 -0.0089873,0.0192938 -0.0177822,0.0385877 -0.0269069,0.0574417 -0.0264672,0.0666764 -0.0502684,0.136239 -0.0676109,0.208494 -0.00313319,0.0116807 -0.00461733,0.0236913 -0.00761309,0.035372 -0.014704,0.0620591 -0.0263847,0.125602 -0.0341078,0.192169 -0.00299577,0.0264947 -0.00299577,0.0545559 -0.00555179,0.0812705 -0.00151162,0.0367462 -0.00612895,0.0707166 -0.00612895,0.10782l-0.00447991 -0.00461733c-0.00420507,-0.00599153 -0.00879491,-0.0101691 -0.0117082,-0.0161881 -0.0533741,-0.0695622 -0.104714,-0.133105 -0.158088,-0.19368 -0.0176998,-0.0188541 -0.0340803,-0.0366638 -0.0503783,-0.0559576 -0.0455411,-0.0472726 -0.0899279,-0.0929237 -0.134095,-0.134507 -0.0147864,-0.0147864 -0.0295729,-0.0296004 -0.0442769,-0.0427652 -0.0562599,-0.0503783 -0.113922,-0.095947 -0.170209,-0.137201 -0.0162981,-0.0117907 -0.0324587,-0.0208055 -0.0487568,-0.0327061 -0.0426553,-0.0278689 -0.0855305,-0.0547758 -0.129697,-0.0782472 -0.0208055,-0.0116807 -0.0415834,-0.0238012 -0.0634608,-0.0339703 -0.0442769,-0.0222896 -0.0903677,-0.0397695 -0.136239,-0.0559576 -0.0147864,-0.00610147 -0.0294629,-0.0136046 -0.045761,-0.0177822 -0.0487843,-0.0161881 -0.0986129,-0.0279788 -0.148881,-0.0384777 -0.00601902,-0.00151162 -0.0121205,0 -0.0179196,-0.00151162 -0.0101691,-0.00159408 -0.0191839,-0.00579914 -0.029353,-0.00728328 -0.0355919,-0.00450739 -0.0695622,-0.0031057 -0.103643,-0.00450739 -0.0234989,-0.00151162 -0.0472726,-0.00761309 -0.0722557,-0.00761309 -0.00750316,0 -0.0147864,0.00151162 -0.0222896,0.00151162 -0.0472726,0.00148414 -0.0914396,0.00610147 -0.137201,0.012093 -0.0235813,0.00269344 -0.0458709,0.00579914 -0.068188,0.00879491 -0.0603276,0.0116807 -0.117989,0.0263847 -0.175458,0.0442769 -0.0089873,0.00299577 -0.0161881,0.0058816 -0.0251754,0.00901478 -0.150613,0.0501585 -0.293805,0.122387 -0.426938,0.209429 -0.0280887,-0.0676383 -0.0428752,-0.140306 -0.0428752,-0.215448 0,-0.177382 0.0797588,-0.342562 0.215558,-0.456401zm-1.94354 2.51257c0.128213,-0.240733 0.438619,-0.425316 0.978956,-0.579227 0.25115,-0.0722557 0.486303,-0.206873 0.676878,-0.38835 0.085448,-0.0827271 0.166691,-0.151987 0.243537,-0.215558 0.245021,-0.199672 0.454917,-0.305898 0.645491,-0.330881 0.00458984,0 0.00750316,-0.0013742 0.0116807,-0.0013742 0.0605474,-0.00761309 0.119941,-0.00461733 0.175898,0.00406765 0.0145666,0.00299577 0.029353,0.0089873 0.0441669,0.012093 0.0283911,0.00731077 0.0563699,0.0148139 0.0843487,0.024983 0.0192938,0.00750316 0.037076,0.0176998 0.0547758,0.0264672 0.0264672,0.0135222 0.0530443,0.0238012 0.079539,0.0399893 0.020778,0.0133023 0.0399619,0.0296004 0.0607673,0.0428752 0.024983,0.0176998 0.0499386,0.0324862 0.0737398,0.0532642 0.0234714,0.0178097 0.045761,0.0412811 0.0695622,0.0619766 0.0234714,0.020778 0.045761,0.0396595 0.0692324,0.0636532 0.0253128,0.024983 0.0502959,0.054336 0.0767631,0.0841563 0.020778,0.0219598 0.0415834,0.0442494 0.0619491,0.0692324 0.0295729,0.0339703 0.0578815,0.0737398 0.0874544,0.112327 0.0192114,0.0234714 0.0366638,0.0457885 0.0543635,0.070744 0.0341902,0.0460908 0.0666764,0.0974311 0.100647,0.147809 0.0146765,0.0238012 0.0294629,0.0426553 0.0426553,0.0664565 0.0488667,0.0753614 0.097651,0.156604 0.146298,0.242465 0.223281,0.39283 0.295536,0.973377 0.19937,1.47853 -0.0162706,-0.00148414 -0.0324587,-0.00299577 -0.0472451,-0.00610147 -0.115021,-0.0191839 -0.227238,-0.0559576 -0.327803,-0.116835l-0.21553 -0.129697c-0.248154,-0.149321 -0.525991,-0.222951 -0.803497,-0.222951 -0.00458984,0 -0.00772303,0 -0.0107188,0 -0.282097,-0.00170401 -0.564221,0.0721457 -0.815151,0.222951l-0.104824 0.0635707c-0.183401,0.109222 -0.387168,0.163778 -0.592529,0.166773 -0.205279,-0.00299577 -0.41031,-0.0575517 -0.593601,-0.166773l-0.406242 -0.24535 -0.00140169 0c-0.0533741,-0.0327061 -0.110843,-0.0530718 -0.169797,-0.0651648 -0.0472726,-0.238947 -0.0309746,-0.432517 0.0502684,-0.586126zm11.1636 8.41467c-0.0310021,0.595635 -0.521373,1.06221 -1.11808,1.06221l-8.49181 0c-0.596735,0 -1.08711,-0.46657 -1.11808,-1.06778l-0.502272 -7.15207 0.262913 0.158088c0.28512,0.171171 0.605722,0.255547 0.92451,0.254035 0.320684,0.00151162 0.639802,-0.0828645 0.925005,-0.254035l0.104742 -0.0635707c0.149294,-0.0888561 0.316095,-0.133023 0.482758,-0.134617 0.167103,0.00159408 0.333904,0.045761 0.483308,0.134617l0.215558 0.130027c0.273329,0.163778 0.581921,0.23334 0.887846,0.217152 0.0264672,-0.00148414 0.054336,-0.00148414 0.081243,-0.0031057 0.00417758,-0.00148414 0.00728328,-0.00299577 0.0101691,-0.00299577 0.206763,-0.0234714 0.409266,-0.0884163 0.596844,-0.194862 0.0176723,-0.00601902 0.0353445,-0.00601902 0.0517525,-0.0161881l0.215558 -0.130027c0.149321,-0.0888561 0.316095,-0.133023 0.482786,-0.134617 0.167103,0.00159408 0.333877,0.045761 0.48339,0.134617l0.215448 0.130027c0.22919,0.137311 0.482895,0.207945 0.740037,0.218553 0.00439745,0 0.0101691,0.00151162 0.0162981,0.00151162 0.0872345,0.00266596 0.175678,0 0.264205,-0.0135222 0.0503783,-0.00566172 0.0991626,-0.018964 0.147809,-0.0295729 0.0234714,-0.00557927 0.0472726,-0.0101966 0.070744,-0.0176998 0.134645,-0.0366363 0.266266,-0.0854205 0.388872,-0.15927l0.215448 -0.130027c0.149321,-0.0888561 0.316095,-0.133023 0.482895,-0.134617 0.166993,0.00159408 0.333767,0.045761 0.483308,0.134617l0.215448 0.130027c0.249528,0.148991 0.530141,0.222731 0.809571,0.221247 0.00417758,0 0.0103065,0.00148414 0.0148139,0.00148414 0.271818,0 0.543333,-0.070744 0.787172,-0.212562l0.593711 -0.264205c0.0116807,-0.00610147 0.0206955,-0.0162981 0.0325961,-0.0238012l0.0472451 -0.0208879 -0.503756 7.23183z"/>
   <g>
    <path id="_137412880" class="fil2" d="M7.66204 17.0664l2.1179 0c0.167213,0 0.301308,-0.134287 0.301308,-0.302792 0,-0.166801 -0.134095,-0.301528 -0.301308,-0.301528l-2.1179 0c-0.167103,0 -0.30293,0.134727 -0.30293,0.301528 0,0.168505 0.135826,0.302792 0.30293,0.302792z"/>
    <path id="_137412952" class="fil2" d="M7.66204 18.2761l2.72213 0c0.166773,0 0.303012,-0.134287 0.303012,-0.3015 0,-0.168285 -0.136239,-0.30249 -0.303012,-0.30249l-2.72213 0c-0.167103,0 -0.30293,0.134205 -0.30293,0.30249 0,0.167213 0.135826,0.3015 0.30293,0.3015z"/>
    <path id="_137413024" class="fil2" d="M10.99 18.8818l-3.32794 0c-0.167103,0 -0.30293,0.135716 -0.30293,0.30282 0,0.166773 0.135826,0.302462 0.30293,0.302462l3.32794 0c0.166801,0 0.30249,-0.135689 0.30249,-0.302462 0,-0.167103 -0.135689,-0.30282 -0.30249,-0.30282z"/>
    <path id="_137413096" class="fil2" d="M12.805 18.8818l-0.605282 0c-0.167213,0 -0.30304,0.135716 -0.30304,0.30282 0,0.166773 0.135826,0.302462 0.30304,0.302462l0.605282 0c0.167213,0 0.301308,-0.135689 0.301308,-0.302462 0,-0.167103 -0.134095,-0.30282 -0.301308,-0.30282z"/>
   </g>
  </g>
 </g>
</svg>
