<?xml version="1.0" encoding="UTF-8"?>
<!DOCTYPE svg PUBLIC "-//W3C//DTD SVG 1.1//EN" "http://www.w3.org/Graphics/SVG/1.1/DTD/svg11.dtd">
<!-- Creator: CorelDRAW -->
<svg xmlns="http://www.w3.org/2000/svg" xml:space="preserve" width="300px" height="300px" style="shape-rendering:geometricPrecision; text-rendering:geometricPrecision; image-rendering:optimizeQuality; fill-rule:evenodd; clip-rule:evenodd"
viewBox="0 0 105.25 102.105"
 xmlns:xlink="http://www.w3.org/1999/xlink">
 <defs>
  <style type="text/css">
   <![CDATA[
    .fil0 {fill:#43AC3E;fill-rule:nonzero}
   ]]>
  </style>
 </defs>
 <g id="Vrstva_x0020_1">
  <metadata id="CorelCorpID_0Corel-Layer"/>
  <g id="_336751008">
   <path id="_336750744" class="fil0" d="M4.82218 50.2312c-0.347121,0 -0.629297,-0.282176 -0.629297,-0.629297l0 -10.3952c0,-0.347121 0.282176,-0.629297 0.629297,-0.629297l40.0455 0 0 5.87083c0,2.19638 1.78655,3.98349 3.98349,3.98349l7.54765 0c2.19638,0 3.98349,-1.78711 3.98349,-3.98349l0 -5.87083 40.0455 0c0.347121,0 0.629297,0.282176 0.629297,0.629297l0 10.3952c0,0.347121 -0.282176,0.629297 -0.629297,0.629297l-95.6056 0zm51.5956 -50.2312l-7.58572 0c-2.18798,0.0100777 -3.96446,1.79327 -3.96446,3.98349l0 30.4011 -40.0455 0c-2.65884,0 -4.82218,2.16279 -4.82218,4.82218l0 10.3952c0,2.6594 2.16335,4.82218 4.82218,4.82218l0.693682 0 5.43469 38.6245c0.726715,5.16259 5.20626,9.0565 10.4204,9.0565l62.5076 0c5.21466,0 9.6942,-3.89392 10.4209,-9.0565l5.43469 -38.6245 0.693682 0c2.6594,0 4.82218,-2.16279 4.82218,-4.82218l0 -10.3952c0,-2.6594 -2.16279,-4.82218 -4.82218,-4.82218l-40.0455 0 0 -30.4011c0,-2.19022 -1.77704,-3.97342 -3.96446,-3.98349zm33.729 92.4641c-0.436701,3.10561 -3.13137,5.44756 -6.26778,5.44756l-62.5081 0c-3.13641,0 -5.83108,-2.34195 -6.26834,-5.44756l-5.35238 -38.04 85.7496 0 -5.35294 38.04zm-41.0863 -88.2712l7.12886 0 0 40.0455 -7.12886 0 0 -40.0455z"/>
   <path id="_336742944" class="fil0" d="M22.6435 92.8801c1.15782,0 2.09672,-0.938907 2.09672,-2.09672l0 -29.3525c0,-1.15782 -0.938907,-2.09672 -2.09672,-2.09672 -1.15838,0 -2.09672,0.938907 -2.09672,2.09672l0 29.3525c0,1.15782 0.938347,2.09672 2.09672,2.09672z"/>
   <path id="_336752352" class="fil0" d="M34.636 92.8801c1.15782,0 2.09672,-0.938907 2.09672,-2.09672l0 -29.3525c0,-1.15782 -0.938907,-2.09672 -2.09672,-2.09672 -1.15782,0 -2.09672,0.938907 -2.09672,2.09672l0 29.3525c0,1.15782 0.938907,2.09672 2.09672,2.09672z"/>
   <path id="_336753312" class="fil0" d="M46.6284 92.8801c1.15838,0 2.09672,-0.938907 2.09672,-2.09672l0 -29.3525c0,-1.15782 -0.938347,-2.09672 -2.09672,-2.09672 -1.15782,0 -2.09672,0.938907 -2.09672,2.09672l0 29.3525c0,1.15782 0.938907,2.09672 2.09672,2.09672z"/>
   <path id="_336752016" class="fil0" d="M58.6215 92.8801c1.15782,0 2.09616,-0.938907 2.09616,-2.09672l0 -29.3525c0,-1.15782 -0.938347,-2.09672 -2.09616,-2.09672 -1.15782,0 -2.09672,0.938907 -2.09672,2.09672l0 29.3525c0,1.15782 0.938347,2.09672 2.09672,2.09672z"/>
   <path id="_336751608" class="fil0" d="M70.614 92.8801c1.15782,0 2.09672,-0.938907 2.09672,-2.09672l0 -29.3525c0,-1.15782 -0.938907,-2.09672 -2.09672,-2.09672 -1.15782,0 -2.09672,0.938907 -2.09672,2.09672l0 29.3525c0,1.15782 0.938907,2.09672 2.09672,2.09672z"/>
   <path id="_336752088" class="fil0" d="M82.6064 65.2056c1.15782,0 2.09672,-0.938907 2.09672,-2.09672l0 -1.67794c0,-1.15782 -0.938907,-2.09672 -2.09672,-2.09672 -1.15726,0 -2.09672,0.938907 -2.09672,2.09672l0 1.67794c0,1.15782 0.939467,2.09672 2.09672,2.09672z"/>
   <path id="_107611280" class="fil0" d="M82.6064 92.8801c1.15782,0 2.09672,-0.938907 2.09672,-2.09672l0 -19.7081c0,-1.15782 -0.938907,-2.09672 -2.09672,-2.09672 -1.15726,0 -2.09672,0.938907 -2.09672,2.09672l0 19.7081c0,1.15782 0.939467,2.09672 2.09672,2.09672z"/>
  </g>
 </g>
</svg>
