<?xml version="1.0" encoding="iso-8859-1"?>
<!-- Generator: Adobe Illustrator 19.0.0, SVG Export Plug-In . SVG Version: 6.00 Build 0)  -->
<svg version="1.1" id="Layer_1" xmlns="http://www.w3.org/2000/svg" xmlns:xlink="http://www.w3.org/1999/xlink" x="0px" y="0px"
	 viewBox="0 0 512 512" style="enable-background:new 0 0 512 512;" xml:space="preserve">
<g>
	<g>
		<path d="M0,316.235v180.706h512V316.235H0z M97.882,436.706c-16.607,0-30.118-13.511-30.118-30.118
			c0-16.607,13.511-30.118,30.118-30.118c16.607,0,30.118,13.511,30.118,30.118C128,423.195,114.489,436.706,97.882,436.706z
			 M203.294,436.706c-16.607,0-30.118-13.511-30.118-30.118c0-16.607,13.511-30.118,30.118-30.118s30.118,13.511,30.118,30.118
			C233.412,423.195,219.901,436.706,203.294,436.706z M308.706,436.706c-16.607,0-30.118-13.511-30.118-30.118
			c0-16.607,13.511-30.118,30.118-30.118s30.118,13.511,30.118,30.118C338.824,423.195,325.313,436.706,308.706,436.706z
			 M414.118,436.706c-16.607,0-30.118-13.511-30.118-30.118c0-16.607,13.511-30.118,30.118-30.118
			c16.607,0,30.118,13.511,30.118,30.118C444.235,423.195,430.725,436.706,414.118,436.706z"/>
	</g>
</g>
<g>
	<g>
		<path d="M410.687,195.969c-7.675,8.373-20.519,22.383-44.261,22.383c-23.742,0-36.587-14.012-44.261-22.383
			c-6.609-7.21-7.627-7.734-10.96-7.734c-3.331,0-4.347,0.526-10.955,7.734c-7.674,8.373-20.518,22.383-44.258,22.383
			s-36.584-14.012-44.259-22.383c-6.608-7.209-7.624-7.734-10.955-7.734c-3.331,0-4.347,0.526-10.955,7.734
			c-7.674,8.373-20.518,22.383-44.258,22.383s-36.584-14.012-44.258-22.385c-6.606-7.207-7.623-7.733-10.954-7.733v82.824h331.294
			v-82.824C418.313,188.235,417.297,188.761,410.687,195.969z"/>
	</g>
</g>
<g>
	<g>
		<path d="M278.588,90.353V15.059h-45.177v75.294H90.353v52.706c23.74,0,36.584,14.012,44.258,22.385
			c6.608,7.209,7.624,7.733,10.954,7.733c3.331,0,4.347-0.526,10.954-7.733c7.674-8.373,20.518-22.385,44.258-22.385
			s36.584,14.012,44.259,22.383c6.608,7.209,7.624,7.734,10.955,7.734c3.331,0,4.347-0.526,10.955-7.734
			c7.675-8.371,20.518-22.383,44.259-22.383c23.742,0,36.585,14.011,44.261,22.382c6.609,7.21,7.626,7.736,10.961,7.736
			c3.334,0,4.351-0.526,10.96-7.734c7.674-8.373,20.518-22.383,44.259-22.383V90.353H278.588z"/>
	</g>
</g>
<g>
</g>
<g>
</g>
<g>
</g>
<g>
</g>
<g>
</g>
<g>
</g>
<g>
</g>
<g>
</g>
<g>
</g>
<g>
</g>
<g>
</g>
<g>
</g>
<g>
</g>
<g>
</g>
<g>
</g>
</svg>
