<?xml version="1.0" encoding="UTF-8"?>
<!DOCTYPE svg PUBLIC "-//W3C//DTD SVG 1.1//EN" "http://www.w3.org/Graphics/SVG/1.1/DTD/svg11.dtd">
<!-- Creator: CorelDRAW -->
<svg xmlns="http://www.w3.org/2000/svg" xml:space="preserve" width="512px" height="512px" style="shape-rendering:geometricPrecision; text-rendering:geometricPrecision; image-rendering:optimizeQuality; fill-rule:evenodd; clip-rule:evenodd"
viewBox="0 0 384.277 384.277"
 xmlns:xlink="http://www.w3.org/1999/xlink">
 <defs>
  <style type="text/css">
   <![CDATA[
    .fil0 {fill:#DEDEDD}
    .fil1 {fill:#4D4948;fill-rule:nonzero}
    .fil2 {fill:#43AC3E;fill-rule:nonzero}
   ]]>
  </style>
 </defs>
 <g id="Vrstva_x0020_1">
  <metadata id="CorelCorpID_0Corel-Layer"/>
  <rect class="fil0" width="384.277" height="384.277"/>
  <path class="fil1" d="M256.737 208.76l-0.136474 0c2.89809,-3.7979 5.44101,-8.89543 5.34085,-15.0251 -0.136474,-8.28442 -5.0896,-16.3902 -14.7208,-24.0908 1.20448,-3.61718 1.45906,-7.1822 0.753737,-10.675 -2.80168,-13.8373 -17.8163,-19.3634 -31.5956,-22.4356 0.489136,-1.62725 0.755823,-3.35008 0.755823,-5.13384 0,-6.75316 -3.76952,-12.6407 -9.31403,-15.6745 5.51613,-11.1996 12.8707,-12.4379 15.8306,-12.4379 3.76952,0 6.13799,0.807158 7.51066,1.5346 1.06633,0.565094 2.35845,0.474946 3.32045,-0.256254 1.78919,-1.36057 1.55881,-4.10966 -0.42695,-5.16598 -2.20654,-1.17651 -5.56288,-2.26872 -10.4042,-2.26872 -5.90135,0 -11.4363,2.71529 -16.0071,7.85163 -1.53669,1.72909 -3.76117,4.64512 -5.70269,8.76271 -0.868091,-0.130214 -1.7558,-0.198242 -2.65936,-0.198242 -6.69515,0 -12.5368,3.70733 -15.5927,9.1738 -1.11767,-1.23661 -2.35178,-2.85385 -3.22404,-4.6831 -0.364765,-0.769596 -1.03378,-1.35264 -1.8472,-1.61139 -0.811748,-0.256254 -1.6957,-0.166106 -2.43691,0.250828 -9.20218,5.1618 -15.9207,12.0389 -19.9707,20.4394 -3.46276,7.18596 -4.10215,13.8051 -4.11383,17.6544 -0.260845,0.100164 -0.519185,0.200329 -0.75958,0.304249 -7.96766,3.41519 -12.5602,9.91543 -13.2876,18.7988 -0.289225,3.55124 0.111433,6.78905 0.54047,9.01354 -6.33998,2.27248 -10.7506,6.61502 -12.3394,12.3077 -1.25498,4.49279 -0.607246,9.3662 1.61682,13.5648l-2.45695 0c-0.935284,0 -1.82174,0.424446 -2.40478,1.15815 -0.584709,0.7312 -0.802984,1.68944 -0.596812,2.60093l15.2534 67.118c1.00623,4.42059 4.87383,7.50899 9.40668,7.50899l88.0102 0c4.53285,0 8.40045,-3.0884 9.40627,-7.50899l15.2542 -67.118c0.206172,-0.911495 -0.0125205,-1.86973 -0.59723,-2.60093 -0.583457,-0.733704 -1.46741,-1.15815 -2.4052,-1.15815zm-57.4551 -89.0569c6.45017,0 11.6967,5.24611 11.6967,11.6967 0,6.4485 -5.24652,11.6967 -11.6967,11.6967 -6.4485,0 -11.6971,-5.24819 -11.6971,-11.6967 0,-6.45058 5.24861,-11.6967 11.6971,-11.6967zm-52.2132 161.285c-1.63977,0 -3.0379,-1.11641 -3.40308,-2.71529l-14.3974 -63.3569 9.96134 0 11.0031 64.5567c0.0897305,0.525445 0.216605,1.03002 0.368521,1.5154l-3.53246 0zm11.001 0c-0.559251,0 -1.48452,-0.886037 -1.76707,-2.54918l-10.8294 -63.523 10.0219 0 7.31575 64.3865c0.0684456,0.587213 0.164854,1.15064 0.290894,1.68568l-5.03201 0zm11.5585 0c-0.214519,-0.346819 -0.555077,-1.10849 -0.699481,-2.38099l-7.23771 -63.6912 10.0594 0 3.6489 64.2145c0.0383963,0.659415 0.0943214,1.27835 0.170279,1.85763l-5.94141 0zm18.3676 0l-6.18765 0c-0.104755,-0.527532 -0.209093,-1.25498 -0.262514,-2.20654l-3.62929 -63.8656 9.86493 0c0.00417351,0 0.00834703,0 0.0121032,0 0.00375616,0 0.0100164,0 0.0141899,0l0.188225 0 0 66.0721zm12.6086 -2.20654c-0.0542557,0.951561 -0.158176,1.679 -0.265018,2.20654l-6.18765 0 0 -66.0721 10.0811 0 -3.62845 63.8656zm11.9171 2.20654l-5.9435 0c0.075958,-0.579284 0.13397,-1.19822 0.172366,-1.85763l3.64682 -64.2145 10.0615 0 -7.23771 63.6912c-0.144404,1.2725 -0.484962,2.03417 -0.699481,2.38099zm11.5585 0l-5.03409 0c0.12604,-0.535044 0.224535,-1.09847 0.290894,-1.68568l7.31784 -64.3865 10.0198 0 -10.8273 63.523c-0.284634,1.66315 -1.20823,2.54918 -1.76707,2.54918zm14.4015 -2.71529c-0.362678,1.59887 -1.76164,2.71529 -3.40058,2.71529l-3.53455 0c0.154003,-0.48538 0.278373,-0.989957 0.368521,-1.5154l11.0051 -64.5567 6.52278 0c0.00208676,0 0.00626027,0 0.00792968,0 0.00417351,0 0.00626027,0 0.0100164,0l3.42061 0 -14.3999 63.3569zm9.8015 -69.5128l-47.1958 0c6.92136,-3.61718 15.8844,-8.68508 24.3312,-14.6106 1.3927,-0.975768 1.72909,-2.89558 0.753319,-4.2862 -0.977854,-1.3927 -2.89725,-1.7295 -4.28787,-0.753737 -14.6624,10.2881 -31.4495,18.1393 -34.7554,19.6506l-51.7749 0c-3.05793,-3.30292 -4.30414,-7.86332 -3.17437,-11.9095 1.28085,-4.58294 5.41263,-7.79112 11.637,-9.03524 5.84709,-1.17067 21.3054,-4.42434 38.5503,-9.38415 1.63351,-0.468686 2.57756,-2.1744 2.10637,-3.8075 -0.468686,-1.63351 -2.17231,-2.57923 -3.80708,-2.10846 -15.3723,4.421 -29.3031,7.46892 -36.1126,8.86788 -0.939875,-5.06581 -1.56256,-16.0334 9.20844,-20.6501 4.15765,-1.78167 12.5819,-3.3146 21.4994,-4.93977l2.97947 -0.543392c1.67358,-0.306753 2.77956,-1.91147 2.47322,-3.58254 -0.30884,-1.67358 -1.91189,-2.77956 -3.58338,-2.47114l-2.97154 0.541305c-5.75903,1.05006 -11.3177,2.06213 -15.8548,3.17229 0.419021,-7.17427 3.4565,-19.8405 18.2754,-29.3014 1.11224,1.66189 2.30837,3.03039 3.25868,4.01033 0.663171,0.683204 1.22785,1.21825 1.72283,1.64937 -0.0838876,0.699064 -0.1323,1.41065 -0.1323,2.13183 0,9.8449 8.00939,17.8526 17.853,17.8526 5.78491,0 10.9329,-2.76746 14.1975,-7.04573 6.07205,1.29045 11.0936,2.78332 15.1515,4.52868 0.769179,1.16441 0.663171,2.00203 0.450739,2.66938 -0.765422,2.39643 -5.53241,8.98307 -33.2308,18.3818 -1.60889,0.54673 -2.47072,2.29418 -1.92524,3.90349 0.434463,1.2821 1.6331,2.08968 2.9152,2.08968 0.326786,0 0.661502,-0.0517516 0.988288,-0.164019 9.92879,-3.36844 17.9828,-6.73313 23.9384,-9.99932 7.53611,-4.13428 11.849,-8.17007 13.1791,-12.3402 0.0984949,-0.306753 0.17654,-0.614759 0.242899,-0.921929 3.78329,2.74993 5.97146,5.98983 6.75066,9.83739 1.13227,5.59251 -1.41065,11.7685 -7.55615,18.3555 -1.16065,1.24454 -1.09221,3.19232 0.150246,4.35047 0.593056,0.555077 1.34638,0.827608 2.09969,0.827608 0.823852,0 1.64562,-0.326786 2.25036,-0.977854 2.29877,-2.46279 4.18061,-4.91515 5.64509,-7.34998 7.37001,6.18765 11.1575,12.3857 11.2576,18.4394 0.108094,6.71727 -4.32626,12.0051 -7.50398,14.9232z"/>
  <path class="fil2" d="M192.138 71.1864c2.49034,0 4.51741,2.01163 4.51741,4.48444 0,2.47281 -2.02666,4.48402 -4.51741,4.48402 -2.49075,0 -4.51741,-2.01122 -4.51741,-4.48402 0,-2.47281 2.02666,-4.48444 4.51741,-4.48444zm0 12.9254c4.67267,0 8.47432,-3.78621 8.47432,-8.44093 0,-4.65472 -3.80165,-8.44135 -8.47432,-8.44135 -4.67308,0 -8.47474,3.78663 -8.47474,8.44135 0.000417351,4.65472 3.80165,8.44093 8.47474,8.44093zm-65.757 38.1722l3.90808 -3.88846c0.0792968,-0.0792968 0.170697,-0.0955735 0.233717,-0.0955735 0.0630201,0 0.15442,0.0166941 0.233299,0.0955735l3.9085 3.88805c0.075958,0.0751232 0.0918173,0.160263 0.0918173,0.218275 0,0.0580118 -0.0158594,0.142734 -0.0914,0.217857l-3.90891 3.88888c-0.0788794,0.0784621 -0.170279,0.0947388 -0.233299,0.0947388 -0.0630201,0 -0.15442,-0.0166941 -0.233299,-0.0943214l-3.9085 -3.8893c-0.075958,-0.0751232 -0.0914,-0.159846 -0.0914,-0.217857 0,-0.0580118 0.0158594,-0.142317 0.0914,-0.217857zm1.11808 7.13045c0.808827,0.803819 1.88267,1.24621 3.02413,1.24621 1.14187,0 2.21572,-0.442392 3.02413,-1.24663l3.90891 -3.8893c0.810914,-0.807158 1.25748,-1.88059 1.25748,-3.02246 0,-1.14229 -0.446566,-2.21572 -1.25748,-3.02371l-3.90933 -3.88888c-0.80841,-0.804236 -1.88225,-1.24705 -3.02413,-1.24705 -1.14146,0 -2.2153,0.44281 -3.02413,1.24705l-3.90891 3.88888c-0.810914,0.807158 -1.25748,1.88059 -1.25748,3.02329 0,1.14229 0.446566,2.21572 1.2579,3.02288l3.90891 3.88971zm33.9357 -41.3003l2.98657 2.97112 -2.98657 2.97154 -2.98657 -2.97154 2.98657 -2.97112zm-2.71111 8.82698c0.724939,0.720348 1.68777,1.11767 2.71153,1.11767 1.02418,0 1.98701,-0.397319 2.71153,-1.11808l3.15893 -3.14266c0.727861,-0.724105 1.12852,-1.68735 1.12852,-2.71237 0,-1.02501 -0.400657,-1.98868 -1.12852,-2.71278l-3.15893 -3.14224c-0.724939,-0.721183 -1.68777,-1.1185 -2.71153,-1.1185 -1.02376,0 -1.98701,0.397319 -2.71195,1.1185l-3.15893 3.14224c-0.727861,0.724105 -1.12852,1.68777 -1.12852,2.71278 0,1.02543 0.401075,1.98826 1.1281,2.71195l3.15977 3.14349zm84.949 -2.89809l2.98657 2.97112 -2.98657 2.97154 -2.98657 -2.97154 2.98657 -2.97112zm-2.71111 8.82698c0.725357,0.720766 1.68819,1.11725 2.71153,1.11725 1.02418,0 1.98659,-0.397319 2.71153,-1.11808l3.15852 -3.14266c0.727861,-0.724105 1.12852,-1.68693 1.12852,-2.71237 0,-1.02543 -0.400657,-1.98826 -1.12852,-2.71278l-3.15852 -3.14224c-0.724939,-0.721183 -1.68819,-1.1185 -2.71237,-1.1185 -1.02335,0 -1.98659,0.397319 -2.71111,1.1185l-3.15935 3.14224c-0.727861,0.724522 -1.12852,1.68735 -1.12852,2.71278 0.000417351,1.02543 0.401075,1.98826 1.1281,2.71195l3.16018 3.14391z"/>
 </g>
</svg>
