<?xml version="1.0" encoding="UTF-8"?>
<!DOCTYPE svg PUBLIC "-//W3C//DTD SVG 1.1//EN" "http://www.w3.org/Graphics/SVG/1.1/DTD/svg11.dtd">
<!-- Creator: CorelDRAW -->
<svg xmlns="http://www.w3.org/2000/svg" xml:space="preserve" width="512px" height="512px" style="shape-rendering:geometricPrecision; text-rendering:geometricPrecision; image-rendering:optimizeQuality; fill-rule:evenodd; clip-rule:evenodd"
viewBox="0 0 159.038 159.038"
 xmlns:xlink="http://www.w3.org/1999/xlink">
 <defs>
  <style type="text/css">
   <![CDATA[
    .fil0 {fill:#DEDEDD}
    .fil1 {fill:#4D4948;fill-rule:nonzero}
    .fil2 {fill:#43AC3E;fill-rule:nonzero}
   ]]>
  </style>
 </defs>
 <g id="Vrstva_x0020_1">
  <metadata id="CorelCorpID_0Corel-Layer"/>
  <rect class="fil0" width="159.038" height="159.038"/>
  <path class="fil1" d="M90.739 75.0874c0.153209,0.048018 0.306417,0.0763452 0.459626,0.0763452 0.59228,0 1.14898,-0.376199 1.3528,-0.968306 0.44598,-1.31134 1.87305,-2.01468 3.18387,-1.5687 2.80163,0.947752 5.85336,-0.558253 6.8006,-3.35884 0.258917,-0.745834 -0.139045,-1.5611 -0.891615,-1.81242 -0.745834,-0.249763 -1.55437,0.146127 -1.80379,0.891615 -0.44598,1.31169 -1.87512,2.01417 -3.19147,1.57561 -2.79541,-0.947579 -5.85544,0.551344 -6.80198,3.35176 -0.251836,0.746007 0.146127,1.5611 0.891961,1.81294z"/>
  <path class="fil1" d="M94.1191 65.143c0.146645,0.048018 0.305381,0.0768634 0.453062,0.0768634 0.597807,0 1.15606,-0.376372 1.35072,-0.968997 0.215908,-0.634598 0.668625,-1.15036 1.26833,-1.44987 0.606789,-0.292772 1.28301,-0.333708 1.92314,-0.1178 2.79593,0.946715 5.85492,-0.558253 6.80215,-3.35884 0.251836,-0.746352 -0.146127,-1.5611 -0.892134,-1.81294 -0.745316,-0.256845 -1.55299,0.146645 -1.81242,0.892134 -0.44598,1.31082 -1.86752,2.01417 -3.18387,1.56819 -1.3597,-0.460662 -2.80854,-0.362553 -4.09863,0.271008 -1.28198,0.634598 -2.24372,1.72899 -2.70248,3.08784 -0.258399,0.745316 0.146818,1.5611 0.892134,1.81242z"/>
  <path class="fil1" d="M97.4906 55.1974c0.154245,0.0500907 0.307454,0.0768634 0.460662,0.0768634 0.592798,0 1.15053,-0.376717 1.35176,-0.968824 0.327144,-0.968997 1.38717,-1.49132 2.34787,-1.16314 1.19147,0.405044 2.475,0.321099 3.60412,-0.230072 1.12221,-0.556871 1.96425,-1.5181 2.37586,-2.71008 0.250281,-0.745834 -0.145609,-1.5611 -0.892134,-1.81242 -0.752398,-0.258399 -1.5611,0.146127 -1.8119,0.892134 -0.160809,0.467226 -0.494517,0.850506 -0.940497,1.06641 -0.438553,0.22299 -0.940152,0.250281 -1.41446,0.0894724 -2.46032,-0.827706 -5.14294,0.488989 -5.97324,2.94879 -0.249417,0.745834 0.146645,1.5611 0.891961,1.81087z"/>
  <path class="fil1" d="M107.826 74.9822c-0.244754,-0.16789 -0.523362,-0.264445 -0.808188,-0.307454 2.836,-9.21169 4.39002,-18.2424 4.61301,-26.8433l0 -0.404526c-0.0637362,-2.6479 -1.38458,-5.99103 -3.91554,-7.58098 -1.28301,-0.800416 -3.37353,-1.46248 -6.09777,-0.0621816 -4.2584,2.20123 -7.31083,8.66864 -9.75681,13.8672 -0.146127,0.299854 -0.27809,0.592107 -0.417308,0.885052 -0.544607,-2.48709 -2.18914,-4.62113 -4.5244,-5.72917 -0.549616,-2.64721 -2.65395,-4.72408 -5.28751,-5.26074 -0.035409,-0.146127 -0.0697816,-0.292254 -0.112272,-0.438899 -0.544089,-1.86044 -2.18206,-3.26125 -4.08361,-3.48424 -1.06693,-0.124881 -2.12488,0.0981088 -3.03153,0.626653 -0.766734,-0.431471 -1.62985,-0.662062 -2.52198,-0.662062 -2.48139,0 -4.56482,1.73556 -5.10943,4.04906 -2.71716,0.738925 -4.70248,3.22584 -4.72373,6.12506 -3.09388,0.795925 -5.35228,3.59652 -5.35228,6.91995 0,0.884879 0.16789,1.75732 0.487435,2.5795 -0.808534,0.995251 -1.25469,2.23733 -1.25469,3.53986 0,0.780898 0.160809,1.53226 0.467744,2.22973 -1.42949,-1.55402 -3.42863,-2.82892 -5.68599,-2.74549 -0.787807,0.0283272 -1.40893,0.683652 -1.3806,1.4706 0.0212454,0.773643 0.654462,1.38717 1.42206,1.38717 0.048018,0 0.0981088,-0.0070818 0.139045,-0.0070818 1.33811,0 2.57812,0.885397 3.48373,1.91606 -2.26341,0.647725 -4.98956,1.71483 -6.26342,4.11176 -0.767252,1.44883 -0.857761,3.22584 -0.341999,5.26177 -0.216427,0.352535 -0.344763,0.757579 -0.362553,1.19199l0 0.21539 2.43147 34.5158c0.22299,4.32611 3.79118,7.7214 8.12593,7.7214l40.0562 0c4.33544,0 7.90311,-3.39529 8.1261,-7.69411l2.4864 -35.7209c0,-0.00656362 0,-0.0146818 0,-0.0283272 0.043009,-0.655325 -0.263926,-1.26816 -0.807497,-1.64453zm-15.22 -16.3633c0.564471,-1.05795 1.18491,-2.36152 1.83211,-3.74765 2.14682,-4.55843 5.08784,-10.7951 8.48865,-12.5508 1.24001,-0.641852 2.31402,-0.656534 3.26834,-0.0571725 1.65869,1.03861 2.62804,3.65973 2.57812,5.49841 -0.216081,8.44046 -1.75542,17.3176 -4.57812,26.3902 -0.091027,0.299854 -0.299335,0.906643 -0.59228,1.72899l-2.4313 1.0811c-0.0571725,0.0269454 -0.105191,0.0481908 -0.153209,0.0820452 -0.705416,0.419726 -1.49236,0.628034 -2.28017,0.635116 -0.786943,-0.0070818 -1.57371,-0.21539 -2.27827,-0.635116l-1.01632 -0.611971c-1.17126,-0.70438 -2.48156,-1.05191 -3.79118,-1.05191 -0.0146818,0 -0.0283272,0 -0.0500907,0 -1.32395,-0.00794543 -2.65446,0.340444 -3.83937,1.05191l-1.01632 0.611971c-0.565853,0.342863 -1.19251,0.503153 -1.8271,0.580016 0.035409,-0.126954 0.0763452,-0.251836 0.111754,-0.369117 0.390881,-1.33103 0.815616,-2.64237 1.25469,-3.938 0.16789,-0.495035 0.34079,-0.99007 0.515244,-1.47854 0.362553,-1.03118 0.745834,-2.04819 1.1438,-3.06452 0.179636,-0.446153 0.348044,-0.906815 0.535107,-1.3528 1.24191,-3.03774 2.61336,-5.9798 4.12592,-8.80215zm-18.1943 3.38113c0.165818,-0.208827 0.33319,-0.419208 0.487435,-0.620953 0,-0.00759998 0,-0.00759998 0,-0.00759998 0.111754,-0.153209 0.208308,-0.30659 0.291735,-0.459799 0.355644,-0.662407 0.439071,-1.40772 0.273081,-2.13197l5.95717 -1.30219c0.0424908,0.180499 0.083427,0.369117 0.153209,0.535107 0.265999,0.64928 0.738752,1.19181 1.40738,1.57475 0.216427,0.119872 0.440453,0.237672 0.676052,0.362553 0.196736,0.105191 0.384317,0.210381 0.580016,0.314017 0.089127,0.0495726 0.187236,0.0975906 0.278608,0.153727 0.173072,0.0905088 0.333363,0.201227 0.501253,0.306417 0.139045,0.083427 0.27809,0.174972 0.417135,0.271008 0.16029,0.105191 0.306935,0.23059 0.460144,0.349944 0.132136,0.110891 0.258917,0.230245 0.383972,0.347526 0.139563,0.139563 0.271008,0.271526 0.397962,0.417653 0.21539,0.265999 0.431299,0.537526 0.606271,0.865188 -0.606271,1.33811 -1.17921,2.69592 -1.72899,4.06944 -0.0839452,0.215908 -0.174454,0.424735 -0.265481,0.633043 -1.5611,0.397962 -3.07212,1.14397 -4.94016,2.46792 -2.34943,1.6732 -4.10468,2.11936 -6.98973,1.69963l-0.86467 -3.96373c-0.585198,-2.68314 0.689698,-4.30642 1.91761,-5.88169zm7.0792 -8.66363c0.035409,-0.00656362 0.0763452,-0.0120909 0.111754,-0.0120909 0.271008,0 0.522844,0.194145 0.578462,0.458071 0.0495726,0.210899 -0.0267726,0.369808 -0.0844634,0.446153 -0.048018,0.0768634 -0.16029,0.215908 -0.361517,0.258399l-7.88929 1.72934c-0.312117,0.0694361 -0.633216,-0.139563 -0.695398,-0.453062 -0.0697816,-0.314535 0.131963,-0.635634 0.44598,-0.70438l4.18672 -0.912343 3.70775 -0.810088zm-4.61198 22.0702c-0.112272,0.0070818 -0.217463,0.0136454 -0.328699,0.0217636 -0.780725,0.083427 -1.5459,0.277572 -2.27205,0.606271l-0.278608 -1.24709c0.412126,0.0333363 0.822697,0.0692634 1.20598,0.0692634 2.49417,0 4.49573,-0.745834 6.80215,-2.38328 0.724589,-0.515762 1.3654,-0.906297 1.97116,-1.23292 -0.124363,0.374817 -0.258399,0.745489 -0.382762,1.12065 -0.0915452,0.265481 -0.187581,0.529407 -0.279126,0.802488 -0.417135,1.26833 -0.822352,2.54927 -1.19147,3.83937l-0.947061 -0.563953c-1.1723,-0.70438 -2.48865,-1.05899 -3.79792,-1.05899 -0.0146818,0 -0.0362726,0.00673634 -0.0504362,0.00673634 -0.151827,-0.00673634 -0.305035,0.0139909 -0.451162,0.0196908zm-17.0749 -14.7588l0.935142 -0.767598 -0.606789 -1.04534c-0.376372,-0.661889 -0.577598,-1.39978 -0.577598,-2.15321 0,-2.31212 1.81035,-4.1938 4.12454,-4.29191l1.72848 -0.0697816 -0.405217 -1.69255c-0.0621816,-0.279126 -0.0960361,-0.559289 -0.0960361,-0.823216 0,-1.83868 1.43415,-3.38769 3.26834,-3.52673l1.31635 -0.0960361 0 -1.42206c0.0414544,-1.2825 1.10096,-2.31402 2.39088,-2.31402 0.746007,0 1.2825,0.333708 1.59444,0.620953l1.00492 0.904743 0.954142 -0.947233c0.439071,-0.431817 1.04534,-0.633562 1.66629,-0.56378 0.765179,0.0905088 1.4554,0.683134 1.67839,1.44883 0.0768634,0.258399 0.098627,0.507644 0.0697816,0.759479l-0.16789 1.59651 1.60411 0c2.0551,0 3.76942,1.60204 3.90898,3.65006l0.0618362 0.935488 0.891961 0.313672c2.23007,0.779688 3.69514,2.89145 3.64453,5.25366 -0.0191727,1.00976 -0.347353,1.97824 -0.932033,2.83686 -0.954661,-0.815616 -1.98791,-1.3597 -2.85103,-1.81294 -0.22299,-0.117281 -0.438899,-0.237154 -0.662062,-0.354953 -0.0626998,-0.035409 -0.132481,-0.0975906 -0.16029,-0.244236 -0.0343726,-0.208827 0.0424908,-0.45358 0.201399,-0.633216 0.620953,-0.725107 0.87227,-1.70758 0.668971,-2.63512l-0.173418 -0.78677c-0.173936,-0.795579 -0.64738,-1.47008 -1.33051,-1.91623 -0.683652,-0.433371 -1.49892,-0.58658 -2.28673,-0.412126l-0.382417 0.091027c-0.00656362,0 -0.0146818,0 -0.0146818,0l-4.18759 0.913379 -4.09103 0.891961c-0.794543,0.17359 -1.47008,0.64738 -1.90898,1.33103 -0.438553,0.683134 -0.585198,1.4984 -0.412126,2.29277l0.083427 0.390535c0,0.00656362 0,0.00656362 0,0.00656362l0.0913724 0.389844c0.201399,0.948097 0.863288,1.74972 1.7625,2.133 0.22299,0.0970724 0.405044,0.278608 0.474826,0.458589 0.035409,0.111927 0.0141636,0.160981 -0.0697816,0.299508 -0.138527,0.189654 -0.292772,0.383799 -0.453235,0.585544 -0.153209,0.196218 -0.314535,0.405044 -0.481389,0.620953 -0.0561362,0.0763452 -0.110718,0.153209 -0.165818,0.22299 -0.119872,0.167027 -0.237672,0.327835 -0.349944,0.500735 -0.0697816,0.0915452 -0.131445,0.189654 -0.194663,0.287245 -0.105191,0.165818 -0.208827,0.333708 -0.314017,0.515762 -0.0550998,0.103636 -0.1178,0.201227 -0.173072,0.304863 -0.105191,0.203818 -0.203299,0.412299 -0.299335,0.628207 -0.0424908,0.091027 -0.0839452,0.182054 -0.126954,0.271008 -0.124881,0.314535 -0.237154,0.642716 -0.319026,0.983506 -0.0146818,0.0550998 -0.0217636,0.111754 -0.0359272,0.167027 -0.0692634,0.292772 -0.124363,0.592625 -0.160809,0.906643 -0.0141636,0.124881 -0.0141636,0.257363 -0.0262545,0.383281 -0.0070818,0.173418 -0.0288454,0.333708 -0.0288454,0.50868l-0.0212454 -0.0215908c-0.0196908,-0.0283272 -0.0414544,-0.0481908 -0.0550998,-0.0765179 -0.251836,-0.328181 -0.494171,-0.628034 -0.746007,-0.913724 -0.083427,-0.0889543 -0.160809,-0.172899 -0.237672,-0.263926 -0.214872,-0.22299 -0.424217,-0.438553 -0.632525,-0.634771 -0.0697816,-0.0697816 -0.139563,-0.139563 -0.208827,-0.201745 -0.265481,-0.237672 -0.537526,-0.452544 -0.803007,-0.647207 -0.0770361,-0.055618 -0.153381,-0.0981088 -0.230245,-0.154245 -0.201227,-0.131445 -0.40349,-0.258399 -0.611798,-0.369117 -0.0981088,-0.0550998 -0.196218,-0.112272 -0.299335,-0.16029 -0.208999,-0.105191 -0.42629,-0.187754 -0.642889,-0.264099 -0.0697816,-0.0288454 -0.139045,-0.0642543 -0.215908,-0.0839452 -0.230072,-0.0763452 -0.465153,-0.131963 -0.702307,-0.181536 -0.0283272,-0.0070818 -0.0571725,0 -0.0844634,-0.0070818 -0.048018,-0.00759998 -0.0905088,-0.0272908 -0.138527,-0.0343726 -0.16789,-0.0212454 -0.328181,-0.0146818 -0.488989,-0.0212454 -0.110891,-0.0070818 -0.223163,-0.0359272 -0.340963,-0.0359272 -0.035409,0 -0.0697816,0.0070818 -0.105191,0.0070818 -0.22299,0.0070818 -0.431299,0.0288454 -0.647207,0.0571725 -0.111236,0.0126091 -0.216427,0.0272908 -0.321617,0.0414544 -0.284826,0.0550998 -0.556871,0.124363 -0.827879,0.208827 -0.0424908,0.0141636 -0.0763452,0.027809 -0.118836,0.0424908 -0.710425,0.236636 -1.38613,0.577598 -2.01417,0.98817 -0.132481,-0.319026 -0.202263,-0.661889 -0.202263,-1.0165 0,-0.836861 0.376199,-1.6162 1.01684,-2.15321zm-9.1692 11.8541c0.604889,-1.13585 2.06927,-2.00657 4.61854,-2.73288 1.18491,-0.34079 2.29433,-0.975906 3.19337,-1.83211 0.403144,-0.390362 0.786425,-0.716989 1.14898,-1.01684 1.15606,-0.942224 2.1463,-1.4433 3.04534,-1.5611 0.0217636,0 0.035409,-0.00656362 0.0550998,-0.00656362 0.28569,-0.0359272 0.565853,-0.0217636 0.829952,0.0191727 0.0687452,0.0141636 0.138527,0.0424908 0.208308,0.0571725 0.134036,0.0343726 0.265999,0.0697816 0.397962,0.1178 0.091027,0.035409 0.174972,0.083427 0.258399,0.124881 0.124881,0.0637362 0.250281,0.112272 0.375162,0.188618 0.0981088,0.0626998 0.188618,0.139563 0.286726,0.202263 0.1178,0.083427 0.235772,0.153209 0.348044,0.251317 0.110718,0.0839452 0.215908,0.194663 0.328181,0.292426 0.110718,0.0981088 0.215908,0.187063 0.326626,0.300372 0.119354,0.1178 0.237154,0.256326 0.362035,0.396926 0.0981088,0.103636 0.196218,0.208827 0.292254,0.326626 0.139736,0.16029 0.273081,0.347872 0.412817,0.529926 0.0905088,0.110891 0.172899,0.216081 0.256326,0.333881 0.161327,0.217463 0.314535,0.459626 0.474826,0.697298 0.0692634,0.112272 0.139045,0.201227 0.201227,0.313499 0.23059,0.355472 0.460662,0.738925 0.690389,1.14397 1.05329,1.85336 1.39408,4.59211 0.940497,6.97557 -0.0768634,-0.0070818 -0.153209,-0.0141636 -0.22299,-0.0288454 -0.542535,-0.0905088 -1.07211,-0.263926 -1.54642,-0.551171l-1.01701 -0.611971c-1.17057,-0.70438 -2.48139,-1.05191 -3.79066,-1.05191 -0.0217636,0 -0.0364453,0 -0.0506089,0 -1.33086,-0.00794543 -2.66189,0.340444 -3.84576,1.05191l-0.494517 0.299854c-0.865361,0.515417 -1.82659,0.772779 -2.79558,0.786943 -0.968306,-0.0141636 -1.93575,-0.271526 -2.80042,-0.786943l-1.91658 -1.15744 -0.00673634 0c-0.251836,-0.154245 -0.522844,-0.250454 -0.800934,-0.307454 -0.22299,-1.12721 -0.146127,-2.04059 0.237154,-2.76518zm52.6682 39.6992c-0.146127,2.81009 -2.45963,5.01149 -5.2749,5.01149l-40.0633 0c-2.8151,0 -5.12877,-2.2014 -5.2749,-5.03775l-2.36964 -33.7427 1.24052 0.746007c1.34502,0.807497 2.85759,1.20546 4.36152,1.19838 1.51309,0.0070818 3.01857,-0.390881 4.36429,-1.19838l0.493998 -0.299854c0.70438,-0.41938 1.49132,-0.627689 2.27757,-0.635289 0.788497,0.00759998 1.57527,0.215908 2.28017,0.635289l1.01701 0.613353c1.28958,0.772607 2.74549,1.10079 4.18862,1.02444 0.125054,-0.0070818 0.256499,-0.0070818 0.383453,-0.0146818 0.0196908,-0.00690907 0.0343726,-0.0139909 0.048018,-0.0139909 0.975388,-0.110891 1.93074,-0.417308 2.81562,-0.919424 0.083427,-0.0283272 0.167027,-0.0283272 0.244236,-0.0763452l1.01701 -0.613353c0.70438,-0.41938 1.49132,-0.627689 2.27775,-0.635289 0.788325,0.00759998 1.57509,0.215908 2.28068,0.635289l1.01632 0.613353c1.08127,0.647725 2.27827,0.981088 3.49133,1.03101 0.0207272,0 0.048018,0.0070818 0.0768634,0.0070818 0.411781,0.0127818 0.828916,0 1.24657,-0.0635634 0.237672,-0.0269454 0.467744,-0.0896452 0.69747,-0.139563 0.110718,-0.0264272 0.22299,-0.0481908 0.333708,-0.0835997 0.635116,-0.172899 1.25607,-0.402971 1.8347,-0.751361l1.01632 -0.613353c0.704552,-0.41938 1.49132,-0.627689 2.27827,-0.635289 0.787807,0.00759998 1.57475,0.215908 2.28017,0.635289l1.0165 0.613353c1.17713,0.702825 2.50108,1.05087 3.81951,1.04379 0.0196908,0 0.0485362,0.0070818 0.0697816,0.0070818 1.28232,0 2.56326,-0.333881 3.7138,-1.00285l2.80094 -1.24657c0.0552726,-0.0288454 0.0977633,-0.0768634 0.1539,-0.112272l0.22299 -0.098627 -2.37689 34.1189z"/>
  <g id="_336748296">
   <path id="_171978064" class="fil2" d="M55.9724 100.341l9.99207 0c0.788843,0 1.42154,-0.633734 1.42154,-1.42862 0,-0.786943 -0.632698,-1.42258 -1.42154,-1.42258l-9.99207 0c-0.788325,0 -1.42914,0.635634 -1.42914,1.42258 0,0.794888 0.640816,1.42862 1.42914,1.42862z"/>
   <path id="_171978016" class="fil2" d="M55.9724 106.049l12.8427 0c0.78677,0 1.42949,-0.633562 1.42949,-1.42258 0,-0.793852 -0.642716,-1.42707 -1.42949,-1.42707l-12.8427 0c-0.788325,0 -1.42914,0.633216 -1.42914,1.42707 0,0.789016 0.640816,1.42258 1.42914,1.42258z"/>
   <path id="_171977968" class="fil2" d="M71.6733 108.906l-15.7009 0c-0.788325,0 -1.42914,0.640125 -1.42914,1.42862 0,0.78677 0.640816,1.42707 1.42914,1.42707l15.7009 0c0.786943,0 1.42707,-0.640298 1.42707,-1.42707 0,-0.788497 -0.640125,-1.42862 -1.42707,-1.42862z"/>
   <path id="_171977920" class="fil2" d="M80.2362 108.906l-2.85569 0c-0.788843,0 -1.42949,0.640125 -1.42949,1.42862 0,0.78677 0.640643,1.42707 1.42949,1.42707l2.85569 0c0.788843,0 1.42154,-0.640298 1.42154,-1.42707 0,-0.788497 -0.632698,-1.42862 -1.42154,-1.42862z"/>
  </g>
 </g>
</svg>
