<?xml version="1.0" encoding="UTF-8"?>
<!DOCTYPE svg PUBLIC "-//W3C//DTD SVG 1.1//EN" "http://www.w3.org/Graphics/SVG/1.1/DTD/svg11.dtd">
<!-- Creator: CorelDRAW -->
<svg xmlns="http://www.w3.org/2000/svg" xml:space="preserve" width="512px" height="512px" style="shape-rendering:geometricPrecision; text-rendering:geometricPrecision; image-rendering:optimizeQuality; fill-rule:evenodd; clip-rule:evenodd"
viewBox="0 0 542.667 542.667"
 xmlns:xlink="http://www.w3.org/1999/xlink">
 <defs>
  <style type="text/css">
   <![CDATA[
    .fil0 {fill:#DEDEDD}
    .fil2 {fill:#4D4948}
    .fil1 {fill:#43AC3E;fill-rule:nonzero}
   ]]>
  </style>
 </defs>
 <g id="Vrstva_x0020_1">
  <metadata id="CorelCorpID_0Corel-Layer"/>
  <rect class="fil0" width="542.667" height="542.667"/>
  <path class="fil1" d="M431.669 337.991l-51.2756 0c-2.35632,0 -4.27061,1.9137 -4.27061,4.27061 0,2.35868 1.91429,4.27296 4.27061,4.27296l51.2756 0c2.35868,0 4.27296,-1.90898 4.27296,-4.27296 0,-2.35927 -1.91429,-4.27061 -4.27296,-4.27061z"/>
  <path class="fil1" d="M412.926 407.914c0.677191,0.388398 1.41096,0.571693 2.13412,0.571693 1.47638,0 2.91151,-0.765008 3.70363,-2.13648 1.17816,-2.04159 0.481519,-4.65665 -1.5642,-5.83539l-30.3964 -17.5545c-2.05102,-1.17816 -4.65724,-0.478572 -5.83775,1.56715 -1.17816,2.04395 -0.481519,4.65488 1.5642,5.83716l30.3964 17.5504z"/>
  <path class="fil1" d="M180.472 342.256c0,-2.35632 -1.91193,-4.27002 -4.27061,-4.27002l-51.2703 -0.00530437c-2.35927,0 -4.27355,1.91429 -4.27355,4.27296 0,2.36221 1.91429,4.27061 4.27355,4.27061l51.2703 0.00530437c2.35868,0 4.27061,-1.9137 4.27061,-4.27355z"/>
  <path class="fil1" d="M169.792 382.959l-30.4011 17.5445c-2.04159,1.18111 -2.74059,3.79203 -1.56243,5.83775 0.789172,1.37206 2.22489,2.13707 3.70363,2.13707 0.720805,0 1.45752,-0.183295 2.13177,-0.572282l30.4005 -17.5427c2.04218,-1.17816 2.74354,-3.79321 1.56479,-5.83716 -1.18052,-2.04572 -3.7938,-2.74531 -5.83716,-1.56715z"/>
  <g id="_336740472">
   <g>
    <path id="_106551744" class="fil2" d="M399.295 228.046c0,-2.67281 -2.16831,-4.83464 -4.83994,-4.83464 -2.6681,0 -4.83817,2.16536 -4.83817,4.83464 0,2.67163 2.16654,4.83994 4.83817,4.83994 2.67517,0 4.83994,-2.16477 4.83994,-4.83994z"/>
   </g>
   <g>
    <path id="_106544208" class="fil2" d="M252.509 165.097l-0.0306475 0 -0.153827 -0.0306475c-27.621,-5.48472 -54.6592,12.5407 -60.2258,40.1452l-2.92565 14.5039c-3.04942,15.1387 6.8167,29.9821 21.9518,33.038 15.1387,3.04648 29.9874,-6.81552 33.0374,-21.956l2.07165 -10.264 30.4288 2.65985 88.1185 88.125c3.34706,3.34765 3.34706,8.78757 0,12.1352 -3.3447,3.34411 -8.78934,3.34411 -12.1346,0l-36.0479 -36.0479c-1.89071,-1.89071 -4.95369,-1.89071 -6.8444,0 -1.88718,1.88777 -1.88364,4.95074 0.000589374,6.83851l36.0526 36.0526c1.61842,1.61724 2.51309,3.77612 2.51309,6.06466 0,2.28913 -0.893491,4.44801 -2.51309,6.06525 -3.34588,3.34706 -8.7917,3.34882 -12.1358,0l-36.0467 -36.0473c-1.88836,-1.88836 -4.95546,-1.89248 -6.84322,0 -1.8913,1.89012 -1.8913,4.95369 -0.000589374,6.8444l36.0473 36.0479c3.34765,3.34647 3.34647,8.78757 0,12.1346 -1.61547,1.61606 -3.77907,2.51132 -6.06407,2.51132 -2.28795,0 -4.45095,-0.893491 -6.07055,-2.51073l-36.0479 -36.0485c-1.89071,-1.89071 -4.9531,-1.89012 -6.84381,0 -1.88836,1.88836 -1.89248,4.95074 0,6.83792l36.0479 36.0538c3.34706,3.34706 3.34706,8.78816 0,12.1346 -3.34352,3.34293 -8.78816,3.34588 -12.1299,0l-144.396 -144.396c-1.89071,-1.89012 -4.95369,-1.89012 -6.8444,0 -0.905868,0.906458 -1.41096,2.11526 -1.41686,3.39303l0 0.0542224c0.00589374,1.28012 0.510987,2.4907 1.41686,3.39656l36.2996 36.2996 -11.2293 11.2293c-3.00876,3.00817 -4.66667,7.00589 -4.66667,11.2606 0,4.25823 1.65673,8.25478 4.66667,11.2659l3.29696 3.29696c2.61446,2.61446 5.99099,4.22051 9.66868,4.58474l1.29839 0.128484 0.128484 1.29839c0.363644,3.67652 1.97028,7.05363 4.5871,9.66574l3.29637 3.30109c2.60444,2.60503 6.0016,4.20577 9.66574,4.5706l1.29957 0.129662 0.126126 1.30016c0.35834,3.68241 1.97087,7.06188 4.59064,9.67694l3.29637 3.29696c2.61152,2.61093 5.98627,4.22522 9.66161,4.58415l1.30016 0.126715 0.129073 1.30016c0.364233,3.67711 1.97617,7.0554 4.58651,9.66986l3.30226 3.29814c2.99402,2.99874 7.02534,4.65606 11.26,4.65606 4.2376,0 8.26303,-1.65909 11.2606,-4.65665l11.2293 -11.2293 25.3413 25.3419c3.44961,3.44843 8.03258,5.34739 12.9102,5.34739 4.87707,0 9.45946,-1.89896 12.9079,-5.34739 3.26042,-3.25924 5.1193,-7.54517 5.30731,-12.1464l0.0601162 -1.46518 1.46459 -0.0601162c4.60478,-0.189189 8.88482,-2.04572 12.1464,-5.30731 3.25394,-3.25217 5.11282,-7.56226 5.30201,-12.1529l0.0607055 -1.46401 1.46342 -0.0607055c4.59005,-0.190368 8.90073,-2.04808 12.1529,-5.30083 3.25099,-3.25217 5.11282,-7.56167 5.29671,-12.1517l0.0589374 -1.46577 1.46518 -0.0607055c4.58887,-0.189779 8.90132,-2.04395 12.1523,-5.29612 7.11728,-7.12082 7.122,-18.7032 0.000589374,-25.8228l-10.0359 -10.0359 33.7305 -33.7305 22.6726 -22.6679c6.91277,-6.91749 6.91631,-18.1686 0.000589374,-25.0849l-57.6697 -57.6691c-3.35354,-3.35354 -7.79978,-5.19651 -12.5425,-5.19651 -4.74269,0 -9.18893,1.84238 -12.5425,5.19651l-13.5532 13.5521c-1.85594,1.85653 -3.24686,4.09085 -4.13269,6.56032l-0.453818 1.26598 -64.5895 -11.5676zm-76.1147 140.948c-2.43529,-2.43706 -2.43647,-6.40237 0.000589374,-8.83826l10.6005 -10.6011 12.1352 12.1329 -10.6011 10.6028c-2.43647,2.43647 -6.40119,2.43588 -8.83826,0l-3.29696 -3.29637zm18.9796 18.9784c-2.44001,-2.4406 -2.44413,-6.40119 0,-8.83767l10.5952 -10.6023 12.1352 12.134 -10.5958 10.6028c-2.43647,2.43647 -6.40119,2.43588 -8.83826,0l-3.29637 -3.29696zm18.9737 18.9743c-1.17816,-1.17698 -1.83178,-2.75061 -1.83178,-4.41677 0,-1.6638 0.655384,-3.24038 1.83178,-4.41677l10.6011 -10.6023 12.1346 12.1346 -10.6011 10.6028c-2.43647,2.43588 -6.40119,2.43529 -8.83885,-0.000589374l-3.29578 -3.30109zm31.1142 22.2742c-2.4347,2.44178 -6.4006,2.43765 -8.83885,0.00117875l-3.29755 -3.29755c-2.4347,-2.43647 -2.43588,-6.40119 0.000589374,-8.83708l10.6011 -10.6017 12.1346 12.1399 -10.5999 10.5952zm5.15231 -191.683l0.000589374 0 63.0253 11.2842 71.4127 71.4127 -30.3074 30.3074 -72.4877 -72.4877c-0.803906,-0.803906 -1.86832,-1.29898 -3.00109,-1.39741l-36.4811 -3.19146c-0.147344,-0.0111981 -0.291151,-0.0147344 -0.438494,-0.0147344 -2.29797,0 -4.2818,1.62549 -4.73444,3.88103l-2.92565 14.5063c-1.9968,9.91858 -11.7215,16.3764 -21.6377,14.3737 -4.80458,-0.967752 -8.95613,-3.75549 -11.6702,-7.83691 -2.69816,-4.0655 -3.67357,-9.01448 -2.70523,-13.7967l2.92035 -14.5098c4.52757,-22.4457 26.5319,-37.0663 48.9788,-32.5417l0.0512756 0.0111981zm160.536 56.607l-19.2531 19.2513 -63.3677 -63.3677c-1.52353,-1.52294 -2.36044,-3.55039 -2.36044,-5.70396 0,-2.15122 0.83868,-4.17748 2.36044,-5.69866l13.5538 -13.5521c1.51823,-1.51823 3.55098,-2.36044 5.69807,-2.36044 2.14827,0 4.17454,0.843395 5.69748,2.35985l57.6709 57.6703c1.51823,1.51823 2.35985,3.55098 2.35985,5.69807 0,2.15122 -0.840448,4.17807 -2.35927,5.70337z"/>
   </g>
  </g>
 </g>
</svg>
