<?xml version="1.0" encoding="UTF-8"?>
<!DOCTYPE svg PUBLIC "-//W3C//DTD SVG 1.1//EN" "http://www.w3.org/Graphics/SVG/1.1/DTD/svg11.dtd">
<!-- Creator: CorelDRAW -->
<svg xmlns="http://www.w3.org/2000/svg" xml:space="preserve" width="512px" height="512px" style="shape-rendering:geometricPrecision; text-rendering:geometricPrecision; image-rendering:optimizeQuality; fill-rule:evenodd; clip-rule:evenodd"
viewBox="0 0 542.667 542.667"
 xmlns:xlink="http://www.w3.org/1999/xlink">
 <defs>
  <style type="text/css">
   <![CDATA[
    .str0 {stroke:#43AC3E;stroke-width:0.449103}
    .fil0 {fill:#DEDEDD}
    .fil2 {fill:#4D4948;fill-rule:nonzero}
    .fil1 {fill:#43AC3E;fill-rule:nonzero}
   ]]>
  </style>
 </defs>
 <g id="Vrstva_x0020_1">
  <metadata id="CorelCorpID_0Corel-Layer"/>
  <rect class="fil0" width="542.667" height="542.667"/>
  <path class="fil1" d="M309.542 390.503l-76.3664 0c-0.994274,0 -1.89602,0.400185 -2.54669,1.05085 -0.646544,0.645954 -1.04732,1.54357 -1.04732,2.54315 0,0.988381 0.400185,1.87951 1.04496,2.52016 0.64949,0.645365 1.55123,1.04378 2.54904,1.04378l76.3664 0c0.996042,0 1.8972,-0.399006 2.54551,-1.04437 0.643597,-0.64006 1.04319,-1.5306 1.04319,-2.51957 0,-1.0037 -0.400185,-1.90309 -1.04555,-2.54963 -0.645954,-0.645954 -1.54711,-1.04437 -2.54315,-1.04437zm-76.3664 -8.10154l17.2274 0c0.991917,0 1.88953,-0.401953 2.53608,-1.04968 0.648312,-0.65008 1.05144,-1.55241 1.05144,-2.54845 0,-0.993096 -0.403721,-1.89484 -1.05262,-2.54551 -0.646544,-0.646544 -1.54357,-1.0485 -2.5349,-1.0485l-17.2274 0c-0.989559,0 -1.88836,0.404311 -2.53902,1.05498l-0.00294687 -0.00353625c-0.648901,0.651259 -1.05203,1.55123 -1.05203,2.54256 0,0.999579 0.400185,1.90545 1.05026,2.55494 0.643597,0.644186 1.54003,1.04319 2.54374,1.04319zm76.3664 -7.19213l-44.3233 0c-1.0037,0 -1.90073,0.399006 -2.54374,1.04201l-0.00589374 0.00589374c-0.648312,0.647133 -1.04673,1.54888 -1.04673,2.5461 0,0.997811 0.399006,1.90132 1.04791,2.55258l0.00294687 -0.00294687c0.647133,0.647133 1.54534,1.0485 2.54551,1.0485l44.3233 0c0.991917,0 1.89012,-0.401953 2.53667,-1.04968 0.648901,-0.650669 1.05203,-1.55241 1.05203,-2.54845 0,-0.993096 -0.403721,-1.89484 -1.0538,-2.54551 -0.645954,-0.646544 -1.54357,-1.0485 -2.5349,-1.0485z"/>
  <path class="fil1" d="M197.694 244.393l-6.02164 1.78934c-0.863433,0.261682 -1.53414,0.00471499 -1.65084,-0.118464l-1.39976 -2.80424c-0.532794,-1.06146 -1.81586,-1.51705 -2.89972,-0.961269 -1.06912,0.53692 -1.49937,1.83413 -0.961859,2.90208l1.40035 2.80778c1.07973,2.14827 3.98535,3.14136 6.74598,2.31565l6.01869 -1.80172c0.0636524,-0.0129662 0.122,-0.0365412 0.180938,-0.0601162 1.03023,-0.409026 1.59249,-1.53827 1.27658,-2.61682 -0.341837,-1.14928 -1.54946,-1.79347 -2.68873,-1.45222z"/>
  <path class="fil2" d="M216.582 278.605c5.02618,-9.97987 14.8163,-17.3229 26.7045,-18.7014 0.462659,-0.0341837 0.923549,-0.0754399 1.39033,-0.0990149 0.290561,-0.01886 0.595857,-0.0388987 0.888776,-0.058348 11.8735,-0.391344 23.0905,5.35093 29.7434,15.4057l1.34142 2.01625c0,0 0.280542,0.556369 0.704892,1.46459 -21.9542,-0.000589374 -42.4809,-0.0111981 -60.7733,-0.0277006zm94.5716 0.01886c5.2248,-3.08007 10.2251,-5.50947 14.9972,-7.38663 4.5093,0.525722 8.06735,4.26471 10.2881,7.36777 -8.53473,0.00884061 -16.9757,0.0147344 -25.2853,0.01886zm32.0478 -0.0259325c-1.46047,-2.57026 -4.48042,-7.12082 -8.91605,-10.1366 5.47411,-1.55654 10.5799,-2.37341 15.3002,-2.67222 0.239286,0.0636524 0.498021,0.0996042 0.757935,0.109624 0.403132,0.00471499 0.79094,-0.0754399 1.13631,-0.228088 5.52715,-0.195083 10.4691,0.32003 14.8039,1.21293 2.93508,4.11206 4.76804,8.1982 5.9126,11.6749 -9.73528,0.0159131 -19.4181,0.0294687 -28.9949,0.0394881zm34.9776 -0.0506862c-0.80096,-2.7901 -1.99975,-6.00396 -3.79144,-9.38696 7.50273,2.73646 11.8441,6.13185 12.4741,6.634 0.852235,0.73436 1.50173,1.68384 1.99326,2.73293l-10.6759 0.0200387zm-15.1899 -132.085c0.424939,0.29233 4.03014,2.91092 2.18245,8.93373 -0.144397,-0.0907636 -0.30117,-0.17858 -0.456765,-0.266987 -0.264629,-0.147344 -0.523954,-0.284668 -0.786815,-0.435548 -0.678959,-0.374253 -1.3532,-0.735539 -2.01625,-1.07384 -0.204513,-0.0984255 -0.411973,-0.211585 -0.613539,-0.299402 -10.8156,-5.1641 -20.9063,-4.50812 -29.2848,-1.64082 -2.97045,1.0149 -5.73166,2.31565 -8.23356,3.70657 0.237518,-0.220426 0.497432,-0.452639 0.744969,-0.678959 0.343016,-0.311779 0.688389,-0.629452 1.04142,-0.948893 0.391934,-0.344195 0.782689,-0.690747 1.17521,-1.02256 0.33005,-0.2829 0.681317,-0.569336 1.02492,-0.843395 0.61177,-0.519828 1.2589,-1.02197 1.91664,-1.53296 0.416688,-0.308832 0.816873,-0.627094 1.23474,-0.931211 0.409615,-0.293508 0.831607,-0.576997 1.24004,-0.873453 0.456176,-0.311779 0.93239,-0.614128 1.40566,-0.918245 0.466195,-0.300581 0.927675,-0.598804 1.39269,-0.887598 0.66894,-0.396059 1.33493,-0.764418 2.0133,-1.12688 0.370716,-0.194493 0.742612,-0.381325 1.10861,-0.558137 2.90915,-1.43866 5.93087,-2.50956 9.00505,-2.96986 5.76997,-0.833965 10.917,0.552833 15.906,4.36844zm5.46173 23.3098c-0.742022,2.61446 -2.70464,3.805 -4.23053,4.34192l-0.0895849 0.0300581c-2.95453,1.01078 -6.51023,0.436726 -9.28029,-1.50998 -5.26901,-3.68536 -13.1613,-5.87135 -23.476,-6.56563 -0.0176812,-0.00648312 -0.0324156,-0.014145 -0.0500968,-0.0218068 -0.11316,-0.00471499 -0.239875,-0.00294687 -0.360697,-0.01886 -0.892902,-0.0495074 -1.82529,-0.0954786 -2.75532,-0.128484 -0.808621,-0.0194493 -1.62373,-0.0506862 -2.45946,-0.0607055 -0.855771,-0.0176812 -1.70329,-0.023575 -2.57498,-0.0223962 -1.21529,0.00294687 -2.44826,0.0300581 -3.7054,0.0683674 -0.476214,0.00589374 -0.915298,0.00117875 -1.38974,0.0223962 0.173865,-0.146165 0.386629,-0.316494 0.57405,-0.467374 0.0671887,-0.0489181 0.160899,-0.0695462 0.228677,-0.117285 7.06365,-5.70986 19.9067,-13.2757 34.7289,-9.05986 0.763829,0.218068 1.5418,0.500968 2.31388,0.786815 0.376021,0.143218 0.746148,0.239286 1.12629,0.391344 2.37636,0.967163 4.80576,2.25141 7.27582,3.90873l0.479161 0.325924c0.0194493,0.00707249 0.033005,0.00294687 0.0477393,0.0123769 1.28425,0.9041 4.81519,3.84626 3.59754,8.08445zm-49.4509 -48.4077c1.1481,-1.54711 7.7043,-9.66279 16.2437,-7.40195 0.59291,0.219837 5.66565,2.25318 7.47916,6.77073 1.25419,3.12604 0.721983,6.93576 -1.57658,11.3066 -1.34201,2.56437 -3.12958,5.26311 -5.30614,8.01254 -0.325924,0.156774 -0.644775,0.346552 -0.965984,0.515702 -0.685442,0.347731 -1.38031,0.714322 -2.03982,1.09329 -0.473268,0.272291 -0.91353,0.550476 -1.36499,0.834554 -0.528079,0.321209 -1.03966,0.636524 -1.55889,0.983076 -0.472089,0.305296 -0.927086,0.630041 -1.39092,0.955965 -0.465016,0.327103 -0.922371,0.653027 -1.3756,0.97954 -0.468553,0.360697 -0.93239,0.699587 -1.38739,1.05262 -0.399006,0.32062 -0.799781,0.642418 -1.19643,0.961859 -0.46148,0.381914 -0.927086,0.754399 -1.38562,1.14928 -0.294098,0.255788 -0.587017,0.510398 -0.895259,0.773848 -1.92784,1.70211 -3.68182,3.39067 -5.23482,4.99495l-0.0636524 0.0612949c0.576997,-3.46965 1.05321,-7.52926 1.17816,-11.7781 0.0111981,-0.271112 0.0312368,-0.534562 0.0394881,-0.790351 0.0129662,-0.75381 -0.0111981,-1.52176 -0.0170919,-2.28265 0.00176812,-0.407847 -0.00117875,-0.831018 -0.0100194,-1.23533 -0.0253431,-0.727877 -0.0719037,-1.44573 -0.123769,-2.16182 -0.03772,-0.453818 -0.0689568,-0.907047 -0.110213,-1.35969 -0.0595268,-0.712553 -0.153237,-1.40153 -0.241643,-2.10583 -0.0754399,-0.468553 -0.13202,-0.929443 -0.203334,-1.38149 -0.125537,-0.691925 -0.255788,-1.36912 -0.4049,-2.05279 -0.0530437,-0.234571 -0.077208,-0.479161 -0.133788,-0.714322 0.580534,-2.64334 1.25596,-5.00025 2.04631,-7.18152zm-34.7636 -4.36726c5.47411,-5.53894 12.836,-2.79304 13.1401,-2.68873 0.114339,0.0471499 0.231035,0.0925318 0.351856,0.123769 5.0698,1.2424 8.76576,3.99773 11.2741,8.40448 1.06971,1.89189 1.85771,3.98476 2.42704,6.18725l0.0648312 0.232803c1.05793,4.19693 1.32845,8.7917 1.19879,13.199 -0.745558,-2.51545 -1.73865,-5.04151 -3.04353,-7.45971 -0.0424349,-0.0831018 -0.0831018,-0.157363 -0.120232,-0.22573 -0.289972,-0.522775 -0.58407,-1.04201 -0.900564,-1.55536 -0.192725,-0.314136 -0.397238,-0.627094 -0.601162,-0.937105 -0.15972,-0.256378 -0.330639,-0.508041 -0.519239,-0.768544 -0.281721,-0.413741 -0.579944,-0.832196 -0.898796,-1.23061 -0.0831018,-0.113749 -0.175044,-0.225141 -0.256967,-0.335943 -2.51368,-3.17908 -5.72577,-6.04757 -9.85257,-8.32904 -0.104909,-0.0648312 -0.228677,-0.137914 -0.335354,-0.19803 -0.584659,-0.309421 -1.18346,-0.622969 -1.79288,-0.909404 -0.302349,-0.151469 -0.615896,-0.286436 -0.93239,-0.416098 -0.466784,-0.209228 -0.935337,-0.429654 -1.43395,-0.610002 -0.902921,-0.368948 -1.8247,-0.703713 -2.80778,-1.01903 0,0 -0.01886,-0.01886 -0.0335943,-0.0165025 -0.261682,-0.106087 -0.84752,-0.327692 -1.66911,-0.598804 0,0 0,0 -0.0159131,0.00471499 -0.82866,-0.280542 -1.88953,-0.569336 -3.13488,-0.832786 -0.0312368,-0.00294687 -0.0654205,-0.0206281 -0.107855,-0.0206281zm-8.11391 17.9535c-2.67753,-0.525722 -4.81931,-2.57321 -5.46645,-5.21537 -0.268755,-1.10743 -0.620611,-3.91227 1.98324,-5.95798 0.744969,-0.5935 1.55595,-1.01431 2.41879,-1.30959 1.36263,-0.466784 2.85139,-0.609413 4.30597,-0.569336l0.0123769 -0.00471499c0.0324156,0.00471499 0.0754399,0.0194493 0.118464,0.0165025 0.4992,0.0106087 0.990149,0.0418456 1.48699,0.096068 0.238107,0.033005 0.462659,0.0695462 0.69723,0.101962 0.4049,0.0612949 0.793887,0.125537 1.1705,0.192136 0.148522,0.0218068 0.284668,0.0565799 0.420813,0.0836911 1.67854,0.35775 3.03351,0.823356 3.69891,1.07679 0.13202,0.0536331 0.215711,0.081923 0.227498,0.0789761 0.0842805,0.0412562 0.163846,0.0671887 0.244001,0.0984255 1.4086,0.450282 2.74354,0.964806 4.0325,1.55477 0.368359,0.170329 0.673655,0.363055 1.03199,0.539867 0.887008,0.443799 1.76341,0.903511 2.58971,1.42688 0.35834,0.21689 0.684263,0.471499 1.01962,0.710196 0.774438,0.526311 1.53002,1.08268 2.2296,1.69445 0.278774,0.230445 0.544582,0.460301 0.810979,0.707838 0.799781,0.730824 1.55831,1.50173 2.24787,2.32508 0.115517,0.129662 0.224552,0.248127 0.338301,0.373663 3.48143,4.22876 5.78353,9.60091 6.85973,16.0911 0.737307,4.50282 0.760293,8.81763 0.542224,12.2213 -0.978361,-1.41568 -1.94376,-2.75061 -2.90208,-4.0325 -0.173276,-0.20746 -0.328281,-0.411383 -0.496842,-0.62179 -0.879936,-1.1646 -1.76812,-2.2744 -2.64452,-3.31582 -0.147933,-0.172687 -0.295276,-0.364823 -0.452639,-0.535741 -10.3812,-12.1859 -19.8012,-16.5278 -26.5248,-17.8268zm-116.649 143.58c-0.304117,-1.31136 -0.533384,-2.65513 -0.683674,-4.0266 -2.05927,-18.8075 11.5529,-35.7715 30.3616,-37.829 16.2119,-1.7752 31.5032,8.31371 36.3797,23.7046 -7.0389,4.4262 -12.3663,10.8315 -15.4728,18.2187 -20.3316,-0.0200387 -37.6021,-0.0453818 -50.5848,-0.067778zm100.305 -77.5876c2.30681,-1.9467 4.06432,-4.51107 5.00614,-7.42494 1.46047,-4.46981 0.865791,-9.27262 -1.50644,-13.1696 1.71744,-1.89837 3.0064,-4.14448 3.80264,-6.58272 1.50644,-4.63248 1.09918,-9.51427 -1.12747,-13.7884 -2.15829,-4.13859 -5.77174,-7.21453 -10.2292,-8.67677 -1.11686,-6.57683 -5.85366,-12.0268 -12.3916,-14.0306 -4.68022,-1.42216 -9.70051,-0.923549 -13.9599,1.3703 -1.70506,-1.53532 -3.73722,-2.67045 -5.98804,-3.35354 -5.90199,-1.80643 -12.0769,0.0111981 -16.252,4.10028 -0.123179,-0.274648 -0.195083,-0.562263 -0.334765,-0.830428 -6.20375,-11.8959 -21.066,-16.4341 -33.1417,-10.1384 -2.28029,1.18995 -4.34958,2.70523 -6.14364,4.52934 -5.32617,-1.78404 -11.2358,-1.35674 -16.2826,1.27364 -5.63029,2.93449 -9.55081,8.19996 -10.7914,14.241 -3.59813,0.0783868 -7.11787,0.987791 -10.3488,2.67222 -11.4203,5.95327 -15.9555,19.9621 -10.096,31.2021l0.0642418 0.123179c-2.11585,2.79894 -3.49676,5.97861 -4.18927,9.28441l0.0442031 -0.0117875 -0.0612949 0.0984255c-0.884061,4.31481 -0.777974,6.89332 0.414919,11.0266 0.0966574,0.293508 0.139682,0.592321 0.25402,0.891723 0.36777,1.098 0.818641,2.18599 1.36322,3.23154 2.99638,5.74699 8.28012,9.88616 14.5092,11.5199 0.00589374,3.19853 0.777974,6.3175 2.26909,9.17656 0.317673,0.610002 0.665404,1.20291 1.05144,1.76518 0.12259,0.196851 0.278774,0.382504 0.415509,0.575819 0.24518,0.363644 0.50863,0.721983 0.776206,1.05616 0.16915,0.213353 0.369538,0.41433 0.549886,0.620022 0.262272,0.279953 0.512756,0.585838 0.790351,0.855771 0.206281,0.214532 0.436726,0.399596 0.63063,0.599394 0.2829,0.249305 0.543992,0.491538 0.816873,0.727288 0.236339,0.202155 0.492127,0.36718 0.740254,0.54635 0.279953,0.210996 0.544582,0.432601 0.835733,0.624737 0.262861,0.183295 0.528079,0.328281 0.779153,0.481519 0.302938,0.180349 0.597036,0.373663 0.904689,0.532794 0.262861,0.147933 0.542814,0.28231 0.816873,0.406079 0.308832,0.15972 0.614128,0.305296 0.931801,0.439084 0.287615,0.117285 0.591732,0.22632 0.890544,0.334765 0.303528,0.106087 0.614128,0.229856 0.932979,0.331818 0.298813,0.10373 0.617075,0.166793 0.929443,0.251663 0.312958,0.100783 0.638292,0.175634 0.964806,0.251663 0.298813,0.0730824 0.623558,0.109624 0.938873,0.175634 0.325335,0.0394881 0.639471,0.101962 0.988381,0.147344 0.307064,0.0500968 0.63063,0.0500968 0.945946,0.0754399 0.33948,0.0300581 0.671297,0.0477393 1.00311,0.0642418 0.319441,0.00117875 0.64065,0.00294687 0.958322,-0.0117875 0.337711,-0.00294687 0.674833,-0.00766186 1.02021,-0.0394881 0.330639,-0.0200387 0.644775,-0.067778 0.97011,-0.105498 0.334765,-0.0471499 0.680138,-0.0695462 1.00842,-0.127894 0.328871,-0.0624737 0.638882,-0.124358 0.959501,-0.193904 0.335354,-0.0854593 0.67778,-0.152059 1.00783,-0.245769 0.318851,-0.086638 0.645954,-0.186242 0.949482,-0.285257 0.335943,-0.117285 0.665404,-0.2163 0.991917,-0.34891 0.322388,-0.109624 0.627094,-0.248716 0.941231,-0.374253 1.71095,-0.747916 6.68645,-3.73133 7.98543,-6.11947 0.33005,-0.413151 0.68721,-0.825713 0.986612,-1.26892 2.32685,0.793298 4.76745,1.22708 7.21689,1.31254 0.451461,0.502147 1.20527,1.52589 2.02509,2.68637 -16.8178,6.10886 -27.9664,23.1276 -25.9366,41.6794 0.126126,1.1593 0.30176,2.30092 0.525132,3.42426 -9.43942,-0.0170919 -15.9532,-0.0318262 -18.8971,-0.0383093l-1.7693 -0.00353625 0 0.00589374c-1.45163,0 -2.87732,0.304706 -4.18456,0.874631 -1.31725,0.573461 -2.52075,1.41214 -3.51621,2.47419l0.00294687 0.00294687c-0.909994,0.977182 -1.62255,2.11055 -2.11055,3.32938 -0.488591,1.22236 -0.755578,2.53018 -0.773848,3.85038l0.00530437 0 0 0.156774 0 0.156774 -0.00471499 0 0.00589374 0.238107 0.00117875 0 0.0153237 0.290561 0.00117875 0c1.47992,21.8817 9.17597,38.314 21.607,51.7064 12.5083,13.4755 29.8518,23.9398 50.5052,33.7971l0.00589374 0.00589374c2.46182,1.19407 4.72207,2.77418 6.66936,4.65075 1.93727,1.86596 3.5722,4.02955 4.79868,6.40237 1.26833,2.44296 1.80054,5.23011 1.61665,8.06205 -0.182706,2.80071 -1.06736,5.6521 -2.63273,8.2589l0 0.00589374c-0.958912,1.59013 -1.45575,3.33527 -1.48228,5.07392 -0.0259325,1.74396 0.413151,3.49735 1.32138,5.09868 0.911173,1.60428 2.18953,2.89088 3.70304,3.77494 1.49996,0.875221 3.23861,1.35379 5.08807,1.35379l116.02 0c1.84592,0 3.58811,-0.479161 5.08453,-1.35497 1.49996,-0.878168 2.77065,-2.163 3.67062,-3.76846l0.00589374 -0.00530437c0.91353,-1.60899 1.35851,-3.36768 1.32963,-5.12343 -0.02829,-1.74455 -0.529847,-3.50206 -1.50703,-5.12284l0.00412562 -0.0023575c-1.55654,-2.56908 -2.43176,-5.39749 -2.60975,-8.17757 -0.180938,-2.82428 0.352446,-5.61202 1.61017,-8.04791 1.24181,-2.39227 2.88086,-4.56706 4.82344,-6.43891 1.94552,-1.87421 4.19988,-3.44843 6.66936,-4.63955l0.00589374 -0.00589374c20.6434,-9.85728 37.9822,-20.3151 50.487,-33.7876 12.4275,-13.3882 20.1212,-29.8206 21.5964,-51.7158 0.0978361,-1.46754 -0.114928,-2.93332 -0.601162,-4.30243 -0.486234,-1.36971 -1.24947,-2.64099 -2.25082,-3.71954 -0.261093,-0.281132 -0.536331,-0.54635 -0.824535,-0.795066 5.64503,-3.15138 11.7368,-13.5904 9.54786,-20.7772 -1.09093,-3.58104 -3.43782,-6.56327 -6.55561,-8.46165 0.542814,-3.12722 0.162667,-6.3399 -1.10979,-9.23255 -3.28871,-7.46973 -11.5293,-11.2311 -19.1723,-9.16123 -0.166204,-0.24518 -0.357161,-0.465606 -0.535152,-0.707249 0.479161,-0.502736 0.950661,-1.01372 1.39976,-1.54888 5.86427,-7.14439 7.28525,-15.7988 3.5333,-21.6012 -2.46358,-3.80029 -6.73419,-5.96565 -11.8046,-6.10945 0.0719037,-4.33485 -1.26185,-8.13042 -3.90107,-10.9394 -2.80955,-2.99048 -6.68409,-4.57237 -11.2123,-4.5594 -6.00219,0.0106087 -12.4759,2.86023 -17.6795,7.69487 -3.24509,-2.01094 -7.09253,-2.87497 -11.2812,-2.53608 -7.03065,0.581712 -14.0849,4.52404 -19.3574,10.8327 -0.576408,0.693104 -1.14339,1.41332 -1.66734,2.16418 -3.41719,-2.23785 -7.4715,-3.25335 -11.7067,-2.89972 -2.2408,0.193904 -4.45213,0.756757 -6.57683,1.64907l-0.700766 0.307653c-4.00244,1.8359 -7.66481,4.85644 -10.5622,8.80289 -1.34554,1.80997 -2.4848,3.78968 -3.39303,5.86545 -5.46821,-8.84474 -14.2676,-15.2931 -24.4531,-17.7755 2.44237,-7.95714 4.91361,-15.4416 7.25755,-21.9642 2.69403,3.8327 6.77721,7.68603 11.8287,9.16241 0.570514,0.173865 1.13631,0.146165 1.65437,-0.0324156 0.820998,-0.279953 1.48876,-0.932979 1.74573,-1.82058 0.425528,-1.44515 -0.406079,-2.96809 -1.84828,-3.39185 -4.77334,-1.4033 -8.83059,-6.12713 -10.729,-10.1932 -0.0506862,-0.106087 -0.146754,-0.173276 -0.202745,-0.264629 3.44784,-8.93138 6.47369,-15.1487 8.48286,-16.7488 1.12158,-0.89467 2.35809,-1.57009 3.73192,-2.04041 1.28955,-0.442031 2.72409,-0.708428 4.28004,-0.787993 2.01625,2.18835 4.01953,4.62187 5.98333,7.26522 0.133788,0.185064 0.260503,0.349499 0.382504,0.535741 0.820409,1.11804 1.63139,2.29326 2.45356,3.49322 0.172687,0.266397 0.355393,0.513934 0.535152,0.793298 0.944767,1.43984 1.88718,2.91033 2.81898,4.44211 0.0636524,0.10373 0.146754,0.172097 0.220426,0.27288 0.0707249,0.0777974 0.133199,0.183295 0.215122,0.25402 0.0253431,0.0341837 0.0341837,0.0595268 0.0671887,0.0766186 0.067778,0.0748505 0.151469,0.101372 0.224552,0.16031 0.0218068,0.0241643 0.0400774,0.0312368 0.0589374,0.0506862 0.0895849,0.0554012 0.170329,0.125537 0.26404,0.182117 0.0253431,0.00471499 0.0294687,0.0147344 0.0595268,0.0176812 0.00471499,0.0117875 0.0159131,0.00884061 0.0341837,0.0165025 0.0907636,0.0565799 0.195083,0.0742612 0.306475,0.111392 0.0165025,0.00766186 0.0459712,0.0123769 0.0671887,0.0294687 0.0789761,0.0300581 0.164435,0.0736718 0.252842,0.0825124 0.0294687,0.00412562 0.0719037,0.00412562 0.108445,0.0200387 0.0689568,0.00530437 0.142629,0.00942999 0.212175,0.0123769 0.0736718,0.00294687 0.134377,0.0117875 0.199798,0.00176812 0.0895849,0.0147344 0.176812,0.023575 0.260503,0.0265218 1.62019,-0.13202 3.19736,-0.23516 4.74977,-0.317083 0.361876,-0.0200387 0.67837,-0.0324156 1.02492,-0.0548118 1.2259,-0.0495074 2.42174,-0.102551 3.60049,-0.126715 0.293508,-0.00294687 0.584659,-0.0182706 0.881114,-0.0212175 1.2259,-0.00707249 2.43294,-0.0247537 3.59813,-0.00117875 0.199208,0.00412562 0.407258,0.00117875 0.610002,0.00412562 1.34495,0.0194493 2.66161,0.0595268 3.92229,0.124947 0,0 0,0 0.0135556,-0.00353625 1.07797,2.07342 1.60369,4.15096 1.56656,6.30689 -0.144986,9.60621 -12.3645,15.6715 -6.38115,20.0664 4.18161,1.83767 11.8028,-16.5443 11.8564,-19.9874 0.0241643,-1.98501 -0.30176,-3.93702 -0.942409,-5.84718 8.28837,1.04555 13.2014,3.14785 16.0758,5.15702 4.18515,2.94451 9.61269,3.78496 14.198,2.21546l0.151469 -0.0506862c3.80087,-1.34672 6.59981,-4.26589 7.66304,-8.00311 1.57481,-5.54778 -1.17875,-10.0146 -3.93407,-12.6156 0.142039,-0.33005 0.288793,-0.647722 0.38604,-0.977182 2.96514,-8.53768 -1.47402,-14.0908 -4.04016,-15.6844 -5.9515,-4.56942 -12.6303,-6.34874 -19.8407,-5.30731 -0.56521,0.0789761 -1.12158,0.228677 -1.68679,0.349499 0.492717,-0.832786 0.958912,-1.65437 1.38562,-2.46358 3.07948,-5.85425 3.69066,-11.2034 1.81056,-15.8777 -2.87791,-7.17386 -10.548,-9.82782 -10.8681,-9.94864l-0.156184 -0.0436137c-13.1248,-3.58222 -22.0986,9.27086 -22.4752,9.82192l-0.304706 0.585249c-0.111392,0.29174 -0.200977,0.617075 -0.305296,0.921192 -3.21975,-5.602 -8.09977,-9.2685 -14.5069,-10.874 -1.56302,-0.564031 -11.392,-3.68064 -18.9507,4.09792 -0.936516,0.969521 -1.70742,2.06517 -2.38697,3.21504 -2.95041,0.164435 -6.00926,0.958322 -8.59956,2.99933 -3.53389,2.80365 -4.992,7.1161 -3.9105,11.5576 1.15341,4.72973 4.97844,8.36027 9.74,9.28618 4.37316,0.851056 10.0535,3.22388 16.5414,8.93609 -2.47007,0.665404 -4.7091,1.71272 -6.64932,3.26572 -5.07392,4.05902 -12.9421,24.5539 -20.2273,48.6016 -1.63257,-0.16031 -3.2893,-0.221015 -4.96371,-0.176223zm85.4569 166.605c-6.63635,3.15669 -12.104,8.4475 -15.4646,14.8888 -3.87514,7.50332 -3.40246,16.9793 1.31666,24.8056 0.352446,0.572282 0.203923,1.0703 0,1.39623 -0.170919,0.323566 -0.521596,0.717858 -1.21352,0.717858l-115.993 0c-0.694872,0 -1.04555,-0.394291 -1.21588,-0.717858 -0.19744,-0.325924 -0.350678,-0.823945 0.0518649,-1.49701 4.6702,-7.72552 5.14111,-17.2015 1.2648,-24.7048 -3.3335,-6.44127 -8.82706,-11.7321 -15.4634,-14.9141 -39.4733,-18.8452 -64.484,-38.5079 -67.1633,-78.2335 -0.0500968,-0.766776 0.317673,-1.28955 0.521596,-1.5141 0.274059,-0.271702 0.694872,-0.595268 1.36204,-0.595268l277.277 0c0.667172,0 1.11981,0.323566 1.36912,0.595268 0.221605,0.224552 0.591732,0.747327 0.54635,1.5141 -2.71112,39.7256 -27.72,59.3883 -67.1957,78.2589zm-61.3509 -88.9171c-0.41433,-0.987791 -0.866969,-1.95436 -1.35497,-2.89854 0.693104,-1.13219 1.39387,-2.23432 2.10466,-3.30875 4.89122,-3.6777 8.82647,-8.42039 11.5612,-13.7737 5.94502,-5.45878 13.0169,-9.86495 22.075,-13.5491l1.92018 -0.783868 -0.155005 -2.07695c-0.369538,-5.02736 2.4683,-9.77241 7.08074,-11.804 3.27633,-1.44161 6.99941,-1.34495 10.1926,0.277595l2.17361 1.09624 1.41803 -1.96497c1.80879,-2.45651 4.21226,-4.39202 6.97524,-5.6079 8.51351,-3.74783 18.379,-0.135556 22.4958,8.21647l1.51941 3.10364 2.75827 -2.09758c0.946535,-0.720805 1.94611,-1.31254 2.95512,-1.75575 0.803906,-0.355982 1.61901,-0.604109 2.44355,-0.80096 0.209817,-0.0489181 0.421403,-0.0807443 0.63063,-0.124947 0.662457,-0.124947 1.31843,-0.218658 1.99091,-0.252252 0.172687,-0.0176812 0.354214,-0.0206281 0.53692,-0.0223962 0.803906,-0.00884061 1.5919,0.0247537 2.37518,0.139092 0.02829,0.00176812 0.0595268,0.00294687 0.0966574,0.0170919 1.67736,0.255788 3.29991,0.831018 4.80458,1.6473 0.196851,0.105498 0.388398,0.236339 0.594679,0.35834 0.473268,0.279363 0.920013,0.600572 1.3756,0.944178 0.262861,0.222783 0.539277,0.433779 0.796834,0.670118 1.23061,1.10095 2.29915,2.39698 3.11307,3.92405l1.25006 2.32626 2.42056 -1.06441 0.199208 -0.102551c5.31557,-2.23314 11.4875,0.205102 13.8202,5.50652 1.0373,2.35868 1.15341,5.04563 0.319441,7.57287l-0.850467 2.56378 2.50189 0.984255c2.63568,1.04555 4.62836,3.18026 5.46468,5.94738 2.05751,6.70177 -5.4747,12.7635 -10.5362,16.5567 -0.145575,-0.00589374 -0.290561,-0.00942999 -0.436726,-0.00942999l-0.997811 0 0 -0.00589374 -14.5852 0.0341837c-0.377789,-1.23179 -0.885829,-2.46889 -1.56774,-3.63703 2.33982,-0.419634 4.77039,-0.12259 5.79826,0.11316 1.53591,0.373074 3.07123,-0.561084 3.44666,-2.09464 0.361876,-1.53178 -0.564621,-3.07005 -2.10524,-3.439 -0.279363,-0.0754399 -6.32516,-1.51057 -11.5588,0.81039 -3.99124,-2.77595 -15.3567,-9.48775 -32.5464,-10.1084 -0.933569,-0.0447924 -1.90545,-0.0424349 -2.88381,-0.0253431 1.72922,-9.26202 10.9152,-11.9065 11.3625,-12.0244 1.51057,-0.408436 2.42233,-1.96674 2.03098,-3.47849 -0.38604,-1.53709 -1.96969,-2.43529 -3.48615,-2.04336 -5.0751,1.33316 -14.3566,6.71179 -15.7239,17.8138 -6.56032,0.572872 -14.0295,2.09699 -22.286,5.18355 -0.278185,0.0595268 -0.519828,0.167382 -0.769723,0.291151 -5.75052,2.21074 -11.8959,5.22068 -18.3478,9.15711 0.364823,-4.11678 2.35985,-6.8055 2.51014,-6.9776 0.96068,-1.24417 0.752631,-3.02703 -0.484466,-4.00008 -1.22236,-0.986023 -3.0117,-0.77208 -3.99124,0.463248 -0.212764,0.24518 -4.60124,5.91673 -3.6606,14.1102l-16.7848 0.00353625zm16.4483 -42.287c-0.346552,-3.15197 -1.05203,-6.17723 -2.07637,-9.03982l0.11316 -0.519828c0.733771,-3.38478 2.2184,-6.65227 4.27355,-9.44354 3.64115,-4.93247 8.6414,-8.01844 13.7418,-8.45339 3.81443,-0.323566 7.2605,0.86638 9.95453,3.472l2.63981 2.53372 1.80584 -3.18557c0.852825,-1.4864 1.81115,-2.86672 2.84491,-4.11265 4.25116,-5.06567 10.0264,-8.36676 15.4652,-8.79818 3.60461,-0.308243 6.81434,0.65008 9.23667,2.74766l2.05574 1.75869 1.87893 -1.95378 0.190957 -0.21689c4.40557,-4.67727 10.0512,-7.48211 15.141,-7.49036 2.02273,-0.00589374 4.89711,0.480929 7.04243,2.7624 2.06988,2.20603 2.79894,5.59611 2.0858,9.57615l-0.704892 3.89989 3.92936 -0.586427c4.40204,-0.645954 7.97011,0.584659 9.77182,3.36592 2.38461,3.61817 1.06146,9.74118 -3.16199,14.8705 -0.334765,0.404311 -0.694872,0.806264 -1.05616,1.19113 -0.0671887,-0.0430243 -0.125537,-0.0801549 -0.193904,-0.125537 -0.554601,-0.396649 -1.12158,-0.75322 -1.71567,-1.10154 -0.345373,-0.196851 -0.710785,-0.370716 -1.06854,-0.563442 -0.249895,-0.115517 -0.495074,-0.223962 -0.740254,-0.328281 -1.40919,-0.642418 -2.862,-1.11274 -4.36432,-1.40802 -0.110213,-0.0159131 -0.212764,-0.0424349 -0.327692,-0.0571693 -0.897617,-0.170329 -1.78521,-0.26345 -2.67635,-0.3106 -0.233392,-0.00471499 -0.446746,-0.0182706 -0.663635,-0.0271112 -0.429654,-0.0100194 -0.83809,0.00176812 -1.25655,0.0176812 -0.443209,0.0265218 -0.881704,0.0683674 -1.32256,0.110213 -0.362465,0.0394881 -0.716679,0.0907636 -1.09152,0.145575 -0.62179,0.105498 -1.24358,0.24459 -1.85594,0.409615 -0.229856,0.0695462 -0.444388,0.13143 -0.670708,0.199798 -0.752631,0.228677 -1.50939,0.483876 -2.24669,0.81039 -0.473268,0.208049 -0.946535,0.443799 -1.41332,0.696051 -6.1401,-9.10288 -17.9824,-12.7152 -28.3053,-8.17167 -2.99166,1.31843 -5.66094,3.27044 -7.83219,5.69866 -4.2046,-1.46401 -8.80938,-1.31077 -12.9379,0.506272 -6.16427,2.71525 -10.2015,8.72038 -10.4885,15.3597 -1.41037,0.60293 -2.7677,1.21706 -4.06963,1.84946 -0.426118,0.205102 -0.845163,0.434369 -1.26008,0.63122 -0.866969,0.443209 -1.72628,0.884651 -2.55788,1.33906 -0.478572,0.259325 -0.937105,0.535741 -1.40625,0.787404 -0.737897,0.428475 -1.47049,0.862254 -2.19601,1.30193 -0.468553,0.279363 -0.911762,0.584659 -1.37855,0.878757 -0.572872,0.36777 -1.14574,0.748505 -1.70742,1.13455 0.8098,-3.9435 1.02551,-8.03965 0.575229,-12.1606zm-173.559 -51.1771c1.14515,-1.18111 1.27894,-2.99756 0.353625,-4.33367 -0.373663,-0.542224 -0.714911,-1.08386 -1.02905,-1.68031 -4.11089,-7.88995 -0.902921,-17.7213 7.1662,-21.9283 3.01995,-1.5754 6.39943,-2.18186 9.77536,-1.76812 0.956554,0.129073 1.93609,-0.173865 2.66928,-0.805085 0.729645,-0.626505 1.16814,-1.53473 1.19525,-2.49659 0.159131,-4.96548 3.03469,-9.51545 7.50097,-11.8441 3.91403,-2.03982 8.59249,-2.11585 12.5289,-0.190957 1.44809,0.702534 3.17555,0.317083 4.19045,-0.934158 1.57481,-1.95672 3.50029,-3.52446 5.71929,-4.68199 8.6974,-4.53582 19.4152,-1.30075 23.8638,7.22926 1.08563,2.08462 1.68738,4.36608 1.84592,6.74362 0,0 -0.0147344,0.00766186 -0.00530437,0.023575l0.0636524 0.663635c-0.00589374,0.0253431 0,0.0388987 0,0.0388987l0.0100194 0.0147344 -0.0159131 0.00884061c0.0159131,0.14086 0.0777974,0.26404 0.0972467,0.406079 0.0412562,0.296455 0.072493,0.605877 0.194493,0.881114 0.033005,0.0612949 0.0954786,0.102551 0.134377,0.176812 0.162078,0.313547 0.33889,0.620611 0.581712,0.869327 0.101372,0.0801549 0.19803,0.125537 0.288793,0.190957 0.23575,0.200387 0.496253,0.401953 0.769723,0.529258 0.399006,0.1886 0.842805,0.277006 1.30193,0.285257 2.12587,0.0459712 3.97828,1.16342 4.92422,2.97811 0.956554,1.83413 0.775616,4.0655 -0.442031,5.83952 -0.548707,0.794476 -0.730824,1.78345 -0.531026,2.71819 0.225141,0.942409 0.820998,1.75162 1.65437,2.2243 1.80349,1.03023 3.2616,2.52016 4.21108,4.33838 2.02332,3.88457 1.47992,8.61606 -1.40389,12.0562 -1.18228,1.431 -1.01608,3.53978 0.366591,4.76627 1.01313,0.893491 1.81409,1.91547 2.41231,3.06239 2.77772,5.32853 0.594679,11.9997 -4.87177,14.8493 -0.552244,0.288204 -1.13396,0.514524 -1.75575,0.705481 -0.125537,0.0495074 -0.24459,0.0713143 -0.368948,0.116696 -0.601751,0.162078 -1.23061,0.299991 -1.8583,0.361876 -2.44885,0.274059 -4.95369,-0.238697 -7.07721,-1.55477 -1.01078,-0.626505 -2.29031,-0.67778 -3.33822,-0.15088 -1.14574,0.598215 -1.78993,1.57893 -1.89248,2.76475 -0.323566,3.40894 -1.63139,6.57388 -3.65176,9.19718 -0.307064,0.388398 -0.601162,0.769133 -0.924728,1.12806 -0.172097,0.180938 -0.347731,0.350678 -0.509809,0.505094 -0.324156,0.327692 -0.627684,0.654205 -0.983076,0.952429 -0.223373,0.193315 -0.482697,0.385451 -0.726109,0.56521 -0.302349,0.257557 -0.610002,0.508041 -0.937694,0.718447 -0.551654,0.385451 -1.12747,0.739075 -1.73335,1.05557 -0.466784,0.241054 -0.927086,0.449103 -1.41391,0.641239 -0.15029,0.0783868 -0.297045,0.156184 -0.453818,0.219247 -0.523364,0.193904 -1.06264,0.364823 -1.61665,0.522186 -0.100194,0.0324156 -0.209228,0.0713143 -0.310011,0.10373 -0.594679,0.159131 -1.21883,0.277006 -1.83472,0.370127 -0.0489181,0.00766186 -0.0948893,0.0312368 -0.15088,0.0388987 -0.670708,0.0836911 -1.35497,0.159131 -2.04513,0.174455 -2.93273,0.109034 -5.89492,-0.483876 -8.5807,-1.82706 -0.827481,-0.419045 -1.79229,-0.488002 -2.67517,-0.182117 -0.155005,0.0683674 -0.3106,0.129662 -0.458533,0.20687 -0.670708,0.349499 -1.19643,0.905279 -1.51941,1.5866 -0.472089,1.02197 -1.09683,1.93197 -1.77225,2.77595 -0.00766186,0.0241643 -0.0459712,0.0241643 -0.0530437,0.0465606 -0.617664,0.777974 -1.29073,1.45163 -2.00328,2.04866 -0.02829,0.0129662 -0.0471499,0.0436137 -0.0783868,0.0595268 -0.726698,0.610592 -1.48228,1.11804 -2.3021,1.54593 -6.75835,3.52387 -15.0727,1.01726 -18.5187,-5.59198 -1.3202,-2.53018 -1.76753,-5.38452 -1.31077,-8.25595 0.144986,-0.924139 -0.0919424,-1.87951 -0.66835,-2.62389 -0.560495,-0.747916 -1.40153,-1.23592 -2.34335,-1.33258 -5.35977,-0.61236 -10.0017,-3.78201 -12.4452,-8.47049 -0.364233,-0.701355 -0.65892,-1.41391 -0.907047,-2.14002 -0.063063,-0.194493 -0.117875,-0.373663 -0.185064,-0.568157 -0.157363,-0.561084 -0.303528,-1.12983 -0.417866,-1.71272 -0.0223962,-0.195672 -0.0719037,-0.397238 -0.107266,-0.607055 -0.0878168,-0.638292 -0.135556,-1.27128 -0.144986,-1.91193 -0.0111981,-0.132609 -0.0371306,-0.246948 -0.0212175,-0.36777 -0.00412562,-4.10617 1.55595,-8.20055 4.57472,-11.3443zm133.758 -13.5356c-0.698408,2.21723 -2.08344,4.13682 -3.97002,5.56959 -0.770901,0.591732 -1.26657,1.49583 -1.33611,2.48421 -0.0831018,0.965984 0.272291,1.93609 0.957733,2.63804 2.31742,2.40995 3.10718,5.88254 2.06222,9.07872 -0.929443,2.82959 -3.19382,5.09278 -6.0405,6.06525 -1.51351,0.503915 -2.50071,2.0245 -2.33628,3.61817 0.0500968,0.456176 0.0748505,0.909994 0.0742612,1.36263 -7.03595,2.0021 -13.2014,5.87606 -18.0036,10.9971 -1.00606,-0.506272 -1.93845,-1.15223 -2.78656,-1.9355 -0.32003,-0.288204 -0.667761,-0.485055 -1.0373,-0.651848 -0.0996042,-0.0406668 -0.218658,-0.0559906 -0.311779,-0.0860486 -0.288204,-0.0766186 -0.543992,-0.13143 -0.818641,-0.156184 -0.138503,-0.00117875 -0.26345,0.00766186 -0.405489,0.0212175 -0.255199,0.0218068 -0.506272,0.0559906 -0.749684,0.129662 -0.14145,0.0530437 -0.26345,0.0795655 -0.393702,0.146165 -0.0683674,0.0170919 -0.152059,0.0388987 -0.213353,0.0713143 -0.266397,0.139092 -0.517471,0.310011 -0.749684,0.522186l-0.0135556 0.00589374c-0.102551,0.0972467 -0.237518,0.165025 -0.363055,0.249895 -0.749684,0.561674 -1.65614,0.785046 -2.55376,0.664225 -0.16031,-0.023575 -0.335943,-0.033005 -0.514524,-0.0860486 -0.319441,-0.102551 -0.604109,-0.251663 -0.88524,-0.426118 -0.063063,-0.0436137 -0.119643,-0.114339 -0.186242,-0.170919 -0.187421,-0.149112 -0.374842,-0.319441 -0.515702,-0.525132 -0.324745,-0.400774 -0.552244,-0.873453 -0.667172,-1.41745 -0.0176812,-0.142629 -0.0530437,-0.29174 -0.107855,-0.431422 0.841626,-0.708428 1.60192,-1.46342 2.29267,-2.27734 0.200977,-0.23575 0.345373,-0.500968 0.523954,-0.746148 0.481519,-0.63122 0.944767,-1.27128 1.34613,-1.95201 0.196262,-0.34832 0.349499,-0.714911 0.525132,-1.06795 0.297634,-0.63063 0.587017,-1.23651 0.815694,-1.88482 0.144397,-0.413151 0.258735,-0.816873 0.368948,-1.2147 0.175044,-0.64065 0.317083,-1.28189 0.424939,-1.94552 0.0665993,-0.414919 0.127305,-0.844573 0.165614,-1.28189 0.0595268,-0.651259 0.0612949,-1.33552 0.0459712,-2.01094 -0.0206281,-0.407258 -0.0129662,-0.826892 -0.0565799,-1.23651 -0.0789761,-0.739665 -0.209228,-1.46695 -0.381325,-2.19011 -0.0901743,-0.352446 -0.127305,-0.709607 -0.228088,-1.05321 -0.326513,-1.06146 -0.726698,-2.12057 -1.26244,-3.14903 -0.510987,-0.983666 -1.10508,-1.90604 -1.80643,-2.77183 3.04471,-5.23541 3.27515,-11.6649 0.43319,-17.116 -1.04614,-2.008 -2.46948,-3.7885 -4.1987,-5.25073 0.83809,-2.42351 0.934158,-5.03502 0.248127,-7.47798 -0.21689,-0.813926 -0.53692,-1.61312 -0.938284,-2.38343 -0.384272,-0.73436 -0.831018,-1.40625 -1.35438,-2.0469 -0.156184,-0.198619 -0.355393,-0.360697 -0.534562,-0.554601 -0.383093,-0.406079 -0.75381,-0.798602 -1.16814,-1.14987 -0.232803,-0.199208 -0.491538,-0.368359 -0.747327,-0.535741 -0.406668,-0.302349 -0.815694,-0.578176 -1.2536,-0.805085 -0.299402,-0.170919 -0.591732,-0.297634 -0.911173,-0.435548 -0.251073,-0.119054 -0.4992,-0.267576 -0.779742,-0.370716 2.10996,-3.9046 6.78429,-5.94384 11.1557,-4.60655 1.87244,0.577587 3.48556,1.70742 4.64545,3.28105 0.555191,0.73495 1.38208,1.22943 2.30033,1.35379 0.907636,0.114928 1.84356,-0.124358 2.57144,-0.694872 2.96455,-2.30033 6.86503,-3.0341 10.419,-1.94788 4.55174,1.39387 7.69015,5.51772 7.79212,10.2563 0.01886,1.63551 1.20173,3.02644 2.82841,3.31228 0.45205,0.0713143 0.9041,0.170919 1.34613,0.30176 2.86377,0.876989 5.19121,2.80365 6.55738,5.42401 1.36499,2.64511 1.60722,5.65858 0.680138,8.49111zm-73.924 59.8999c-0.550476,-0.916477 -0.995453,-1.64259 -1.19407,-1.89366 0.230445,-0.0618843 0.454997,-0.177402 0.691336,-0.26404 0.53692,-0.170919 1.04555,-0.357161 1.57658,-0.572282 0.344784,-0.14145 0.67837,-0.304117 1.02964,-0.466195 0.28231,-0.148522 0.601751,-0.255788 0.888776,-0.404311 0.173865,-0.0925318 0.321798,-0.208638 0.485055,-0.29174 0.337122,-0.196851 0.671297,-0.390166 1.00842,-0.579944 0.446156,-0.269933 0.884651,-0.556959 1.29662,-0.852235 0.306475,-0.212764 0.589374,-0.435548 0.891723,-0.65008 0.444978,-0.344784 0.883472,-0.701355 1.29603,-1.07502 0.142039,-0.128484 0.298813,-0.228088 0.437316,-0.357161 1.31843,2.03629 3.24333,4.78572 5.00673,7.57641 -3.70834,-0.692515 -7.56226,-0.860486 -11.4633,-0.43319 -0.655974,0.0719037 -1.30605,0.15972 -1.95083,0.26345zm28.6353 6.49196c0.109034,-6.35169 0.55578,-14.4856 1.63139,-20.0317 0.0536331,0.0277006 0.115517,0.0506862 0.185653,0.0695462 0.601751,0.351856 1.24535,0.641239 1.92549,0.855771 0.0223962,0.00707249 0.0300581,0.0218068 0.0447924,0.014145 0.625326,0.183295 1.24063,0.316494 1.85653,0.373663 0.0253431,0.00884061 0.0495074,0.0147344 0.0719037,0.0223962 0.317083,0.0241643 0.623558,-0.00412562 0.943588,-0.00294687 0.331818,0.0153237 0.670708,0.0495074 1.00783,0.00648312 0.165614,-0.0123769 0.331228,-0.0595268 0.488002,-0.0836911 0.477393,-0.0595268 0.960091,-0.122 1.42216,-0.251663 0.625326,-0.172097 1.22531,-0.410794 1.81174,-0.696051 0.374253,0.259914 0.690747,0.486234 0.964216,0.678959 -4.50871,6.91925 -6.90511,15.2742 -6.37998,24.0518 -1.82647,-1.86065 -3.82916,-3.53742 -5.97331,-5.00673zm-15.7345 -19.5207c1.05734,-1.78227 1.90486,-3.68359 2.48952,-5.68805 1.92254,0.566978 3.92405,0.732592 5.93205,0.632399 0.155595,0.0742612 0.281132,0.138503 0.464427,0.194493 0.760293,0.229267 1.54475,0.385451 2.32155,0.497432 -1.47579,6.35345 -2.163,13.2869 -2.34689,19.7228 -2.85493,-5.95386 -6.00101,-11.1103 -8.86065,-15.3591zm79.2502 51.3575c-7.70135,-10.0329 -20.0022,-16.163 -33.3462,-15.543 -0.509809,0.0176812 -1.00665,0.058348 -1.51587,0.0884061 -0.327103,0.0347731 -0.648312,0.02829 -0.981308,0.0654205 -0.0777974,0.00707249 -0.142039,0.02829 -0.206281,0.0353625 -0.117285,0.0117875 -0.227498,0.0111981 -0.331818,0.0223962 -3.90401,0.426707 -7.71786,1.4475 -11.3761,3.02231 -2.32449,-4.05607 -3.75903,-8.47992 -4.27002,-13.1489 -2.05868,-18.8075 11.5694,-35.7685 30.3646,-37.8243 18.8105,-2.06222 35.7715,11.5511 37.8308,30.3593 1.44043,13.1531 -4.99789,26.0415 -16.1677,32.923z"/>
  <path class="fil1 str0" d="M182.57 249.759l-0.513934 -3.95293c-0.161489,-1.18287 -1.24181,-2.01625 -2.42586,-1.85122 -1.19466,0.143218 -2.01979,1.23297 -1.86714,2.42174l0.523954 3.94704c0.0353625,0.258735 -0.396059,1.08975 -1.36735,1.47638l-4.72914 1.87834c-1.10567,0.439673 -1.65025,1.6974 -1.21057,2.80483 0.442031,1.11097 1.69622,1.64376 2.80424,1.20409l4.72855 -1.87716c2.63804,-1.0485 4.37669,-3.64764 4.05725,-6.05111z"/>
  <path class="fil1" d="M191.471 253.997c-2.80896,-0.951839 -5.93028,0.108445 -7.58171,2.58028l-4.14212 6.20847c-0.660689,1.00253 -0.390166,2.33569 0.601162,2.99874 0.617664,0.415509 1.36558,0.469731 2.00328,0.21689 0.392523,-0.155595 0.736128,-0.430833 0.996042,-0.806264l4.13741 -6.21908c0.555191,-0.833965 1.66027,-1.20527 2.60091,-0.886419l5.82655 1.96969c1.12688,0.378968 2.35337,-0.221015 2.72821,-1.35733 0.381914,-1.12806 -0.218068,-2.35455 -1.34672,-2.73588l-5.82302 -1.9691z"/>
  <path class="fil2" d="M321.754 180.804c-5.98568,-0.210996 -12.1323,-2.16182 -18.2847,-5.78648 -1.30723,-0.763829 -2.9787,-0.336533 -3.74842,0.960091 -0.770901,1.30723 -0.335943,2.97988 0.968342,3.74842 6.93693,4.1044 13.9782,6.31102 20.888,6.54618 0.343605,0.00884061 0.667172,-0.0341837 0.983666,-0.142039 1.03553,-0.354803 1.80231,-1.33552 1.84651,-2.49128 0.0447924,-1.51233 -1.1369,-2.77536 -2.65336,-2.83489z"/>
  <path class="fil1" d="M274.185 225.523l-5.25073 -3.44902c-0.756757,-0.491538 -0.993096,-1.16932 -0.974236,-1.33729l1.24181 -2.87791c0.466784,-1.0927 -0.0117875,-2.36752 -1.13749,-2.83666 -1.09859,-0.471499 -2.36752,0.0371306 -2.83784,1.13631l-1.2424 2.88086c-0.944178,2.21015 0.16974,5.07098 2.58087,6.64991l5.25781 3.43664c0.0512756,0.0412562 0.106087,0.0695462 0.162667,0.0996042 0.977182,0.523364 2.20367,0.22573 2.82369,-0.711375 0.657152,-1.00253 0.371306,-2.34099 -0.624147,-2.99107z"/>
  <path class="fil1" d="M260.332 217.424l2.68931 -2.94275c0.798602,-0.88524 0.739075,-2.24846 -0.15029,-3.04648 -0.879346,-0.821588 -2.24434,-0.749095 -3.05473,0.134377l-2.67871 2.9451c-0.174455,0.193315 -1.08798,0.401364 -2.00977,-0.0931211l-4.48573 -2.40229c-1.04909,-0.561674 -2.36162,-0.167382 -2.92389,0.882883 -0.56521,1.05439 -0.163846,2.3575 0.886419,2.92035l4.48632 2.40229c2.5013,1.34083 5.60849,0.994274 7.24105,-0.80037z"/>
  <path class="fil1" d="M262.832 226.959c-1.08445,-2.75945 -3.90755,-4.46274 -6.86208,-4.13033l-7.4161 0.837501c-1.19171,0.142039 -2.03629,1.2094 -1.90368,2.39286 0.0801549,0.741433 0.521596,1.3479 1.12747,1.67205 0.370716,0.199208 0.803317,0.284078 1.25772,0.241054l7.4214 -0.84811c0.994864,-0.113749 1.99091,0.492127 2.35455,1.41686l2.25082 5.72223c0.437316,1.10567 1.68679,1.65732 2.79835,1.20999 1.10802,-0.435548 1.65791,-1.68502 1.22177,-2.79304l-2.25023 -5.72106z"/>
  <path class="fil1" d="M151.115 189.27c0.365412,-0.0506862 0.708428,-0.149112 1.01313,-0.308243 1.01137,-0.52749 1.63728,-1.63375 1.50998,-2.83725 -0.16915,-1.55595 -1.57186,-2.68696 -3.12663,-2.51781 -4.51637,0.492127 -8.60781,-2.78833 -9.08756,-7.31531 -0.490949,-4.51461 2.78244,-8.58718 7.31531,-9.08579 1.55418,-0.171508 2.6846,-1.57481 2.51663,-3.1284 -0.176812,-1.56715 -1.57304,-2.68637 -3.1284,-2.51781 -7.6601,0.832786 -13.179,7.71668 -12.3604,15.3508 0.825713,7.64713 7.71609,13.1778 15.3479,12.3598z"/>
  <path class="fil1" d="M240.615 159.848c-0.945946,1.18582 -0.75381,2.90679 0.411973,3.85097 1.65909,1.33199 2.6899,3.21975 2.91799,5.32912 0.236928,2.10348 -0.373663,4.16805 -1.70624,5.82596 -1.3202,1.65202 -3.20679,2.68224 -5.31851,2.90797 -2.10878,0.228088 -4.18574,-0.37661 -5.83775,-1.69681 -1.17521,-0.954197 -2.88793,-0.769133 -3.83918,0.405489 -0.950661,1.18464 -0.757935,2.90915 0.411383,3.84802 2.79599,2.24552 6.2957,3.26985 9.84255,2.88145 1.69799,-0.179759 3.30698,-0.672476 4.76155,-1.431 1.6249,-0.846931 3.05473,-2.02745 4.24939,-3.49499 2.23373,-2.7901 3.25806,-6.27801 2.8785,-9.84019 -0.383683,-3.56748 -2.1412,-6.76071 -4.93955,-9.00505 -1.16755,-0.940641 -2.87615,-0.757935 -3.83211,0.419045z"/>
  <path class="fil1" d="M199.173 174.29c-0.853414,1.30605 -0.482697,3.07005 0.842216,3.92759 1.84592,1.1982 3.10659,3.04589 3.5722,5.19828 0.451461,2.15652 0.0465606,4.35548 -1.15635,6.22084 -1.19702,1.84651 -3.04471,3.10777 -5.19887,3.5722 -2.15593,0.45205 -4.35548,0.0465606 -6.20081,-1.14987 -1.32491,-0.861076 -3.08714,-0.486823 -3.93525,0.82866 -0.859897,1.32609 -0.473857,3.08007 0.82925,3.93584 4.3708,2.82605 9.7341,2.90679 14.0536,0.654205 2.05809,-1.07266 3.88044,-2.68047 5.22303,-4.75448 2.0192,-3.12074 2.72586,-6.83851 1.95083,-10.4909 -0.780921,-3.62701 -2.92624,-6.75187 -6.05111,-8.78344 -1.31902,-0.848699 -3.08478,-0.477393 -3.92877,0.841037z"/>
  <path class="fil1" d="M170.557 190.287c2.16831,-0.0689568 4.19399,-0.624737 6.00631,-1.56891 4.59064,-2.39404 7.67247,-7.25461 7.50391,-12.7717 -0.0518649,-1.56891 -1.35085,-2.80189 -2.92624,-2.7624 -1.57245,0.0500968 -2.7954,1.36145 -2.75709,2.94157 0.146754,4.53877 -3.44548,8.33788 -7.98661,8.48168 -4.55174,0.133199 -8.35909,-3.4502 -8.49288,-8.00134 -0.0512756,-1.56832 -1.36381,-2.79481 -2.93921,-2.75474 -1.57127,0.0536331 -2.79363,1.3644 -2.74531,2.9339 0.230445,7.67424 6.65875,13.7307 14.3371,13.502z"/>
  <path class="fil1" d="M156.192 216.577c1.94729,-0.137324 3.8103,-0.673655 5.48707,-1.54711 1.5253,-0.795655 2.90267,-1.87362 4.07317,-3.20089 2.43647,-2.8066 3.64764,-6.39353 3.38537,-10.1084 -0.0990149,-1.57363 -1.46577,-2.7565 -3.03822,-2.64393 -1.56656,0.11316 -2.73646,1.47579 -2.62684,3.02997 0.143807,2.19542 -0.568746,4.31893 -2.01684,5.98333 -1.44927,1.66204 -3.45196,2.65749 -5.65858,2.8066 -4.53111,0.315315 -8.4699,-3.12545 -8.7805,-7.65892 -0.115517,-1.56597 -1.4699,-2.75532 -3.03763,-2.64334 -1.58365,0.120822 -2.74884,1.48169 -2.64393,3.03763 0.535741,7.65774 7.1939,13.466 14.8569,12.945z"/>
  <path class="fil1" d="M181.577 167.608c0.413151,-0.168561 0.826303,-0.366001 1.23297,-0.578765 2.85375,-1.48758 5.08276,-3.90578 6.36583,-6.90747 2.97929,-7.0778 -0.334765,-15.2695 -7.40077,-18.2547 -1.44809,-0.608234 -3.11897,0.0595268 -3.72485,1.50173 -0.6212,1.45399 0.058348,3.11779 1.50055,3.72543 4.19929,1.77284 6.16073,6.61985 4.38848,10.8132 -0.866969,2.03216 -2.42704,3.59813 -4.49869,4.42738 -2.04218,0.832786 -4.28829,0.812158 -6.31868,-0.0406668 -1.44043,-0.607645 -3.1119,0.0607055 -3.7219,1.50408 -0.609413,1.44397 0.0612949,3.11425 1.50467,3.72426 3.43252,1.45045 7.21866,1.48051 10.6724,0.0854593z"/>
 </g>
</svg>
