<?xml version="1.0" encoding="UTF-8"?>
<!DOCTYPE svg PUBLIC "-//W3C//DTD SVG 1.1//EN" "http://www.w3.org/Graphics/SVG/1.1/DTD/svg11.dtd">
<!-- Creator: CorelDRAW -->
<svg xmlns="http://www.w3.org/2000/svg" xml:space="preserve" width="512px" height="512px" style="shape-rendering:geometricPrecision; text-rendering:geometricPrecision; image-rendering:optimizeQuality; fill-rule:evenodd; clip-rule:evenodd"
viewBox="0 0 25.306 25.306"
 xmlns:xlink="http://www.w3.org/1999/xlink">
 <defs>
  <style type="text/css">
   <![CDATA[
    .fil0 {fill:none}
    .fil1 {fill:#4D4948;fill-rule:nonzero}
    .fil2 {fill:#43AC3E;fill-rule:nonzero}
   ]]>
  </style>
 </defs>
 <g id="Vrstva_x0020_1">
  <metadata id="CorelCorpID_0Corel-Layer"/>
  <rect class="fil0" width="25.306" height="25.306"/>
  <g id="_136262616">
   <g>
    <path id="_137413792" class="fil1" d="M21.634 19.6424l-0.0253953 0c-0.0748117,-2.28096 -0.9977,-4.41427 -2.61904,-6.03584 -1.48807,-1.48788 -3.40704,-2.38785 -5.47533,-2.58381 0.05189,-0.11667 0.0810506,-0.24568 0.0810506,-0.381534 0,-0.519559 -0.422705,-0.942265 -0.942265,-0.942265 -0.519587,0 -0.942265,0.422705 -0.942265,0.942265 0,0.135854 0.0291606,0.264864 0.0812979,0.381727 -2.06854,0.195989 -3.98747,1.09593 -5.47533,2.58381 -1.6214,1.62137 -2.54448,3.75468 -2.61904,6.03564l-0.0256427 0c-0.166004,0 -0.300731,0.13448 -0.300731,0.300703 0,0.166004 0.134727,0.300703 0.300731,0.300703l0.491196 0 0.58335 0.777772c0.237105,0.316397 0.614929,0.505075 1.01043,0.505075l13.7923 0c0.395414,0 0.773127,-0.188678 1.01037,-0.505075l0.583405 -0.777772 0.490948 0c0.166251,0 0.300731,-0.1347 0.300731,-0.300703 0,-0.166224 -0.13448,-0.300703 -0.300731,-0.300703zm-8.98098 -9.34203c0.187936,0 0.34083,0.152921 0.34083,0.340858 0,0.187936 -0.152894,0.340858 -0.34083,0.340858 -0.187936,0 -0.34083,-0.152921 -0.34083,-0.340858 0,-0.187936 0.152894,-0.340858 0.34083,-0.340858zm7.42538 10.3604c-0.124256,0.165674 -0.321976,0.264479 -0.529124,0.264479l-13.7923 0c-0.207148,0 -0.405061,-0.0988053 -0.529371,-0.264479l-0.312632 -0.416961 15.4763 0 -0.312906 0.416961zm-15.7789 -1.01837c0.158913,-4.47081 3.84469,-8.05891 8.35351,-8.05891 4.50879,0 8.19479,3.5881 8.35357,8.05891l-16.7071 0z"/>
    <path id="_137413864" class="fil1" d="M17.3255 13.8499c-0.131759,-0.101196 -0.320492,-0.0763233 -0.421688,0.0554354 -0.101032,0.131759 -0.0763783,0.320437 0.0553804,0.421688 1.22945,0.944216 2.12724,2.28365 2.52782,3.77175 0.0360042,0.13426 0.157566,0.222759 0.29015,0.222759 0.0258076,0 0.0522473,-0.00349048 0.0782747,-0.0105814 0.160535,-0.0430401 0.255492,-0.208082 0.21226,-0.368424 -0.434633,-1.61494 -1.40842,-3.06832 -2.7422,-4.09263z"/>
    <path id="_137413936" class="fil1" d="M15.9907 13.0267c-0.217097,-0.105154 -0.441669,-0.200661 -0.667424,-0.28446 -0.155807,-0.0577441 -0.328655,0.0216849 -0.386399,0.177355 -0.0577716,0.155615 0.0214926,0.328737 0.177162,0.386454 0.208082,0.0771204 0.415037,0.165234 0.614902,0.261923 0.042298,0.0203932 0.0867398,0.0301775 0.130797,0.0301775 0.111558,0 0.219076,-0.0626637 0.270938,-0.169962 0.0722007,-0.149541 0.00956446,-0.329259 -0.139976,-0.401488z"/>
   </g>
   <g>
    <path id="_137413552" class="fil2" d="M15.3022 7.59045c-0.0826447,0 -0.163393,-0.034465 -0.220285,-0.103395 -0.498204,-0.566117 -0.498204,-1.42431 0,-1.99334 0.303314,-0.352071 0.303314,-0.878749 0,-1.22749 -0.108562,-0.123101 -0.0944353,-0.306008 0.0253403,-0.415202 0.123101,-0.105456 0.309306,-0.0942429 0.415395,0.0315517 0.494301,0.566749 0.494301,1.42516 0,1.99416 -0.303095,0.351659 -0.303095,0.878144 0,1.2273 0.105676,0.123321 0.0944628,0.30642 -0.028446,0.41457 -0.0549957,0.0491965 -0.123101,0.0718434 -0.192004,0.0718434z"/>
    <path id="_137413624" class="fil2" d="M12.6535 7.59045c-0.0807483,0 -0.163365,-0.034465 -0.22067,-0.103395 -0.494906,-0.566117 -0.494906,-1.42431 0,-1.99334 0.303287,-0.352071 0.303287,-0.878749 0,-1.22749 -0.106089,-0.123101 -0.0944628,-0.306008 0.0286384,-0.415202 0.120215,-0.105456 0.306008,-0.0942429 0.411657,0.0315517 0.498039,0.566749 0.498039,1.42516 0,1.99416 -0.303287,0.351659 -0.303287,0.878144 0,1.2273 0.109002,0.123321 0.0944628,0.30642 -0.0257251,0.41457 -0.0568921,0.0491965 -0.125822,0.0718434 -0.1939,0.0718434z"/>
    <path id="_137413696" class="fil2" d="M10.0044 7.59045c-0.080336,0 -0.16026,-0.034465 -0.220257,-0.103395 -0.495318,-0.566117 -0.495318,-1.42431 0,-1.99334 0.306008,-0.352071 0.306008,-0.878749 0,-1.22749 -0.106061,-0.123101 -0.0946552,-0.306008 0.0286659,-0.415202 0.119776,-0.105456 0.30598,-0.0942429 0.41435,0.0315517 0.494906,0.566749 0.494906,1.42516 0,1.99416 -0.3062,0.351659 -0.3062,0.878144 0,1.2273 0.106281,0.123321 0.0915495,0.30642 -0.028446,0.41457 -0.0572768,0.0491965 -0.126207,0.0718434 -0.194313,0.0718434z"/>
   </g>
  </g>
 </g>
</svg>
