<?xml version="1.0" encoding="UTF-8"?>
<!DOCTYPE svg PUBLIC "-//W3C//DTD SVG 1.1//EN" "http://www.w3.org/Graphics/SVG/1.1/DTD/svg11.dtd">
<!-- Creator: CorelDRAW -->
<svg xmlns="http://www.w3.org/2000/svg" xml:space="preserve" width="512px" height="512px" style="shape-rendering:geometricPrecision; text-rendering:geometricPrecision; image-rendering:optimizeQuality; fill-rule:evenodd; clip-rule:evenodd"
viewBox="0 0 159.038 159.038"
 xmlns:xlink="http://www.w3.org/1999/xlink">
 <defs>
  <style type="text/css">
   <![CDATA[
    .fil0 {fill:#43AC3E}
    .fil1 {fill:white;fill-rule:nonzero}
   ]]>
  </style>
 </defs>
 <g id="Vrstva_x0020_1">
  <metadata id="CorelCorpID_0Corel-Layer"/>
  <rect class="fil0" width="159.038" height="159.038"/>
  <g id="_172476000">
   <path id="_172476120" class="fil1" d="M126.21 110.023l-0.122809 0c-0.36169,-11.0267 -4.82322,-21.34 -12.6612,-29.1791 -7.1939,-7.19286 -16.4707,-11.5435 -26.4695,-12.4909 0.250799,-0.564125 0.391744,-1.18767 0.391744,-1.84455 0,-2.51162 -2.04336,-4.55515 -4.55515,-4.55515 -2.51179,0 -4.55515,2.04353 -4.55515,4.55515 0,0.65688 0.140945,1.28042 0.392953,1.84559 -10,0.947233 -19.2768,5.29787 -26.4695,12.4909 -7.83834,7.83799 -12.3007,18.1513 -12.6612,29.178l-0.124018 0c-0.802488,0 -1.45367,0.650143 -1.45367,1.45384 0,0.802316 0.65118,1.45367 1.45367,1.45367l2.37465 0 2.82011 3.75992c1.14621,1.52967 2.9728,2.44166 4.88471,2.44166l66.6761 0c1.91157,0 3.73746,-0.911997 4.88437,-2.44166l2.82045 -3.75992 2.37344 0c0.803697,0 1.45367,-0.651352 1.45367,-1.45367 0,-0.803697 -0.649971,-1.45384 -1.45367,-1.45384zm-43.4169 -45.1622c0.908543,0 1.64781,0.739098 1.64781,1.64764 0,0.908543 -0.73927,1.64781 -1.64781,1.64781 -0.908543,0 -1.64781,-0.73927 -1.64781,-1.64781 0,-0.908543 0.73927,-1.64764 1.64781,-1.64764zm35.8966 50.0854c-0.600744,0.800761 -1.55661,1.27852 -2.55791,1.27852l-66.6761 0c-1.0013,0 -1.9582,-0.477762 -2.55912,-1.27852l-1.51136 -2.01572 74.8171 0 -1.51257 2.01572zm-76.2801 -4.92323c0.768288,-21.6133 18.5864,-38.9594 40.3835,-38.9594 21.7969,0 39.6163,17.3461 40.3837,38.9594l-80.7672 0z"/>
   <path id="_172476072" class="fil1" d="M105.382 82.02c-0.637016,-0.489162 -1.54936,-0.368944 -2.03869,0.268072 -0.488471,0.636843 -0.369117,1.54901 0.267899,2.03852 5.94335,4.56465 10.2836,11.0398 12.2202,18.2337 0.173936,0.649107 0.761725,1.07695 1.40254,1.07695 0.124709,0 0.252699,-0.0169272 0.378444,-0.0511271 0.776061,-0.208136 1.23517,-1.00596 1.02617,-1.78099 -2.10122,-7.80708 -6.80871,-14.8333 -13.2566,-19.7852z"/>
   <path id="_172476024" class="fil1" d="M98.9289 78.0405c-1.04966,-0.508335 -2.13525,-0.970206 -3.22654,-1.37525 -0.753261,-0.279126 -1.58891,0.104845 -1.86804,0.857415 -0.279299,0.752398 0.103981,1.58926 0.856552,1.86821 1.00596,0.372917 2.00639,0.798861 2.97245,1.26626 0.204508,0.098627 0.419553,0.145781 0.632525,0.145781 0.539253,0 1.05899,-0.30279 1.30979,-0.821488 0.349081,-0.723034 0.0462908,-1.59185 -0.676743,-1.94093z"/>
  </g>
  <g id="_172475832">
   <path id="_172475952" class="fil1" d="M95.6004 51.7596c-0.399517,0 -0.789879,-0.166509 -1.06486,-0.499698 -2.40867,-2.73685 -2.40867,-6.88558 0,-9.63642 1.46628,-1.70205 1.46628,-4.24821 0,-5.9342 -0.524917,-0.595216 -0.456689,-1.47923 0.122463,-2.00726 0.595044,-0.509717 1.4953,-0.45548 2.00812,0.15269 2.3895,2.73979 2.3895,6.88955 0,9.6404 -1.46524,1.69998 -1.46524,4.2451 0,5.93316 0.510753,0.59608 0.456689,1.4813 -0.13749,2.00415 -0.265999,0.237845 -0.595044,0.347181 -0.928233,0.347181z"/>
   <path id="_172475904" class="fil1" d="M82.7957 51.7596c-0.390362,0 -0.789879,-0.166509 -1.06676,-0.499698 -2.39261,-2.73685 -2.39261,-6.88558 0,-9.63642 1.4661,-1.70205 1.4661,-4.24821 0,-5.9342 -0.512826,-0.595216 -0.456689,-1.47923 0.138354,-2.00726 0.581053,-0.509717 1.4794,-0.45548 1.99016,0.15269 2.40764,2.73979 2.40764,6.88955 0,9.6404 -1.46628,1.69998 -1.46628,4.2451 0,5.93316 0.526816,0.59608 0.456689,1.4813 -0.124363,2.00415 -0.274981,0.237845 -0.608171,0.347181 -0.937388,0.347181z"/>
   <path id="_172475856" class="fil1" d="M69.989 51.7596c-0.388462,0 -0.774852,-0.166509 -1.06486,-0.499698 -2.39451,-2.73685 -2.39451,-6.88558 0,-9.63642 1.47923,-1.70205 1.47923,-4.24821 0,-5.9342 -0.512826,-0.595216 -0.457726,-1.47923 0.138527,-2.00726 0.57898,-0.509717 1.47923,-0.45548 2.00311,0.15269 2.39244,2.73979 2.39244,6.88955 0,9.6404 -1.48027,1.69998 -1.48027,4.2451 0,5.93316 0.513862,0.59608 0.442526,1.4813 -0.13749,2.00415 -0.277054,0.237845 -0.610244,0.347181 -0.939288,0.347181z"/>
  </g>
 </g>
</svg>
