<?xml version="1.0" encoding="UTF-8"?>
<!DOCTYPE svg PUBLIC "-//W3C//DTD SVG 1.1//EN" "http://www.w3.org/Graphics/SVG/1.1/DTD/svg11.dtd">
<!-- Creator: CorelDRAW -->
<svg xmlns="http://www.w3.org/2000/svg" xml:space="preserve" width="1280px" height="512px" style="shape-rendering:geometricPrecision; text-rendering:geometricPrecision; image-rendering:optimizeQuality; fill-rule:evenodd; clip-rule:evenodd"
viewBox="0 0 663.187 218.126"
 xmlns:xlink="http://www.w3.org/1999/xlink">
 <defs>
  <style type="text/css">
   <![CDATA[
    .fil1 {fill:#43AC3E}
    .fil2 {fill:#4D4948;fill-rule:nonzero}
    .fil0 {fill:#43AC3E;fill-rule:nonzero}
   ]]>
  </style>
 </defs>
 <g id="Vrstva_x0020_1">
  <metadata id="CorelCorpID_0Corel-Layer"/>
  <path class="fil0" d="M258.263 203.226c0,1.51008 -0.140413,2.87062 -0.42124,4.08162 -0.289951,1.20239 -0.76391,2.2385 -1.44824,3.08099 -0.676215,0.851605 -1.5628,1.50095 -2.65975,1.94855 -1.09695,0.4476 -2.45749,0.667091 -4.0725,0.667091 -0.509442,0 -1.01838,-0.0349766 -1.52731,-0.114054 -0.509442,-0.0790776 -0.974277,-0.17539 -1.3869,-0.298569 -0.42124,-0.114054 -0.789762,-0.24585 -1.09746,-0.386264 -0.307186,-0.131796 -0.517553,-0.254468 -0.614372,-0.368522 -0.10493,-0.114054 -0.193132,-0.228109 -0.263085,-0.351287 -0.0704602,-0.114054 -0.122672,-0.271703 -0.17539,-0.473959 -0.0527184,-0.193132 -0.088202,-0.438475 -0.105437,-0.737044 -0.0177418,-0.289951 -0.0263592,-0.658473 -0.0263592,-1.10607 0,-0.579396 0.00861743,-1.07971 0.0349766,-1.48321 0.0263592,-0.404006 0.0704602,-0.719809 0.131796,-0.947918 0.0613358,-0.237233 0.149031,-0.395388 0.254468,-0.491701 0.114054,-0.0963125 0.254468,-0.140413 0.429858,-0.140413 0.149538,0 0.333545,0.0527184 0.535802,0.166773 0.210367,0.114054 0.438982,0.236726 0.702067,0.359905 0.254468,0.122672 0.553036,0.236726 0.895199,0.35078 0.342163,0.114561 0.746168,0.175897 1.21151,0.175897 0.464834,0 0.86884,-0.0613358 1.22874,-0.193132 0.35078,-0.131796 0.640731,-0.351287 0.86884,-0.667091 0.237233,-0.315804 0.412623,-0.746168 0.526677,-1.28146 0.122672,-0.526677 0.184514,-1.21151 0.184514,-2.05399l0 -22.9001c0,-0.166773 0.0527184,-0.315804 0.166773,-0.4476 0.114054,-0.131796 0.289444,-0.237233 0.543912,-0.324928 0.24585,-0.0790776 0.597137,-0.149031 1.03561,-0.193132 0.448107,-0.0435941 1.00064,-0.0613358 1.65049,-0.0613358 0.649349,0 1.19377,0.0177418 1.62363,0.0613358 0.430365,0.044101 0.772527,0.114054 1.03561,0.193132 0.272209,0.0876951 0.456724,0.193132 0.570778,0.324928 0.114054,0.131796 0.166773,0.280827 0.166773,0.4476l0 23.1632zm47.5297 8.33002c0,0.166773 -0.0527184,0.324928 -0.166773,0.465341 -0.114054,0.131289 -0.298569,0.245343 -0.553036,0.333545 -0.254468,0.0785707 -0.605755,0.149031 -1.027,0.201749 -0.429858,0.0527184 -0.982894,0.0790776 -1.64998,0.0790776 -0.649856,0 -1.19377,-0.0263592 -1.63275,-0.0790776 -0.438982,-0.0527184 -0.789762,-0.123179 -1.04474,-0.201749 -0.254468,-0.088202 -0.438475,-0.202256 -0.55253,-0.333545 -0.114054,-0.140413 -0.166773,-0.298569 -0.166773,-0.465341l0 -31.4404c0,-0.166773 0.0527184,-0.324928 0.166773,-0.465341 0.114054,-0.131796 0.298062,-0.24585 0.570271,-0.333545 0.263592,-0.0876951 0.605755,-0.149031 1.03561,-0.201749 0.430365,-0.0527184 0.974277,-0.0790776 1.62413,-0.0790776 0.667091,0 1.22013,0.0263592 1.64998,0.0790776 0.42124,0.0527184 0.772527,0.114054 1.027,0.201749 0.254468,0.0876951 0.438982,0.201749 0.553036,0.333545 0.114054,0.140413 0.166773,0.298569 0.166773,0.465341l0 31.4404zm-1.79091 -41.3414c0.219491,-0.263592 0.438982,-0.465341 0.649856,-0.623497 0.219491,-0.149031 0.473959,-0.271703 0.772527,-0.359398 0.298062,-0.0790776 0.667091,-0.14092 1.09695,-0.166773 0.429858,-0.0263592 0.956535,-0.0354835 1.58865,-0.0354835 0.790269,0 1.40464,0.0527184 1.84312,0.158155 0.438982,0.0963125 0.737551,0.228109 0.904324,0.394881 0.158155,0.166773 0.193132,0.351287 0.114054,0.553036 -0.0876951,0.201749 -0.254468,0.42124 -0.491701,0.640731l-5.71386 5.14359c-0.166773,0.158155 -0.342163,0.289444 -0.526677,0.403499 -0.17539,0.114561 -0.394881,0.202256 -0.649349,0.281334 -0.263592,0.0785707 -0.570778,0.131289 -0.930683,0.166773 -0.359905,0.0349766 -0.807504,0.0522115 -1.33418,0.0522115 -0.588013,0 -1.05335,-0.0263592 -1.40413,-0.0785707 -0.351287,-0.0527184 -0.597137,-0.131796 -0.746168,-0.24585 -0.149031,-0.105437 -0.201749,-0.24585 -0.166773,-0.42124 0.0349766,-0.175897 0.158155,-0.377646 0.359905,-0.614372l4.63415 -5.24903zm70.2103 25.1294c0,3.05463 -0.394881,5.66165 -1.19326,7.83832 -0.798887,2.16804 -1.93994,3.93208 -3.43227,5.31037 -1.49183,1.36916 -3.30909,2.37841 -5.44166,3.01914 -2.13307,0.640731 -4.67876,0.965659 -7.62795,0.965659l-7.94325 0c-0.570778,0 -1.04474,-0.166773 -1.431,-0.500318 -0.385757,-0.333545 -0.578889,-0.877964 -0.578889,-1.63275l0 -29.0179c0,-0.754786 0.193132,-1.2987 0.578889,-1.63224 0.386264,-0.333545 0.860223,-0.500318 1.431,-0.500318l8.53177 0c2.96642,0 5.48576,0.35078 7.54836,1.04423 2.07123,0.69345 3.80941,1.72045 5.22267,3.08099 1.41275,1.36916 2.49247,3.05463 3.23002,5.0559 0.737044,2.00989 1.10557,4.32697 1.10557,6.96897zm-7.00395 0.237233c0,-1.58003 -0.184514,-3.03688 -0.553036,-4.39743 -0.368522,-1.35192 -0.957042,-2.51933 -1.77316,-3.51135 -0.816122,-0.991512 -1.86086,-1.77266 -3.1337,-2.32569 -1.28146,-0.553036 -2.94919,-0.833863 -5.02903,-0.833863l-3.41453 0 0 22.5929 3.51946 0c1.85224,0 3.41453,-0.237233 4.67876,-0.719809 1.26372,-0.473959 2.32569,-1.20239 3.1773,-2.16804 0.842481,-0.965659 1.47459,-2.16804 1.89584,-3.60766 0.42124,-1.43911 0.632114,-3.11596 0.632114,-5.02903zm64.3464 14.0697c0,0.509442 -0.0172349,0.947918 -0.0613358,1.2992 -0.0435941,0.351287 -0.114054,0.640731 -0.193132,0.86884 -0.0876951,0.237233 -0.193132,0.404006 -0.324421,0.500318 -0.131796,0.105437 -0.280827,0.158155 -0.4476,0.158155l-15.2463 0c-0.562161,0 -1.03612,-0.166773 -1.42238,-0.500318 -0.385757,-0.333545 -0.578889,-0.877964 -0.578889,-1.63275l0 -30.2289c0,-0.166773 0.0527184,-0.324928 0.166773,-0.465341 0.114054,-0.131796 0.298062,-0.24585 0.55253,-0.333545 0.254975,-0.0876951 0.605755,-0.149031 1.04474,-0.201749 0.438982,-0.0527184 0.982894,-0.0790776 1.63275,-0.0790776 0.667091,0 1.22013,0.0263592 1.64998,0.0790776 0.42124,0.0527184 0.772527,0.114054 1.027,0.201749 0.254468,0.0876951 0.438982,0.201749 0.553036,0.333545 0.114054,0.140413 0.166773,0.298569 0.166773,0.465341l0 26.7794 10.454 0c0.166773,0 0.324421,0.044101 0.4476,0.140413 0.131289,0.0968194 0.236726,0.24585 0.324421,0.465341 0.0876951,0.210874 0.149538,0.491701 0.193132,0.851605 0.044101,0.35078 0.0613358,0.781145 0.0613358,1.2987zm64.7681 0.307186c0.201749,0.614879 0.333545,1.10607 0.386264,1.46598 0.0527184,0.359905 -0.0177418,0.632114 -0.201749,0.816122 -0.193132,0.175897 -0.526677,0.289951 -1.00925,0.333545 -0.473959,0.044101 -1.14105,0.0618428 -1.97491,0.0618428 -0.877964,0 -1.5628,-0.00912434 -2.04537,-0.0354835 -0.491701,-0.0263592 -0.860223,-0.0785707 -1.12331,-0.157648 -0.254468,-0.0790776 -0.430365,-0.184514 -0.535802,-0.324928 -0.10493,-0.131796 -0.192625,-0.315804 -0.254468,-0.535295l-2.18528 -6.68865 -12.5515 0 -2.09809 6.50413c-0.0699533,0.24585 -0.157648,0.4476 -0.272209,0.605755 -0.10493,0.166773 -0.289444,0.289444 -0.535295,0.386264 -0.24585,0.0963125 -0.59663,0.158155 -1.05335,0.193132 -0.456217,0.0349766 -1.05335,0.0527184 -1.7904,0.0527184 -0.789762,0 -1.40464,-0.0263592 -1.85224,-0.0790776 -0.4476,-0.0527184 -0.754786,-0.17539 -0.921558,-0.368522 -0.17539,-0.202256 -0.236726,-0.483083 -0.184008,-0.842988 0.0527184,-0.359905 0.184008,-0.833863 0.385757,-1.43911l10.2522 -29.536c0.0963125,-0.289951 0.219491,-0.526677 0.359905,-0.702067 0.131796,-0.184514 0.351287,-0.31631 0.649349,-0.412623 0.307186,-0.0968194 0.719809,-0.158155 1.2551,-0.184514 0.526677,-0.0263592 1.22925,-0.0349766 2.10671,-0.0349766 1.00925,0 1.81676,0.00861743 2.41389,0.0349766 0.605755,0.0263592 1.07059,0.0876951 1.40413,0.184514 0.333545,0.0963125 0.570778,0.236726 0.719809,0.42124 0.140413,0.193132 0.272209,0.4476 0.368522,0.772527l10.2872 29.5091zm-15.2726 -24.436l-0.0263592 0 -4.63415 14.1579 9.33876 0 -4.67825 -14.1579zm61.0555 23.2336c0,1.58865 -0.272209,2.66836 -0.833863,3.21278 -0.553036,0.553036 -1.55367,0.824739 -2.99329,0.824739 -1.43911,0 -2.43975,-0.271703 -2.98417,-0.807504 -0.553036,-0.543912 -0.825246,-1.57091 -0.825246,-3.08048 0,-1.60639 0.281334,-2.69472 0.833863,-3.23914 0.562161,-0.553036 1.57141,-0.824739 3.02827,-0.824739 1.42188,0 2.40528,0.271703 2.95831,0.807504 0.543912,0.543912 0.816122,1.57952 0.816122,3.10684zm57.3338 -0.807504c0,0.4476 -0.00861743,0.816628 -0.0349766,1.12381 -0.0263592,0.298062 -0.0613358,0.55253 -0.105437,0.763403 -0.0435941,0.201749 -0.0963125,0.368522 -0.158155,0.500318 -0.0613358,0.131796 -0.193132,0.289444 -0.394881,0.491701 -0.210367,0.193132 -0.561654,0.438475 -1.05335,0.719809 -0.500318,0.280827 -1.06197,0.535295 -1.7027,0.763403 -0.632114,0.219491 -1.31644,0.404006 -2.06261,0.535295 -0.746168,0.140413 -1.5187,0.210874 -2.30846,0.210874 -1.76404,0 -3.32684,-0.272209 -4.68687,-0.825246 -1.36966,-0.543912 -2.51071,-1.36054 -3.44089,-2.43113 -0.921558,-1.0711 -1.62363,-2.38754 -2.08897,-3.93259 -0.473959,-1.54455 -0.711192,-3.30909 -0.711192,-5.30124 0,-2.29984 0.289951,-4.29199 0.860223,-5.95972 0.579396,-1.67685 1.37828,-3.06324 2.40528,-4.1607 1.027,-1.09695 2.24662,-1.91358 3.65126,-2.44887 1.40413,-0.535295 2.94919,-0.798887 4.63415,-0.798887 0.684832,0 1.35192,0.0618428 2.01901,0.184514 0.658473,0.114054 1.27285,0.280827 1.85224,0.482576 0.570271,0.210874 1.08833,0.438982 1.53593,0.69345 0.456217,0.263592 0.781145,0.483083 0.965659,0.676215 0.192625,0.184008 0.324421,0.342163 0.403499,0.473959 0.0704602,0.131289 0.131796,0.298062 0.17539,0.500318 0.044101,0.210367 0.0790776,0.464834 0.105437,0.763403 0.0263592,0.307186 0.0349766,0.667091 0.0349766,1.09695 0,1.00064 -0.0785707,1.70321 -0.254468,2.10671 -0.17539,0.404006 -0.394881,0.605755 -0.667091,0.605755 -0.289444,0 -0.605755,-0.122672 -0.930176,-0.359905 -0.324928,-0.237233 -0.711192,-0.508935 -1.15879,-0.798887 -0.438982,-0.289444 -0.974277,-0.561654 -1.58865,-0.79838 -0.614372,-0.237233 -1.35192,-0.359905 -2.21164,-0.359905 -1.68547,0 -2.96693,0.649349 -3.86213,1.93943 -0.886582,1.2992 -1.33418,3.19504 -1.33418,5.69663 0,1.22874 0.114054,2.31708 0.333545,3.2655 0.228109,0.938793 0.553036,1.72906 0.991512,2.36067 0.438982,0.632114 0.983401,1.11469 1.64137,1.431 0.667091,0.315804 1.431,0.473959 2.30846,0.473959 0.886582,0 1.65911,-0.131796 2.29984,-0.404006 0.640731,-0.263085 1.20239,-0.561654 1.68547,-0.886582 0.473959,-0.324421 0.877457,-0.62299 1.211,-0.886075 0.324928,-0.272209 0.597137,-0.404006 0.816628,-0.404006 0.157648,0 0.280827,0.044101 0.385757,0.131796 0.105437,0.0876951 0.184514,0.24585 0.24585,0.473959 0.0613358,0.236726 0.105437,0.535295 0.140413,0.895199 0.0354835,0.359905 0.0527184,0.825246 0.0527184,1.39552zm54.2969 1.86948c0,0.500318 -0.0263592,0.922065 -0.0790776,1.28146 -0.0527184,0.351287 -0.123179,0.632114 -0.201749,0.833863 -0.088202,0.210874 -0.202256,0.351287 -0.333545,0.430365 -0.140413,0.0790776 -0.298569,0.114054 -0.465341,0.114054l-15.0182 0c-0.456217,0 -0.816122,-0.158155 -1.06197,-0.465341 -0.254468,-0.307186 -0.377646,-0.816122 -0.377646,-1.51819l0 -1.19377c0,-0.307186 0.00912434,-0.588013 0.0354835,-0.833863 0.0263592,-0.24585 0.0785707,-0.491701 0.157648,-0.719809 0.0790776,-0.237233 0.184514,-0.473959 0.307186,-0.711192 0.131796,-0.245343 0.298569,-0.508935 0.509442,-0.79838l8.62808 -13.245 -8.18048 0c-0.324928,0 -0.588013,-0.210874 -0.790269,-0.623497 -0.201749,-0.412623 -0.298062,-1.07059 -0.298062,-1.98353 0,-0.500318 0.0172349,-0.912941 0.0613358,-1.2551 0.0435941,-0.333545 0.114054,-0.597137 0.193132,-0.798887 0.0876951,-0.193132 0.201749,-0.333545 0.342163,-0.42124 0.131796,-0.0876951 0.298569,-0.131796 0.482576,-0.131796l14.0616 0c0.24585,0 0.4476,0.0263592 0.62299,0.0790776 0.166773,0.0527184 0.31631,0.140413 0.42124,0.280827 0.114054,0.140413 0.202256,0.324928 0.263592,0.570778 0.0613358,0.236726 0.0876951,0.535295 0.0876951,0.903817l0 1.26423c0,0.342163 -0.0177418,0.649349 -0.0527184,0.912434 -0.0349766,0.263592 -0.0876951,0.51806 -0.158155,0.76391 -0.0613358,0.236726 -0.166773,0.482576 -0.289444,0.719809 -0.131796,0.236726 -0.280827,0.500318 -0.456217,0.772021l-8.57587 13.2191 9.0848 0c0.149031,0 0.298569,0.0349766 0.438982,0.10493 0.131289,0.0704602 0.24585,0.193132 0.342163,0.386264 0.0963125,0.184514 0.166773,0.4476 0.219491,0.790269 0.0527184,0.333545 0.0790776,0.754786 0.0790776,1.27234z"/>
  <path class="fil0" d="M183.575 21.9866l0 -12.3244c0,-5.32659 -4.33558,-9.66217 -9.66369,-9.66217l-147.559 0c-5.3276,0 -9.66217,4.33558 -9.66217,9.66217l0 12.3244 -16.6894 16.6884 0 19.7349c0,0.572299 0.032949,1.12584 0.0836398,1.66063l-0.0836398 0 0 158.055 20.0315 0 0 -10.0053 160.2 0 0 10.0053 20.032 0 0 -158.055 -0.082626 0c0.049677,-0.534788 0.082626,-1.08833 0.082626,-1.66063l0 -19.7349 -16.6884 -16.6884zm-5.00166 54.7724l1.6581 0 0 66.7608 -18.5437 0c1.15524,-1.96934 1.85528,-4.21849 1.85528,-6.66229 0,-6.88178 -5.247,-12.5003 -11.9448,-13.2196 1.20644,-1.98911 1.94196,-4.31632 1.94196,-6.81183 0,-7.3679 -6.00077,-13.3464 -13.3474,-13.3464 -7.36892,0 -13.3672,5.97847 -13.3672,13.3464 0,2.49551 0.732989,4.82272 1.93943,6.81183 -6.69625,0.719302 -11.9448,6.33787 -11.9448,13.2196 0,2.4438 0.701053,4.69295 1.8568,6.66229l-51.9221 0 0 -10.0053 13.3464 0c1.84464,0 3.34204,-1.49741 3.34204,-3.34204 0,-1.84058 -1.49741,-3.34103 -3.34204,-3.34103l-15.3035 0 23.3715 -23.3517 -6.1275 -6.12953c-13.9526,-13.9516 -36.6525,-13.9516 -50.6031,0l-6.11331 6.12953 23.3563 23.3517 -15.3035 0c-1.84008,0 -3.34356,1.50045 -3.34356,3.34103 0,1.84464 1.50349,3.34204 3.34356,3.34204l13.3449 0 0 10.0053 -26.6912 0 0 -66.7608 1.65962 0c6.21216,0 11.7035,-3.09619 15.0288,-7.82209 3.32481,4.7259 8.79891,7.82209 15.007,7.82209l3.34052 0c6.21266,0 11.704,-3.09619 15.0293,-7.82209 3.3243,4.7259 8.79891,7.82209 15.0065,7.82209 6.21266,0 11.704,-3.09619 15.0283,-7.82209 3.3243,4.7259 8.81563,7.82209 15.0278,7.82209 6.20759,0 11.6822,-3.09619 15.0065,-7.82209 3.32684,4.7259 8.81665,7.82209 15.0293,7.82209l3.34103 0c6.20759,0 11.6822,-3.09619 15.0065,-7.82209 3.32684,4.7259 8.81665,7.82209 15.0303,7.82209zm-155.2 73.4438l6.66178 0 0 51.2337 -6.66178 0 0 -51.2337zm13.3474 0l6.66178 0 0 51.2337 -6.66178 0 0 -51.2337zm16.6884 -16.6884l1.95616 0 1.38487 1.38487 1.36966 -1.38487 1.95109 0 0 10.0053 -6.66178 0 0 -10.0053zm3.34103 -33.3768c-1.84261,0 -3.34103,1.49741 -3.34103,3.34204l0 18.6446 -18.6456 -18.6446 1.4016 -1.40261c11.3451,-11.3426 29.8062,-11.3426 41.168,0l1.38487 1.40261 -18.6471 18.6446 0 -18.6446c0,-1.84464 -1.48068,-3.34204 -3.32075,-3.34204zm-6.68307 50.0653l6.68307 0 0 51.2337 -6.68307 0 0 -51.2337zm13.3449 0l6.68561 0 0 51.2337 -6.68561 0 0 -51.2337zm13.3489 0l6.68307 0 0 51.2337 -6.68307 0 0 -51.2337zm13.3672 0l6.66229 0 0 51.2337 -6.66229 0 0 -51.2337zm13.3474 0l6.66229 0 0 51.2337 -6.66229 0 0 -51.2337zm13.3454 0l6.68409 0 0 51.2337 -6.68409 0 0 -51.2337zm33.3779 -6.68307c-3.68421,0 -6.68459,-2.9791 -6.68459,-6.66229 0,-3.68471 3.00039,-6.6851 6.68459,-6.6851 3.68269,0 6.68307,3.00039 6.68307,6.6851 0,3.68319 -3.00039,6.66229 -6.68307,6.66229zm-10.0053 -20.0107c-3.6837,0 -6.68409,-3.00039 -6.68409,-6.68307 0,-3.68269 3.00039,-6.68459 6.68409,-6.68459 3.66393,0 6.66178,3.00191 6.66178,6.68459 0,3.68269 -2.99785,6.68307 -6.66178,6.68307zm-3.34103 13.3484c0,3.68319 -3.00039,6.66229 -6.68561,6.66229 -3.68269,0 -6.66178,-2.9791 -6.66178,-6.66229 0,-3.68471 2.9791,-6.6851 6.66178,-6.6851 3.68522,0 6.68561,3.00039 6.68561,6.6851zm-6.68561 13.3454l6.68561 0 0 51.2337 -6.68561 0 0 -51.2337zm13.3474 0l6.68459 0 0 51.2337 -6.68459 0 0 -51.2337zm13.3677 0l6.66178 0 0 51.2337 -6.66178 0 0 -51.2337zm13.3474 0l6.66178 0 0 51.2337 -6.66178 0 0 -51.2337zm-120.162 -143.518l20.0305 0 0 16.3452 -3.27564 16.3594 -0.049677 10.676 -26.7105 0 0 -9.09443 10.0053 -16.6899 0 -17.5963zm76.759 33.7018l0 9.6789 -23.3507 0 0 -43.3807 20.0294 0 0 16.6884 3.32126 17.0133zm33.3763 18.0236c0,6.43722 -5.22825,11.6873 -11.6655,11.6873l-3.34103 0c-6.43824,0 -11.6868,-5.25004 -11.6868,-11.6873l0 -1.66012 26.6933 0 0 1.66012zm-33.3763 0c0,6.43722 -5.22875,11.6873 -11.666,11.6873 -6.45344,0 -11.6847,-5.25004 -11.6847,-11.6873l0 -1.66012 23.3507 0 0 1.66012zm-30.0358 0c0,6.43722 -5.2323,11.6873 -11.6863,11.6873 -6.43672,0 -11.6655,-5.25004 -11.6655,-11.6873l0 -1.66012 23.3517 0 0 1.66012zm0 -8.34472l-23.3517 0 0 -9.6789 3.2584 -16.364 0.0638704 -17.3378 20.0294 0 0 43.3807zm-56.7286 6.68459l26.6938 0 0 1.66012c0,6.43722 -5.24751,11.6873 -11.6873,11.6873l-3.34052 0c-6.43722,0 -11.666,-5.25004 -11.666,-11.6873l0 -1.66012zm120.141 -6.68459l-26.6933 0 0 -10.0038 -3.34255 -17.0316 0 -16.3452 20.032 0 0 17.5963 10.0038 16.6899 0 9.09443zm-153.518 -8.63568l16.6884 -16.6884 0 -15.079c0,-1.6439 1.3352,-2.97758 2.9791,-2.97758l17.0301 0 0 15.7577 -10.0038 16.6879 0 10.935 -26.6938 0 0 -8.63568zm26.6938 15.3203l0 1.66012c0,6.43722 -5.24852,11.6873 -11.6868,11.6873l-3.29034 0 -1.33621 -0.147003c-2.21519,-0.24585 -4.23978,-1.09391 -5.88267,-2.3997 -0.049677,-0.0278799 -0.100368,-0.0790776 -0.146496,-0.111013 -1.20898,-0.976811 -2.23546,-2.19947 -2.96642,-3.61881 -0.262578,-0.487138 -0.47548,-0.992019 -0.671653,-1.51363l-0.0790776 -0.246357c-0.391333,-1.15524 -0.634142,-2.36168 -0.634142,-3.65075l0 -1.66012 26.6938 0zm-26.6938 15.8084c1.91966,1.5927 4.18554,2.79914 6.66178,3.50071l0 67.4608 -6.66178 0 0 -70.9615zm0 77.6446l10.0053 0 0 51.2337 -10.0053 0 0 -51.2337zm6.66178 61.2385l-6.66178 0 0 -3.32075 6.66178 0 0 3.32075zm180.233 0l-6.66178 0 0 -3.32075 6.66178 0 0 3.32075zm0 -10.0048l-10.0038 0 0 -51.2337 10.0038 0 0 51.2337zm-6.66178 -57.9168l0 -67.4608c2.47777,-0.70156 4.74263,-1.908 6.66178,-3.50071l0 70.9615 -6.66178 0zm6.66178 -85.1098c0,1.28907 -0.242302,2.49551 -0.633635,3.65075l-0.0795845 0.246357c-0.194653,0.521608 -0.409075,1.02649 -0.671653,1.51363 -0.746168,1.41934 -1.75593,2.642 -2.96592,3.61881 -0.0461286,0.0319352 -0.0958056,0.0664049 -0.146496,0.111013 -1.66063,1.30579 -3.67964,2.13712 -5.88165,2.3997l-1.33621 0.147003 -3.29034 0c-6.43925,0 -11.6868,-5.25004 -11.6868,-11.6873l0 -1.66012 26.6922 0 0 1.66012zm-26.6922 -8.34472l0 -10.935 -10.0053 -16.6879 0 -15.7577 17.0301 0c1.64542,0 2.9791,1.33367 2.9791,2.97758l0 15.079 16.6884 16.6884 0 8.63568 -26.6922 0z"/>
  <path class="fil1" d="M237.918 144.854l422.365 0c1.59828,0 2.90407,1.30732 2.90407,2.90458l0 0c0,1.59727 -1.30579,2.90458 -2.90407,2.90458l-422.365 0c-1.59676,0 -2.90407,-1.30732 -2.90407,-2.90458l0 0c0,-1.59727 1.30732,-2.90458 2.90407,-2.90458z"/>
  <g id="_171665272">
   <path id="_171665392" class="fil2" d="M654.372 116.385c0,0.561147 -0.176404,1.12381 -0.572806,1.59727 -0.380688,0.45571 -1.02243,0.861236 -1.89786,1.14561 -0.866812,0.281334 -2.05298,0.513498 -3.52605,0.692943 -1.44367,0.175897 -3.31467,0.270689 -5.51414,0.270689 -2.29021,0 -4.19213,-0.0922572 -5.69562,-0.270689 -1.50349,-0.176911 -2.65975,-0.407047 -3.52504,-0.692943 -0.84755,-0.28032 -1.45685,-0.689902 -1.83805,-1.14561 -0.396402,-0.473452 -0.572806,-1.02446 -0.572806,-1.59727l0 -46.194 -81.8849 0 0 46.194c0,0.571285 -0.184008,1.11368 -0.542391,1.59727 -0.333038,0.448613 -0.96059,0.858702 -1.83805,1.14561 -0.86884,0.283361 -2.04994,0.51147 -3.52554,0.692943 -1.44519,0.178432 -3.34458,0.270689 -5.60488,0.270689 -2.22938,0 -4.09886,-0.0907365 -5.60488,-0.270689 -1.50552,-0.179445 -2.68661,-0.409582 -3.55545,-0.692943 -0.877457,-0.28691 -1.51413,-0.688381 -1.89837,-1.14561 -0.397923,-0.47548 -0.572806,-1.02446 -0.572806,-1.59727l0 -107.938c0,-0.571792 0.173869,-1.12077 0.572806,-1.59676 0.383222,-0.456724 1.02395,-0.843495 1.89837,-1.1451 0.873909,-0.301103 2.04994,-0.513498 3.55545,-0.692943 1.50602,-0.179952 3.3755,-0.270689 5.60488,-0.270689 2.2603,0 4.15969,0.0922572 5.60488,0.270689 1.47561,0.181473 2.65772,0.408568 3.52554,0.692943 0.878471,0.28691 1.50501,0.695984 1.83805,1.1451 0.358384,0.48359 0.542391,1.02649 0.542391,1.59676l0 42.0363 81.8849 0 0 -42.0363c0,-0.571792 0.176404,-1.12331 0.572806,-1.59676 0.381195,-0.455203 0.991005,-0.864278 1.83805,-1.1451 0.865292,-0.285896 2.02155,-0.516032 3.52504,-0.692943 1.50349,-0.178432 3.40541,-0.270689 5.69562,-0.270689 2.19947,0 4.07047,0.0947918 5.51414,0.270689 1.47307,0.179445 2.65163,0.39184 3.52605,0.692943 0.873909,0.30161 1.51718,0.689902 1.89786,1.1451 0.396402,0.473452 0.572806,1.03105 0.572806,1.59676l0 107.938z"/>
   <path id="_171665344" class="fil2" d="M476.28 38.9726c0,-3.76633 -0.843495,-6.96136 -2.5609,-9.52226 -1.7174,-2.59131 -4.5206,-4.42936 -8.40757,-5.48424 -1.17552,-0.301103 -2.5026,-0.513498 -4.00812,-0.69345 -1.5045,-0.178938 -3.5884,-0.270689 -6.23699,-0.270689l-44.3696 0 0 32.3635 45.7859 0c3.31467,0 6.17262,-0.411609 8.64785,-1.20543 2.49399,-0.799901 4.55,-1.89888 6.20759,-3.34508 1.65708,-1.4163 2.89242,-3.16412 3.70651,-5.15221 0.813587,-1.98911 1.23533,-4.2195 1.23533,-6.69017zm30.013 77.5934c0,0.633128 -0.120644,1.17501 -0.361932,1.62768 -0.240781,0.452162 -0.783173,0.813587 -1.65708,1.11469 -0.903817,0.271703 -2.16957,0.482069 -3.88748,0.602713 -1.7174,0.120644 -4.03752,0.180459 -6.96086,0.180459 -2.47016,0 -4.42936,-0.0598151 -5.90598,-0.180459 -1.47662,-0.120644 -2.65113,-0.331011 -3.49513,-0.663035 -0.843495,-0.331518 -1.44621,-0.722851 -1.80763,-1.23533 -0.332025,-0.512484 -0.633128,-1.1152 -0.873909,-1.80814l-10.3064 -25.5831c-1.23533,-2.89292 -2.44025,-5.48424 -3.61577,-7.71463 -1.17501,-2.2598 -2.50058,-4.12724 -3.94729,-5.63428 -1.44621,-1.50754 -3.13218,-2.63187 -5.03207,-3.40541 -1.8639,-0.759855 -4.07148,-1.1451 -6.53911,-1.1451l-41.2055 0 0 43.663c0,0.569764 -0.189584,1.11114 -0.572299,1.56736 -0.396909,0.47548 -1.02243,0.889623 -1.89888,1.17552 -0.867319,0.282348 -2.05044,0.512484 -3.52504,0.692943 -1.44519,0.177418 -3.34508,0.270689 -5.60488,0.270689 -2.22989,0 -4.10038,-0.0912434 -5.60488,-0.270689 -1.50552,-0.178938 -2.68813,-0.410595 -3.55545,-0.692943 -0.876951,-0.285896 -1.50653,-0.697505 -1.83906,-1.14561 -0.35737,-0.483083 -0.542391,-1.02446 -0.542391,-1.59727l0 -103.779c0,-2.59182 0.663542,-4.46028 1.98911,-5.60488 1.32556,-1.1451 2.95324,-1.71791 4.88203,-1.71791l63.5343 0c2.98265,0 5.48576,0.0618428 7.41251,0.180966 1.92676,0.118616 3.70651,0.270689 5.30327,0.421747 4.58093,0.662529 8.70918,1.77773 12.3853,3.37499 3.6761,1.56685 6.8098,3.64619 9.37171,6.20709 2.5609,2.56191 4.51959,5.57548 5.87557,9.07061 1.35598,3.49513 2.01851,7.50325 2.01851,12.0533 0,3.79674 -0.481562,7.29288 -1.4457,10.4266 -0.994553,3.16361 -2.41085,5.9663 -4.30922,8.43748 -1.86846,2.47016 -4.18858,4.61033 -6.96086,6.41745 -2.77228,1.83805 -5.9369,3.28527 -9.46194,4.42987 1.71791,0.813587 3.31467,1.80814 4.8212,2.98366 1.50704,1.17501 2.92334,2.62122 4.2489,4.30922 1.32607,1.68699 2.59131,3.58485 3.76683,5.75492 1.17501,2.13915 2.31961,4.58042 3.43481,7.29288l9.67281 22.5696c0.874416,2.22989 1.47662,3.85655 1.74833,4.91143 0.301103,1.02446 0.451655,1.83805 0.451655,2.44076z"/>
   <path id="_171665296" class="fil2" d="M368.493 14.8058l0 0.0805983 0 0.0795845 0 0.0795845 -0.00101382 0.0790776 0 0.0790776 -0.000506908 0.0780638 -0.00101382 0.0780638 0 0.07705 -0.00101382 0.07705 -0.000506908 0.0775569 -0.00101382 0.0760362 -0.00152072 0.0755293 -0.00101382 0.0765431 -0.00101382 0.0745154 -0.00152072 0.0755293 -0.00152072 0.0740085 -0.00101382 0.0745154 -0.00101382 0 -0.000506908 0.0740085 -0.00202763 0.0729947 -0.000506908 0 -0.00101382 0.0729947 -0.00101382 0 -0.00152072 0.0729947 -0.00152072 0.0719809 -0.00253454 0.0724878 -0.00202763 0.0709671 -0.000506908 0 -0.00202763 0.071474 -0.00253454 0.0709671 -0.00253454 0.0704602 -0.00253454 0.0704602 -0.00253454 0.0699533 -0.00101382 0 -0.00253454 0.0694464 -0.00253454 0.0684326 -0.000506908 0 -0.00253454 0.0689395 -0.00354835 0.0679256 -0.00354835 0.0689395 -0.00304145 0.0669118 -0.00354835 0.0679256 -0.00354835 0.065898 -0.000506908 0 -0.00354835 0.0674187 -0.00354835 0.065898 -0.00101382 0 -0.00304145 0.0664049 -0.00101382 0 -0.00354835 0.0653911 -0.00405526 0.0648842 -0.00405526 0.0648842 -0.00101382 0 -0.00354835 0.0643773 -0.000506908 0 -0.00456217 0.0643773 -0.00405526 0.0638704 -0.00101382 0 -0.00405526 0.0633635 -0.00101382 0 -0.00405526 0.0638704 -0.00101382 0 -0.00405526 0.0628566 -0.00101382 0 -0.00405526 0.0618428 -0.00101382 0 -0.00405526 0.0628566 -0.00101382 0 -0.00506908 0.0618428 -0.00101382 0 -0.00405526 0.0613358 -0.00101382 0 -0.00506908 0.0608289 -0.00101382 0 -0.00506908 0.0613358 -0.000506908 0 -0.00506908 0.0598151 -0.00101382 0 -0.00506908 0.060322 -0.00101382 0 -0.00557599 0.060322 -0.00608289 0.0593082 -0.00101382 0 -0.00557599 0.0598151 -0.00101382 0 -0.00608289 0.0593082 -0.00101382 0 -0.00557599 0.0582944 -0.00101382 0 -0.00608289 0.0588013 -0.000506908 0 -0.00608289 0.0577875 -0.00101382 0 -0.00557599 0.0557599 -0.00101382 0 -0.00709671 0.0562668 -0.000506908 0 -0.00608289 0.0557599 -0.00101382 0 -0.0065898 0.055253 -0.00101382 0 -0.0065898 0.055253 -0.00101382 0c-0.146496,1.07566 -0.351794,1.94501 -0.625017,2.61412l-0.00101382 0 -0.0136865 0.0349766 0 0.00101382 -0.0141934 0.0339628 0 0.000506908 -0.0136865 0.0339628 -0.00101382 0c-0.285896,0.701053 -0.642252,1.20695 -1.01229,1.52224 -0.391333,0.333038 -0.862757,0.514511 -1.38639,0.538843l-0.0136865 0.00101382 -0.0101382 0 -0.0435941 0.00152072 -0.00506908 0 -0.0212901 0.00101382 -0.00253454 0 -0.0233178 0 -0.00101382 0 -47.2347 0 0 92.1178 0 0.027373 -0.00101382 0.0263592 0 0.0268661 -0.00152072 0.0263592 -0.00101382 0.027373 -0.00152072 0.0263592 -0.00152072 0.0263592 -0.00202763 0.0258523 -0.00253454 0.027373 -0.00253454 0.0263592 -0.00253454 0.0263592 -0.00304145 0.0263592 -0.00354835 0.0263592 -0.00354835 0.0253454 -0.00405526 0.0263592 -0.00354835 0.0263592 -0.00101382 0 -0.00405526 0.0258523 -0.00405526 0.0258523 -0.00506908 0.0263592 -0.00506908 0.0253454 -0.00101382 0 -0.00506908 0.0263592 -0.00608289 0.0253454 -0.00608289 0.0253454 -0.0065898 0.0253454 -0.0065898 0.0258523 -0.00709671 0.0253454 -0.0065898 0.0253454 -0.00760362 0.0253454 -0.00760362 0.0253454 -0.00101382 0 -0.00760362 0.0258523 -0.00861743 0.0253454 -0.00861743 0.0243316 -0.00912434 0.0258523 -0.00912434 0.0243316 -0.00963125 0.0248385 -0.00912434 0.0253454 -0.00101382 0 -0.00912434 0.0248385 -0.00101382 0 -0.0101382 0.0243316 -0.0101382 0.0248385 -0.011152 0.0243316 -0.011152 0.0248385 -0.000506908 0 -0.011152 0.0243316 -0.0121658 0.0238247 -0.0116589 0.0248385 -0.00101382 0 -0.0116589 0.0238247 -0.0126727 0.0243316 -0.0126727 0.0238247 -0.00101382 0 -0.0126727 0.0238247 -0.00101382 0 -0.0126727 0.0238247 -0.00101382 0 -0.0131796 0.0238247 -0.0136865 0.0233178 -0.00101382 0 -0.0141934 0.0238247 -0.0147003 0.0238247 -0.000506908 0 -0.0147003 0.0238247 -0.00101382 0 -0.0141934 0.0228109 -0.00101382 0 -0.0152072 0.0238247 -0.016221 0.0228109 -0.0157141 0.0233178 -0.00101382 0 -0.0152072 0.0233178 -0.00101382 0 -0.016221 0.0233178 -0.000506908 0 -0.0172349 0.0228109 -0.000506908 0 -0.0172349 0.0228109 -0.0177418 0.0223039 -0.00101382 0 -0.016728 0.0228109 -0.00101382 0 -0.0177418 0.0212901 -0.00101382 0 -0.0177418 0.0207832 -0.00101382 0 -0.0182487 0.0207832 -0.00101382 0 -0.0187556 0.0207832 -0.00101382 0 -0.0182487 0.0212901 -0.00101382 0 -0.0197694 0.0207832 -0.000506908 0 -0.0202763 0.0202763 -0.00101382 0 -0.0202763 0.0202763 -0.00101382 0 -0.0202763 0.0212901 -0.00101382 0 -0.0202763 0.0202763 -0.00101382 0 -0.0212901 0.0192625 -0.000506908 0 -0.0223039 0.0207832 -0.000506908 0 -0.0223039 0.0202763 -0.00101382 0 -0.021797 0.0192625 -0.00101382 0 -0.0228109 0.0202763 -0.00101382 0 -0.0228109 0.0197694 -0.00101382 0 -0.0228109 0.0192625 -0.000506908 0 -0.0238247 0.0197694 -0.00101382 0 -0.0248385 0.0192625 -0.0243316 0.0197694 -0.00101382 0 -0.0253454 0.0187556 -0.0253454 0.0192625 -0.00101382 0 -0.0253454 0.0187556 -0.00101382 0 -0.0263592 0.0197694 -0.0263592 0.0182487 -0.000506908 0 -0.027373 0.0187556 -0.0268661 0.0187556 -0.00101382 0 -0.027373 0.0187556 -0.000506908 0 -0.0283868 0.0177418 -0.000506908 0 -0.0278799 0.0187556 -0.0288937 0.0177418 -0.00101382 0 -0.0288937 0.0187556 -0.00101382 0 -0.0288937 0.0177418 -0.000506908 0 -0.0299076 0.0177418 -0.0304145 0.0177418 -0.0304145 0.0182487 -0.00101382 0 -0.0304145 0.016728 -0.0314283 0.0177418 -0.00101382 0 -0.0314283 0.0172349 -0.0319352 0.016728 -0.0334559 0.0172349 -0.0319352 0.016728 -0.00101382 0 -0.032949 0.0172349 -0.0339628 0.016728 -0.0339628 0.016221 -0.0339628 0.016728 -0.00101382 0 -0.0339628 0.016221 -0.00101382 0 -0.0344697 0.016221 -0.0354835 0.016221 -0.0359905 0.016221 -0.0354835 0.0157141 -0.00101382 0 -0.0364974 0.0152072 -0.0364974 0.016221 -0.0370043 0.0152072 -0.0375112 0.0157141 -0.0380181 0.0152072 -0.038525 0.0152072 -0.0390319 0.0141934 -0.0390319 0.0152072 -0.0390319 0.0147003 -0.0395388 0.0141934 -0.0400457 0.0147003 -0.0405526 0.0141934 -0.0410595 0.0147003 -0.0415664 0.0126727 -0.0415664 0.0126727 -0.0415664 0.0126727 -0.0430872 0.0116589 -0.0425803 0.0131796 -0.00101382 0 -0.0430872 0.0126727 -0.044101 0.0116589 -0.044101 0.0126727 -0.0451148 0.0121658 -0.000506908 0 -0.0451148 0.0126727 -0.0461286 0.0116589 -0.0466355 0.0126727 -0.0466355 0.0121658 -0.000506908 0 -0.0471424 0.0116589 -0.000506908 0 -0.0476493 0.0121658 -0.0481562 0.0116589 -0.0486631 0.0121658 -0.000506908 0 -0.0486631 0.0116589 -0.00101382 0 -0.0491701 0.0116589 -0.000506908 0 -0.0491701 0.0121658 -0.00101382 0 -0.0501839 0.0116589 -0.00101382 0 -0.0506908 0.011152 -0.0517046 0.0116589 -0.0517046 0.0121658 -0.0527184 0.011152 -0.00101382 0 -0.0522115 0.0106451 -0.0537322 0.0121658 -0.0532253 0.011152 -0.00101382 0 -0.0542391 0.0106451 -0.055253 0.011152 -0.055253 0.011152 -0.0557599 0.011152 -0.0562668 0.0106451 -0.000506908 0 -0.0562668 0.011152 -0.00101382 0 -0.0567737 0.011152 -0.0577875 0.0101382 -0.0572806 0.011152 -0.00101382 0 -0.0588013 0.0101382 -0.0582944 0.011152 -0.00101382 0 -0.0582944 0.0101382 -0.00101382 0 -0.0593082 0.0101382 -0.00101382 0 -0.060322 0.0101382 -0.060322 0.0101382 -0.000506908 0 -0.0613358 0.0101382 -0.0618428 0.0101382 -0.0618428 0.0101382 -0.00101382 0 -0.0618428 0.0101382 -0.00101382 0 -0.0628566 0.00963125 -0.0633635 0.0101382 -0.0638704 0.00912434 -0.000506908 0 -0.0638704 0.0101382 -0.00101382 0 -0.0643773 0.00963125 -0.00101382 0 -0.0643773 0.00912434 -0.000506908 0 -0.0653911 0.00963125 -0.00101382 0 -0.0653911 0.00912434 -0.00101382 0 -0.065898 0.00912434 -0.00101382 0 -0.065898 0.00963125 -0.00101382 0 -0.0669118 0.00861743 -0.00101382 0 -0.0669118 0.00912434 -0.00101382 0 -0.0679256 0.00861743 -0.00101382 0 -0.0684326 0.00912434 -0.00101382 0 -0.0684326 0.00861743 -0.00101382 0 -0.0689395 0.00861743 -0.000506908 0 -0.0699533 0.00811052 -0.000506908 0 -0.0704602 0.00861743 -0.00101382 0 -0.0704602 0.00861743 -0.000506908 0 -0.071474 0.00760362 -0.0719809 0.00861743 -0.00101382 0 -0.0719809 0.00760362 -0.00101382 0 -0.0729947 0.00760362 -0.0740085 0.00760362 -0.000506908 0 -0.0740085 0.00760362 -0.00101382 0 -0.0735016 0.00760362 -0.00101382 0 -0.0755293 0.0065898 -0.0755293 0.00709671 -0.00101382 0 -0.0760362 0.00760362 -0.0775569 0.0065898 -0.0780638 0.00608289 -0.0780638 0.0065898 -0.0785707 0.00709671 -0.0790776 0.00557599 -0.00101382 0 -0.0785707 0.00608289 -0.00101382 0 -0.0795845 0.00608289 -0.00101382 0 -0.0805983 0.00608289 -0.0816122 0.00557599 -0.0816122 0.00608289 -0.000506908 0 -0.082626 0.00506908 -0.0821191 0.00608289 -0.00101382 0 -0.0831329 0.00506908 -0.0836398 0.00506908 -0.00101382 0 -0.0841467 0.00506908 -0.0846536 0.00405526 -0.00101382 0 -0.0846536 0.00506908 -0.00101382 0 -0.0856674 0.00456217 -0.0866812 0.00405526 -0.000506908 0 -0.0866812 0.00405526 -0.00101382 0 -0.0871881 0.00456217 -0.088202 0.00405526 -0.0887089 0.00456217 -0.000506908 0 -0.0892158 0.00304145 -0.0897227 0.00354835 -0.0902296 0.00354835 -0.00101382 0 -0.0907365 0.00304145 -0.0912434 0.00354835 -0.0917503 0.00354835 -0.00101382 0 -0.0917503 0.00253454 -0.000506908 0 -0.0927641 0.00354835 -0.00101382 0 -0.0922572 0.00253454 -0.00101382 0 -0.093271 0.00253454 -0.00101382 0 -0.0937779 0.00253454 -0.00101382 0 -0.0942849 0.00253454 -0.00101382 0 -0.0947918 0.00152072 -0.00101382 0 -0.0958056 0.00253454 -0.0968194 0.00152072 -0.000506908 0 -0.0963125 0.00202763 -0.000506908 0 -0.0978332 0.00152072 -0.000506908 0 -0.0978332 0.00152072 -0.00101382 0 -0.0973263 0.00101382 -0.00101382 0 -0.0993539 0.00152072 -0.000506908 0 -0.0993539 0.00101382 -0.100368 0.00101382 -0.000506908 0 -0.100368 0.000506908 -0.00101382 0 -0.100875 0.00101382 -0.000506908 0 -0.101382 0.00101382 -0.000506908 0 -0.101888 0 -0.00101382 0 -0.102395 0.000506908 -0.00101382 0 -0.102902 0 -0.000506908 0 -0.103916 0 -0.000506908 0 -0.103916 0 -0.000506908 0 -0.102902 0 -0.000506908 0 -0.102902 -0.000506908 -0.00101382 0 -0.101888 0 -0.000506908 0 -0.100875 -0.00101382 -0.00101382 0 -0.100875 -0.00101382 -0.00101382 0 -0.100368 -0.000506908 -0.000506908 0 -0.100368 -0.00101382 -0.0993539 -0.00101382 -0.000506908 0 -0.0993539 -0.00152072 -0.00101382 0 -0.0973263 -0.00101382 -0.00101382 0 -0.0973263 -0.00152072 -0.00101382 0 -0.0978332 -0.00152072 -0.000506908 0 -0.0963125 -0.00202763 -0.000506908 0 -0.0968194 -0.00152072 -0.0958056 -0.00253454 -0.00101382 0 -0.0947918 -0.00152072 -0.00101382 0 -0.0942849 -0.00253454 -0.00101382 0 -0.0937779 -0.00253454 -0.00101382 0 -0.093271 -0.00253454 -0.00101382 0 -0.0922572 -0.00253454 -0.00101382 0 -0.0922572 -0.00354835 -0.00101382 0 -0.0917503 -0.00253454 -0.00101382 0 -0.0912434 -0.00354835 -0.0917503 -0.00354835 -0.0907365 -0.00304145 -0.00101382 0 -0.0897227 -0.00354835 -0.0902296 -0.00354835 -0.0892158 -0.00304145 -0.000506908 0 -0.088202 -0.00456217 -0.0887089 -0.00405526 -0.0871881 -0.00456217 -0.00101382 0 -0.0861743 -0.00405526 -0.00101382 0 -0.0866812 -0.00405526 -0.0856674 -0.00456217 -0.00101382 0 -0.0846536 -0.00506908 -0.00101382 0 -0.0846536 -0.00405526 -0.0841467 -0.00506908 -0.000506908 0 -0.0841467 -0.00506908 -0.0831329 -0.00506908 -0.00101382 0 -0.0821191 -0.00608289 -0.082626 -0.00506908 -0.000506908 0 -0.0816122 -0.00608289 -0.0816122 -0.00557599 -0.0805983 -0.00608289 -0.000506908 0 -0.0800914 -0.00608289 -0.00101382 0 -0.0785707 -0.00608289 -0.00101382 0 -0.0790776 -0.00557599 -0.0785707 -0.00709671 -0.0780638 -0.0065898 -0.0780638 -0.00608289 -0.0775569 -0.0065898 -0.0760362 -0.00760362 -0.00101382 0 -0.0755293 -0.00709671 -0.0755293 -0.0065898 -0.00101382 0 -0.0735016 -0.00760362 -0.00101382 0 -0.0740085 -0.00760362 -0.000506908 0 -0.0740085 -0.00760362 -0.0729947 -0.00760362 -0.000506908 0 -0.0724878 -0.00760362 -0.000506908 0 -0.0724878 -0.00861743 -0.0709671 -0.00760362 -0.00101382 0 -0.0704602 -0.00861743 -0.00101382 0 -0.0704602 -0.00861743 -0.000506908 0 -0.0699533 -0.00811052 -0.000506908 0 -0.0689395 -0.00861743 -0.00101382 0 -0.0684326 -0.00861743 -0.00101382 0 -0.0684326 -0.00912434 -0.00101382 0 -0.0679256 -0.00861743 -0.00101382 0 -0.0669118 -0.00912434 -0.00101382 0 -0.0669118 -0.00861743 -0.000506908 0 -0.0664049 -0.00963125 -0.00101382 0 -0.065898 -0.00912434 -0.00101382 0 -0.0653911 -0.00912434 -0.00101382 0 -0.0648842 -0.00963125 -0.00101382 0 -0.0643773 -0.00912434 -0.00101382 0 -0.0643773 -0.00963125 -0.00101382 0 -0.0633635 -0.0101382 -0.00101382 0 -0.0638704 -0.00912434 -0.0633635 -0.0101382 -0.0628566 -0.00963125 -0.00101382 0 -0.0618428 -0.0101382 -0.00101382 0 -0.0618428 -0.0101382 -0.0618428 -0.0101382 -0.0613358 -0.0101382 -0.000506908 0 -0.060322 -0.0101382 -0.060322 -0.0101382 -0.00101382 0 -0.0593082 -0.0101382 -0.00101382 0 -0.0582944 -0.0101382 -0.00101382 0 -0.0582944 -0.011152 -0.0588013 -0.0101382 -0.000506908 0 -0.0577875 -0.011152 -0.0577875 -0.0101382 -0.0567737 -0.011152 -0.00101382 0 -0.0557599 -0.011152 -0.00101382 0 -0.0562668 -0.0106451 -0.0557599 -0.011152 -0.055253 -0.011152 -0.055253 -0.011152 -0.0542391 -0.0106451 -0.00101382 0 -0.0532253 -0.011152 -0.0532253 -0.0121658 -0.0527184 -0.0106451 -0.00101382 0 -0.0527184 -0.011152 -0.0517046 -0.0121658 -0.0517046 -0.0116589 -0.0506908 -0.011152 -0.00101382 0 -0.0501839 -0.0116589 -0.000506908 0 -0.049677 -0.0121658 -0.000506908 0 -0.0491701 -0.0116589 -0.00101382 0 -0.0481562 -0.0116589 -0.00101382 0 -0.0486631 -0.0121658 -0.0481562 -0.0116589 -0.0476493 -0.0121658 -0.000506908 0 -0.0466355 -0.0116589 -0.00101382 0 -0.0466355 -0.0121658 -0.0466355 -0.0126727 -0.0461286 -0.0116589 -0.0446079 -0.0126727 -0.00101382 0 -0.0451148 -0.0121658 -0.044101 -0.0126727 -0.044101 -0.0116589 -0.0430872 -0.0126727 -0.00101382 0 -0.0425803 -0.0131796 -0.0430872 -0.0116589 -0.0415664 -0.0126727 -0.0415664 -0.0126727 -0.0415664 -0.0126727 -0.0405526 -0.0147003 -0.0410595 -0.0141934 -0.0395388 -0.0147003 -0.0400457 -0.0141934 -0.0390319 -0.0147003 -0.0390319 -0.0152072 -0.0390319 -0.0141934 -0.038525 -0.0152072 -0.0380181 -0.0152072 -0.0370043 -0.0157141 -0.0375112 -0.0152072 -0.0364974 -0.016221 -0.0364974 -0.0152072 -0.00101382 0 -0.0354835 -0.0157141 -0.0354835 -0.016221 -0.0359905 -0.016221 -0.0344697 -0.016221 -0.00101382 0 -0.0339628 -0.016221 -0.00101382 0 -0.0339628 -0.016728 -0.0339628 -0.016221 -0.0339628 -0.016728 -0.032949 -0.0172349 -0.00101382 0 -0.0319352 -0.016728 -0.032949 -0.0172349 -0.0324421 -0.016728 -0.0314283 -0.0172349 -0.00101382 0 -0.0314283 -0.0177418 -0.0304145 -0.016728 -0.00101382 0 -0.0304145 -0.0182487 -0.0304145 -0.0177418 -0.0299076 -0.0177418 -0.000506908 0 -0.0299076 -0.0177418 -0.0288937 -0.0187556 -0.000506908 0 -0.0288937 -0.0177418 -0.0283868 -0.0187556 -0.000506908 0 -0.0283868 -0.0177418 -0.000506908 0 -0.027373 -0.0187556 -0.000506908 0 -0.027373 -0.0187556 -0.027373 -0.0187556 -0.000506908 0 -0.0263592 -0.0182487 -0.0263592 -0.0197694 -0.00101382 0 -0.0253454 -0.0187556 -0.00101382 0 -0.0253454 -0.0192625 -0.0253454 -0.0187556 -0.00101382 0 -0.0243316 -0.0197694 -0.0248385 -0.0192625 -0.00101382 0 -0.0233178 -0.0197694 -0.00101382 0 -0.0228109 -0.0192625 -0.00101382 0 -0.0228109 -0.0197694 -0.00101382 0 -0.0228109 -0.0202763 -0.00101382 0 -0.021797 -0.0192625 -0.00101382 0 -0.021797 -0.0202763 -0.00101382 0 -0.0223039 -0.0207832 -0.000506908 0 -0.0212901 -0.0192625 -0.00101382 0 -0.0202763 -0.0202763 -0.00101382 0 -0.0202763 -0.0212901 -0.00101382 0 -0.0202763 -0.0202763 -0.000506908 0 -0.0207832 -0.0202763 -0.000506908 0 -0.0197694 -0.0207832 -0.000506908 0 -0.0187556 -0.0212901 -0.00101382 0 -0.0187556 -0.0207832 -0.000506908 0 -0.0187556 -0.0207832 -0.00101382 0 -0.0177418 -0.0207832 -0.00101382 0 -0.0177418 -0.0212901 -0.00101382 0 -0.016728 -0.0228109 -0.00101382 0 -0.0177418 -0.0223039 -0.016728 -0.0228109 -0.00101382 0 -0.0172349 -0.0228109 -0.000506908 0 -0.016221 -0.0233178 -0.00101382 0 -0.0152072 -0.0233178 -0.000506908 0 -0.016221 -0.0233178 -0.016221 -0.0228109 -0.0152072 -0.0238247 -0.00101382 0 -0.0141934 -0.0228109 -0.00101382 0 -0.0147003 -0.0238247 -0.000506908 0 -0.0147003 -0.0238247 -0.0141934 -0.0238247 -0.00101382 0 -0.0136865 -0.0233178 -0.0131796 -0.0238247 -0.00101382 0 -0.0126727 -0.0238247 -0.00101382 0 -0.0126727 -0.0238247 -0.00101382 0 -0.0126727 -0.0238247 -0.0126727 -0.0243316 -0.0116589 -0.0238247 -0.00101382 0 -0.0116589 -0.0248385 -0.0121658 -0.0238247 -0.011152 -0.0243316 -0.000506908 0 -0.011152 -0.0248385 -0.011152 -0.0243316 -0.0101382 -0.0248385 -0.0101382 -0.0243316 -0.00101382 0 -0.00912434 -0.0248385 -0.00101382 0 -0.00912434 -0.0253454 -0.00963125 -0.0248385 -0.00912434 -0.0243316 -0.00912434 -0.0258523 -0.00861743 -0.0243316 -0.00861743 -0.0253454 -0.00760362 -0.0258523 -0.00101382 0 -0.00760362 -0.0253454 -0.00760362 -0.0253454 -0.0065898 -0.0253454 -0.0065898 -0.0253454 -0.00709671 -0.0258523 -0.0065898 -0.0253454 -0.00608289 -0.0253454 -0.00608289 -0.0253454 -0.00506908 -0.0263592 -0.000506908 0 -0.00506908 -0.0253454 -0.00557599 -0.0263592 -0.00405526 -0.0258523 -0.00506908 -0.0258523 -0.00354835 -0.0263592 -0.00405526 -0.0263592 -0.00354835 -0.0253454 -0.00304145 -0.0263592 -0.00354835 -0.0263592 -0.00253454 -0.0263592 -0.00253454 -0.0263592 -0.00253454 -0.027373 -0.00152072 -0.0258523 -0.00202763 -0.0263592 -0.00152072 -0.0263592 -0.00101382 -0.027373 -0.00152072 -0.0263592 0 -0.0268661 -0.00101382 -0.0263592 0 -0.027373 0 -92.1178 -47.2347 0 -0.000506908 0 -0.0238247 0 -0.00253454 0 -0.0212901 -0.00101382 -0.00506908 0 -0.0435941 -0.00152072 -0.0101382 0 -0.0136865 -0.00101382c-0.523129,-0.0243316 -0.99506,-0.205805 -1.38639,-0.538843 -0.370043,-0.31479 -0.726399,-0.822204 -1.01229,-1.52224l-0.00101382 0 -0.0131796 -0.0339628 0 -0.000506908 -0.0147003 -0.0339628 0 -0.00101382 -0.0136865 -0.0349766 -0.000506908 0c-0.275251,-0.670132 -0.479535,-1.53897 -0.625524,-2.61412l-0.00101382 0 -0.0065898 -0.055253 -0.00101382 0 -0.0065898 -0.055253 -0.00101382 0 -0.00608289 -0.0557599 -0.000506908 0 -0.00709671 -0.0562668 -0.000506908 0 -0.00608289 -0.0557599 -0.00101382 0 -0.00608289 -0.0577875 -0.000506908 0 -0.00608289 -0.0588013 -0.00101382 0 -0.00557599 -0.0582944 -0.00101382 0 -0.00608289 -0.0593082 -0.000506908 0 -0.00608289 -0.0598151 -0.00101382 0 -0.00557599 -0.0593082 -0.00608289 -0.060322 -0.00101382 0 -0.00506908 -0.060322 -0.00101382 0 -0.00506908 -0.0598151 -0.000506908 0 -0.00506908 -0.0613358 -0.00101382 0 -0.00506908 -0.0608289 -0.00101382 0 -0.00405526 -0.0613358 -0.00101382 0 -0.00506908 -0.0618428 -0.00101382 0 -0.00405526 -0.0628566 -0.00101382 0 -0.00405526 -0.0618428 -0.00101382 0 -0.00405526 -0.0628566 -0.00101382 0 -0.00405526 -0.0638704 -0.00101382 0 -0.00405526 -0.0633635 -0.00101382 0 -0.00405526 -0.0638704 -0.00405526 -0.0643773 -0.00101382 0 -0.00354835 -0.0643773 -0.00101382 0 -0.00405526 -0.0648842 -0.00405526 -0.0648842 -0.00354835 -0.0653911 -0.00101382 0 -0.00304145 -0.0664049 -0.00101382 0 -0.00354835 -0.065898 -0.00304145 -0.0674187 -0.00101382 0 -0.00354835 -0.065898 -0.00304145 -0.0679256 -0.00354835 -0.0669118 -0.00354835 -0.0689395 -0.00354835 -0.0679256 -0.00253454 -0.0689395 -0.000506908 0 -0.00253454 -0.0684326 -0.00253454 -0.0694464 -0.00101382 0 -0.00253454 -0.0699533 -0.00253454 -0.0704602 -0.00253454 -0.0704602 -0.00253454 -0.0709671 -0.00152072 -0.071474 -0.00101382 0 -0.00152072 -0.0709671 -0.00253454 -0.0724878 -0.00202763 -0.0719809 -0.00152072 -0.0729947 -0.00101382 0 -0.000506908 -0.0729947 -0.00101382 0 -0.00202763 -0.0729947 -0.000506908 -0.0740085 -0.00101382 0 -0.00101382 -0.0745154 -0.00152072 -0.0740085 -0.00152072 -0.0755293 -0.00101382 -0.0745154 -0.00101382 -0.0765431 -0.00152072 -0.0755293 -0.00101382 -0.0760362 -0.000506908 -0.0775569 -0.00101382 -0.07705 0 -0.07705 -0.00101382 -0.0780638 -0.000506908 -0.0780638 0 -0.0790776 -0.00101382 -0.0790776 0 -0.0795845 0 -0.0795845 0 -0.0805983c0,-1.74833 0.0628566,-3.25688 0.211381,-4.49019 0.14751,-1.22925 0.382715,-2.22735 0.659994,-2.94716l0.00202763 -0.00557599 0.000506908 0 0.0136865 -0.0349766 0 -0.00101382 0.0147003 -0.0339628 0 -0.000506908c0.288431,-0.717781 0.643773,-1.21506 1.02649,-1.52681 0.371563,-0.302624 0.831836,-0.450641 1.33925,-0.477l0.00811052 -0.000506908 0.0390319 -0.00202763 0.0136865 -0.000506908 0.0101382 0 0.016221 -0.00101382 0.00760362 0 0.0461286 -0.00101382 0.00253454 0 0.0238247 0 0.000506908 0 117.793 0 0.00101382 0 0.0233178 0 0.00253454 0 0.0461286 0.00101382 0.00760362 0 0.016221 0.00101382 0.0101382 0 0.0136865 0.000506908 0.0390319 0.00202763 0.00811052 0.000506908c0.506908,0.0263592 0.965659,0.173362 1.33925,0.477 0.384236,0.312255 0.739072,0.809025 1.027,1.52681l0 0.000506908 0.0141934 0.0339628 0 0.00101382 0.0136865 0.0349766 0.00101382 0 0.000506908 0.00557599c0.277785,0.719809 0.512484,1.7169 0.661008,2.94716 0.149538,1.23381 0.211381,2.74186 0.211381,4.49019z"/>
  </g>
 </g>
</svg>
