<?xml version="1.0" encoding="UTF-8"?>
<!DOCTYPE svg PUBLIC "-//W3C//DTD SVG 1.1//EN" "http://www.w3.org/Graphics/SVG/1.1/DTD/svg11.dtd">
<!-- Creator: CorelDRAW -->
<svg xmlns="http://www.w3.org/2000/svg" xml:space="preserve" width="512px" height="512px" style="shape-rendering:geometricPrecision; text-rendering:geometricPrecision; image-rendering:optimizeQuality; fill-rule:evenodd; clip-rule:evenodd"
viewBox="0 0 384.277 384.277"
 xmlns:xlink="http://www.w3.org/1999/xlink">
 <defs>
  <style type="text/css">
   <![CDATA[
    .fil0 {fill:#DEDEDD}
    .fil1 {fill:#4D4948;fill-rule:nonzero}
    .fil2 {fill:#43AC3E;fill-rule:nonzero}
   ]]>
  </style>
 </defs>
 <g id="Vrstva_x0020_1">
  <metadata id="CorelCorpID_0Corel-Layer"/>
  <rect class="fil0" width="384.277" height="384.277"/>
  <path class="fil1" d="M119.524 158.865l-15.1194 0c-1.67358,0 -3.0258,1.35514 -3.0258,3.0258 0,1.66857 1.35222,3.02413 3.0258,3.02413l15.1194 0c1.674,0 3.0258,-1.35556 3.0258,-3.02413 0,-1.67066 -1.3518,-3.0258 -3.0258,-3.0258z"/>
  <path class="fil1" d="M247.761 118.241c0.684039,0 1.37309,-0.232047 1.93901,-0.708245l11.5865 -9.72512c1.28127,-1.07468 1.44863,-2.98072 0.375616,-4.26366 -1.07176,-1.27376 -2.97738,-1.44904 -4.26241,-0.37186l-11.5878 9.72679c-1.27918,1.07301 -1.44529,2.97905 -0.372277,4.26199 0.597647,0.711584 1.45614,1.08011 2.32131,1.08011z"/>
  <path class="fil1" d="M124.937 134.213l-14.2104 -5.17098c-1.56632,-0.570937 -3.30626,0.242481 -3.87594,1.80922 -0.573023,1.57008 0.237056,3.30793 1.80755,3.87928l14.2083 5.17098c0.343063,0.122701 0.694473,0.179878 1.03503,0.179878 1.23453,0 2.39601,-0.762084 2.84467,-1.99077 0.570937,-1.57008 -0.237473,-3.30668 -1.80922,-3.87761z"/>
  <path class="fil1" d="M277.421 130.842c-0.567598,-1.56674 -2.30754,-2.38057 -3.87427,-1.80546l-14.2137 5.17224c-1.57175,0.573023 -2.38015,2.30962 -1.8088,3.8797 0.447818,1.22701 1.60639,1.99035 2.84383,1.99035 0.340976,0 0.692386,-0.0567598 1.03169,-0.185304l14.2158 -5.17224c1.57008,-0.573023 2.38015,-2.30921 1.80546,-3.87928z"/>
  <path class="fil1" d="M122.983 107.814l11.5811 9.7197c0.566346,0.477867 1.25498,0.708245 1.93901,0.708245 0.868926,0 1.72366,-0.365182 2.32131,-1.08011 1.07343,-1.27918 0.906905,-3.1869 -0.372277,-4.26199l-11.5811 -9.72011c-1.28252,-1.07468 -3.19232,-0.901896 -4.25991,0.37186 -1.07718,1.28294 -0.907322,3.18898 0.37186,4.26241z"/>
  <path class="fil2" d="M192.139 222.391c1.67191,0 3.02413,-1.35514 3.02413,-3.02621l0 -19.9056 10.0419 -9.84115c0.457,-0.462425 11.1362,-11.4634 11.1362,-26.2172 0.00542557,-14.7788 -10.9213,-25.7969 -11.382,-26.2501l-10.6825 -10.6829c-1.18236,-1.18236 -3.09508,-1.18236 -4.27743,0l-10.5131 10.5093c-0.469103,0.46952 -11.5464,11.6449 -11.5494,26.4183 -0.00709497,14.7993 11.127,25.7898 11.5477,26.2017l9.62871 9.8257 0 19.9419c0,1.67107 1.35138,3.02621 3.0258,3.02621zm-8.38709 -37.0817c-0.0955735,-0.0968255 -9.77061,-9.64374 -9.76519,-21.9122 0.00375616,-12.2163 9.6717,-22.0328 9.7752,-22.1317l8.37708 -8.38 8.5461 8.54944c0.0972429,0.0939041 9.61119,9.74975 9.60618,21.9623 0,12.2322 -9.30276,21.8792 -9.35827,21.9347l-5.76988 5.6572 0 -44.2313c0,-1.66857 -1.35222,-3.02413 -3.02413,-3.02413 -1.67441,0 -3.0258,1.35556 -3.0258,3.02413l0 44.0218 -5.3613 -5.47022z"/>
  <path class="fil1" d="M279.872 158.86l-15.1261 0c-1.674,0 -3.02621,1.35556 -3.02621,3.02413 0,1.67066 1.35222,3.0258 3.02621,3.0258l15.1261 0c1.67233,0 3.02621,-1.35514 3.02621,-3.0258 0,-1.66857 -1.35389,-3.02413 -3.02621,-3.02413z"/>
  <path class="fil1" d="M192.139 101.379c-33.3631,0 -60.5068,27.1437 -60.5068,60.5068 0,25.5336 10.0139,44.5811 31.5213,59.9425 0.102251,0.0726191 0.254584,0.162767 0.365182,0.223283 0.157341,0.0847223 3.4156,1.9027 4.23111,7.00399 -3.4156,1.30381 -5.86337,4.59253 -5.86337,8.46138 0,2.32298 0.876021,4.44563 2.3163,6.05201 -1.44028,1.60513 -2.3163,3.72737 -2.3163,6.05034 0,2.32298 0.876021,4.44354 2.3163,6.05034 -1.44028,1.60639 -2.3163,3.72653 -2.3163,6.04993 0,5.00446 4.07168,9.07614 9.07447,9.07614 1.67358,0 3.0258,-1.35556 3.0258,-3.02413 0,-1.67066 -1.35222,-3.0258 -3.0258,-3.0258 -1.66899,0 -3.02413,-1.35764 -3.02413,-3.02455 0,-1.6669 1.35514,-3.02621 3.02413,-3.02621l30.2538 0c1.67274,0 3.02413,-1.35514 3.02413,-3.02371 0,-1.67066 -1.35138,-3.02621 -3.02413,-3.02621l-30.2538 0c-1.66899,0 -3.02413,-1.35848 -3.02413,-3.0258 0,-1.6669 1.35514,-3.02413 3.02413,-3.02413l30.2538 0c1.67274,0 3.02413,-1.35556 3.02413,-3.02621 0,-1.66857 -1.35138,-3.02413 -3.02413,-3.02413l-30.2538 0c-1.66899,0 -3.02413,-1.3589 -3.02413,-3.0258 0,-1.66732 1.35514,-3.02413 3.02413,-3.02413l30.2538 0c1.67274,0 3.02413,-1.35556 3.02413,-3.0258 0,-1.67107 -1.35138,-3.02455 -3.02413,-3.02455l-27.4342 0c-1.06967,-7.61833 -6.00694,-10.9196 -7.2448,-11.6328 -19.9557,-14.3005 -28.8515,-31.2463 -28.8515,-54.9243 0,-30.0276 24.4288,-54.4564 54.4548,-54.4564 30.0259,0 54.4548,24.4288 54.4548,54.4564 0,23.678 -8.89751,40.6237 -28.8523,54.9243 -1.39145,0.801315 -7.45014,4.87133 -7.45014,14.6574 0,1.67024 1.35138,3.0258 3.02413,3.0258 1.67024,0 3.0258,1.35681 3.0258,3.02413 0,1.6669 -1.35556,3.0258 -3.0258,3.0258 -1.67274,0 -3.02413,1.35556 -3.02413,3.02413 0,1.67066 1.35138,3.02621 3.02413,3.02621 1.67024,0 3.0258,1.35723 3.0258,3.02413 0,1.66732 -1.35556,3.0258 -3.0258,3.0258 -1.67274,0 -3.02413,1.35556 -3.02413,3.02621 0,1.66857 1.35138,3.02371 3.02413,3.02371 1.67024,0 3.0258,1.35931 3.0258,3.02621 0,1.72408 -1.30172,3.02455 -3.0258,3.02455l-30.2525 0c-1.674,0 -3.02621,1.35514 -3.02621,3.0258l0 6.04993c0,5.00279 4.07377,9.07656 9.07656,9.07656l6.0516 0c5.00279,0 9.07405,-4.07377 9.07405,-9.07656l0 -3.0258 9.07656 0c5.09252,0 9.07572,-3.98696 9.07572,-9.07614 0,-2.3234 -0.877273,-4.44354 -2.31755,-6.04993 1.44028,-1.6068 2.31755,-3.72737 2.31755,-6.05034 0,-2.32465 -0.877273,-4.44521 -2.31755,-6.0516 1.44028,-1.6068 2.31755,-3.72778 2.31755,-6.05076 0,-3.86885 -2.44735,-7.15758 -5.86295,-8.46138 0.813835,-5.10129 4.06667,-6.91551 4.19104,-6.98479 0.141899,-0.0696977 0.278791,-0.152333 0.405248,-0.242481 21.5032,-15.3635 31.5196,-34.4106 31.5196,-59.9442 0,-33.3614 -27.142,-60.5051 -60.5051,-60.5051zm6.04993 172.442c0,1.66732 -1.35514,3.02413 -3.02413,3.02413l-6.0516 0c-1.66899,0 -3.02455,-1.35681 -3.02455,-3.02413l0 -3.0258 12.1003 0 0 3.0258z"/>
 </g>
</svg>
