<?xml version="1.0" encoding="UTF-8"?>
<!DOCTYPE svg PUBLIC "-//W3C//DTD SVG 1.1//EN" "http://www.w3.org/Graphics/SVG/1.1/DTD/svg11.dtd">
<!-- Creator: CorelDRAW -->
<svg xmlns="http://www.w3.org/2000/svg" xml:space="preserve" width="300px" height="300px" style="shape-rendering:geometricPrecision; text-rendering:geometricPrecision; image-rendering:optimizeQuality; fill-rule:evenodd; clip-rule:evenodd"
viewBox="0 0 759.265 736.579"
 xmlns:xlink="http://www.w3.org/1999/xlink">
 <defs>
  <style type="text/css">
   <![CDATA[
    .fil0 {fill:#4D4948;fill-rule:nonzero}
   ]]>
  </style>
 </defs>
 <g id="Vrstva_x0020_1">
  <metadata id="CorelCorpID_0Corel-Layer"/>
  <g id="_336747528">
   <path id="_172474776" class="fil0" d="M34.7869 362.364c-2.50411,0 -4.5397,-2.0356 -4.5397,-4.5397l0 -74.9899c0,-2.50411 2.0356,-4.5397 4.5397,-4.5397l288.885 0 0 42.3517c0,15.8445 12.8881,28.7366 28.7366,28.7366l54.4482 0c15.8445,0 28.7366,-12.8921 28.7366,-28.7366l0 -42.3517 288.885 0c2.50411,0 4.5397,2.0356 4.5397,4.5397l0 74.9899c0,2.50411 -2.0356,4.5397 -4.5397,4.5397l-689.691 0zm372.207 -362.364l-54.7228 0c-15.7839,0.0726999 -28.5993,12.9365 -28.5993,28.7366l0 219.311 -288.885 0c-19.1806,0 -34.7869,15.6022 -34.7869,34.7869l0 74.9899c0,19.1847 15.6062,34.7869 34.7869,34.7869l5.00417 0 39.2054 278.634c5.24247,37.2425 37.5576,65.3329 75.1717,65.3329l450.925 0c37.6181,0 69.9332,-28.0904 75.1757,-65.3329l39.2054 -278.634 5.00417 0c19.1847,0 34.7869,-15.6022 34.7869,-34.7869l0 -74.9899c0,-19.1847 -15.6022,-34.7869 -34.7869,-34.7869l-288.885 0 0 -219.311c0,-15.8001 -12.8194,-28.6639 -28.5993,-28.7366zm243.318 667.029c-3.15033,22.4037 -22.5895,39.2983 -45.2153,39.2983l-450.929 0c-22.6258,0 -42.0649,-16.8946 -45.2193,-39.2983l-38.6117 -274.418 618.591 0 -38.6157 274.418zm-296.393 -636.782l51.4271 0 0 288.885 -51.4271 0 0 -288.885z"/>
   <path id="_172475376" class="fil0" d="M163.349 670.03c8.35241,0 15.1256,-6.7732 15.1256,-15.1256l0 -211.746c0,-8.35241 -6.7732,-15.1256 -15.1256,-15.1256 -8.35644,0 -15.1256,6.7732 -15.1256,15.1256l0 211.746c0,8.35241 6.76916,15.1256 15.1256,15.1256z"/>
   <path id="_172475328" class="fil0" d="M249.861 670.03c8.35241,0 15.1256,-6.7732 15.1256,-15.1256l0 -211.746c0,-8.35241 -6.7732,-15.1256 -15.1256,-15.1256 -8.35241,0 -15.1256,6.7732 -15.1256,15.1256l0 211.746c0,8.35241 6.7732,15.1256 15.1256,15.1256z"/>
   <path id="_172475280" class="fil0" d="M336.374 670.03c8.35644,0 15.1256,-6.7732 15.1256,-15.1256l0 -211.746c0,-8.35241 -6.76916,-15.1256 -15.1256,-15.1256 -8.35241,0 -15.1256,6.7732 -15.1256,15.1256l0 211.746c0,8.35241 6.7732,15.1256 15.1256,15.1256z"/>
   <path id="_172475232" class="fil0" d="M422.891 670.03c8.35241,0 15.1216,-6.7732 15.1216,-15.1256l0 -211.746c0,-8.35241 -6.76916,-15.1256 -15.1216,-15.1256 -8.35241,0 -15.1256,6.7732 -15.1256,15.1256l0 211.746c0,8.35241 6.76916,15.1256 15.1256,15.1256z"/>
   <path id="_172475184" class="fil0" d="M509.404 670.03c8.35241,0 15.1256,-6.7732 15.1256,-15.1256l0 -211.746c0,-8.35241 -6.7732,-15.1256 -15.1256,-15.1256 -8.35241,0 -15.1256,6.7732 -15.1256,15.1256l0 211.746c0,8.35241 6.7732,15.1256 15.1256,15.1256z"/>
   <path id="_172475136" class="fil0" d="M595.917 470.388c8.35241,0 15.1256,-6.7732 15.1256,-15.1256l0 -12.1045c0,-8.35241 -6.7732,-15.1256 -15.1256,-15.1256 -8.34837,0 -15.1256,6.7732 -15.1256,15.1256l0 12.1045c0,8.35241 6.77724,15.1256 15.1256,15.1256z"/>
   <path id="_172475088" class="fil0" d="M595.917 670.03c8.35241,0 15.1256,-6.7732 15.1256,-15.1256l0 -142.173c0,-8.35241 -6.7732,-15.1256 -15.1256,-15.1256 -8.34837,0 -15.1256,6.7732 -15.1256,15.1256l0 142.173c0,8.35241 6.77724,15.1256 15.1256,15.1256z"/>
  </g>
 </g>
</svg>
