<?xml version="1.0" encoding="UTF-8"?>
<!DOCTYPE svg PUBLIC "-//W3C//DTD SVG 1.1//EN" "http://www.w3.org/Graphics/SVG/1.1/DTD/svg11.dtd">
<!-- Creator: CorelDRAW -->
<svg xmlns="http://www.w3.org/2000/svg" xml:space="preserve" width="512px" height="512px" style="shape-rendering:geometricPrecision; text-rendering:geometricPrecision; image-rendering:optimizeQuality; fill-rule:evenodd; clip-rule:evenodd"
viewBox="0 0 19.9981 19.9981"
 xmlns:xlink="http://www.w3.org/1999/xlink">
 <defs>
  <style type="text/css">
   <![CDATA[
    .fil0 {fill:#43AC3E}
    .fil1 {fill:white;fill-rule:nonzero}
   ]]>
  </style>
 </defs>
 <g id="Vrstva_x0020_1">
  <metadata id="CorelCorpID_0Corel-Layer"/>
  <circle class="fil0" cx="9.99899" cy="9.99899" r="9.99899"/>
  <path class="fil1" d="M15.3058 5.02913l0 -0.783802c0,-0.338808 -0.275691,-0.614499 -0.614567,-0.614499l-9.38456 0c-0.338808,0 -0.614499,0.275691 -0.614499,0.614499l0 0.783802 -1.06145 1.06132 0 1.25512c0,0.0364528 0.00216016,0.0716229 0.0053329,0.105646l-0.0053329 0 0 8.91601 1.27402 0 0 -0.636303 10.1884 0 0 0.636303 1.27402 0 0 -8.91601 -0.0052654 0c0.00317274,-0.0340226 0.0052654,-0.0691927 0.0052654,-0.105646l0 -1.25512 -1.06138 -1.06132zm-0.318084 3.4834l0.105443 0 0 4.24553 -1.17931 0c0.0734456,-0.125222 0.117999,-0.268333 0.117999,-0.42373 0,-0.437636 -0.333745,-0.795008 -0.759703,-0.840709 0.0767533,-0.126505 0.123534,-0.274543 0.123534,-0.433248 0,-0.468621 -0.381674,-0.848809 -0.848877,-0.848809 -0.468688,0 -0.850159,0.380189 -0.850159,0.848809 0,0.158705 0.046646,0.306743 0.123332,0.433248 -0.425822,0.045701 -0.759635,0.403073 -0.759635,0.840709 0,0.155397 0.0445534,0.298508 0.118066,0.42373l-3.30215 0 0 -0.636303 0.848809 0c0.117324,0 0.212574,-0.0952497 0.212574,-0.212574 0,-0.117054 -0.0952497,-0.212506 -0.212574,-0.212506l-0.973289 0 1.4864 -1.48511 -0.389707 -0.389842c-0.887355,-0.887287 -2.33102,-0.887287 -3.21831,0l-0.388762 0.389842 1.48545 1.48511 -0.973289 0c-0.117054,0 -0.212641,0.0954522 -0.212641,0.212506 0,0.117324 0.0955872,0.212574 0.212641,0.212574l0.848674 0 0 0.636303 -1.69748 0 0 -4.24553 0.105511 0c0.395107,0 0.744311,-0.196912 0.955805,-0.497445 0.211426,0.300533 0.559617,0.497445 0.954455,0.497445l0.212439 0c0.395107,0 0.744379,-0.196912 0.955872,-0.497445 0.211426,0.300533 0.55955,0.497445 0.954387,0.497445 0.395107,0 0.744311,-0.196912 0.955737,-0.497445 0.211426,0.300533 0.56063,0.497445 0.955737,0.497445 0.394837,0 0.743029,-0.196912 0.954455,-0.497445 0.211561,0.300533 0.560698,0.497445 0.955805,0.497445l0.212506 0c0.39477,0 0.742961,-0.196912 0.954387,-0.497445 0.211561,0.300533 0.560698,0.497445 0.955872,0.497445zm-9.87053 4.67054l0.42373 0 0 2.1227 -0.42373 0 0 -2.1227zm0.848877 0l0.42373 0 0 2.1227 -0.42373 0 0 -2.1227zm1.06138 -1.06132l0.124412 0 0.0880942 0.0880267 0.0870816 -0.0880267 0.124074 0 0 0.636303 -0.423662 0 0 -0.636303zm0.212506 -2.12277c-0.117189,0 -0.212506,0.0952497 -0.212506,0.212574l0 1.18579 -1.18586 -1.18579 0.0891743 -0.0891743c0.721495,-0.721427 1.89561,-0.721427 2.61819,0l0.0880942 0.0891743 -1.18593 1.18579 0 -1.18579c0,-0.117324 -0.0941696,-0.212574 -0.211156,-0.212574zm-0.42508 3.18408l0.42508 0 0 2.1227 -0.42508 0 0 -2.1227zm0.848742 0l0.425215 0 0 2.1227 -0.425215 0 0 -2.1227zm0.848944 0l0.42508 0 0 2.1227 -0.42508 0 0 -2.1227zm0.850159 0l0.423662 0 0 2.1227 -0.423662 0 0 -2.1227zm0.848877 0l0.423662 0 0 2.1227 -0.423662 0 0 -2.1227zm0.848742 0l0.42508 0 0 2.1227 -0.42508 0 0 -2.1227zm2.12277 -0.425012c-0.23431,0 -0.42508,-0.189487 -0.42508,-0.42373 0,-0.23431 0.190769,-0.425147 0.42508,-0.425147 0.234243,0 0.425012,0.190837 0.425012,0.425147 0,0.234243 -0.190769,0.42373 -0.425012,0.42373zm-0.636303 -1.27267c-0.23431,0 -0.425147,-0.190769 -0.425147,-0.425012 0,-0.234243 0.190837,-0.425147 0.425147,-0.425147 0.233028,0 0.423662,0.190904 0.423662,0.425147 0,0.234243 -0.190634,0.425012 -0.423662,0.425012zm-0.212506 0.848944c0,0.234243 -0.190837,0.42373 -0.425147,0.42373 -0.234243,0 -0.42373,-0.189487 -0.42373,-0.42373 0,-0.23431 0.189487,-0.425147 0.42373,-0.425147 0.23431,0 0.425147,0.190837 0.425147,0.425147zm-0.425147 0.848742l0.425147 0 0 2.1227 -0.425147 0 0 -2.1227zm0.848877 0l0.42508 0 0 2.1227 -0.42508 0 0 -2.1227zm0.850092 0l0.42373 0 0 2.1227 -0.42373 0 0 -2.1227zm0.848877 0l0.42373 0 0 2.1227 -0.42373 0 0 -2.1227zm-7.64212 -9.12716l1.27396 0 0 1.03958 -0.208388 1.04039 -0.00310524 0.678966 -1.69877 0 0 -0.578384 0.636303 -1.06145 0 -1.1191zm4.88177 2.14342l0 0.615512 -1.48505 0 0 -2.75893 1.27382 0 0 1.06138 0.211224 1.08204zm2.1227 1.14624c0,0.409419 -0.33253,0.743299 -0.741881,0.743299l-0.212506 0c-0.409486,0 -0.743299,-0.33388 -0.743299,-0.743299l0 -0.105578 1.69769 0 0 0.105578zm-2.1227 0c0,0.409419 -0.33253,0.743299 -0.741949,0.743299 -0.410431,0 -0.743096,-0.33388 -0.743096,-0.743299l0 -0.105578 1.48505 0 0 0.105578zm-1.91026 0c0,0.409419 -0.332733,0.743299 -0.743164,0.743299 -0.409419,0 -0.741949,-0.33388 -0.741949,-0.743299l0 -0.105578 1.48511 0 0 0.105578zm0 -0.530725l-1.48511 0 0 -0.615512 0.207241 -1.04079 0.00405031 -1.10263 1.27382 0 0 2.75893zm-3.60781 0.425147l1.69769 0 0 0.105578c0,0.409419 -0.333745,0.743299 -0.743299,0.743299l-0.212439 0c-0.409419,0 -0.741949,-0.33388 -0.741949,-0.743299l0 -0.105578zm7.64077 -0.425147l-1.69769 0 0 -0.636236 -0.212506 -1.08312 0 -1.03958 1.27396 0 0 1.1191 0.636236 1.06145 0 0.578384zm-9.76347 -0.549222l1.06132 -1.06132 0 -0.958978c0,-0.104565 0.0849214,-0.189419 0.189487,-0.189419l1.08312 0 0 1.00218 -0.636236 1.06132 0 0.695438 -1.69769 0 0 -0.549222zm1.69769 0.974369l0 0.105578c0,0.409419 -0.333813,0.743299 -0.743299,0.743299l-0.209266 0 -0.0849889 -0.00931571c-0.140883,-0.0156612 -0.269615,-0.0695978 -0.374113,-0.152629 -0.00317274,-0.00182264 -0.00634548,-0.00506288 -0.00931571,-0.00708804 -0.0768883,-0.0621047 -0.142166,-0.139871 -0.188609,-0.230125 -0.0167413,-0.0309848 -0.0302423,-0.0631173 -0.0427307,-0.0962623l-0.00506288 -0.0156612c-0.0249094,-0.0735131 -0.0403006,-0.150199 -0.0403006,-0.232218l0 -0.105578 1.69769 0zm-1.69769 1.00542c0.122049,0.101258 0.266173,0.178011 0.423662,0.222632l0 4.29002 -0.423662 0 0 -4.51265zm0 4.93766l0.636303 0 0 2.1227 -0.636303 0 0 -2.1227zm0.423662 2.75907l-0.423662 0 0 -0.211224 0.423662 0 0 0.211224zm11.4625 0l-0.423662 0 0 -0.211224 0.423662 0 0 0.211224zm0 -0.636371l-0.636236 0 0 -2.1227 0.636236 0 0 2.1227zm-0.423662 -2.54771l0 -4.29002c0.157557,-0.0446209 0.301613,-0.121374 0.423662,-0.222632l0 4.51265 -0.423662 0zm0.423662 -5.41249c0,0.0820187 -0.0153912,0.158705 -0.0403006,0.232218l-0.00499538 0.0156612c-0.0124209,0.033145 -0.026057,0.0652774 -0.0427307,0.0962623 -0.0474561,0.0902543 -0.111721,0.16802 -0.188677,0.230125 -0.00290272,0.00202515 -0.00607546,0.00425282 -0.00931571,0.00708804 -0.105578,0.0830313 -0.233973,0.135888 -0.374046,0.152629l-0.0849889 0.00931571 -0.209266 0c-0.409554,0 -0.743231,-0.33388 -0.743231,-0.743299l0 -0.105578 1.69755 0 0 0.105578zm-1.69755 -0.530725l0 -0.695438 -0.636371 -1.06132 0 -1.00218 1.08312 0c0.104633,0 0.189487,0.0848539 0.189487,0.189419l0 0.958978 1.06132 1.06132 0 0.549222 -1.69755 0z"/>
 </g>
</svg>
