<?xml version="1.0" encoding="UTF-8"?>
<!DOCTYPE svg PUBLIC "-//W3C//DTD SVG 1.1//EN" "http://www.w3.org/Graphics/SVG/1.1/DTD/svg11.dtd">
<!-- Creator: CorelDRAW -->
<svg xmlns="http://www.w3.org/2000/svg" xml:space="preserve" width="600px" height="600px" style="shape-rendering:geometricPrecision; text-rendering:geometricPrecision; image-rendering:optimizeQuality; fill-rule:evenodd; clip-rule:evenodd"
viewBox="0 0 2963.24 2972.12"
 xmlns:xlink="http://www.w3.org/1999/xlink">
 <defs>
  <style type="text/css">
   <![CDATA[
    .fil0 {fill:#4D4948;fill-rule:nonzero}
   ]]>
  </style>
 </defs>
 <g id="Vrstva_x0020_1">
  <metadata id="CorelCorpID_0Corel-Layer"/>
  <path class="fil0" d="M335.076 1663.1c0,-38.4283 -31.1726,-69.6086 -69.6086,-69.6086l-195.866 0c-38.4205,0 -69.6009,31.1803 -69.6009,69.6086 0,38.4283 31.1803,69.6009 69.6009,69.6009l195.866 0c38.4361,0 69.6086,-31.1726 69.6086,-69.6009zm973.947 973.993c-38.4283,0 -69.6086,31.1338 -69.6086,69.6009l0 195.812c0,38.4749 31.1803,69.6086 69.6086,69.6086 38.4749,0 69.6086,-31.1338 69.6086,-69.6086l0 -195.812c0,-38.4671 -31.1338,-69.6009 -69.6086,-69.6009zm-1043.78 -451.711l-64.3472 37.1556c-33.3066,19.2142 -44.7373,61.8097 -25.5232,95.0697 12.9284,22.3415 36.302,34.8043 60.374,34.8043 11.7722,0 23.7849,-2.99542 34.7655,-9.34323l64.3472 -37.1556c33.2988,-19.2064 44.714,-61.8097 25.4999,-95.0697 -19.2064,-33.3066 -61.8019,-44.683 -95.1163,-25.4611zm2052.85 -1035.23c11.8265,0 23.7849,-2.98766 34.7578,-9.31995l64.4016 -37.1712c33.26,-19.2142 44.6752,-61.8097 25.4611,-95.0775 -19.2142,-33.3066 -61.8097,-44.6752 -95.0697,-25.4611l-64.4016 37.1556c-33.3066,19.2142 -44.7296,61.8097 -25.4688,95.0775 12.8741,22.3415 36.2632,34.7966 60.3197,34.7966zm-1568.47 -595.228c-19.253,-33.3066 -61.8097,-44.7296 -95.1163,-25.4688 -33.26,19.2219 -44.6675,61.7709 -25.4611,95.0775l37.2022 64.386c12.8663,22.2949 36.2555,34.8043 60.312,34.8043 11.842,0 23.8004,-2.98766 34.7578,-9.32771 33.2756,-19.2297 44.6908,-61.8097 25.4766,-95.0852l-37.1712 -64.386zm11.6946 2056.88c-33.2988,-19.2142 -75.8556,-7.7912 -95.0697,25.4688l-37.2022 64.4016c-19.2064,33.3066 -7.79896,75.8556 25.4611,95.0697 10.9729,6.34781 22.939,9.33547 34.7578,9.33547 24.072,0 47.4456,-12.4628 60.3585,-34.7966l37.1712 -64.4016c19.2142,-33.26 7.79896,-75.8556 -25.4766,-95.0775zm1095.45 -1897.41c10.9651,6.34005 22.939,9.32771 34.7578,9.32771 24.0565,0 47.4456,-12.5094 60.3585,-34.8043l37.1556 -64.386c19.2297,-33.3066 7.79896,-75.8556 -25.4611,-95.0775 -33.3066,-19.2607 -75.8633,-7.83776 -95.0697,25.4688l-37.21 64.386c-19.2064,33.2756 -7.7912,75.8556 25.4688,95.0852zm-1521.91 305.882l-64.3472 -37.2022c-33.3144,-19.2142 -75.9176,-7.79896 -95.1396,25.5076 -19.2142,33.2678 -7.78344,75.8633 25.5232,95.0775l64.3472 37.1712c11.0117,6.33229 22.9701,9.31995 34.7655,9.31995 24.0565,0 47.4456,-12.4551 60.3508,-34.7966 19.2142,-33.3066 7.79896,-75.8633 -25.4999,-95.0775zm1983.23 1155.76c11.8265,0 23.7849,2.99542 34.7578,9.32771l64.4016 37.1712c33.26,19.2064 44.6752,61.8097 25.4611,95.0697 -19.2142,33.3066 -61.8097,44.6752 -95.0697,25.4611l-64.3938 -37.1556c-33.3144,-19.2064 -44.7373,-61.8097 -25.4766,-95.0697 12.8741,-22.3415 36.2632,-34.8043 60.3197,-34.8043zm-461.326 435.764c10.9651,-6.34781 22.939,-9.33547 34.7578,-9.33547 24.0643,0 47.4456,12.5094 60.3585,34.8043l37.1634 64.386c19.2219,33.3144 7.7912,75.8633 -25.4688,95.0852 -33.3066,19.2607 -75.8633,7.83 -95.0697,-25.4766l-37.2022 -64.386c-19.2142,-33.2756 -7.79896,-75.8556 25.4611,-95.0775zm-390.08 -2601.14c7.78344,7.03846 12.8896,17.0491 13.4406,28.3479l28.8988 578.015c0.884658,17.8716 -3.0187,35.4562 -10.8565,51.0386 -7.83776,15.5669 -19.6487,29.1704 -34.5405,39.1034l-0.046561 0.0543211 -34.7112 23.1253 -0.00776016 -0.00776016c-2.9023,1.9478 -5.20707,4.57073 -6.74358,7.5584 -1.54427,2.99542 -2.33581,6.40213 -2.24269,9.92524l23.2572 786.422 817.37 19.9514c9.06387,0.209524 17.8328,-2.05644 25.5852,-6.42541l0.0155203 0.0310406c7.77568,-4.38449 14.5736,-10.9651 19.672,-19.3306 23.4046,-38.3662 55.5084,-69.0033 92.9667,-90.0489 37.4816,-21.0533 80.3332,-32.5228 125.187,-32.5228 34.9518,0 83.0492,3.77144 134.359,12.9983 41.0668,7.38767 84.0813,18.2752 123.852,33.5006 63.8506,24.4523 106.159,54.585 133.7,85.9981 37.0315,42.2308 47.4068,86.5879 47.4068,122.999 0,36.4107 -10.3753,80.7677 -47.4068,122.983 -27.5408,31.4209 -69.857,61.5536 -133.7,86.0136 -39.7631,15.2254 -82.7931,26.1207 -123.86,33.5006 -51.3102,9.23459 -99.3999,12.9983 -134.352,12.9983 -44.8382,0 -87.6743,-11.4618 -125.171,-32.5306 -37.4583,-21.0533 -69.5698,-51.6982 -92.9822,-90.0722 -5.06738,-8.31113 -11.873,-14.8762 -19.6875,-19.2762 -7.76016,-4.36121 -16.5214,-6.6427 -25.5852,-6.42541l-961.103 23.4512c-17.763,0.434569 -35.0294,-2.63845 -50.9842,-8.90866 -16.017,-6.29349 -30.7768,-15.7997 -43.4724,-28.1849 -12.6723,-12.3775 -22.5355,-26.9122 -29.2248,-42.7818 -6.69702,-15.9161 -10.2201,-33.1048 -10.2201,-50.767 0,-14.0226 2.21165,-27.7503 6.47197,-40.7719 3.87232,-11.8653 9.45187,-23.1098 16.5912,-33.4152l24.817 -839.385c0.0931219,-3.53087 -0.690654,-6.9531 -2.23493,-9.94076 -1.52875,-2.9799 -3.84128,-5.58731 -6.75134,-7.54287l-0.00776016 0.00776016 -34.7112 -23.1253 -0.046561 -0.0543211c-14.8917,-9.933 -26.7027,-23.5366 -34.5405,-39.1034 -7.83776,-15.5824 -11.7411,-33.1669 -10.8487,-51.0386l28.8911 -578.015 0 -0.0543211c0.574252,-11.2755 5.68044,-21.2784 13.4639,-28.3168 7.65928,-6.92982 17.8872,-10.9806 28.9144,-10.5771l0 -0.0232805 0.0388008 0 0.628573 0.046561c11.2522,0.582012 21.2628,5.67268 28.2935,13.4561 6.92206,7.65152 10.9806,17.8639 10.5771,28.8988l0.0232805 0 0 0.0310406 -0.046561 0.582012 -23.8703 477.785 64.4404 0 0 -479.803c0,-11.3298 4.60953,-21.5965 12.0282,-29.0152 7.41871,-7.41871 17.6854,-12.0205 29.0075,-12.0205 11.291,0 21.5344,4.60177 28.9687,12.0205l0.046561 0.046561c7.41871,7.43423 12.0205,17.6776 12.0205,28.9687l0 479.803 64.4714 0 -23.8935 -477.785 -0.046561 -0.582012 0 -0.0155203 0.0232805 0c-0.395768,-11.0505 3.6628,-21.2784 10.5693,-28.9221 7.04622,-7.77568 17.0646,-12.8819 28.3634,-13.4484l0.582012 -0.046561 0.0155203 0 0 0.0232805c11.0427,-0.372488 21.2861,3.68608 28.9376,10.6004zm858.809 1692.61c20.2307,11.229 37.7454,27.7426 50.2936,48.3148 15.9006,26.0741 37.7066,46.9024 63.1444,61.1889 25.4611,14.302 54.5539,22.0932 84.997,22.0854l0 -0.0543211c69.8182,0 183.31,-15.4194 264.373,-56.1525 53.8167,-27.0442 92.8813,-65.2319 92.8813,-117.256 0,-52.0319 -39.0646,-90.2274 -92.8736,-117.272 -81.0704,-40.7408 -194.563,-56.1603 -264.381,-56.1603 -30.5052,0 -59.6058,7.77568 -85.0048,22.0466 -25.4378,14.2865 -47.2361,35.1147 -63.1367,61.1733 -12.5482,20.5722 -30.0473,37.0936 -50.2781,48.3148 -20.2928,11.2522 -43.3638,17.1965 -66.9857,16.63l-961.103 -23.4357c-6.59614,-0.162963 -13.0526,0.9933 -19.0357,3.33687 -5.95204,2.33581 -11.454,5.88996 -16.1877,10.5228 -4.74922,4.64058 -8.43529,10.0494 -10.903,15.9161 -2.45221,5.81236 -3.73264,12.2223 -3.73264,18.927 0,6.70478 1.28043,13.1069 3.73264,18.9115 2.46773,5.85892 6.14605,11.2678 10.903,15.9083 4.7337,4.62505 10.2434,8.18697 16.1877,10.515 5.98308,2.35133 12.4395,3.50759 19.0357,3.34463l961.103 -23.4279c23.6219,-0.574252 46.6929,5.37003 66.9702,16.6223zm-1030.17 -953.072l-23.1408 782.666c1.67619,-0.310406 3.35239,-0.589772 5.03634,-0.830337 7.15487,-1.0321 14.5813,-1.47443 22.1785,-1.28819l61.6777 1.50547 -23.1408 -782.053c-0.527691,-17.7242 3.46879,-34.8354 11.2755,-49.9444 7.80672,-15.1323 19.4547,-28.3013 34.1913,-38.1334l0.046561 -0.0543211 34.7034 -23.1253c2.93334,-1.9478 5.26915,-4.6561 6.82118,-7.74464 1.55979,-3.08854 2.33581,-6.59614 2.15732,-10.158l-0.900178 -18.1355 -219.186 0 -0.892418 18.1355 0 0.0543211c-0.186244,3.53863 0.589772,7.0307 2.11852,10.1115l0.0232805 -0.00776016c1.55203,3.08854 3.88784,5.79684 6.81342,7.74464l34.7034 23.1253 0.0388008 0.0543211c14.7598,9.83988 26.3923,23.0089 34.2068,38.1412 7.80672,15.109 11.7877,32.2124 11.2678,49.9366z"/>
 </g>
</svg>
