<?xml version="1.0" encoding="UTF-8"?>
<!DOCTYPE svg PUBLIC "-//W3C//DTD SVG 1.1//EN" "http://www.w3.org/Graphics/SVG/1.1/DTD/svg11.dtd">
<!-- Creator: CorelDRAW -->
<svg xmlns="http://www.w3.org/2000/svg" xml:space="preserve" width="512px" height="512px" style="shape-rendering:geometricPrecision; text-rendering:geometricPrecision; image-rendering:optimizeQuality; fill-rule:evenodd; clip-rule:evenodd"
viewBox="0 0 28.5134 28.5134"
 xmlns:xlink="http://www.w3.org/1999/xlink">
 <defs>
  <style type="text/css">
   <![CDATA[
    .fil0 {fill:#43AC3E}
    .fil1 {fill:#FCFDFD}
   ]]>
  </style>
 </defs>
 <g id="Vrstva_x0020_1">
  <metadata id="CorelCorpID_0Corel-Layer"/>
  <rect class="fil0" width="28.5134" height="28.5134"/>
  <g id="_135927024">
   <g>
    <path id="_135927840" class="fil1" d="M22.8962 11.1556c0,-0.182553 -0.148087,-0.330238 -0.330578,-0.330238 -0.182244,0 -0.330485,0.147932 -0.330485,0.330238 0,0.182492 0.147994,0.330609 0.330485,0.330609 0.182708,0 0.330578,-0.14787 0.330578,-0.330609z"/>
   </g>
   <g>
    <path id="_135928032" class="fil1" d="M12.8698 6.85583l-0.00210579 0 -0.010498 -0.00210579c-1.8867,-0.374645 -3.73354,0.856592 -4.11379,2.74214l-0.199833 0.990713c-0.208287,1.03407 0.465627,2.04794 1.49945,2.2567 1.03407,0.208102 2.04831,-0.465535 2.25663,-1.49973l0.141522 -0.701104 2.07848 0.181686 6.019 6.01946c0.228633,0.228664 0.228633,0.600243 0,0.828907 -0.228447,0.228416 -0.600367,0.228416 -0.828845,0l-2.46229 -2.46229c-0.129165,-0.129135 -0.338382,-0.129135 -0.467516,0 -0.128918,0.128949 -0.12867,0.338165 3.09675e-005,0.467114l2.4626 2.4626c0.110554,0.110492 0.171684,0.257959 0.171684,0.414252 0,0.156386 -0.061037,0.303853 -0.171684,0.414314 -0.22854,0.228602 -0.600522,0.228726 -0.828938,0l-2.4622 -2.46226c-0.12898,-0.12898 -0.338506,-0.129258 -0.467455,0 -0.129165,0.129104 -0.129165,0.338382 -3.09675e-005,0.467516l2.46226 2.46229c0.228664,0.228571 0.228571,0.600243 0,0.828876 -0.110368,0.110368 -0.258145,0.171529 -0.414221,0.171529 -0.156293,0 -0.304039,-0.061037 -0.414655,-0.171498l-2.46229 -2.46232c-0.129135,-0.129165 -0.33832,-0.129104 -0.467486,0 -0.12898,0.12898 -0.129258,0.338165 0,0.467052l2.46229 2.46269c0.228633,0.228633 0.228633,0.600274 0,0.828876 -0.228354,0.228323 -0.600274,0.22854 -0.828536,0l-9.86309 -9.86306c-0.129135,-0.129104 -0.338351,-0.129104 -0.467486,0 -0.061904,0.061904 -0.0964019,0.144463 -0.0968044,0.231761l0 0.00368513c0.000402578,0.0874522 0.0349004,0.170135 0.0968044,0.232009l2.47948 2.47948 -0.767034 0.767034c-0.205531,0.205469 -0.31878,0.478541 -0.31878,0.769171 0,0.290847 0.113186,0.563856 0.31878,0.769512l0.225196 0.225227c0.17859,0.178559 0.409205,0.288277 0.660413,0.313143l0.0886909 0.00879477 0.00879477 0.0886909c0.0248359,0.251116 0.134585,0.481792 0.313329,0.660227l0.225165 0.225474c0.177877,0.177939 0.409917,0.287286 0.660227,0.312183l0.0887529 0.00885671 0.00860897 0.0888148c0.0244953,0.251549 0.134616,0.482381 0.313577,0.661001l0.225165 0.225196c0.178373,0.178342 0.408895,0.288617 0.659949,0.313112l0.0888148 0.0086709 0.00879477 0.0888148c0.0248979,0.251146 0.134987,0.481916 0.313298,0.660506l0.225567 0.225289c0.204509,0.204819 0.479873,0.318036 0.769109,0.318036 0.289453,0 0.564414,-0.113341 0.769171,-0.318098l0.767034 -0.767034 1.73096 1.73102c0.235632,0.235539 0.548682,0.365262 0.881862,0.365262 0.333117,0 0.646137,-0.129723 0.881676,-0.365262 0.222718,-0.222625 0.349685,-0.515392 0.362537,-0.829681l0.00408771 -0.100087 0.100056 -0.00408771c0.314537,-0.0129444 0.60687,-0.139756 0.829651,-0.362537 0.222285,-0.22213 0.349252,-0.516538 0.362165,-0.830115l0.00414965 -0.0999941 0.0999631 -0.00414965c0.313515,-0.0130064 0.607985,-0.13988 0.830115,-0.362072 0.222068,-0.22213 0.349252,-0.516507 0.361793,-0.830022l0.00402578 -0.100149 0.100087 -0.00411868c0.313453,-0.0129754 0.608016,-0.139632 0.830084,-0.361762 0.486128,-0.486407 0.486469,-1.27753 3.09675e-005,-1.76385l-0.685497 -0.685528 2.30398 -2.30398 1.54869 -1.54834c0.472162,-0.472502 0.472409,-1.24102 3.09675e-005,-1.71346l-3.93919 -3.93913c-0.229067,-0.229067 -0.532765,-0.35495 -0.856716,-0.35495 -0.323951,0 -0.62768,0.125821 -0.856747,0.35495l-0.925743 0.925681c-0.126781,0.126812 -0.221789,0.27942 -0.2823,0.4481l-0.0309985 0.0864923 -4.41185 -0.790136zm-5.1991 9.62755c-0.166326,-0.166481 -0.166419,-0.437323 6.1935e-005,-0.603712l0.724051 -0.724113 0.828907 0.828752 -0.724113 0.724237c-0.166419,0.166419 -0.43723,0.166388 -0.603681,0l-0.225227 -0.225165zm1.29642 1.29633c-0.166667,-0.166698 -0.166946,-0.43723 0,-0.60365l0.723711 -0.724206 0.828907 0.828814 -0.723742 0.724237c-0.166419,0.166419 -0.43723,0.166388 -0.603712,0l-0.225165 -0.225196zm1.29602 1.29605c-0.0804846,-0.0803917 -0.125109,-0.18788 -0.125109,-0.301685 0,-0.113651 0.044748,-0.221325 0.125109,-0.301685l0.724113 -0.724206 0.828876 0.828876 -0.724113 0.724237c-0.166419,0.166388 -0.43723,0.166326 -0.603743,-3.09675e-005l-0.225134 -0.225505zm2.1253 1.52146c-0.166296,0.166791 -0.437199,0.166512 -0.603743,9.29025e-005l-0.225258 -0.225258c-0.166296,-0.166419 -0.166388,-0.43723 6.1935e-005,-0.603619l0.724113 -0.724144 0.828845 0.829217 -0.72402 0.723711zm0.351915 -13.0931l6.1935e-005 0 4.30501 0.770781 4.87791 4.87791 -2.07018 2.07018 -4.95136 -4.95136c-0.0549054,-0.0549054 -0.127617,-0.0887219 -0.204974,-0.0954419l-2.49189 -0.21798c-0.0100644,-0.000774188 -0.0198811,-0.00102193 -0.0299456,-0.00102193 -0.156943,0 -0.292457,0.111049 -0.323394,0.265113l-0.199833 0.990867c-0.136381,0.677476 -0.800634,1.11858 -1.47799,0.981794 -0.328163,-0.0661156 -0.611763,-0.256535 -0.797135,-0.535304 -0.184319,-0.277717 -0.25093,-0.615758 -0.184783,-0.942403l0.199462 -0.991115c0.309273,-1.53317 1.81231,-2.53184 3.34554,-2.22279l0.00349933 0.000774188zm10.9656 3.8666l-1.31513 1.31497 -4.32839 -4.32839c-0.104051,-0.10402 -0.161217,-0.242507 -0.161217,-0.389602 0,-0.146941 0.0572899,-0.285366 0.161217,-0.389262l0.925805 -0.925681c0.10371,-0.10371 0.242568,-0.161248 0.389231,-0.161248 0.146724,0 0.285149,0.0575996 0.389169,0.161186l3.93925 3.93922c0.10371,0.10371 0.161217,0.242568 0.161217,0.389231 0,0.146941 -0.0574138,0.285366 -0.161155,0.389571z"/>
   </g>
  </g>
 </g>
</svg>
