<?xml version="1.0" encoding="UTF-8"?>
<!DOCTYPE svg PUBLIC "-//W3C//DTD SVG 1.1//EN" "http://www.w3.org/Graphics/SVG/1.1/DTD/svg11.dtd">
<!-- Creator: CorelDRAW -->
<svg xmlns="http://www.w3.org/2000/svg" xml:space="preserve" width="512px" height="512px" style="shape-rendering:geometricPrecision; text-rendering:geometricPrecision; image-rendering:optimizeQuality; fill-rule:evenodd; clip-rule:evenodd"
viewBox="0 0 28.5134 28.5134"
 xmlns:xlink="http://www.w3.org/1999/xlink">
 <defs>
  <style type="text/css">
   <![CDATA[
    .fil0 {fill:#43AC3E}
    .fil1 {fill:white;fill-rule:nonzero}
   ]]>
  </style>
 </defs>
 <g id="Vrstva_x0020_1">
  <metadata id="CorelCorpID_0Corel-Layer"/>
  <rect class="fil0" width="28.5134" height="28.5134"/>
  <path class="fil1" d="M19.209 21.2586c-0.444724,0.211508 -0.811101,0.566055 -1.03633,0.997711 -0.259663,0.502757 -0.227952,1.13775 0.0882574,1.66224 0.0235972,0.0383068 0.0136567,0.0716898 0,0.0935528 -0.011458,0.0216463 -0.0349313,0.0480925 -0.0813207,0.0480925l-7.77275 0c-0.0465751,0 -0.0700485,-0.0264463 -0.0815065,-0.0480925 -0.0131922,-0.0218631 -0.0234424,-0.055246 0.0035303,-0.100335 0.312896,-0.517715 0.344483,-1.1527 0.0847271,-1.65546 -0.2234,-0.431656 -0.59151,-0.786203 -1.03623,-0.999414 -2.64509,-1.26285 -4.32111,-2.58043 -4.5006,-5.24249 -0.00340643,-0.0513441 0.0212437,-0.0864303 0.0349313,-0.10145 0.0183637,-0.0182399 0.0465442,-0.0398862 0.0912612,-0.0398862l18.5805 0c0.044748,0 0.0750343,0.0216463 0.0917567,0.0398862 0.0148644,0.0150192 0.0396384,0.0501054 0.0366036,0.10145 -0.181655,2.66206 -1.85756,3.97963 -4.5028,5.24419zm-5.67607 -13.1285c-0.0467609,0.148551 -0.139602,0.27719 -0.266011,0.37322 -0.0516538,0.0396384 -0.0848819,0.100211 -0.0895271,0.16645 -0.00560512,0.0647531 0.0182399,0.129723 0.0641647,0.176794 0.155271,0.161465 0.208195,0.394154 0.138208,0.608357 -0.0622757,0.189614 -0.214047,0.341262 -0.404807,0.406418 -0.101388,0.0337856 -0.167596,0.135669 -0.156541,0.242476 0.00337546,0.030534 0.00501674,0.060975 0.00498577,0.0912922 -0.471511,0.134182 -0.884618,0.393752 -1.20646,0.736934 -0.0674163,-0.0339094 -0.129909,-0.077233 -0.186703,-0.129692 -0.0214605,-0.0193237 -0.044779,-0.0325159 -0.0695221,-0.0436642 -0.00668898,-0.00275611 -0.0146476,-0.00377804 -0.0209031,-0.00579092 -0.0193237,-0.00510964 -0.0364178,-0.00879477 -0.0548744,-0.010467 -0.00925929,-9.29025e-005 -0.0176205,0.000526448 -0.0271275,0.00142451 -0.0170941,0.00145547 -0.0339404,0.00374707 -0.0502293,0.00870187 -0.00950703,0.00356126 -0.0176824,0.00532641 -0.0264153,0.00978573 -0.00455222,0.0011458 -0.0101883,0.00263224 -0.014307,0.00479996 -0.0178373,0.00929025 -0.0346526,0.0207792 -0.0502293,0.0349933l-0.000898058 0.000402578c-0.00687479,0.00647221 -0.0159173,0.0110244 -0.0243405,0.0167225 -0.0501983,0.0376255 -0.110957,0.0525828 -0.171095,0.0445003 -0.0107457,-0.00157934 -0.0225443,-0.00222966 -0.0344978,-0.00575996 -0.0214295,-0.00687479 -0.0404745,-0.0168773 -0.0593028,-0.028552 -0.00424255,-0.00294191 -0.00805155,-0.00767994 -0.0124799,-0.011458 -0.0125728,-0.0100025 -0.0251146,-0.0214295 -0.0345907,-0.0351791 -0.0217392,-0.0268798 -0.0370062,-0.0585596 -0.0446861,-0.0949773 -0.00120773,-0.00959993 -0.00359223,-0.0195715 -0.0072464,-0.0289237 0.0563918,-0.0475042 0.107364,-0.0980431 0.15363,-0.152608 0.0134709,-0.0158244 0.0231327,-0.0335688 0.0351481,-0.0499816 0.0322372,-0.0423326 0.0632666,-0.0851916 0.0901774,-0.130807 0.0131612,-0.0233495 0.0234114,-0.0479067 0.0351791,-0.0715969 0.019974,-0.0422706 0.0393287,-0.0828381 0.0546577,-0.126285 0.00966186,-0.027685 0.0173728,-0.0547506 0.024743,-0.0813826 0.0117367,-0.0429519 0.0212437,-0.0859039 0.0284901,-0.130404 0.00442835,-0.0277779 0.0084851,-0.0566086 0.0110864,-0.0858729 0.00396384,-0.0436332 0.00408771,-0.0894961 0.00309675,-0.134771 -0.00142451,-0.0273133 -0.000898058,-0.0554009 -0.003809,-0.0828691 -0.00529544,-0.049548 -0.0140283,-0.0982909 -0.0255482,-0.146724 -0.00603866,-0.0236282 -0.00854703,-0.0475971 -0.0152979,-0.0706059 -0.0218631,-0.0711014 -0.0486809,-0.142079 -0.0845723,-0.211013 -0.034281,-0.0659298 -0.0740743,-0.127741 -0.121052,-0.185743 0.204014,-0.350831 0.219467,-0.781682 0.0290166,-1.14694 -0.0700795,-0.134585 -0.16549,-0.253872 -0.281371,-0.351853 0.0561751,-0.162394 0.0626163,-0.337391 0.0166296,-0.501116 -0.0145238,-0.0545647 -0.0359842,-0.108108 -0.062895,-0.159699 -0.025703,-0.0492074 -0.0556486,-0.0942651 -0.0907348,-0.137155 -0.010467,-0.013347 -0.023814,-0.0242166 -0.0358294,-0.037161 -0.0256721,-0.0272204 -0.050508,-0.0535428 -0.0782549,-0.0770472 -0.0156076,-0.013378 -0.0329804,-0.024743 -0.0500745,-0.0359223 -0.0272514,-0.0202528 -0.0546886,-0.0387713 -0.0840149,-0.0539454 -0.0200669,-0.0114889 -0.0396694,-0.019974 -0.0610679,-0.0292024 -0.0168463,-0.00795865 -0.0334759,-0.0179302 -0.0522732,-0.0248359 0.141429,-0.261675 0.454634,-0.398304 0.747556,-0.308684 0.12548,0.0386784 0.233588,0.114425 0.311316,0.219838 0.037192,0.0492693 0.0926238,0.0824045 0.154156,0.0907348 0.0608202,0.00771091 0.123529,-0.00833026 0.172303,-0.0465751 0.198657,-0.154125 0.460022,-0.203302 0.698162,-0.130497 0.305061,0.093398 0.515361,0.369721 0.522143,0.687262 0.00130064,0.109594 0.0805775,0.202775 0.189552,0.221944 0.0303172,0.00479996 0.0605724,0.0114889 0.0902084,0.0202528 0.191906,0.0587454 0.347858,0.187849 0.439429,0.363435 0.0914471,0.177258 0.107674,0.379197 0.0455532,0.569028zm-0.050477 1.96418c0.15459,-0.130497 0.27239,-0.302305 0.335471,-0.497555 0.0978573,-0.299549 0.0580021,-0.621394 -0.100923,-0.882543 0.115044,-0.127215 0.201444,-0.277686 0.25477,-0.441101 0.100985,-0.310418 0.0736717,-0.637559 -0.0754988,-0.923947 -0.144649,-0.277345 -0.386815,-0.483465 -0.685466,-0.581446 -0.0748485,-0.440699 -0.392296,-0.805929 -0.830394,-0.940205 -0.313608,-0.095287 -0.650008,-0.0618731 -0.935436,0.0918187 -0.11427,-0.102874 -0.250465,-0.178961 -0.401308,-0.224731 -0.395486,-0.121052 -0.809243,0.000774188 -1.08903,0.274775 -0.00826832,-0.0183947 -0.0130373,-0.0376875 -0.0224205,-0.0556486 -0.415708,-0.797135 -1.41165,-1.10124 -2.22087,-0.679396 -0.152794,0.0797723 -0.291466,0.181284 -0.411682,0.303544 -0.356932,-0.119566 -0.752913,-0.0909206 -1.09111,0.0853465 -0.377277,0.196644 -0.640005,0.549487 -0.723153,0.954295 -0.241082,0.00526448 -0.476962,0.0662085 -0.693486,0.179054 -0.765238,0.398954 -1.06915,1.33767 -0.676516,2.09086l0.00430448 0.00826832c-0.141769,0.187539 -0.2343,0.400627 -0.28072,0.622168l0.00294191 -0.000805155 -0.00408771 0.00659608c-0.0592408,0.289144 -0.0521493,0.461911 0.0278088,0.738885 0.00647221,0.0196953 0.00938316,0.0397003 0.0170321,0.0597673 0.0246192,0.0735788 0.0548744,0.146476 0.0913232,0.216525 0.200824,0.385112 0.554876,0.662488 0.972287,0.771989 0.000402578,0.214326 0.0521183,0.423326 0.15205,0.614891 0.0212747,0.0409081 0.0445932,0.0806394 0.0704511,0.118327 0.00820639,0.0131612 0.0186734,0.0256101 0.0278398,0.0385545 0.0164437,0.0243714 0.0340952,0.0484022 0.0520254,0.0707917 0.0113651,0.014276 0.024743,0.0277779 0.0368204,0.0415274 0.0176205,0.0187663 0.0344049,0.0392668 0.0529854,0.0573828 0.0138115,0.0143689 0.0292643,0.0267559 0.0422706,0.0401339 0.0189211,0.0167225 0.0364488,0.0329804 0.0547196,0.0487429 0.0158554,0.0135328 0.0329804,0.0246192 0.0496099,0.0366036 0.0187353,0.0141831 0.0365107,0.0289856 0.0560202,0.0418681 0.0175895,0.0122941 0.0353959,0.0220179 0.0521803,0.0322991 0.0203147,0.0120773 0.04001,0.0250217 0.0606344,0.0357055 0.0176205,0.0099096 0.0363868,0.0189211 0.0547506,0.0272204 0.0206863,0.0106528 0.0411249,0.0204386 0.0624305,0.0293882 0.0192928,0.00786575 0.0396694,0.0151741 0.0596744,0.0224514 0.0203457,0.00709156 0.0411868,0.0153909 0.0625234,0.0222347 0.020036,0.00693672 0.0413726,0.0111793 0.0623066,0.0168463 0.020934,0.00678188 0.0427661,0.0117677 0.0645982,0.0168773 0.0200669,0.0048619 0.0418061,0.00730833 0.062926,0.0117367 0.0218321,0.00266321 0.04289,0.00684382 0.0662395,0.00987864 0.0205934,0.00337546 0.0422706,0.00337546 0.0633905,0.00507867 0.0227611,0.00201289 0.0449648,0.00315869 0.0672305,0.00430448 0.0213985,6.1935e-005 0.042921,0.000185805 0.0642266,-0.000805155 0.0226063,-0.000216773 0.0452126,-0.00049548 0.0683453,-0.00263224 0.0221418,-0.00136257 0.0431997,-0.00455222 0.0650318,-0.00706059 0.0224205,-0.00318965 0.0455532,-0.00467609 0.0675401,-0.008578 0.0220798,-0.00421158 0.0428281,-0.00833026 0.0643505,-0.0130064 0.0224514,-0.00572899 0.0453984,-0.0101883 0.0675092,-0.0164747 0.0213676,-0.00579092 0.0432616,-0.0124799 0.0636382,-0.019107 0.0225134,-0.00786575 0.0445622,-0.0144928 0.0664563,-0.0233495 0.0215844,-0.00737027 0.0419919,-0.0166915 0.0630498,-0.0250837 0.114642,-0.0501364 0.448069,-0.250063 0.535119,-0.410072 0.0221418,-0.027685 0.0460487,-0.0553699 0.0661466,-0.0850677 0.15589,0.0531712 0.31943,0.0822497 0.483558,0.0879787 0.0302862,0.0336307 0.0807942,0.102255 0.1357,0.180014 -1.12697,0.409329 -1.87403,1.5498 -1.73799,2.79296 0.00845413,0.0776665 0.0201908,0.154187 0.0351791,0.229438 -0.632542,-0.0011458 -1.06903,-0.00213676 -1.26629,-0.00253934l-0.118575 -0.00024774 0 0.000402578c-0.0972689,0 -0.192804,0.0204076 -0.28038,0.0585905 -0.0882884,0.0384307 -0.168928,0.0946367 -0.235632,0.1658l0.000185805 0.000216773c-0.060975,0.0654653 -0.108727,0.141429 -0.141429,0.22309 -0.0327636,0.0819091 -0.0506319,0.169547 -0.0518706,0.258021l0.000340643 0 0 0.010498 0 0.010529 -0.000309675 0 0.000402578 0.0159483 9.29025e-005 0 0.00102193 0.0194786 9.29025e-005 0c0.099158,1.46631 0.61486,2.56742 1.44785,3.46486 0.838229,0.902982 2.00041,1.60421 3.38441,2.26475l0.000402578 0.000402578c0.164964,0.08002 0.316426,0.185898 0.446923,0.311657 0.129816,0.125047 0.239379,0.270006 0.321536,0.429024 0.0850058,0.163694 0.12068,0.350459 0.108355,0.540228 -0.0122322,0.187663 -0.0715349,0.378733 -0.176422,0.55342l0 0.000402578c-0.0642576,0.106559 -0.0975477,0.223523 -0.0993128,0.340023 -0.00176515,0.116871 0.027654,0.234331 0.0885361,0.341665 0.0610679,0.107488 0.146724,0.193702 0.248143,0.252943 0.100521,0.0586525 0.21702,0.0907348 0.340952,0.0907348l7.77458 0c0.123684,0 0.240432,-0.0321133 0.340674,-0.0908277 0.100551,-0.0588073 0.185681,-0.144928 0.245975,-0.252478l0.000402578 -0.00037161c0.0612537,-0.107829 0.0910445,-0.225691 0.0890935,-0.343337 -0.00188902,-0.116902 -0.0354888,-0.234703 -0.100954,-0.343275l0.000278708 -0.000154838c-0.104299,-0.172179 -0.162951,-0.3617 -0.174874,-0.54797 -0.0121702,-0.189273 0.0235972,-0.3761 0.107891,-0.539299 0.0832097,-0.160319 0.19302,-0.306052 0.323239,-0.431501 0.130342,-0.125604 0.281402,-0.23108 0.446892,-0.310883l0.000402578 -0.000402578c1.38332,-0.660537 2.54522,-1.36133 3.38314,-2.2641 0.832778,-0.897191 1.34836,-1.99833 1.44717,-3.46551 0.00656511,-0.0983528 -0.00767994,-0.196582 -0.0402578,-0.288338 -0.0326088,-0.0917877 -0.0837361,-0.176979 -0.150843,-0.249227 -0.0174657,-0.0188592 -0.0359533,-0.0366346 -0.0552151,-0.0532951 0.378237,-0.211167 0.786451,-0.910692 0.639789,-1.3923 -0.0730833,-0.239967 -0.230367,-0.439801 -0.439305,-0.567015 0.0363868,-0.209557 0.0109006,-0.424843 -0.074384,-0.618669 -0.220365,-0.500528 -0.772577,-0.752603 -1.28472,-0.6139 -0.0111793,-0.0164128 -0.0239379,-0.0312152 -0.0358913,-0.0473803 0.0321443,-0.0336926 0.0637311,-0.0679737 0.0938006,-0.103803 0.393009,-0.478758 0.488203,-1.05869 0.236809,-1.44748 -0.165088,-0.254677 -0.45129,-0.39976 -0.791065,-0.409421 0.00483093,-0.290475 -0.0845413,-0.544811 -0.261397,-0.733063 -0.188282,-0.200391 -0.447914,-0.306393 -0.751334,-0.305525 -0.402206,0.00074322 -0.83603,0.191689 -1.18469,0.51564 -0.217485,-0.13474 -0.475289,-0.192649 -0.755979,-0.16995 -0.47114,0.0389881 -0.943828,0.303141 -1.29717,0.725909 -0.0386165,0.0464513 -0.0766136,0.0947296 -0.111731,0.145052 -0.228974,-0.149976 -0.500683,-0.218042 -0.784469,-0.194352 -0.150161,0.0130064 -0.298341,0.0507248 -0.44073,0.110523l-0.0469467 0.0206244c-0.268179,0.123003 -0.513596,0.325438 -0.707762,0.589869 -0.0901774,0.1213 -0.166512,0.253965 -0.227363,0.39304 -0.366439,-0.592656 -0.956091,-1.02478 -1.63861,-1.19113 0.163632,-0.53323 0.329247,-1.03475 0.486314,-1.47182 0.180541,0.256814 0.454139,0.515021 0.792675,0.613962 0.0381829,0.0116438 0.0761181,0.00978573 0.110833,-0.00216773 0.0550293,-0.0187663 0.0997463,-0.0625234 0.116964,-0.121981 0.028552,-0.0968664 -0.0271895,-0.198904 -0.123808,-0.227302 -0.319894,-0.0940483 -0.591758,-0.410567 -0.718973,-0.68305 -0.00337546,-0.00712253 -0.0098167,-0.0116438 -0.0136257,-0.0177444 0.231049,-0.598478 0.433824,-1.01511 0.56844,-1.12236 0.0751891,-0.0599221 0.158058,-0.105197 0.250094,-0.136722 0.0864303,-0.0296049 0.182584,-0.0474422 0.286852,-0.0527996 0.13508,0.146662 0.269324,0.309706 0.400905,0.48684 0.00898058,0.012387 0.0174657,0.0234114 0.0256411,0.0358913 0.0549673,0.0749414 0.109315,0.153661 0.164437,0.234114 0.0115509,0.0178373 0.023783,0.0344049 0.0358604,0.0531402 0.0632666,0.0964948 0.12644,0.195033 0.188871,0.29766 0.00427352,0.00696769 0.00984767,0.0115509 0.0148025,0.0183018 0.00473803,0.00520254 0.00891864,0.0122941 0.0143999,0.0170012 0.00170321,0.0022916 0.0022916,0.00399481 0.00452126,0.00514061 0.00452126,0.00501674 0.0101264,0.00681285 0.0150502,0.0107767 0.00145547,0.00161031 0.00266321,0.00207482 0.00393287,0.00337546 0.0060077,0.00368513 0.011396,0.00839219 0.0176824,0.0122012 0.00167225,0.000309675 0.00198192,0.00099096 0.00399481,0.00120773 0.000309675,0.00074322 0.00108386,0.000557415 0.0022916,0.00108386 0.00606963,0.00377804 0.0130683,0.00498577 0.0205315,0.00749414 0.00111483,0.000464513 0.00309675,0.000805155 0.00449029,0.00195095 0.00532641,0.00201289 0.0110244,0.00492383 0.0169702,0.00551222 0.00195095,0.000278708 0.00483093,0.000278708 0.00727736,0.0013316 0.00458319,0.00037161 0.00953799,0.000650318 0.0142141,0.00086709 0.00489287,0.000185805 0.00898058,0.000805155 0.013347,9.29025e-005 0.0060077,0.00099096 0.0118915,0.00157934 0.0174966,0.00179612 0.108572,-0.00885671 0.214233,-0.0157625 0.318253,-0.0212747 0.0242476,-0.0013316 0.0454603,-0.00216773 0.0686859,-0.00365417 0.0821568,-0.00331352 0.16227,-0.00687479 0.241268,-0.0084851 0.0196953,-0.000216773 0.0391739,-0.00120773 0.059055,-0.00142451 0.0821258,-0.000464513 0.163044,-0.00164128 0.241113,-6.1935e-005 0.013347,0.000278708 0.0272824,6.1935e-005 0.0408461,0.000278708 0.0901464,0.00126967 0.178404,0.00396384 0.262852,0.00836123 0,0 0,0 0.000929025,-0.00024774 0.0722162,0.138951 0.107457,0.27815 0.104949,0.422645 -0.00969283,0.643722 -0.828536,1.05014 -0.427568,1.34464 0.280194,0.123158 0.79091,-1.10867 0.794471,-1.33938 0.00161031,-0.133005 -0.0201908,-0.263812 -0.0631118,-0.391832 0.555402,0.0700795 0.884618,0.210951 1.0772,0.345566 0.280473,0.197356 0.644186,0.253686 0.951415,0.148489l0.0101883 -0.00340643c0.254677,-0.0902393 0.442247,-0.285861 0.513503,-0.536295 0.105506,-0.371734 -0.0789981,-0.671066 -0.263626,-0.845382 0.00950703,-0.0220798 0.0193237,-0.0433855 0.0258579,-0.0654653 0.198719,-0.572125 -0.0987554,-0.94423 -0.270749,-1.05104 -0.3988,-0.306207 -0.846342,-0.425401 -1.3295,-0.355631 -0.0379042,0.00529544 -0.0751581,0.0153289 -0.113062,0.0234114 0.0330114,-0.0557725 0.0642576,-0.110864 0.0928406,-0.165088 0.206367,-0.392265 0.247337,-0.750714 0.121331,-1.06398 -0.192835,-0.480709 -0.706833,-0.658555 -0.728263,-0.666669l-0.010467 -0.00287998c-0.879508,-0.24006 -1.48084,0.621208 -1.50607,0.658183l-0.0204076 0.0392049c-0.00749414,0.0195095 -0.0135018,0.0413416 -0.0204386,0.0617182 -0.215782,-0.375419 -0.542798,-0.621115 -0.972163,-0.728665 -0.104701,-0.0378113 -0.763349,-0.246656 -1.26988,0.274589 -0.0627711,0.0649698 -0.114425,0.138394 -0.159947,0.215472 -0.197697,0.0109625 -0.402701,0.0641956 -0.576243,0.200948 -0.23684,0.18788 -0.334542,0.476869 -0.262078,0.774497 0.0772949,0.316921 0.333613,0.560202 0.652702,0.622261 0.293015,0.0570422 0.673698,0.21606 1.10845,0.598819 -0.165552,0.0445622 -0.31559,0.114766 -0.445561,0.218847 -0.340023,0.271988 -0.867276,1.64537 -1.35545,3.25682 -0.109439,-0.0107767 -0.220458,-0.0148334 -0.332653,-0.0117986zm-4.90318 2.04971c-0.0369442,-0.0613776 -0.066735,-0.110059 -0.080051,-0.126874 0.0154528,-0.00414965 0.030472,-0.0118915 0.0463274,-0.0176824 0.0360152,-0.0114889 0.0700485,-0.0239689 0.105661,-0.0383687 0.0231018,-0.00947606 0.0454293,-0.0203766 0.0689956,-0.0312462 0.0189211,-0.00994057 0.0403197,-0.017156 0.0595505,-0.0270966 0.0116748,-0.0061935 0.0215534,-0.0139663 0.0325159,-0.0195095 0.0225753,-0.0132231 0.0449648,-0.0261675 0.0675401,-0.0388952 0.0299146,-0.018085 0.0593028,-0.0373158 0.0869258,-0.0570731 0.0205315,-0.014276 0.0394836,-0.0292024 0.0597363,-0.0435713 0.0298527,-0.0231018 0.0592408,-0.0470087 0.0868329,-0.0720614 0.00953799,-0.00860897 0.0200669,-0.015267 0.0293262,-0.0239069 0.0883503,0.136412 0.21733,0.3207 0.335502,0.507681 -0.248514,-0.0464203 -0.506752,-0.0576615 -0.768149,-0.0290166 -0.0439739,0.00483093 -0.0875451,0.0107148 -0.130714,0.0176205zm1.91884 0.435063c0.00730833,-0.425648 0.0372229,-0.970677 0.109346,-1.34235 0.00356126,0.00185805 0.00771091,0.00337546 0.012418,0.00467609 0.0403197,0.0235972 0.0834574,0.0429519 0.129042,0.0573209 0.00148644,0.00049548 0.00201289,0.00148644 0.00297288,0.000959993 0.041899,0.0122941 0.0831787,0.0212127 0.124427,0.0250527 0.00170321,0.000588383 0.00331352,0.000959993 0.00479996,0.00148644 0.0212437,0.00161031 0.0417752,-0.000278708 0.0632357,-0.000216773 0.0222347,0.0010529 0.0449339,0.00334449 0.0675711,0.000464513 0.0110554,-0.00086709 0.0221727,-0.00399481 0.0326707,-0.00560512 0.0320204,-0.00399481 0.0643505,-0.00817542 0.095287,-0.0168773 0.04193,-0.0115509 0.0821258,-0.0275301 0.121424,-0.0466371 0.0250837,0.0174347 0.0462964,0.0326088 0.0646292,0.0454913 -0.30215,0.463677 -0.462747,1.02354 -0.427537,1.6117 -0.122384,-0.124675 -0.256628,-0.237025 -0.400286,-0.335471zm-5.92836 -3.54194c0.0767375,-0.079153 0.0856871,-0.200855 0.0236901,-0.290382 -0.0250217,-0.0363559 -0.0479067,-0.0726188 -0.0689337,-0.112598 -0.275487,-0.528708 -0.0605105,-1.18754 0.480182,-1.46947 0.202373,-0.105537 0.428838,-0.146167 0.655087,-0.118451 0.0640718,0.00863993 0.129692,-0.0116438 0.178837,-0.0539454 0.0488977,-0.0419919 0.0782859,-0.102843 0.080082,-0.167317 0.0106838,-0.332746 0.203395,-0.637621 0.502665,-0.793635 0.262264,-0.136722 0.575779,-0.1418 0.83956,-0.0128205 0.0970212,0.0470706 0.212809,0.0212747 0.280813,-0.0625853 0.105506,-0.131116 0.234548,-0.236189 0.383254,-0.313794 0.582809,-0.303946 1.30101,-0.0871426 1.59913,0.484487 0.0727427,0.139694 0.113062,0.29255 0.123684,0.451878 0,0 -0.00099096,0.000526448 -0.000340643,0.00157934l0.00427352 0.0444693c-0.000402578,0.00170321 0,0.00260127 0,0.00260127l0.00061935 0.00099096 -0.00102193 0.00061935c0.00102193,0.00941412 0.00517157,0.0176515 0.00650318,0.0271895 0.00275611,0.0198502 0.00483093,0.0405984 0.0130373,0.0590241 0.00219869,0.00411868 0.00637931,0.00687479 0.00898058,0.0118915 0.0108696,0.020996 0.0226992,0.0415894 0.0389881,0.0582499 0.00678188,0.00535738 0.0132851,0.00839219 0.0193547,0.0127586 0.0158244,0.0134399 0.0332591,0.0269727 0.0515609,0.0354578 0.0267869,0.0126347 0.0564847,0.0186115 0.0872974,0.0191379 0.14242,0.00309675 0.266568,0.0779762 0.329928,0.199555 0.0641027,0.12291 0.0519944,0.272452 -0.0296049,0.391336 -0.0367584,0.0532331 -0.0489596,0.119473 -0.0356126,0.18212 0.0151121,0.0631737 0.0550602,0.117398 0.110895,0.149078 0.120835,0.0689956 0.218538,0.168835 0.282207,0.290692 0.135576,0.260313 0.099158,0.577389 -0.0940793,0.807911 -0.0792459,0.0958754 -0.0680976,0.23718 0.0245572,0.319399 0.0678498,0.0598602 0.121578,0.128329 0.161619,0.205191 0.186146,0.357086 0.0398552,0.804102 -0.326459,0.995048 -0.0369752,0.0193237 -0.0759633,0.0344978 -0.117615,0.0473184 -0.00842316,0.00328256 -0.0163818,0.00473803 -0.0247121,0.00780381 -0.0403507,0.0108696 -0.0824974,0.0200979 -0.124582,0.0242166 -0.164066,0.0183637 -0.33191,-0.0159792 -0.474236,-0.104175 -0.067695,-0.0419919 -0.153444,-0.0453984 -0.223709,-0.0100954 -0.0767685,0.0401029 -0.119906,0.105785 -0.126812,0.185248 -0.0216463,0.228447 -0.109284,0.440544 -0.244674,0.616315 -0.0205624,0.0260437 -0.0402887,0.0515299 -0.061966,0.0755917 -0.0115509,0.0121393 -0.0233185,0.0235353 -0.0341881,0.0338785 -0.0217392,0.021925 -0.0420539,0.043819 -0.0658369,0.0637931 -0.0149883,0.0129754 -0.032392,0.0258579 -0.0486809,0.0379042 -0.0202528,0.0172489 -0.0408771,0.0340023 -0.0628331,0.0481235 -0.0369752,0.0258269 -0.0755607,0.049517 -0.116159,0.0707298 -0.0312772,0.016165 -0.0621208,0.0301004 -0.0947606,0.0429829 -0.0100644,0.00526448 -0.0198811,0.010467 -0.0304101,0.0146786 -0.0350552,0.0130064 -0.0711943,0.0244334 -0.108324,0.0349933 -0.00671995,0.00216773 -0.0139973,0.004769 -0.0207792,0.00696769 -0.0398552,0.0106528 -0.0816613,0.0185495 -0.122941,0.024774 -0.00325159,0.000526448 -0.00634834,0.00210579 -0.0100954,0.00263224 -0.0449339,0.00560512 -0.0907967,0.0106528 -0.137031,0.0116748 -0.196551,0.0073393 -0.395053,-0.032423 -0.575005,-0.122415 -0.0554938,-0.0281185 -0.120092,-0.0327017 -0.179271,-0.0122012 -0.0104051,0.00458319 -0.0208102,0.00870187 -0.0307198,0.0138425 -0.0449648,0.0234424 -0.0802058,0.0606653 -0.101821,0.106311 -0.0316488,0.0685001 -0.0735169,0.129475 -0.11876,0.186053 -0.000526448,0.00161031 -0.00309675,0.00161031 -0.00356126,0.00309675 -0.0414036,0.0521183 -0.0864923,0.0972999 -0.134244,0.137279 -0.00188902,0.00086709 -0.00315869,0.00294191 -0.00526448,0.00396384 -0.0486809,0.040939 -0.0993128,0.0749414 -0.15428,0.103648 -0.452838,0.236096 -1.01001,0.0681285 -1.24093,-0.374738 -0.0884432,-0.169547 -0.118451,-0.360833 -0.0878548,-0.553266 0.00975477,-0.061904 -0.00616253,-0.125914 -0.044748,-0.175803 -0.0375636,-0.0501054 -0.0939245,-0.0828381 -0.157067,-0.0892793 -0.35913,-0.0410629 -0.670199,-0.253469 -0.833924,-0.567634 -0.0244334,-0.0469777 -0.0441597,-0.0947296 -0.0607892,-0.143411 -0.00421158,-0.0130373 -0.00789671,-0.0250217 -0.012387,-0.03809 -0.0105599,-0.0375946 -0.0203457,-0.0756846 -0.0280256,-0.114766 -0.00148644,-0.0130683 -0.00479996,-0.0266011 -0.00718446,-0.0406603 -0.00585286,-0.0427971 -0.00907348,-0.0851916 -0.0097238,-0.128144 -0.00074322,-0.00885671 -0.00244643,-0.0165366 -0.00142451,-0.0246192 -0.000278708,-0.275177 0.104268,-0.549518 0.306578,-0.76019zm4.87401 2.23384c0.0708537,-0.119442 0.127617,-0.246842 0.166791,-0.381148 0.128856,0.0379662 0.262945,0.0490835 0.39753,0.0423636 0.0104361,0.00498577 0.0188592,0.00929025 0.0311223,0.0130373 0.0509416,0.0153599 0.103493,0.0258269 0.15555,0.033321 -0.0989102,0.425772 -0.144928,0.890378 -0.157284,1.32163 -0.191286,-0.398954 -0.402082,-0.74449 -0.593709,-1.02921zm-1.20163 -3.41054c0.027654,-0.0112722 0.0553699,-0.0245263 0.0826213,-0.0387713 0.191224,-0.0996844 0.340581,-0.261706 0.426577,-0.462871 0.199617,-0.474298 -0.0224205,-1.02323 -0.495945,-1.22325 -0.0970212,-0.0407842 -0.208969,0.00399481 -0.249598,0.100613 -0.0416203,0.0974238 0.00390191,0.208938 0.100551,0.249629 0.281402,0.118822 0.412859,0.44361 0.294098,0.724609 -0.058126,0.136195 -0.162641,0.241144 -0.3015,0.2967 -0.136814,0.0558035 -0.287348,0.0544099 -0.423388,-0.00275611 -0.0965257,-0.0406913 -0.208535,0.00408771 -0.249443,0.10083 -0.0408152,0.0967425 0.00411868,0.20869 0.100861,0.249536 0.230027,0.097207 0.483743,0.0992199 0.715164,0.00572899zm-1.70105 3.2815c0.130528,-0.00922832 0.255358,-0.0451816 0.367708,-0.10371 0.102224,-0.0532951 0.194507,-0.125542 0.272948,-0.214512 0.163261,-0.188035 0.244427,-0.428405 0.226868,-0.677321 -0.00665801,-0.105475 -0.0982289,-0.184752 -0.20358,-0.177165 -0.105011,0.00755607 -0.18339,0.0988483 -0.17605,0.202992 0.0096309,0.147158 -0.038121,0.289422 -0.135142,0.400967 -0.0971141,0.111359 -0.231327,0.178063 -0.379197,0.188066 -0.303636,0.0211198 -0.567542,-0.209433 -0.588352,-0.513225 -0.00777284,-0.104949 -0.0985386,-0.184659 -0.203611,-0.177134 -0.106095,0.00811349 -0.184164,0.0992818 -0.177165,0.203549 0.0359223,0.513163 0.482102,0.902393 0.995574,0.867493zm0.962563 -1.76174c0.1453,-0.00461416 0.28103,-0.0418681 0.402516,-0.105135 0.3076,-0.160443 0.514123,-0.486159 0.502819,-0.855849 -0.00346836,-0.105166 -0.090518,-0.187756 -0.196055,-0.185093 -0.105413,0.00331352 -0.187322,0.0911993 -0.184783,0.197077 0.00984767,0.304163 -0.230894,0.558747 -0.535211,0.568378 -0.304968,0.00891864 -0.56014,-0.231203 -0.569059,-0.536171 -0.00346836,-0.105104 -0.0914471,-0.187261 -0.196984,-0.184597 -0.10529,0.0036232 -0.187199,0.0914161 -0.183978,0.196613 0.0154528,0.514246 0.446211,0.920076 0.960736,0.904778zm1.9176 -1.07197c-0.057166,0.0875142 -0.0323301,0.205717 0.0564538,0.263193 0.123715,0.0802678 0.208164,0.204107 0.239348,0.348354 0.0302862,0.144494 0.00315869,0.291838 -0.0774497,0.416823 -0.0802368,0.123777 -0.204014,0.208256 -0.348384,0.23941 -0.144494,0.0302862 -0.291869,0.00312772 -0.415553,-0.0770472 -0.0887529,-0.0577234 -0.206832,-0.0326398 -0.263688,0.0555247 -0.0575996,0.0888458 -0.0317417,0.206398 0.0555557,0.263719 0.292922,0.189366 0.6523,0.194817 0.941753,0.04385 0.137929,-0.0718756 0.260034,-0.179643 0.350026,-0.318594 0.135297,-0.209093 0.182646,-0.458257 0.130714,-0.702993 -0.0523351,-0.243064 -0.196117,-0.452466 -0.405489,-0.588599 -0.0884122,-0.0568563 -0.206708,-0.0319585 -0.263286,0.0563609zm2.77707 -0.967766c-0.0634215,0.0794626 -0.050539,0.194786 0.0275921,0.258052 0.111173,0.0892484 0.180262,0.215751 0.19556,0.357117 0.0158554,0.140964 -0.0250527,0.279296 -0.114332,0.390407 -0.0885051,0.110709 -0.214915,0.179735 -0.356405,0.194879 -0.141305,0.015267 -0.280535,-0.0252385 -0.391182,-0.113744 -0.0788123,-0.0639169 -0.193547,-0.0515299 -0.257309,0.0271895 -0.0636692,0.0793697 -0.0507557,0.194909 0.0275921,0.257835 0.187353,0.150502 0.421839,0.219126 0.659546,0.193113 0.113806,-0.0120773 0.221603,-0.0450887 0.319058,-0.0958754 0.108913,-0.0567634 0.204726,-0.135885 0.284746,-0.234238 0.149697,-0.186951 0.218321,-0.420694 0.192928,-0.65936 -0.025734,-0.2391 -0.143472,-0.453055 -0.331012,-0.603464 -0.0782549,-0.0630189 -0.192742,-0.0507557 -0.256783,0.0280875zm-5.99745 1.97158c0.0244643,-0.00337546 0.0474732,-0.00997154 0.0678808,-0.0206553 0.0677879,-0.0353339 0.109687,-0.109439 0.101202,-0.19011 -0.0113651,-0.104237 -0.105351,-0.180045 -0.209557,-0.168742 -0.302645,0.0330114 -0.576801,-0.186827 -0.608914,-0.490185 -0.0329494,-0.302522 0.186424,-0.575438 0.490154,-0.608852 0.104144,-0.011458 0.179921,-0.105506 0.168649,-0.209619 -0.0118296,-0.105042 -0.105382,-0.180014 -0.209619,-0.168711 -0.513317,0.0558035 -0.883131,0.517095 -0.828257,1.02865 0.055308,0.51245 0.517034,0.883069 1.02846,0.828226zm14.1978 -2.86855c0.0285211,0.0195715 0.270099,0.195033 0.14626,0.598633 -0.00966186,-0.00606963 -0.0201598,-0.0119535 -0.0305959,-0.0178683 -0.0177444,-0.00987864 -0.0350862,-0.019076 -0.0527377,-0.0292024 -0.0454913,-0.0250837 -0.0906419,-0.0493003 -0.135111,-0.0719685 -0.0136876,-0.00656511 -0.0275921,-0.0141831 -0.0410939,-0.0200669 -0.724764,-0.346031 -1.40097,-0.302088 -1.96241,-0.109935 -0.199028,0.0680046 -0.38409,0.155147 -0.551717,0.24839 0.0158863,-0.0147715 0.033321,-0.0303482 0.0499196,-0.0455222 0.0229779,-0.0209031 0.0461416,-0.0421468 0.0697698,-0.0635763 0.0262914,-0.0230708 0.052459,-0.0462964 0.0787813,-0.0685001 0.0221108,-0.0189831 0.0456461,-0.0381829 0.0686859,-0.0565467 0.04097,-0.0348075 0.0843245,-0.0684692 0.128422,-0.102719 0.0279327,-0.0206863 0.0547506,-0.0420229 0.0827142,-0.0623995 0.0274682,-0.0196644 0.0557725,-0.0386475 0.0830858,-0.0585286 0.0305959,-0.0209031 0.0624924,-0.0411558 0.0942032,-0.0615324 0.0312462,-0.0201289 0.0621828,-0.0401339 0.0933361,-0.0594886 0.044841,-0.0265392 0.0894342,-0.0512203 0.134925,-0.0754988 0.0248359,-0.0130373 0.0497648,-0.0255482 0.0742911,-0.0373778 0.194909,-0.0964328 0.397406,-0.168216 0.603433,-0.199059 0.386629,-0.0558654 0.731545,0.0370371 1.06584,0.292767zm-5.64429 8.26898c-0.516104,-0.672305 -1.34037,-1.08309 -2.23455,-1.04156 -0.0341572,0.00120773 -0.0674472,0.00393287 -0.101604,0.00594576 -0.021894,0.00232256 -0.0434164,0.00188902 -0.065744,0.00436642 -0.00523351,0.00049548 -0.00953799,0.00188902 -0.0138115,0.0023845 -0.00786575,0.000805155 -0.015236,0.000774188 -0.0222347,0.00148644 -0.261614,0.028614 -0.517157,0.0970212 -0.762327,0.202528 -0.155767,-0.271771 -0.25189,-0.568223 -0.286109,-0.881119 -0.13796,-1.26028 0.775241,-2.39685 2.03475,-2.53463 1.26044,-0.138146 2.39704,0.774095 2.535,2.03441 0.0965567,0.881397 -0.334883,1.74508 -1.08337,2.20619zm-7.99336 0.581012c-0.0203766,-0.0878858 -0.0357675,-0.177908 -0.0458319,-0.26982 -0.137991,-1.26032 0.774157,-2.39707 2.03457,-2.53494 1.08634,-0.118977 2.11102,0.557075 2.43779,1.58845 -0.471666,0.296607 -0.82866,0.725847 -1.03682,1.22086 -1.36245,-0.0013316 -2.51973,-0.00306578 -3.3897,-0.00455222zm3.82684 0.0049548c0.336803,-0.668774 0.992849,-1.16085 1.78952,-1.25319 0.0309985,-0.0022916 0.0618731,-0.00507867 0.0931503,-0.00665801 0.0194786,-0.00126967 0.0399481,-0.00260127 0.0595815,-0.00390191 0.795648,-0.0262295 1.54729,0.358542 1.99313,1.03233l0.0898367 0.135111c0,0 0.0187973,0.0372849 0.0472564,0.098136 -1.47117,-3.09675e-005 -2.84666,-0.00074322 -4.07248,-0.00182708zm4.51002 0.00179612c-0.0277779,-0.0661776 -0.058095,-0.130962 -0.0908277,-0.194228 0.0464513,-0.0758704 0.093398,-0.149728 0.141057,-0.221727 0.327729,-0.246439 0.591479,-0.564228 0.774714,-0.922987 0.398366,-0.365819 0.872262,-0.661063 1.47926,-0.907936l0.128639 -0.0525209 -0.0103741 -0.139168c-0.024774,-0.336865 0.165428,-0.65487 0.474515,-0.790972 0.219529,-0.0966186 0.469003,-0.0901464 0.683019,0.0185805l0.14564 0.073424 0.0950083 -0.131643c0.121238,-0.164592 0.2823,-0.294315 0.467455,-0.375791 0.570483,-0.251146 1.23155,-0.00910445 1.50744,0.550602l0.101821 0.207978 0.184814 -0.140592c0.0634524,-0.0482783 0.130435,-0.0879168 0.198037,-0.117615 0.0538525,-0.0238759 0.108479,-0.0405055 0.163725,-0.0536667 0.0140902,-0.00331352 0.0282424,-0.00545028 0.0422706,-0.00839219 0.0444074,-0.00836123 0.0883503,-0.0146476 0.133408,-0.0169083 0.0115818,-0.00120773 0.0237521,-0.00139354 0.0359842,-0.00151741 0.0538835,-0.000557415 0.106683,0.00167225 0.159142,0.00932122 0.00188902,0.00012387 0.00399481,0.000216773 0.00647221,0.0011458 0.112412,0.017156 0.221139,0.0557105 0.322,0.110368 0.0131612,0.00709156 0.0260127,0.0158863 0.0398552,0.0240618 0.0316798,0.0187044 0.0616253,0.0402578 0.0921593,0.0632666 0.0176205,0.0148954 0.0361391,0.0290785 0.053419,0.0449029 0.0824355,0.0737956 0.154063,0.160628 0.208566,0.262945l0.0837671 0.15589 0.162208 -0.0713491 0.013347 -0.00687479c0.356219,-0.149635 0.76979,0.0137496 0.926114,0.369009 0.0695221,0.158027 0.0772949,0.338103 0.0213985,0.507465l-0.0570112 0.171808 0.167689 0.0659298c0.176608,0.0700795 0.31014,0.213118 0.366191,0.398552 0.137867,0.44906 -0.366872,0.855261 -0.706059,1.10947 -0.0097238,-0.000402578 -0.0194786,-0.00061935 -0.0292643,-0.00061935l-0.0668589 0 0 -0.000402578 -0.977366 0.0022916c-0.0253005,-0.0825594 -0.0593647,-0.165459 -0.105042,-0.243714 0.156788,-0.0281495 0.319647,-0.00820639 0.388518,0.00755607 0.102936,0.0250217 0.205841,-0.0375946 0.230956,-0.140376 0.0242785,-0.102595 -0.0377804,-0.205717 -0.141057,-0.230429 -0.0187044,-0.00501674 -0.423821,-0.101202 -0.774559,0.054317 -0.267435,-0.186022 -1.02905,-0.635794 -2.18095,-0.677383 -0.0625853,-0.00297288 -0.127679,-0.00281804 -0.193237,-0.00170321 0.11588,-0.620651 0.731422,-0.797847 0.761429,-0.805744 0.101202,-0.0273753 0.162301,-0.131798 0.136071,-0.233092 -0.0258579,-0.103029 -0.131984,-0.163199 -0.233619,-0.136907 -0.340054,0.0893103 -0.962037,0.449741 -1.05367,1.1937 -0.439615,0.0383687 -0.940112,0.1405 -1.49341,0.347363 -0.0186424,0.00396384 -0.0348075,0.0111793 -0.0515609,0.0194786 -0.38536,0.148149 -0.797135,0.34984 -1.22947,0.613652 0.0244334,-0.27589 0.15812,-0.456058 0.168185,-0.467609 0.0643815,-0.0833645 0.0504461,-0.202806 -0.0324849,-0.268024 -0.0818781,-0.0660537 -0.201815,-0.0517467 -0.267435,0.0310294 -0.0142451,0.0164437 -0.308313,0.396508 -0.245294,0.945531l-1.12474 0.00024774zm1.10216 -2.83365c-0.0231947,-0.211229 -0.070482,-0.413974 -0.139137,-0.605817l0.00761801 -0.0348075c0.0491454,-0.226806 0.148644,-0.445777 0.286357,-0.632821 0.243993,-0.330516 0.579061,-0.537317 0.92085,-0.566458 0.255606,-0.0217082 0.486531,0.0580331 0.667071,0.232659l0.176886 0.169795 0.121021 -0.21349c0.0571351,-0.0995915 0.121331,-0.19206 0.190636,-0.275549 0.284839,-0.339466 0.67184,-0.560698 1.0363,-0.58959 0.241547,-0.0206553 0.456647,0.0435713 0.618979,0.184102l0.137743 0.117862 0.125945 -0.1309 0.0127586 -0.0145547c0.295244,-0.313422 0.673543,-0.501395 1.01462,-0.501921 0.135545,-0.000402578 0.328163,0.0322062 0.471945,0.185093 0.138673,0.147839 0.187539,0.375017 0.139756,0.641709l-0.0472564 0.261335 0.263317 -0.0392978c0.294966,-0.0432926 0.534066,0.0391739 0.654808,0.225567 0.159823,0.242414 0.0711324,0.652733 -0.21188,0.996442 -0.0224205,0.0270966 -0.0465751,0.0540383 -0.0707917,0.0798342 -0.00449029,-0.00287998 -0.00839219,-0.00538835 -0.0129754,-0.00839219 -0.037161,-0.0265701 -0.0751581,-0.050508 -0.114951,-0.0738575 -0.0231327,-0.0131612 -0.047659,-0.0248359 -0.0716278,-0.0377494 -0.0167225,-0.00774188 -0.0331662,-0.0149883 -0.049579,-0.0219869 -0.0944509,-0.0430139 -0.191782,-0.0745388 -0.292488,-0.094358 -0.00737027,-0.0010529 -0.0142451,-0.00281804 -0.021925,-0.003809 -0.0601389,-0.011396 -0.119658,-0.0176515 -0.179364,-0.0208411 -0.0156386,-0.000309675 -0.0299456,-0.00120773 -0.0444693,-0.00179612 -0.0287998,-0.000681285 -0.0561751,0.00012387 -0.0841697,0.00117677 -0.0297288,0.00179612 -0.059117,0.00458319 -0.08866,0.00740123 -0.0242785,0.00266321 -0.0480306,0.00606963 -0.0731453,0.0097238 -0.0416823,0.00709156 -0.0833336,0.0164128 -0.124366,0.0274682 -0.0154218,0.00467609 -0.0297907,0.00882574 -0.0449339,0.0134089 -0.0504461,0.0152979 -0.101171,0.032392 -0.150564,0.054317 -0.0317107,0.0139044 -0.0634215,0.0296978 -0.0947296,0.0466061 -0.411434,-0.609998 -1.20498,-0.85204 -1.89673,-0.547598 -0.200484,0.0883813 -0.379352,0.219188 -0.524837,0.381891 -0.281773,-0.0981051 -0.590303,-0.0878239 -0.866997,0.0339094 -0.413045,0.181965 -0.683577,0.584388 -0.702808,1.02927 -0.0945438,0.0404126 -0.185464,0.0815684 -0.272731,0.123963 -0.0285211,0.0137186 -0.0566396,0.0290785 -0.0844484,0.0422706 -0.058095,0.0296978 -0.115664,0.0592718 -0.171374,0.0897129 -0.0320823,0.0174037 -0.0628021,0.0359223 -0.0942341,0.0527996 -0.0494551,0.0286759 -0.0985696,0.0577544 -0.147158,0.0872355 -0.0314011,0.0187044 -0.0610989,0.0391739 -0.0923761,0.0589002 -0.0384307,0.0246192 -0.0767685,0.0501364 -0.114425,0.0759943 0.0542551,-0.264246 0.0687169,-0.538742 0.0385236,-0.814848zm4.56467 -4.46109c-0.0497648,0.175183 -0.181253,0.254955 -0.283508,0.29094l-0.00597673 0.00201289c-0.198006,0.0677259 -0.43627,0.0292643 -0.62192,-0.101171 -0.353061,-0.246966 -0.881924,-0.393473 -1.57312,-0.439986 -0.00120773,-0.000433545 -0.00216773,-0.000959993 -0.00337546,-0.00142451 -0.00755607,-0.000340643 -0.0160412,-0.000216773 -0.0241547,-0.00130064 -0.0598292,-0.00331352 -0.122291,-0.00641027 -0.184659,-0.00860897 -0.0541931,-0.00130064 -0.108758,-0.00337546 -0.164778,-0.00408771 -0.0573518,-0.0011458 -0.114177,-0.00154838 -0.172582,-0.00148644 -0.0813826,0.000216773 -0.164035,0.00201289 -0.248267,0.00461416 -0.0319275,0.000402578 -0.0613466,6.1935e-005 -0.0931503,0.00148644 0.0116748,-0.00978573 0.0259198,-0.0212127 0.0384926,-0.0313391 0.00449029,-0.00325159 0.0107767,-0.00467609 0.0153289,-0.00783478 0.473307,-0.382604 1.33393,-0.889635 2.32718,-0.607118 0.0512203,0.0145857 0.103308,0.0335688 0.155085,0.0527377 0.0251766,0.00956896 0.0499816,0.0160102 0.0754369,0.0261985 0.159266,0.064815 0.322062,0.150874 0.487552,0.261954l0.0321443 0.0218011c0.00126967,0.00049548 0.00219869,0.000216773 0.00315869,0.00086709 0.0860897,0.0605724 0.322681,0.257712 0.241113,0.541746zm-3.31374 -3.24385c0.0769233,-0.103679 0.516259,-0.6475 1.08848,-0.496007 0.0397623,0.0147096 0.379693,0.150998 0.501178,0.453736 0.0840768,0.209464 0.0484022,0.464729 -0.10563,0.757651 -0.0899296,0.171808 -0.209712,0.352658 -0.355569,0.536915 -0.0218631,0.010498 -0.0431997,0.0232256 -0.0647221,0.0345288 -0.0459248,0.0233185 -0.0924999,0.0478758 -0.136691,0.0732691 -0.0317107,0.0182399 -0.0612228,0.0368823 -0.0914471,0.0559273 -0.0353959,0.0215534 -0.0696769,0.0426732 -0.104484,0.0658989 -0.0316178,0.0204695 -0.0621208,0.0422087 -0.0932122,0.0640408 -0.0311843,0.021925 -0.0618111,0.0437881 -0.0921593,0.0656202 -0.0314011,0.0242166 -0.0624924,0.0469158 -0.0929954,0.070575 -0.026725,0.0214605 -0.0535738,0.0430448 -0.0801439,0.0644744 -0.0309365,0.0255482 -0.0621208,0.050508 -0.0929025,0.0770162 -0.0196644,0.0170941 -0.0393287,0.0341572 -0.0599841,0.0518396 -0.129165,0.114053 -0.246687,0.227209 -0.350738,0.334697l-0.00427352 0.00411868c0.0386475,-0.232504 0.070575,-0.504554 0.0789362,-0.789269 0.000712253,-0.018147 0.00210579,-0.0358294 0.00266321,-0.0529854 0.000836123,-0.050477 -0.000774188,-0.101945 -0.00117677,-0.152918 0.00012387,-0.0273443 -6.1935e-005,-0.0556796 -0.000681285,-0.0827762 -0.00170321,-0.0488048 -0.00479996,-0.0968973 -0.00829929,-0.144897 -0.0024774,-0.0303791 -0.00458319,-0.0607892 -0.00737027,-0.0911064 -0.00396384,-0.0477209 -0.0102502,-0.0939245 -0.016165,-0.141088 -0.00507867,-0.0314011 -0.00885671,-0.0622757 -0.0136567,-0.0925929 -0.00842316,-0.0463893 -0.017156,-0.0917567 -0.0271275,-0.137558 -0.00356126,-0.0157005 -0.00517157,-0.0320823 -0.00894961,-0.0478758 0.0388952,-0.177134 0.0841387,-0.335068 0.137124,-0.481235zm-2.32956 -0.292643c0.366841,-0.371177 0.860154,-0.187168 0.880561,-0.1802 0.00764897,0.00318965 0.0154528,0.00622447 0.0235663,0.00829929 0.339714,0.0832716 0.587392,0.267931 0.755452,0.563206 0.0717207,0.126781 0.12452,0.267033 0.162641,0.414624l0.00436642 0.0155767c0.0708846,0.281247 0.0890316,0.589126 0.0803607,0.884494 -0.0499816,-0.168556 -0.116531,-0.337825 -0.203952,-0.499878 -0.00284901,-0.00560512 -0.00560512,-0.010529 -0.00808252,-0.0151431 -0.0194166,-0.0350243 -0.0391429,-0.0698317 -0.0603557,-0.104206 -0.0128825,-0.0210579 -0.0266011,-0.0420539 -0.0402578,-0.0628021 -0.0107148,-0.017187 -0.0221727,-0.0340643 -0.0347765,-0.051499 -0.0188902,-0.0277469 -0.0388952,-0.0557725 -0.0602628,-0.0824974 -0.00557415,-0.00758704 -0.0117367,-0.0150502 -0.0172179,-0.0224824 -0.168432,-0.213025 -0.383687,-0.405241 -0.660227,-0.558158 -0.00702962,-0.00433545 -0.0153289,-0.00919735 -0.0224514,-0.0132231 -0.0392049,-0.0207482 -0.0793078,-0.0417442 -0.120154,-0.060975 -0.0202528,-0.0101264 -0.0412797,-0.0191999 -0.0624924,-0.0278708 -0.0312772,-0.0140283 -0.0626782,-0.0287998 -0.0960922,-0.0408771 -0.0605105,-0.0247121 -0.12226,-0.0471325 -0.188128,-0.0682834 0,0 -0.00130064,-0.00126967 -0.00226063,-0.00111483 -0.0175586,-0.00709156 -0.0567944,-0.021956 -0.111886,-0.0401339 0,0 0,0 -0.00102193,0.000309675 -0.0555247,-0.0187973 -0.126626,-0.038121 -0.210084,-0.0558035 -0.00207482,-0.000185805 -0.00436642,-0.00136257 -0.0072464,-0.00136257zm-0.543728 1.20306c-0.179364,-0.0352101 -0.322929,-0.172427 -0.366284,-0.349468 -0.0179921,-0.0741982 -0.0415894,-0.262171 0.132882,-0.399233 0.0499506,-0.0397623 0.104268,-0.0680046 0.162115,-0.0877619 0.0913232,-0.0312772 0.19107,-0.0408771 0.288524,-0.038152l0.00086709 -0.000340643c0.00216773,0.000340643 0.00501674,0.0013316 0.00792768,0.0011458 0.0334449,0.000681285 0.0663324,0.00275611 0.0996225,0.00644124 0.0159483,0.00219869 0.0309985,0.00461416 0.04673,0.00678188 0.0271585,0.00411868 0.0532022,0.00842316 0.0784407,0.0128825 0.00994057,0.00145547 0.019076,0.00377804 0.0281804,0.00560512 0.112474,0.0239998 0.203302,0.0551841 0.247864,0.0721853 0.00885671,0.00359223 0.0144618,0.00548125 0.015267,0.00526448 0.00563609,0.00278708 0.0109935,0.00452126 0.0163199,0.00659608 0.0944199,0.0301933 0.183885,0.0646602 0.270222,0.104206 0.0247121,0.011427 0.0451816,0.0243095 0.0691504,0.03617 0.0594886,0.0297288 0.118203,0.0605724 0.173573,0.0956277 0.0239998,0.0145238 0.0458319,0.0315869 0.0683143,0.0475971 0.0519015,0.035241 0.102533,0.0725259 0.149387,0.113527 0.0186734,0.0154528 0.0365107,0.0308746 0.054348,0.0474422 0.0536357,0.0489596 0.104422,0.100613 0.150657,0.155798 0.00771091,0.00870187 0.0150502,0.0166296 0.0226682,0.0250527 0.233278,0.283384 0.387558,0.64335 0.459651,1.07826 0.0494241,0.301747 0.0509725,0.59086 0.0363559,0.818967 -0.0655892,-0.0948844 -0.13028,-0.18435 -0.194476,-0.270222 -0.0116128,-0.0139044 -0.0219869,-0.0275611 -0.0332901,-0.0416513 -0.0589621,-0.0780691 -0.118482,-0.152422 -0.177227,-0.222223 -0.0099096,-0.0115509 -0.0197573,-0.0244334 -0.0303172,-0.0359223 -0.695654,-0.816551 -1.3269,-1.10752 -1.77747,-1.19457zm2.34749 9.62761c0.350119,-0.206398 0.685187,-0.369195 1.00499,-0.494985 0.302181,0.035241 0.540569,0.285799 0.689399,0.493746 -0.571939,0.000557415 -1.13756,0.000959993 -1.69439,0.0012387zm2.14753 -0.00173418c-0.0978573,-0.17221 -0.30023,-0.477178 -0.597456,-0.679272 0.366841,-0.104299 0.708939,-0.159018 1.02527,-0.179054 0.0160412,0.00424255 0.033383,0.00665801 0.0507867,0.00737027 0.0270037,0.000278708 0.0530164,-0.00507867 0.0761491,-0.0152979 0.370371,-0.0130993 0.701538,0.0214295 0.992013,0.0812587 0.196675,0.27558 0.319523,0.549364 0.396198,0.782332 -0.652362,0.00108386 -1.30119,0.00198192 -1.94296,0.00266321zm2.3439 -0.00337546c-0.0536977,-0.187013 -0.134027,-0.40233 -0.254057,-0.629043 0.502727,0.18339 0.793635,0.410877 0.835844,0.444539 0.0571351,0.0492383 0.100644,0.112846 0.133594,0.183142l-0.71538 0.00136257zm-7.72949 -3.45696c-0.0726807,-0.184969 -0.26183,-0.299084 -0.459837,-0.276819l-0.496967 0.0561441c-0.0798342,0.00950703 -0.136443,0.081042 -0.127555,0.16035 0.00535738,0.0496719 0.0349623,0.0903013 0.0755298,0.11204 0.0248979,0.013316 0.0538835,0.019045 0.0842936,0.0161341l0.497307 -0.0568254c0.066673,-0.00761801 0.133439,0.0329494 0.157779,0.0949464l0.150843 0.383471c0.0292953,0.0740743 0.113031,0.111019 0.187508,0.0810729 0.0742601,-0.0291714 0.111111,-0.112908 0.0819091,-0.187199l-0.150812 -0.383316zm-0.167503 -0.638984l0.180231 -0.19717c0.0534809,-0.0593028 0.049517,-0.150688 -0.0100644,-0.204169 -0.0589621,-0.0550293 -0.150409,-0.0501983 -0.204726,0.00901154l-0.179488 0.197356c-0.0116748,0.0129754 -0.0729285,0.0268798 -0.134678,-0.00622447l-0.300602 -0.161c-0.0702962,-0.0376565 -0.158244,-0.0112102 -0.195931,0.0591789 -0.0378423,0.0706369 -0.0109625,0.157965 0.0594266,0.195684l0.300602 0.161c0.167627,0.0898058 0.375853,0.0666111 0.48523,-0.0536667zm0.928251 0.542768l-0.351853 -0.231141c-0.0507248,-0.0329185 -0.0665492,-0.0783788 -0.0653105,-0.08962l0.0832097 -0.192866c0.0313082,-0.0731762 -0.000805155,-0.158616 -0.0761801,-0.190048 -0.0736407,-0.0316178 -0.158678,0.00244643 -0.190202,0.0761181l-0.0832407 0.193051c-0.0632976,0.148087 0.011396,0.339806 0.172954,0.445591l0.352317 0.230336c0.00343739,0.00275611 0.00709156,0.00464513 0.0109315,0.00665801 0.0654343,0.0350862 0.147653,0.0151121 0.189211,-0.047659 0.0440358,-0.0671685 0.0248669,-0.156881 -0.0418371,-0.200422zm3.18761 -2.99663c-0.401091,-0.0141831 -0.812959,-0.144897 -1.22529,-0.387775 -0.0875451,-0.0511893 -0.199586,-0.0225443 -0.251177,0.0643505 -0.0516228,0.0875761 -0.0224824,0.199678 0.0649079,0.251146 0.464853,0.275053 0.936674,0.422923 1.39973,0.438686 0.0230089,0.000588383 0.0446861,-0.0022916 0.0658989,-0.00953799 0.0693982,-0.0237521 0.120773,-0.0894961 0.123746,-0.166946 0.00297288,-0.101326 -0.076211,-0.18596 -0.177815,-0.189924zm-8.73033 4.90466c-0.188221,-0.0637931 -0.397406,0.0072464 -0.508053,0.172923l-0.277593 0.416018c-0.0442216,0.0671995 -0.0261056,0.15651 0.0403197,0.200917 0.0413726,0.0278708 0.091478,0.031494 0.134244,0.0145547 0.0262914,-0.0104361 0.0493312,-0.0288927 0.066735,-0.0540383l0.277221 -0.416761c0.0372539,-0.0558654 0.111266,-0.0807323 0.174316,-0.0593647l0.390438 0.132014c0.0754988,0.0253624 0.157718,-0.0148334 0.182832,-0.0909825 0.0255792,-0.0756227 -0.0146167,-0.157779 -0.0902393,-0.183359l-0.390222 -0.131922zm-0.596372 -0.284003l-0.0344668 -0.264896c-0.0108386,-0.0792768 -0.0832097,-0.135111 -0.162579,-0.124056 -0.08002,0.00959993 -0.135328,0.0826213 -0.125109,0.162301l0.0351172 0.264493c0.00235353,0.0173108 -0.0265392,0.0730214 -0.0916329,0.0989102l-0.316891 0.125883c-0.0741052,0.0294811 -0.110585,0.113713 -0.0811039,0.187973 0.029574,0.0744149 0.113651,0.11012 0.18788,0.0806704l0.31686 -0.125821c0.176794,-0.0702343 0.293293,-0.244396 0.271926,-0.405458zm1.01338 -0.359502l-0.403476 0.119875c-0.0578783,0.0175586 -0.102843,0.000340643 -0.110647,-0.00792768l-0.0938006 -0.187911c-0.0357055,-0.0711324 -0.121702,-0.101666 -0.194321,-0.0644124 -0.0716278,0.0359842 -0.10049,0.12291 -0.0644434,0.194476l0.0938316 0.188128c0.0723401,0.143968 0.267064,0.210517 0.452064,0.155178l0.40329 -0.120711c0.00427352,-0.000898058 0.00817542,-0.0024774 0.0121702,-0.00402578 0.0689956,-0.0274372 0.106683,-0.103122 0.0855013,-0.175369 -0.022916,-0.0770162 -0.103834,-0.120185 -0.180169,-0.0972999zm7.495 8.766l-2.97016 0c-0.0672305,0 -0.127369,0.0267559 -0.170445,0.0698317l-0.000402578 0.000402578c-0.0434164,0.0433545 -0.0701104,0.103803 -0.0701104,0.170631 0,0.0668589 0.026725,0.1274 0.0702033,0.171034l0.000185805 -0.000185805c0.0433545,0.0433545 0.103555,0.0702343 0.170569,0.0702343l2.97016 0c0.0664563,0 0.126657,-0.0269108 0.16995,-0.0703272 0.0435403,-0.0436023 0.070544,-0.10402 0.070544,-0.170755 0,-0.0665492 -0.0270656,-0.126998 -0.0706059,-0.170569 -0.0433235,-0.0433855 -0.103462,-0.0702962 -0.169888,-0.0702962zm-5.11738 0.481947l1.15444 0c0.0664872,0 0.126626,-0.0269108 0.16995,-0.0703272 0.0434784,-0.0435403 0.070482,-0.10402 0.070482,-0.170755 0,-0.0665492 -0.0270656,-0.126998 -0.070575,-0.170569 -0.0433235,-0.0433855 -0.103431,-0.0702962 -0.169857,-0.0702962l-1.15444 0c-0.0663014,0 -0.126502,0.0270966 -0.170105,0.0706988l-0.000216773 -0.000216773c-0.0434784,0.0436332 -0.070482,0.103958 -0.070482,0.170383 0,0.0669827 0.0268179,0.127648 0.0703582,0.171219 0.0431377,0.0431377 0.103215,0.0698627 0.170445,0.0698627zm5.11738 0.542891l-5.11738 0c-0.0666111,0 -0.127029,0.0268179 -0.170631,0.0704201 -0.0433235,0.0432926 -0.0701724,0.103462 -0.0701724,0.170445 0,0.0662085 0.0268179,0.125914 0.0700175,0.168866 0.0435093,0.0432306 0.103927,0.0699246 0.170786,0.0699246l5.11738 0c0.066735,0 0.127122,-0.026725 0.170569,-0.0699556 0.0431068,-0.042921 0.0699246,-0.102595 0.0699246,-0.168835 0,-0.0672924 -0.0268488,-0.127555 -0.0700795,-0.170848 -0.0432926,-0.0433235 -0.103679,-0.0700175 -0.170414,-0.0700175z"/>
 </g>
</svg>
