<?xml version="1.0" encoding="UTF-8"?>
<!DOCTYPE svg PUBLIC "-//W3C//DTD SVG 1.1//EN" "http://www.w3.org/Graphics/SVG/1.1/DTD/svg11.dtd">
<!-- Creator: CorelDRAW -->
<svg xmlns="http://www.w3.org/2000/svg" xml:space="preserve" width="512px" height="512px" style="shape-rendering:geometricPrecision; text-rendering:geometricPrecision; image-rendering:optimizeQuality; fill-rule:evenodd; clip-rule:evenodd"
viewBox="0 0 48.4646 48.4646"
 xmlns:xlink="http://www.w3.org/1999/xlink">
 <defs>
  <style type="text/css">
   <![CDATA[
    .fil1 {fill:white}
    .fil0 {fill:#43AC3E}
    .fil2 {fill:white;fill-rule:nonzero}
   ]]>
  </style>
 </defs>
 <g id="Vrstva_x0020_1">
  <metadata id="CorelCorpID_0Corel-Layer"/>
  <rect class="fil0" width="48.4646" height="48.4646"/>
  <path class="fil1" d="M23.5825 26.405c-0.356503,0.302394 -0.587733,0.670898 -0.708059,1.12346 -0.0710059,0.266917 -0.120115,0.548151 -0.152592,0.832964 -0.0345818,0.303236 -0.0504252,0.610524 -0.0538466,0.909023 -0.01258,0.82091 1.06204,0.793698 1.06009,0 0.00389506,-0.321816 0.0282129,-0.673898 0.100693,-1.01214 0.0932709,-0.434931 0.266285,-0.846965 0.578259,-1.14252 0.632947,-0.628842 1.56324,-1.03124 2.3993,-1.30374l0.00405297 -0.0013159c0.634158,-0.255126 1.18073,-0.446037 1.63224,-0.739798 0.797803,-0.519096 1.35127,-1.221 1.63645,-2.20245 0.251547,-0.865809 0.234177,-1.91221 0.234177,-2.68828 0,-0.925393 -0.0703216,-2.02417 -0.401454,-2.89719 -0.21665,-0.5711 -0.541045,-1.1073 -1.05303,-1.45833 -1.86973,-1.28211 -6.67403,-1.23968 -8.75731,-0.320711 -0.762905,0.339081 -1.25595,0.889232 -1.52623,1.67809 -0.16454,0.480145 -0.248126,1.02177 -0.306868,1.5246 -0.0545308,0.466828 -0.0899022,0.938604 -0.116062,1.41075 -0.0457406,0.825332 0.93213,0.811173 0.93213,-0.0447932 0,-0.0850071 0,-0.170014 0,-0.254969 0.0644264,-1.02045 0.17533,-2.37567 0.946184,-3.16363 1.60892,-1.55444 7.82175,-1.46933 8.858,0.708743l0.00326343 0.00689531c0.396559,0.859335 0.449458,2.13123 0.449458,3.06489 0,0.617525 -0.0251073,1.29084 -0.155487,1.89684 -0.398033,1.8262 -1.98922,2.43604 -3.60246,3.02409 -0.639264,0.253863 -1.4666,0.61084 -2.0009,1.04951zm-0.533729 6.46933c-0.563257,0 -1.01977,0.456512 -1.01977,1.01977 0,0.563257 0.456512,1.01977 1.01977,1.01977 0.563257,0 1.01977,-0.456512 1.01977,-1.01977 0,-0.563257 -0.456512,-1.01977 -1.01977,-1.01977z"/>
  <path class="fil2" d="M15.5104 27.9442l1.4606 -1.22584c0.071427,-0.0602682 0.158276,-0.0893232 0.244547,-0.0893232 0.109588,0 0.217386,0.0460565 0.292761,0.136222 0.13538,0.161329 0.114378,0.401928 -0.0469513,0.537518l-1.4606 1.22589c-0.16175,0.135538 -0.402612,0.113746 -0.537255,-0.0468986 -0.0636895,-0.0758484 -0.0341081,-0.187437 -0.0891653,-0.260443 -0.0782697,-0.103745 -0.013738,-0.20528 0.136064,-0.277128zm19.7866 -7.28103l-1.90768 0c-0.211123,0 -0.381663,0.170962 -0.381663,0.3814 0,0.210702 0.17054,0.381611 0.381663,0.381611l1.90768 0c0.210912,0 0.381663,-0.170909 0.381663,-0.381611 0,-0.210439 -0.170751,-0.3814 -0.381663,-0.3814zm-4.0497 -5.12274c0.0862703,0 0.173172,-0.0292656 0.244547,-0.0893232l1.46128 -1.22652c0.161592,-0.135538 0.182699,-0.375926 0.0473724,-0.537729 -0.135169,-0.160645 -0.375505,-0.182752 -0.537571,-0.0468986l-1.46144 1.22673c-0.161329,0.135327 -0.182278,0.375715 -0.0469513,0.537518 0.0353187,0.0420561 0.163382,0.0633737 0.124379,0.0973239 -0.029634,0.0257916 0.0463723,0.0388453 0.168382,0.038898zm-15.7369 -1.31516l1.4606 1.22584c0.071427,0.0602682 0.158276,0.0893232 0.244547,0.0893232 0.109588,0 0.217386,-0.0460565 0.292761,-0.136222 0.13538,-0.161329 0.114378,-0.401928 -0.0469513,-0.537518l-1.4606 -1.22589c-0.16175,-0.135538 -0.402612,-0.113746 -0.537255,0.0468986 -0.0636895,0.0758484 -0.0340555,0.187437 -0.0891653,0.260443 -0.0782697,0.10364 -0.013738,0.205175 0.136064,0.277128zm15.7369 12.4038c0.0862703,0 0.173172,0.0292656 0.244547,0.0893232l1.46128 1.22652c0.161592,0.135538 0.182699,0.375926 0.0473724,0.537729 -0.135169,0.160645 -0.375505,0.182752 -0.537571,0.0468986l-1.46144 -1.22673c-0.161329,-0.135327 -0.182278,-0.375715 -0.0469513,-0.537518 0.0353187,-0.0420561 0.163329,-0.0633737 0.124379,-0.0973239 -0.029634,-0.0258443 0.0463723,-0.0390032 0.168382,-0.038898zm-16.1731 -5.12343l-1.90684 0c-0.21107,0 -0.381611,-0.170909 -0.381611,-0.381611 0,-0.210439 0.17054,-0.3814 0.381611,-0.3814l1.90684 0c0.211123,0 0.381611,0.170962 0.381611,0.3814 0,0.210702 -0.170488,0.381611 -0.381611,0.381611z"/>
 </g>
</svg>
