<?xml version="1.0" encoding="UTF-8"?>
<!DOCTYPE svg PUBLIC "-//W3C//DTD SVG 1.1//EN" "http://www.w3.org/Graphics/SVG/1.1/DTD/svg11.dtd">
<!-- Creator: CorelDRAW -->
<svg xmlns="http://www.w3.org/2000/svg" xml:space="preserve" width="512px" height="512px" style="shape-rendering:geometricPrecision; text-rendering:geometricPrecision; image-rendering:optimizeQuality; fill-rule:evenodd; clip-rule:evenodd"
viewBox="0 0 25.306 25.306"
 xmlns:xlink="http://www.w3.org/1999/xlink">
 <defs>
  <style type="text/css">
   <![CDATA[
    .fil0 {fill:#43AC3E}
    .fil1 {fill:white;fill-rule:nonzero}
   ]]>
  </style>
 </defs>
 <g id="Vrstva_x0020_1">
  <metadata id="CorelCorpID_0Corel-Layer"/>
  <rect class="fil0" width="25.306" height="25.306"/>
  <path class="fil1" d="M14.4383 11.9478c0.0243784,0.00764058 0.0487568,0.012148 0.0731352,0.012148 0.0942429,0 0.182824,-0.0598603 0.215255,-0.154076 0.0709639,-0.208659 0.298037,-0.320574 0.506614,-0.24961 0.445792,0.150805 0.931381,-0.0888286 1.0821,-0.534456 0.0411986,-0.118676 -0.0221247,-0.248401 -0.141873,-0.288391 -0.118676,-0.039742 -0.247329,0.0232515 -0.287016,0.141873 -0.0709639,0.208714 -0.298367,0.320492 -0.507824,0.25071 -0.444803,-0.150778 -0.931711,0.0877292 -1.08232,0.533329 -0.0400718,0.118704 0.0232515,0.248401 0.141928,0.288473z"/>
  <path class="fil1" d="M14.9761 10.3655c0.023334,0.00764058 0.0485919,0.0122304 0.0720908,0.0122304 0.0951224,0 0.183951,-0.0598878 0.214926,-0.154186 0.0343551,-0.100977 0.106391,-0.183044 0.201816,-0.230701 0.0965516,-0.0465855 0.204152,-0.0530993 0.306008,-0.0187441 0.444885,0.15064 0.931628,-0.0888286 1.08235,-0.534456 0.0400718,-0.118759 -0.0232515,-0.248401 -0.141955,-0.288473 -0.118594,-0.0408688 -0.247109,0.023334 -0.288391,0.141955 -0.0709639,0.208577 -0.297158,0.320492 -0.506614,0.249528 -0.216355,-0.0733001 -0.446891,-0.0576891 -0.65217,0.0431225 -0.203987,0.100977 -0.357018,0.275116 -0.430016,0.491333 -0.0411162,0.118594 0.0233615,0.248401 0.141955,0.288391z"/>
  <path class="fil1" d="M15.5126 8.78295c0.0245433,0.00797039 0.0489217,0.0122304 0.0733001,0.0122304 0.0943254,0 0.183072,-0.0599428 0.21509,-0.154158 0.0520549,-0.154186 0.220725,-0.237298 0.373591,-0.185078 0.189585,0.0644502 0.39382,0.0510929 0.573483,-0.0366088 0.178564,-0.0886087 0.312549,-0.241558 0.378044,-0.431225 0.0398244,-0.118676 -0.0231691,-0.248401 -0.141955,-0.288391 -0.119721,-0.0411162 -0.248401,0.0232515 -0.288308,0.141955 -0.0255877,0.0743445 -0.0786869,0.135332 -0.149651,0.169687 -0.0697821,0.035482 -0.149596,0.0398244 -0.225067,0.0142368 -0.391483,-0.131704 -0.818339,0.0778075 -0.950455,0.469208 -0.039687,0.118676 0.023334,0.248401 0.141928,0.288143z"/>
  <path class="fil1" d="M18.653 11.6913c-0.05189,-0.0355919 -0.110953,-0.0560675 -0.171281,-0.0651923 0.601105,-1.95252 0.930501,-3.86668 0.977746,-5.68973l0 -0.0857504c-0.0134947,-0.561253 -0.293475,-1.26987 -0.829937,-1.60686 -0.271955,-0.169687 -0.715054,-0.309993 -1.29247,-0.0131924 -0.902632,0.466597 -1.54964,1.83742 -2.0681,2.93931 -0.0309746,0.0635707 -0.0589534,0.12552 -0.0884163,0.187579 -0.115461,-0.527145 -0.464041,-0.979478 -0.95903,-1.21433 -0.116505,-0.561143 -0.562517,-1.00136 -1.12075,-1.11508 -0.00750316,-0.0309746 -0.0147864,-0.0619491 -0.0238012,-0.0930336 -0.115323,-0.394342 -0.462502,-0.691252 -0.865529,-0.738525 -0.226167,-0.0264672 -0.450409,0.0208055 -0.642605,0.132803 -0.162486,-0.0914396 -0.345475,-0.140306 -0.534538,-0.140306 -0.525963,0 -0.967577,0.367875 -1.08304,0.858246 -0.575902,0.156604 -0.996738,0.683749 -1.00125,1.29827 -0.65577,0.168725 -1.13446,0.762326 -1.13446,1.46677 0,0.187579 0.0355919,0.372464 0.103313,0.546768 -0.171391,0.21094 -0.265936,0.474183 -0.265936,0.750316 0,0.165482 0.0341078,0.324779 0.0991626,0.472589 -0.303012,-0.329397 -0.726734,-0.59962 -1.20523,-0.581921 -0.166993,0.00599153 -0.298615,0.144896 -0.292623,0.311697 0.00450739,0.163998 0.138712,0.293997 0.301418,0.293997 0.0101966,0 0.0208055,-0.00148414 0.0294904,-0.00148414 0.283608,0 0.546439,0.187689 0.738415,0.406132 -0.47979,0.137311 -1.05762,0.363477 -1.32765,0.871548 -0.162596,0.30708 -0.18178,0.683749 -0.0724481,1.11528 -0.0458709,0.0747292 -0.0731077,0.160562 -0.0768455,0.252661l0 0.0456511 0.515354 7.31602c0.0472726,0.916979 0.80358,1.63665 1.7224,1.63665l8.49036 0c0.918903,0 1.67513,-0.719671 1.7224,-1.63088l0.527035 -7.57143c0,-0.00140169 0,-0.0031057 0,-0.00601902 0.00912472,-0.138905 -0.0559576,-0.268822 -0.171171,-0.348553zm-3.22603 -3.46838c0.119611,-0.224243 0.251122,-0.500568 0.388323,-0.794373 0.455027,-0.966203 1.07842,-2.28816 1.79927,-2.66029 0.262803,-0.136046 0.490481,-0.139152 0.692736,-0.0121205 0.351576,0.220148 0.557075,0.775711 0.546466,1.16546 -0.0457885,1.78905 -0.372052,3.67064 -0.970381,5.5937 -0.0192938,0.0635707 -0.0634608,0.192196 -0.12552,0.366473l-0.515354 0.229162c-0.0121205,0.00568921 -0.0222896,0.0101966 -0.0324862,0.0173699 -0.149513,0.088966 -0.316314,0.133133 -0.483308,0.134617 -0.166773,-0.00148414 -0.333574,-0.0456511 -0.482868,-0.134617l-0.215448 -0.129697c-0.248264,-0.149321 -0.525991,-0.222951 -0.803607,-0.222951 -0.0031057,0 -0.00599153,0 -0.0106089,0 -0.280613,-0.00170401 -0.562627,0.0721457 -0.813776,0.222951l-0.215448 0.129697c-0.119941,0.0726679 -0.252744,0.106638 -0.387251,0.122936 0.00750316,-0.0269069 0.0161881,-0.0533741 0.0236913,-0.0782472 0.082837,-0.282124 0.172875,-0.560043 0.265909,-0.834664 0.0355919,-0.104934 0.0722557,-0.209869 0.109249,-0.313429 0.0768455,-0.218553 0.158088,-0.434111 0.242437,-0.649559 0.0380655,-0.0945178 0.0737673,-0.192169 0.113427,-0.286714 0.263243,-0.64387 0.553942,-1.26751 0.874544,-1.8657zm-3.85651 0.716648c0.0351522,-0.0442769 0.0706341,-0.0888561 0.103313,-0.131621 0,-0.00162156 0,-0.00162156 0,-0.00162156 0.0236913,-0.0324587 0.0441669,-0.0649449 0.0618667,-0.0974311 0.0753339,-0.140416 0.0930336,-0.298395 0.0578815,-0.451893l1.26265 -0.276023c0.00901478,0.0382853 0.0176998,0.0782472 0.0324862,0.113399 0.0563974,0.13764 0.156604,0.252661 0.298312,0.333794 0.0458709,0.0253953 0.0933635,0.0503783 0.143302,0.0768455 0.0416934,0.0223171 0.0814628,0.0446067 0.122936,0.0665665 0.0188816,0.0104989 0.0396595,0.0206955 0.0590633,0.0325961 0.0366638,0.0191839 0.0706341,0.0426553 0.106226,0.0649449 0.0294904,0.0176998 0.0589534,0.0371035 0.0884438,0.0574692 0.0339703,0.0222896 0.0650548,0.0488667 0.097541,0.0741521 0.0279788,0.0234989 0.0548857,0.0487843 0.0813529,0.0736574 0.0295729,0.0295729 0.0574417,0.0575517 0.0843487,0.0885263 0.0456786,0.0563974 0.0914396,0.113949 0.128516,0.183401 -0.128516,0.283608 -0.249968,0.571422 -0.366473,0.862533 -0.0177822,0.0457885 -0.0369661,0.0900379 -0.0562599,0.134205 -0.330908,0.0843487 -0.651181,0.242465 -1.04712,0.523077 -0.498012,0.354682 -0.870064,0.449227 -1.48156,0.360261l-0.183291 -0.840134c-0.124008,-0.568756 0.146188,-0.912829 0.406462,-1.24671zm1.50052 -1.83635c0.00750316,-0.00140169 0.0161881,-0.00255602 0.0236913,-0.00255602 0.0574417,0 0.110816,0.0411437 0.122607,0.0971013 0.0104989,0.0446891 -0.00568921,0.0783571 -0.0178921,0.0945453 -0.0101966,0.0162981 -0.0339703,0.045761 -0.0766531,0.0547758l-1.67221 0.366583c-0.0661542,0.0146765 -0.134205,-0.0296004 -0.147397,-0.0960569 -0.0147864,-0.0666764 0.0279788,-0.134727 0.0945453,-0.149294l0.887406 -0.193378 0.785908 -0.171721zm-0.977554 4.67801c-0.0238012,0.00148414 -0.0460908,0.00288583 -0.0696722,0.00458984 -0.165509,0.0176998 -0.327693,0.0588709 -0.481604,0.128543l-0.0590633 -0.264342c0.0873719,0.0070909 0.174387,0.0146765 0.255657,0.0146765 0.528629,0 0.952901,-0.158088 1.44176,-0.505158 0.153609,-0.109332 0.289407,-0.192086 0.417841,-0.261319 -0.0263847,0.0794015 -0.0547758,0.157979 -0.0811605,0.237517 -0.0194038,0.0562599 -0.0397695,0.112218 -0.0591458,0.170099 -0.0884438,0.268822 -0.174304,0.540337 -0.252551,0.813776l-0.200771 -0.119501c-0.248456,-0.149321 -0.527447,-0.224463 -0.804954,-0.224463 -0.00313319,0 -0.00772303,0.00140169 -0.0107188,0.00140169 -0.0321564,-0.00140169 -0.0646426,0.00299577 -0.0956171,0.00417758zm-3.61921 -3.12829l0.198188 -0.162706 -0.128626 -0.221549c-0.0797313,-0.140306 -0.122387,-0.296691 -0.122387,-0.456401 0,-0.490069 0.383733,-0.888918 0.874214,-0.909723l0.366363 -0.0147864 -0.0858603 -0.35875c-0.0131649,-0.0591732 -0.0203657,-0.118566 -0.0203657,-0.174496 0,-0.389752 0.304002,-0.718049 0.692764,-0.74754l0.279018 -0.0203657 0 -0.301418c0.00876742,-0.271818 0.23334,-0.490481 0.506779,-0.490481 0.158088,0 0.271818,0.070744 0.337972,0.131621l0.212974 0.191756 0.202255 -0.200771c0.0930336,-0.091522 0.221549,-0.134287 0.353198,-0.119501 0.162156,0.0191839 0.308481,0.144814 0.355754,0.30708 0.0162706,0.0547758 0.0208879,0.107628 0.0147864,0.161002l-0.0355919 0.338412 0.340006 0c0.435595,0 0.798962,0.339566 0.828563,0.773677l0.0130824 0.198298 0.189063 0.0664565c0.472699,0.165289 0.783242,0.612895 0.772523,1.11357 -0.00409513,0.214046 -0.0736574,0.419325 -0.197556,0.601324 -0.202365,-0.172902 -0.421359,-0.288226 -0.60432,-0.384283 -0.0472726,-0.0248456 -0.0930611,-0.0502684 -0.140306,-0.075224 -0.0133023,-0.00750316 -0.0280887,-0.0206955 -0.0339978,-0.05178 -0.00728328,-0.0442769 0.00901478,-0.0961393 0.0426553,-0.134205 0.131649,-0.153719 0.184913,-0.361965 0.141818,-0.558559l-0.0367737 -0.166773c-0.0368562,-0.168615 -0.137201,-0.311615 -0.281987,-0.406132 -0.144924,-0.0918793 -0.317716,-0.124338 -0.484709,-0.0873719l-0.0810506 0.0192938c-0.0013742,0 -0.0031057,0 -0.0031057,0l-0.887626 0.193598 -0.867151 0.189063c-0.168368,0.0367737 -0.311587,0.137201 -0.404621,0.282124 -0.0929237,0.144814 -0.124008,0.317606 -0.0873719,0.486001l0.0176998 0.0827271c0,0.00140169 0,0.00140169 0,0.00140169l0.0194038 0.0826447c0.0426553,0.200964 0.182962,0.37087 0.373536,0.452113 0.0472726,0.0205856 0.0858603,0.0590633 0.100647,0.0972112 0.00750316,0.0236913 0.00302325,0.0341078 -0.0147864,0.0634608 -0.029353,0.0402092 -0.0620591,0.0813529 -0.0960294,0.124118 -0.0324862,0.0416109 -0.0666764,0.0858603 -0.102048,0.131649 -0.0119006,0.0161881 -0.0234714,0.0324587 -0.0351522,0.0472726 -0.0253953,0.035372 -0.0503783,0.0694523 -0.0741796,0.106116 -0.0147864,0.0193763 -0.0278689,0.0401817 -0.0412536,0.0608773 -0.0223171,0.0351522 -0.0442769,0.070744 -0.0665665,0.109332 -0.0116807,0.0219598 -0.024983,0.0426553 -0.0366638,0.0646151 -0.0222896,0.043205 -0.0430951,0.0873719 -0.0634608,0.133133 -0.00901478,0.0192938 -0.0177822,0.0385877 -0.0269069,0.0574692 -0.0264672,0.0666489 -0.0502684,0.136239 -0.0676383,0.208467 -0.0031057,0.0116807 -0.00458984,0.0236913 -0.00761309,0.035372 -0.0146765,0.0620591 -0.0263572,0.12563 -0.0340803,0.192196 -0.00299577,0.0264672 -0.00299577,0.0545559 -0.00557927,0.081243 -0.00148414,0.0367737 -0.00610147,0.070744 -0.00610147,0.10782l-0.00450739 -0.00458984c-0.00417758,-0.00601902 -0.00879491,-0.0101966 -0.0116807,-0.0161881 -0.0533741,-0.0695622 -0.104714,-0.133133 -0.158088,-0.19368 -0.0176998,-0.0188816 -0.0341078,-0.0366638 -0.0503783,-0.0559576 -0.0455686,-0.0472726 -0.0899279,-0.0929512 -0.134095,-0.134535 -0.0147864,-0.0147864 -0.0296004,-0.0295729 -0.0442769,-0.0427652 -0.0562599,-0.0503783 -0.113949,-0.0959195 -0.170209,-0.137201 -0.0162981,-0.0117907 -0.0324862,-0.020778 -0.0487843,-0.0326786 -0.0426553,-0.0278689 -0.0855305,-0.0547758 -0.129697,-0.0782472 -0.020778,-0.0116807 -0.0415834,-0.0238012 -0.0634333,-0.0339978 -0.0442769,-0.0222896 -0.0903677,-0.0397695 -0.136239,-0.0559301 -0.0148139,-0.00612895 -0.0294904,-0.0136321 -0.0457885,-0.0178097 -0.0487568,-0.0161881 -0.0986129,-0.0279788 -0.148881,-0.0384777 -0.00599153,-0.00151162 -0.012093,0 -0.0178921,-0.00151162 -0.0101966,-0.00159408 -0.0191839,-0.00577166 -0.0293805,-0.00728328 -0.0355644,-0.00450739 -0.0695622,-0.0031057 -0.103643,-0.00450739 -0.0234714,-0.00148414 -0.0472726,-0.00758561 -0.0722557,-0.00758561 -0.00750316,0 -0.0147864,0.00148414 -0.0222896,0.00148414 -0.0472726,0.00151162 -0.0914121,0.00610147 -0.137201,0.0121205 -0.0235813,0.00266596 -0.0458709,0.00577166 -0.0681605,0.00879491 -0.0603551,0.0116807 -0.118017,0.0263572 -0.175458,0.0442494 -0.00901478,0.00302325 -0.0161881,0.00590908 -0.0252029,0.00901478 -0.150585,0.0501585 -0.293805,0.122414 -0.426938,0.209456 -0.0280613,-0.0676383 -0.0428752,-0.140334 -0.0428752,-0.215448 0,-0.17741 0.0797588,-0.342589 0.215558,-0.456428zm-1.94351 2.5126c0.128186,-0.240733 0.438591,-0.425316 0.978928,-0.579227 0.25115,-0.0722557 0.486303,-0.206873 0.676906,-0.38835 0.0854205,-0.0827546 0.166664,-0.151987 0.243509,-0.215558 0.245048,-0.199699 0.454917,-0.305925 0.645491,-0.330881 0.00461733,0 0.00750316,-0.00140169 0.0116807,-0.00140169 0.0605749,-0.00761309 0.119941,-0.00461733 0.175898,0.00406765 0.0145941,0.00299577 0.0293805,0.00901478 0.0441669,0.0121205 0.0284185,0.00728328 0.0563699,0.0147864 0.0843487,0.024983 0.0192938,0.00750316 0.0371035,0.0176723 0.0547758,0.0264672 0.0264947,0.0134947 0.0530718,0.0238012 0.079539,0.0399893 0.0208055,0.0132748 0.0399893,0.0295729 0.0607673,0.0428752 0.024983,0.0176723 0.0499661,0.0324587 0.0737673,0.0532642 0.0234714,0.0177822 0.045761,0.0412536 0.0695622,0.0619491 0.0234714,0.0208055 0.045761,0.0396595 0.0692324,0.0636806 0.0252854,0.0249556 0.0502684,0.054336 0.0767356,0.0841288 0.0208055,0.0219873 0.0416109,0.0442769 0.0619766,0.0692599 0.0295729,0.0339703 0.0578815,0.0737398 0.0874544,0.112327 0.0191839,0.0234714 0.0366638,0.045761 0.054336,0.070744 0.0341902,0.0460908 0.0666764,0.0974311 0.100647,0.147809 0.014704,0.0238012 0.0294904,0.0426553 0.0426828,0.0664565 0.0488667,0.0753614 0.097651,0.156604 0.146298,0.242465 0.223281,0.39283 0.295509,0.973377 0.19937,1.47853 -0.0162981,-0.00148414 -0.0324862,-0.00299577 -0.0472726,-0.00610147 -0.114993,-0.0191839 -0.227238,-0.0559576 -0.327775,-0.116835l-0.215558 -0.129697c-0.248126,-0.149321 -0.525963,-0.222951 -0.80347,-0.222951 -0.00461733,0 -0.00772303,0 -0.0107188,0 -0.282124,-0.00170401 -0.564248,0.0721457 -0.815178,0.222951l-0.104824 0.0635707c-0.183401,0.109222 -0.387168,0.163778 -0.592529,0.166773 -0.205279,-0.00299577 -0.41031,-0.0575517 -0.593601,-0.166773l-0.406242 -0.24535 -0.00140169 0c-0.0533741,-0.0327061 -0.110843,-0.0530718 -0.169797,-0.0651923 -0.0472451,-0.238919 -0.0309746,-0.43249 0.0502959,-0.586098zm11.1636 8.41469c-0.0309746,0.595635 -0.521346,1.06223 -1.11808,1.06223l-8.49184 0c-0.596707,0 -1.08711,-0.466597 -1.11808,-1.06781l-0.502272 -7.15213 0.262913 0.158116c0.28512,0.171171 0.605722,0.255547 0.92451,0.254035 0.320712,0.00151162 0.639802,-0.0828645 0.925032,-0.254035l0.104714 -0.0635707c0.149321,-0.0888561 0.316095,-0.133023 0.482786,-0.134617 0.167103,0.00159408 0.333877,0.045761 0.483308,0.134617l0.215558 0.130027c0.273329,0.163778 0.581921,0.23334 0.887819,0.217152 0.0264947,-0.00148414 0.0543635,-0.00148414 0.0812705,-0.0031057 0.00417758,-0.00148414 0.00728328,-0.00299577 0.0101691,-0.00299577 0.206763,-0.0234714 0.409238,-0.0884163 0.596817,-0.194862 0.0176998,-0.00601902 0.035372,-0.00601902 0.05178,-0.0161881l0.215558 -0.130027c0.149321,-0.0888561 0.316095,-0.133023 0.482786,-0.134617 0.167103,0.00159408 0.333877,0.045761 0.48339,0.134617l0.215448 0.130027c0.22919,0.137311 0.482895,0.207945 0.740037,0.218553 0.00439745,0 0.0101966,0.00151162 0.0162981,0.00151162 0.0872345,0.00266596 0.175678,0 0.264205,-0.0135222 0.0503783,-0.00566172 0.0991626,-0.018964 0.147809,-0.0295729 0.0234989,-0.00557927 0.0472726,-0.0101966 0.070744,-0.0176998 0.134645,-0.0366363 0.266266,-0.0854205 0.3889,-0.15927l0.215448 -0.130027c0.149294,-0.0888561 0.316095,-0.133023 0.482868,-0.134617 0.166993,0.00159408 0.333794,0.045761 0.483308,0.134617l0.215448 0.130027c0.249528,0.148991 0.530168,0.222731 0.809599,0.221247 0.00417758,0 0.010279,0.00148414 0.0147864,0.00148414 0.271845,0 0.543333,-0.070744 0.787199,-0.212562l0.593711 -0.264205c0.0116807,-0.00610147 0.020668,-0.0162981 0.0325686,-0.0238012l0.0472726 -0.0208879 -0.503783 7.23186z"/>
  <path class="fil1" d="M8.90627 15.9662l1.58993 0c0.12552,0 0.226194,-0.100839 0.226194,-0.227321 0,-0.125218 -0.100674,-0.226359 -0.226194,-0.226359l-1.58993 0c-0.125437,0 -0.227403,0.101141 -0.227403,0.226359 0,0.126482 0.101966,0.227321 0.227403,0.227321z"/>
  <path class="fil1" d="M8.90627 16.8744l2.04352 0c0.12519,0 0.227458,-0.100812 0.227458,-0.226359 0,-0.126317 -0.102268,-0.227074 -0.227458,-0.227074l-2.04352 0c-0.125437,0 -0.227403,0.100757 -0.227403,0.227074 0,0.125547 0.101966,0.226359 0.227403,0.226359z"/>
  <path class="fil1" d="M11.4046 17.3291l-2.4983 0c-0.125437,0 -0.227403,0.101856 -0.227403,0.227293 0,0.125218 0.101966,0.227101 0.227403,0.227101l2.4983 0c0.125218,0 0.227074,-0.101884 0.227074,-0.227101 0,-0.125437 -0.101856,-0.227293 -0.227074,-0.227293z"/>
  <path class="fil1" d="M12.7671 17.3291l-0.454394 0c-0.12552,0 -0.227458,0.101856 -0.227458,0.227293 0,0.125218 0.101938,0.227101 0.227458,0.227101l0.454394 0c0.12552,0 0.226194,-0.101884 0.226194,-0.227101 0,-0.125437 -0.100674,-0.227293 -0.226194,-0.227293z"/>
 </g>
</svg>
