<?xml version="1.0" encoding="UTF-8"?>
<!DOCTYPE svg PUBLIC "-//W3C//DTD SVG 1.1//EN" "http://www.w3.org/Graphics/SVG/1.1/DTD/svg11.dtd">
<!-- Creator: CorelDRAW -->
<svg xmlns="http://www.w3.org/2000/svg" xml:space="preserve" width="512px" height="512px" style="shape-rendering:geometricPrecision; text-rendering:geometricPrecision; image-rendering:optimizeQuality; fill-rule:evenodd; clip-rule:evenodd"
viewBox="0 0 32.6517 32.6517"
 xmlns:xlink="http://www.w3.org/1999/xlink">
 <defs>
  <style type="text/css">
   <![CDATA[
    .fil0 {fill:#43AC3E}
    .fil1 {fill:white;fill-rule:nonzero}
   ]]>
  </style>
 </defs>
 <g id="Vrstva_x0020_1">
  <metadata id="CorelCorpID_0Corel-Layer"/>
  <rect class="fil0" width="32.6517" height="32.6517"/>
  <g id="_137369432">
   <path id="_137369480" class="fil1" d="M23.4615 19.8133l-0.0150714 0c0.320116,-0.419481 0.601011,-0.982583 0.589947,-1.65966 -0.0150714,-0.915099 -0.562216,-1.81048 -1.62608,-2.66107 0.133054,-0.399551 0.161175,-0.793322 0.083265,-1.17915 -0.309442,-1.52845 -1.968,-2.1389 -3.49004,-2.4782 0.0540088,-0.179757 0.0834777,-0.370118 0.0834777,-0.56711 0,-0.745945 -0.416396,-1.39632 -1.02883,-1.73144 0.60931,-1.23709 1.42167,-1.37391 1.74864,-1.37391 0.416396,0 0.678,0.0891871 0.829635,0.169544 0.11777,0.0624487 0.260504,0.0524839 0.366749,-0.0283342 0.197666,-0.150253 0.172204,-0.45395 -0.0471291,-0.57062 -0.243731,-0.129933 -0.614487,-0.250575 -1.14926,-0.250575 -0.651864,0 -1.26323,0.299938 -1.76814,0.867261 -0.169757,0.191034 -0.415474,0.513136 -0.629948,0.967973 -0.095854,-0.0143976 -0.193907,-0.0219156 -0.293732,-0.0219156 -0.739562,0 -1.38479,0.409516 -1.72236,1.01333 -0.123479,-0.136564 -0.259795,-0.315222 -0.356146,-0.517285 -0.0402849,-0.0850026 -0.114188,-0.149437 -0.204049,-0.177984 -0.0896481,-0.0283342 -0.187275,-0.0183694 -0.269157,0.0276959 -1.01649,0.570159 -1.75864,1.32983 -2.20599,2.25773 -0.382494,0.793783 -0.453099,1.52491 -0.454411,1.95013 -0.0287952,0.0110642 -0.0573422,0.0220929 -0.0839033,0.0336181 -0.880098,0.37721 -1.38738,1.09521 -1.46778,2.07652 -0.0319159,0.392211 0.0123763,0.749881 0.0597181,0.995598 -0.700305,0.251036 -1.18752,0.730696 -1.36299,1.35951 -0.138621,0.496292 -0.0670943,1.03461 0.178587,1.49834l-0.271391 0c-0.103337,0 -0.201212,0.0469163 -0.265611,0.127983 -0.0646119,0.0807472 -0.0887616,0.186566 -0.0659595,0.287278l1.68491 7.41388c0.111138,0.488277 0.538314,0.829423 1.03904,0.829423l9.72165 0c0.500689,0 0.927901,-0.341145 1.039,-0.829423l1.68495 -7.41388c0.0228021,-0.100712 -0.00134756,-0.206531 -0.065924,-0.287278 -0.0644701,-0.0810663 -0.162097,-0.127983 -0.265682,-0.127983zm-6.34651 -9.83722c0.712504,0 1.29203,0.579486 1.29203,1.29203 0,0.712291 -0.579521,1.29203 -1.29203,1.29203 -0.712291,0 -1.29206,-0.579734 -1.29206,-1.29203 0,-0.71254 0.57977,-1.29203 1.29206,-1.29203zm-5.76748 17.8155c-0.181105,0 -0.335578,-0.123302 -0.375863,-0.299938l-1.59037 -6.99841 1.10032 0 1.21543 7.13096c0.00992938,0.058016 0.0239014,0.113798 0.040675,0.167381l-0.390189 0zm1.21521 0c-0.0618104,0 -0.164012,-0.0978399 -0.195219,-0.281569l-1.19624 -7.01678 1.10702 0 0.80811 7.11213c0.00755342,0.0648956 0.018192,0.127132 0.0321641,0.186211l-0.555833 0zm1.27671 0c-0.0236887,-0.0382991 -0.0613139,-0.122451 -0.0772364,-0.262987l-0.799493 -7.03536 1.11113 0 0.403062 7.09316c0.00425545,0.0728391 0.0104613,0.14121 0.0188304,0.205184l-0.656297 0zm2.02889 0l-0.683496 0c-0.0115606,-0.0582642 -0.0230504,-0.138621 -0.029008,-0.243731l-0.400863 -7.05461 1.08968 0c0.000461007,0 0.000922014,0 0.0013121,0 0.000461007,0 0.00113479,0 0.00159579,0l0.0207808 0 0 7.29835zm1.39274 -0.243731c-0.00595763,0.10511 -0.0174473,0.185467 -0.0292562,0.243731l-0.683496 0 0 -7.29835 1.11362 0 -0.400863 7.05461zm1.31639 0.243731l-0.65651 0c0.00836905,-0.0639736 0.0147877,-0.132344 0.0190431,-0.205184l0.402814 -7.09316 1.11138 0 -0.799493 7.03536c-0.0159225,0.140536 -0.0535477,0.224688 -0.0772364,0.262987zm1.27674 0l-0.556045 0c0.0139366,-0.0590798 0.024788,-0.121316 0.0321286,-0.186211l0.808323 -7.11213 1.10677 0 -1.19596 7.01678c-0.0314549,0.183729 -0.133444,0.281569 -0.195219,0.281569zm1.59083 -0.299938c-0.0400722,0.176637 -0.194616,0.299938 -0.37565,0.299938l-0.390402 0c0.0169863,-0.0535832 0.0307456,-0.109365 0.040675,-0.167381l1.21564 -7.13096 0.720519 0c0.000212773,0 0.00067378,0 0.000886552,0 0.000461007,0 0.000709242,0 0.00106386,0l0.377884 0 -1.59062 6.99841zm1.08266 -7.67839l-5.21325 0c0.764563,-0.399551 1.75459,-0.95932 2.6876,-1.61388 0.153835,-0.107769 0.191034,-0.319833 0.0832295,-0.473419 -0.107982,-0.15387 -0.320045,-0.191034 -0.473632,-0.083265 -1.61962,1.13642 -3.4739,2.00364 -3.83909,2.17056l-5.71908 0c-0.337741,-0.364798 -0.47544,-0.868573 -0.350614,-1.3155 0.141458,-0.506221 0.597891,-0.860594 1.28539,-0.998009 0.645871,-0.12933 2.35341,-0.488738 4.25832,-1.03659 0.180396,-0.0518101 0.284654,-0.24022 0.232667,-0.42058 -0.0518101,-0.180431 -0.239972,-0.284902 -0.42058,-0.23288 -1.698,0.488313 -3.2368,0.82499 -3.98895,0.979498 -0.103833,-0.559556 -0.172629,-1.77101 1.01712,-2.28099 0.459269,-0.196815 1.38983,-0.366111 2.37486,-0.545655l0.329124 -0.0600018c0.184828,-0.0339018 0.306995,-0.211141 0.273164,-0.395757 -0.0341145,-0.184828 -0.211212,-0.306995 -0.395792,-0.272952l-0.328273 0.0597891c-0.636119,0.115996 -1.25018,0.227773 -1.75129,0.350401 0.046278,-0.792471 0.381785,-2.19159 2.01868,-3.23662 0.122876,0.183552 0.255008,0.334727 0.35994,0.442957 0.0733001,0.0754988 0.135678,0.134614 0.19036,0.182204 -0.00929107,0.0772364 -0.0146104,0.15582 -0.0146104,0.235504 0,1.08744 0.884708,1.97201 1.97201,1.97201 0.638991,0 1.20763,-0.305719 1.56828,-0.778286 0.670694,0.142558 1.22539,0.307456 1.6736,0.500228 0.0850026,0.128621 0.0732647,0.221177 0.0498242,0.294867 -0.0845771,0.264689 -0.611154,0.992265 -3.67068,2.03045 -0.1777,0.0603919 -0.272916,0.253412 -0.212666,0.431183 0.0479802,0.141636 0.18036,0.230858 0.322031,0.230858 0.0361004,0 0.0730164,-0.00574486 0.109152,-0.0181566 1.09674,-0.372068 1.98637,-0.743711 2.64423,-1.10454 0.832437,-0.456645 1.30883,-0.902439 1.45579,-1.36306 0.0108514,-0.0339018 0.0194687,-0.0679454 0.0268093,-0.101847 0.417885,0.303733 0.65963,0.661652 0.745697,1.08663 0.125075,0.617749 -0.15582,1.29997 -0.834671,2.02754 -0.128195,0.137486 -0.120642,0.352635 0.0165963,0.480582 0.0654985,0.0613139 0.148763,0.0913858 0.231922,0.0913858 0.0909957,0 0.181779,-0.0360649 0.248589,-0.107982 0.253944,-0.272065 0.461787,-0.54296 0.623565,-0.811904 0.814103,0.683496 1.23248,1.36813 1.24351,2.03684 0.0119507,0.741973 -0.477852,1.32607 -0.828891,1.64838z"/>
   <path id="_137369552" class="fil1" d="M16.3259 4.61699c0.275115,0 0.498987,0.222205 0.498987,0.495334 0,0.273129 -0.223837,0.495299 -0.498987,0.495299 -0.27515,0 -0.498987,-0.22217 -0.498987,-0.495299 3.54621e-005,-0.273129 0.223837,-0.495334 0.498987,-0.495334zm0 1.4277c0.516151,0 0.936093,-0.41824 0.936093,-0.932369 0,-0.514165 -0.419942,-0.93244 -0.936093,-0.93244 -0.516186,0 -0.936093,0.418275 -0.936093,0.93244 3.54621e-005,0.514129 0.419907,0.932369 0.936093,0.932369z"/>
   <path id="_137369624" class="fil1" d="M9.06234 10.2612l0.431715 -0.429517c0.00875913,-0.00875913 0.0188658,-0.0105677 0.0258164,-0.0105677 0.00695057,0 0.0170218,0.00184403 0.0257809,0.0105677l0.431751 0.429481c0.00836905,0.00829813 0.0101422,0.0176956 0.0101422,0.0241142 0,0.00638318 -0.0017731,0.0157452 -0.0101067,0.0240788l-0.431786 0.429552c-0.00875913,0.00865275 -0.0188304,0.0104613 -0.0257455,0.0104613 -0.00698603,0 -0.0170927,-0.00184403 -0.0258164,-0.0104259l-0.431715 -0.429588c-0.00840451,-0.00833359 -0.0101067,-0.0176956 -0.0101067,-0.0240788 0,-0.00641864 0.00173764,-0.0157452 0.0100712,-0.0240788zm0.12355 0.787648c0.089329,0.0887616 0.207914,0.137664 0.334053,0.137664 0.126103,0 0.244724,-0.0489022 0.334017,-0.137735l0.431822 -0.429588c0.0895418,-0.0891517 0.13887,-0.207737 0.13887,-0.333876 0,-0.12621 -0.0493278,-0.244724 -0.138905,-0.333982l-0.431822 -0.429588c-0.0892935,-0.0887971 -0.207914,-0.137735 -0.334017,-0.137735 -0.126103,0 -0.244759,0.0489377 -0.334053,0.137735l-0.431786 0.429588c-0.0895772,0.0891517 -0.138905,0.207737 -0.138905,0.333946 0,0.126174 0.0493278,0.244759 0.138905,0.333911l0.431822 0.429659z"/>
   <path id="_137369696" class="fil1" d="M12.9344 6.48683l0.329904 0.328166 -0.329904 0.328273 -0.329904 -0.328273 0.329904 -0.328166zm-0.299442 0.974995c0.0800734,0.0796124 0.186424,0.123479 0.299513,0.123479 0.113089,0 0.219475,-0.0439021 0.299513,-0.123514l0.348911 -0.347138c0.0803925,-0.079967 0.124649,-0.186389 0.124685,-0.299619 0,-0.11323 -0.0442567,-0.219652 -0.124649,-0.299655l-0.348947 -0.347067c-0.0800734,-0.0796833 -0.186424,-0.123585 -0.299548,-0.123585 -0.113089,0 -0.219475,0.0439021 -0.299513,0.12355l-0.348982 0.347103c-0.0803925,0.0800025 -0.124649,0.186424 -0.124649,0.299655 0,0.113266 0.0442921,0.219652 0.124614,0.299548l0.349053 0.347245z"/>
   <path id="_137369768" class="fil1" d="M22.0184 7.14167l0.329904 0.328237 -0.329904 0.328237 -0.329868 -0.328237 0.329868 -0.328237zm-0.299442 0.97503c0.0800734,0.0796478 0.18646,0.123444 0.299477,0.123444 0.113124,0 0.219475,-0.0439021 0.299513,-0.123514l0.348911 -0.347138c0.0803925,-0.0799315 0.124649,-0.186353 0.124685,-0.299584 0,-0.113266 -0.0442567,-0.219652 -0.124685,-0.299655l-0.348911 -0.347103c-0.0800734,-0.0796478 -0.18646,-0.12355 -0.299584,-0.12355 -0.113053,0 -0.219439,0.0439021 -0.299477,0.12355l-0.348982 0.347103c-0.0803925,0.0800025 -0.124649,0.186389 -0.124649,0.299655 3.54621e-005,0.11323 0.0442921,0.219652 0.124614,0.299548l0.349089 0.347245z"/>
  </g>
 </g>
</svg>
