<?xml version="1.0" encoding="UTF-8"?>
<!DOCTYPE svg PUBLIC "-//W3C//DTD SVG 1.1//EN" "http://www.w3.org/Graphics/SVG/1.1/DTD/svg11.dtd">
<!-- Creator: CorelDRAW -->
<svg xmlns="http://www.w3.org/2000/svg" xml:space="preserve" width="512px" height="512px" style="shape-rendering:geometricPrecision; text-rendering:geometricPrecision; image-rendering:optimizeQuality; fill-rule:evenodd; clip-rule:evenodd"
viewBox="0 0 32.6517 32.6517"
 xmlns:xlink="http://www.w3.org/1999/xlink">
 <defs>
  <style type="text/css">
   <![CDATA[
    .fil0 {fill:#43AC3E}
    .fil1 {fill:white;fill-rule:nonzero}
   ]]>
  </style>
 </defs>
 <g id="Vrstva_x0020_1">
  <metadata id="CorelCorpID_0Corel-Layer"/>
  <rect class="fil0" width="32.6517" height="32.6517"/>
  <g id="_137414416">
   <path id="_137414464" class="fil1" d="M8.3049 12.6505l-1.67005 0c-0.184899,0 -0.334266,0.149685 -0.334266,0.33423 0,0.184296 0.149366,0.334017 0.334266,0.334017l1.67005 0c0.184935,0 0.33423,-0.149721 0.33423,-0.334017 0,-0.184545 -0.149295,-0.33423 -0.33423,-0.33423z"/>
   <path id="_137414536" class="fil1" d="M22.47 8.16323c0.0755342,0 0.151671,-0.0256391 0.214156,-0.0782294l1.27986 -1.07422c0.141529,-0.118763 0.160005,-0.329301 0.0414906,-0.470972 -0.118372,-0.140749 -0.328911,-0.160076 -0.470795,-0.0411006l-1.28 1.07443c-0.141316,0.11855 -0.159686,0.329088 -0.0411006,0.470759 0.0659949,0.0786194 0.160785,0.11933 0.256391,0.11933z"/>
   <path id="_137414608" class="fil1" d="M8.90286 9.9274l-1.56969 -0.571152c-0.17302,-0.0631225 -0.365224,0.0267739 -0.428134,0.199793 -0.0632998,0.173445 0.026171,0.365437 0.199652,0.428524l1.56945 0.571188c0.037909,0.0135465 0.0767399,0.0198588 0.114365,0.0198588 0.136316,0 0.264654,-0.0841515 0.314194,-0.2199 0.063087,-0.17341 -0.0262065,-0.365224 -0.199829,-0.428311z"/>
   <path id="_137414680" class="fil1" d="M25.7461 9.55508c-0.062697,-0.173055 -0.254901,-0.262916 -0.427921,-0.199439l-1.57008 0.571365c-0.173622,0.0632998 -0.262916,0.255079 -0.199829,0.428524 0.0495051,0.135536 0.177452,0.2199 0.314194,0.2199 0.0376253,0 0.0764563,-0.00631225 0.11394,-0.0204971l1.57026 -0.57133c0.173445,-0.0632998 0.262951,-0.255079 0.199439,-0.428524z"/>
   <path id="_137414752" class="fil1" d="M8.68697 7.01135l1.27922 1.07365c0.0625551,0.0527676 0.138657,0.0782294 0.214191,0.0782294 0.0959959,0 0.190431,-0.0403204 0.256426,-0.11933 0.11855,-0.141281 0.10018,-0.352032 -0.041136,-0.470759l-1.27926 -1.07372c-0.141671,-0.118692 -0.352599,-0.099613 -0.470546,0.041136 -0.118975,0.141706 -0.100216,0.352245 0.0411006,0.470795z"/>
   <path id="_137414824" class="fil1" d="M16.3259 19.6676c0.184687,0 0.334053,-0.149721 0.334053,-0.334266l0 -2.19879 1.10922 -1.08705c0.0504625,-0.0510654 1.23011,-1.26624 1.23011,-2.89598 0.000602855,-1.63243 -1.20635,-2.84948 -1.25727,-2.89956l-1.17997 -1.18004c-0.130607,-0.130607 -0.34189,-0.130607 -0.472461,0l-1.16131 1.16089c-0.0518101,0.0518456 -1.27543,1.28628 -1.27575,2.91814 -0.000780166,1.63473 1.22912,2.84878 1.27557,2.89424l1.06358 1.08535 0 2.2028c0,0.184545 0.149295,0.334266 0.33423,0.334266zm-0.926447 -4.09601c-0.0105322,-0.0107095 -1.07925,-1.06528 -1.07865,-2.42046 0.000390083,-1.3494 1.06833,-2.43376 1.07975,-2.44469l0.925348 -0.925667 0.944036 0.944426c0.0107095,0.0103549 1.06159,1.07691 1.06106,2.42593 0,1.35118 -1.02758,2.41678 -1.03372,2.42291l-0.637325 0.624913 0 -4.88579c0,-0.184296 -0.149366,-0.334053 -0.334053,-0.334053 -0.184935,0 -0.33423,0.149756 -0.33423,0.334053l0 4.86263 -0.592217 -0.604203z"/>
   <path id="_137414896" class="fil1" d="M26.0169 12.6499l-1.6708 0c-0.18497,0 -0.334301,0.149756 -0.334301,0.334053 0,0.184545 0.149331,0.33423 0.334301,0.33423l1.6708 0c0.184757,0 0.334301,-0.149685 0.334301,-0.33423 0,-0.184296 -0.149544,-0.334053 -0.334301,-0.334053z"/>
   <path id="_137414968" class="fil1" d="M16.3259 6.30058c-3.68533,0 -6.68357,2.99828 -6.68357,6.68357 0,2.82044 1.10613,4.92441 3.48184,6.62127 0.0112769,0.00801443 0.0281214,0.0179793 0.0403559,0.0246816 0.0173764,0.00932653 0.377281,0.210148 0.467319,0.773605 -0.377246,0.144012 -0.647644,0.507356 -0.647644,0.93471 0,0.256568 0.0967406,0.491008 0.255859,0.66846 -0.159118,0.17731 -0.255859,0.411715 -0.255859,0.668318 0,0.256604 0.0967406,0.490866 0.255859,0.668318 -0.159118,0.177452 -0.255859,0.411644 -0.255859,0.668283 0,0.552783 0.44973,1.00255 1.00237,1.00255 0.184864,0 0.33423,-0.149721 0.33423,-0.334053 0,-0.184545 -0.149366,-0.33423 -0.33423,-0.33423 -0.184367,0 -0.334053,-0.149934 -0.334053,-0.334088 0,-0.184084 0.149685,-0.334266 0.334053,-0.334266l3.34184 0c0.184757,0 0.334053,-0.14965 0.334053,-0.334017 0,-0.184509 -0.149295,-0.33423 -0.334053,-0.33423l-3.34184 0c-0.184367,0 -0.334053,-0.150111 -0.334053,-0.334266 0,-0.184119 0.149685,-0.334017 0.334053,-0.334017l3.34184 0c0.184757,0 0.334053,-0.149756 0.334053,-0.334301 0,-0.184332 -0.149295,-0.334053 -0.334053,-0.334053l-3.34184 0c-0.184367,0 -0.334053,-0.150076 -0.334053,-0.33423 0,-0.184155 0.149685,-0.334053 0.334053,-0.334053l3.34184 0c0.184757,0 0.334053,-0.149721 0.334053,-0.33423 0,-0.184545 -0.149295,-0.334053 -0.334053,-0.334053l-3.03038 0c-0.11816,-0.841551 -0.663531,-1.20621 -0.800273,-1.28497 -2.20432,-1.57966 -3.18698,-3.45145 -3.18698,-6.06692 0,-3.31688 2.69845,-6.01529 6.01511,-6.01529 3.31666,0 6.01511,2.69842 6.01511,6.01529 0,2.61547 -0.982867,4.48727 -3.18705,6.06692 -0.153693,0.0885134 -0.822969,0.538066 -0.822969,1.61902 0,0.184509 0.149295,0.33423 0.334053,0.33423 0.184474,0 0.33423,0.149898 0.33423,0.334053 0,0.184155 -0.149756,0.33423 -0.33423,0.33423 -0.184757,0 -0.334053,0.149721 -0.334053,0.334053 0,0.184545 0.149295,0.334301 0.334053,0.334301 0.184474,0 0.33423,0.149898 0.33423,0.334017 0,0.184155 -0.149756,0.334266 -0.33423,0.334266 -0.184757,0 -0.334053,0.149721 -0.334053,0.33423 0,0.184367 0.149295,0.334017 0.334053,0.334017 0.184474,0 0.33423,0.150182 0.33423,0.334266 0,0.190467 -0.143763,0.334088 -0.33423,0.334088l-3.34173 0c-0.184899,0 -0.33423,0.149685 -0.33423,0.33423l0 0.668318c0,0.552606 0.449943,1.00255 1.00258,1.00255l0.66846 0c0.552641,0 1.00234,-0.449943 1.00234,-1.00255l0 -0.334266 1.00258 0c0.562535,0 1.00251,-0.440368 1.00251,-1.00255 0,-0.256639 -0.0969179,-0.490831 -0.256001,-0.668283 0.159083,-0.177452 0.256001,-0.411715 0.256001,-0.668318 0,-0.256781 -0.0969179,-0.491008 -0.256001,-0.66846 0.159083,-0.177452 0.256001,-0.41175 0.256001,-0.668318 0,-0.427354 -0.270363,-0.790698 -0.647644,-0.93471 0.0898964,-0.563457 0.449198,-0.763889 0.462957,-0.771513 0.0156742,-0.00769527 0.0307811,-0.0168445 0.0447531,-0.0267739 2.37525,-1.69704 3.48167,-3.80104 3.48167,-6.62144 0,-3.68511 -2.99807,-6.6834 -6.6834,-6.6834zm0.668283 19.048c0,0.184119 -0.149685,0.334017 -0.334053,0.334017l-0.66846 0c-0.184367,0 -0.334124,-0.149898 -0.334124,-0.334017l0 -0.334266 1.33664 0 0 0.334266z"/>
  </g>
 </g>
</svg>
